<svg width="364" height="127" viewBox="0 0 364 127" fill="none" xmlns="http://www.w3.org/2000/svg">
<path d="M233.223 57.5455V67H231.791V58.9766H231.736L229.474 60.4538V59.0874L231.833 57.5455H233.223ZM239.072 67.157C238.342 67.1539 237.719 66.9615 237.202 66.5799C236.685 66.1983 236.289 65.6428 236.015 64.9134C235.742 64.1839 235.605 63.3053 235.605 62.2773C235.605 61.2525 235.742 60.3769 236.015 59.6506C236.292 58.9242 236.689 58.3703 237.207 57.9886C237.727 57.607 238.348 57.4162 239.072 57.4162C239.795 57.4162 240.415 57.6085 240.932 57.9933C241.449 58.3749 241.845 58.9289 242.118 59.6552C242.395 60.3784 242.534 61.2525 242.534 62.2773C242.534 63.3084 242.397 64.1886 242.123 64.918C241.849 65.6443 241.454 66.1998 240.937 66.5845C240.42 66.9661 239.798 67.157 239.072 67.157ZM239.072 65.9244C239.712 65.9244 240.212 65.612 240.572 64.9872C240.935 64.3625 241.117 63.4592 241.117 62.2773C241.117 61.4925 241.034 60.8293 240.867 60.2876C240.704 59.7429 240.469 59.3305 240.161 59.0504C239.856 58.7673 239.493 58.6257 239.072 58.6257C238.435 58.6257 237.934 58.9396 237.571 59.5675C237.208 60.1953 237.025 61.0986 237.022 62.2773C237.022 63.0652 237.103 63.7315 237.267 64.2763C237.433 64.8179 237.668 65.2288 237.973 65.5089C238.278 65.7859 238.644 65.9244 239.072 65.9244ZM247.463 67.157C246.734 67.1539 246.111 66.9615 245.594 66.5799C245.076 66.1983 244.681 65.6428 244.407 64.9134C244.133 64.1839 243.996 63.3053 243.996 62.2773C243.996 61.2525 244.133 60.3769 244.407 59.6506C244.684 58.9242 245.081 58.3703 245.598 57.9886C246.118 57.607 246.74 57.4162 247.463 57.4162C248.186 57.4162 248.807 57.6085 249.324 57.9933C249.841 58.3749 250.236 58.9289 250.51 59.6552C250.787 60.3784 250.926 61.2525 250.926 62.2773C250.926 63.3084 250.789 64.1886 250.515 64.918C250.241 65.6443 249.845 66.1998 249.328 66.5845C248.811 66.9661 248.19 67.157 247.463 67.157ZM247.463 65.9244C248.103 65.9244 248.603 65.612 248.964 64.9872C249.327 64.3625 249.508 63.4592 249.508 62.2773C249.508 61.4925 249.425 60.8293 249.259 60.2876C249.096 59.7429 248.86 59.3305 248.553 59.0504C248.248 58.7673 247.885 58.6257 247.463 58.6257C246.826 58.6257 246.326 58.9396 245.963 59.5675C245.6 60.1953 245.417 61.0986 245.413 62.2773C245.413 63.0652 245.495 63.7315 245.658 64.2763C245.824 64.8179 246.06 65.2288 246.364 65.5089C246.669 65.7859 247.035 65.9244 247.463 65.9244ZM252.582 67V59.9091H253.907V61.0632H253.994C254.142 60.6723 254.384 60.3677 254.719 60.1491C255.055 59.9276 255.456 59.8168 255.924 59.8168C256.398 59.8168 256.795 59.9276 257.115 60.1491C257.438 60.3707 257.677 60.6754 257.831 61.0632H257.905C258.074 60.6847 258.343 60.383 258.712 60.1584C259.082 59.9306 259.522 59.8168 260.033 59.8168C260.676 59.8168 261.201 60.0183 261.607 60.4215C262.016 60.8247 262.221 61.4325 262.221 62.245V67H260.841V62.3743C260.841 61.8942 260.71 61.5464 260.448 61.331C260.187 61.1155 259.874 61.0078 259.511 61.0078C259.062 61.0078 258.712 61.1463 258.463 61.4233C258.214 61.6972 258.089 62.0496 258.089 62.4805V67H256.713V62.2866C256.713 61.9019 256.593 61.5926 256.353 61.3587C256.113 61.1248 255.801 61.0078 255.416 61.0078C255.155 61.0078 254.913 61.0771 254.691 61.2156C254.473 61.351 254.296 61.5402 254.161 61.7834C254.028 62.0265 253.962 62.3081 253.962 62.6282V67H252.582ZM264.182 67V57.5455H265.562V61.0586H265.645C265.725 60.9109 265.841 60.7401 265.991 60.5462C266.142 60.3523 266.352 60.183 266.619 60.0384C266.887 59.8906 267.241 59.8168 267.681 59.8168C268.254 59.8168 268.764 59.9614 269.214 60.2507C269.663 60.54 270.015 60.957 270.271 61.5018C270.529 62.0465 270.659 62.7021 270.659 63.4684C270.659 64.2347 270.531 64.8918 270.276 65.4396C270.02 65.9844 269.669 66.4045 269.223 66.6999C268.777 66.9923 268.267 67.1385 267.695 67.1385C267.264 67.1385 266.912 67.0662 266.638 66.9215C266.367 66.7769 266.155 66.6076 266.001 66.4137C265.847 66.2198 265.728 66.0475 265.645 65.8967H265.53V67H264.182ZM265.534 63.4545C265.534 63.9531 265.607 64.3902 265.751 64.7656C265.896 65.1411 266.105 65.435 266.379 65.6474C266.653 65.8567 266.989 65.9613 267.386 65.9613C267.798 65.9613 268.143 65.852 268.42 65.6335C268.697 65.4119 268.906 65.1119 269.048 64.7333C269.192 64.3548 269.265 63.9285 269.265 63.4545C269.265 62.9867 269.194 62.5666 269.052 62.1942C268.914 61.8219 268.704 61.5279 268.424 61.3125C268.147 61.0971 267.801 60.9893 267.386 60.9893C266.986 60.9893 266.647 61.0924 266.37 61.2987C266.096 61.5049 265.888 61.7926 265.747 62.1619C265.605 62.5312 265.534 62.9621 265.534 63.4545Z" fill="black"/>
<line y1="-0.5" x2="193.484" y2="-0.5" transform="matrix(0.999974 0.0072339 -0.00793331 0.999969 0 61.7958)" stroke="black"/>
<path d="M232.927 95.1293C232.293 95.1293 231.727 95.02 231.228 94.8015C230.733 94.583 230.34 94.2798 230.051 93.892C229.765 93.5012 229.611 93.0488 229.589 92.5348H231.039C231.057 92.8149 231.151 93.058 231.321 93.2642C231.493 93.4673 231.718 93.6243 231.995 93.7351C232.272 93.8459 232.579 93.9013 232.918 93.9013C233.29 93.9013 233.62 93.8366 233.906 93.7074C234.195 93.5781 234.421 93.3981 234.584 93.1673C234.747 92.9334 234.829 92.6641 234.829 92.3594C234.829 92.0424 234.747 91.7638 234.584 91.5238C234.424 91.2807 234.189 91.0898 233.878 90.9513C233.57 90.8129 233.198 90.7436 232.761 90.7436H231.962V89.5803H232.761C233.112 89.5803 233.419 89.5172 233.684 89.391C233.952 89.2648 234.161 89.0894 234.312 88.8647C234.463 88.637 234.538 88.3707 234.538 88.0661C234.538 87.7737 234.472 87.5198 234.34 87.3043C234.21 87.0858 234.026 86.915 233.786 86.7919C233.549 86.6688 233.269 86.6072 232.946 86.6072C232.638 86.6072 232.35 86.6642 232.082 86.7781C231.818 86.8888 231.602 87.0489 231.436 87.2582C231.27 87.4644 231.181 87.7121 231.168 88.0014H229.788C229.803 87.4905 229.954 87.0412 230.24 86.6534C230.53 86.2656 230.911 85.9625 231.385 85.744C231.859 85.5254 232.385 85.4162 232.964 85.4162C233.57 85.4162 234.093 85.5347 234.534 85.7717C234.977 86.0056 235.318 86.3179 235.558 86.7088C235.802 87.0997 235.922 87.5275 235.919 87.9922C235.922 88.5215 235.774 88.9709 235.475 89.3402C235.18 89.7095 234.786 89.9573 234.294 90.0835V90.1573C234.921 90.2527 235.408 90.502 235.752 90.9052C236.1 91.3084 236.272 91.8085 236.269 92.4055C236.272 92.9257 236.128 93.3919 235.835 93.8043C235.546 94.2167 235.151 94.5414 234.649 94.7784C234.147 95.0123 233.573 95.1293 232.927 95.1293ZM241.306 95.157C240.577 95.1539 239.953 94.9615 239.436 94.5799C238.919 94.1983 238.524 93.6428 238.25 92.9134C237.976 92.1839 237.839 91.3053 237.839 90.2773C237.839 89.2525 237.976 88.3769 238.25 87.6506C238.527 86.9242 238.924 86.3703 239.441 85.9886C239.961 85.607 240.583 85.4162 241.306 85.4162C242.029 85.4162 242.649 85.6085 243.166 85.9933C243.683 86.3749 244.079 86.9289 244.353 87.6552C244.63 88.3784 244.768 89.2525 244.768 90.2773C244.768 91.3084 244.631 92.1886 244.357 92.918C244.084 93.6443 243.688 94.1998 243.171 94.5845C242.654 94.9661 242.032 95.157 241.306 95.157ZM241.306 93.9244C241.946 93.9244 242.446 93.612 242.806 92.9872C243.169 92.3625 243.351 91.4592 243.351 90.2773C243.351 89.4925 243.268 88.8293 243.102 88.2876C242.939 87.7429 242.703 87.3305 242.395 87.0504C242.091 86.7673 241.728 86.6257 241.306 86.6257C240.669 86.6257 240.169 86.9396 239.806 87.5675C239.442 88.1953 239.259 89.0986 239.256 90.2773C239.256 91.0652 239.338 91.7315 239.501 92.2763C239.667 92.8179 239.903 93.2288 240.207 93.5089C240.512 93.7859 240.878 93.9244 241.306 93.9244ZM249.698 95.157C248.968 95.1539 248.345 94.9615 247.828 94.5799C247.311 94.1983 246.915 93.6428 246.641 92.9134C246.368 92.1839 246.231 91.3053 246.231 90.2773C246.231 89.2525 246.368 88.3769 246.641 87.6506C246.918 86.9242 247.315 86.3703 247.833 85.9886C248.353 85.607 248.974 85.4162 249.698 85.4162C250.421 85.4162 251.041 85.6085 251.558 85.9933C252.075 86.3749 252.471 86.9289 252.744 87.6552C253.021 88.3784 253.16 89.2525 253.16 90.2773C253.16 91.3084 253.023 92.1886 252.749 92.918C252.475 93.6443 252.08 94.1998 251.563 94.5845C251.046 94.9661 250.424 95.157 249.698 95.157ZM249.698 93.9244C250.338 93.9244 250.838 93.612 251.198 92.9872C251.561 92.3625 251.743 91.4592 251.743 90.2773C251.743 89.4925 251.66 88.8293 251.493 88.2876C251.33 87.7429 251.095 87.3305 250.787 87.0504C250.482 86.7673 250.119 86.6257 249.698 86.6257C249.061 86.6257 248.56 86.9396 248.197 87.5675C247.834 88.1953 247.651 89.0986 247.648 90.2773C247.648 91.0652 247.729 91.7315 247.893 92.2763C248.059 92.8179 248.294 93.2288 248.599 93.5089C248.904 93.7859 249.27 93.9244 249.698 93.9244ZM254.816 95V87.9091H256.141V89.0632H256.229C256.376 88.6723 256.618 88.3677 256.954 88.1491C257.289 87.9276 257.691 87.8168 258.158 87.8168C258.632 87.8168 259.029 87.9276 259.349 88.1491C259.673 88.3707 259.911 88.6754 260.065 89.0632H260.139C260.308 88.6847 260.577 88.383 260.947 88.1584C261.316 87.9306 261.756 87.8168 262.267 87.8168C262.91 87.8168 263.435 88.0183 263.841 88.4215C264.251 88.8247 264.455 89.4325 264.455 90.245V95H263.075V90.3743C263.075 89.8942 262.944 89.5464 262.683 89.331C262.421 89.1155 262.109 89.0078 261.745 89.0078C261.296 89.0078 260.947 89.1463 260.697 89.4233C260.448 89.6972 260.324 90.0496 260.324 90.4805V95H258.948V90.2866C258.948 89.9019 258.828 89.5926 258.588 89.3587C258.348 89.1248 258.035 89.0078 257.651 89.0078C257.389 89.0078 257.147 89.0771 256.926 89.2156C256.707 89.351 256.53 89.5402 256.395 89.7834C256.263 90.0265 256.196 90.3081 256.196 90.6282V95H254.816ZM266.416 95V85.5455H267.796V89.0586H267.88C267.96 88.9109 268.075 88.7401 268.226 88.5462C268.377 88.3523 268.586 88.183 268.854 88.0384C269.121 87.8906 269.475 87.8168 269.915 87.8168C270.488 87.8168 270.999 87.9614 271.448 88.2507C271.897 88.54 272.25 88.957 272.505 89.5018C272.764 90.0465 272.893 90.7021 272.893 91.4684C272.893 92.2347 272.765 92.8918 272.51 93.4396C272.254 93.9844 271.904 94.4045 271.457 94.6999C271.011 94.9923 270.502 95.1385 269.929 95.1385C269.498 95.1385 269.146 95.0662 268.872 94.9215C268.601 94.7769 268.389 94.6076 268.235 94.4137C268.081 94.2198 267.963 94.0475 267.88 93.8967H267.764V95H266.416ZM267.769 91.4545C267.769 91.9531 267.841 92.3902 267.986 92.7656C268.13 93.1411 268.34 93.435 268.614 93.6474C268.888 93.8567 269.223 93.9613 269.62 93.9613C270.032 93.9613 270.377 93.852 270.654 93.6335C270.931 93.4119 271.14 93.1119 271.282 92.7333C271.427 92.3548 271.499 91.9285 271.499 91.4545C271.499 90.9867 271.428 90.5666 271.287 90.1942C271.148 89.8219 270.939 89.5279 270.659 89.3125C270.382 89.0971 270.035 88.9893 269.62 88.9893C269.22 88.9893 268.881 89.0924 268.604 89.2987C268.33 89.5049 268.123 89.7926 267.981 90.1619C267.84 90.5312 267.769 90.9621 267.769 91.4545Z" fill="black"/>
<path d="M66.8549 6.57457C66.7662 6.28693 66.6436 6.02947 66.4874 5.8022C66.3347 5.57138 66.15 5.37429 65.9334 5.21094C65.7203 5.04759 65.4753 4.92507 65.1983 4.84339C64.9213 4.75817 64.6195 4.71555 64.2928 4.71555C63.7069 4.71555 63.1848 4.86293 62.7267 5.15767C62.2686 5.45241 61.9082 5.88565 61.6454 6.45739C61.3862 7.02557 61.2566 7.71804 61.2566 8.5348C61.2566 9.35866 61.3862 10.0565 61.6454 10.6282C61.9047 11.1999 62.2651 11.6349 62.7267 11.9332C63.1884 12.228 63.7246 12.3754 64.3354 12.3754C64.8894 12.3754 65.3688 12.2688 65.7736 12.0558C66.182 11.8427 66.4963 11.5408 66.7164 11.1502C66.9366 10.756 67.0467 10.2944 67.0467 9.76527L67.4941 9.83452H64.5325V8.28977H68.959V9.60014C68.959 10.5341 68.7601 11.342 68.3624 12.0238C67.9647 12.7056 67.4178 13.2312 66.7218 13.6005C66.0257 13.9663 65.2267 14.1491 64.3248 14.1491C63.3198 14.1491 62.4373 13.9237 61.6774 13.4727C60.921 13.0181 60.3297 12.3736 59.9036 11.5391C59.481 10.701 59.2697 9.70668 59.2697 8.55611C59.2697 7.67543 59.394 6.88885 59.6426 6.19638C59.8947 5.50391 60.2463 4.91619 60.6973 4.43324C61.1483 3.94673 61.6774 3.57741 62.2846 3.32528C62.8919 3.0696 63.5524 2.94176 64.2662 2.94176C64.8699 2.94176 65.4327 3.03054 65.9547 3.2081C66.4767 3.3821 66.9402 3.63068 67.345 3.95384C67.7534 4.27699 68.089 4.66051 68.3517 5.1044C68.6145 5.5483 68.7868 6.03835 68.8684 6.57457H66.8549ZM70.7847 14V5.81818H72.6544V7.18182H72.7396C72.8888 6.70952 73.1444 6.34553 73.5067 6.08984C73.8724 5.83061 74.2897 5.70099 74.7584 5.70099C74.865 5.70099 74.9839 5.70632 75.1153 5.71697C75.2503 5.72408 75.3621 5.73651 75.4509 5.75426V7.52805C75.3692 7.49964 75.2396 7.47479 75.0621 7.45348C74.8881 7.42862 74.7194 7.41619 74.556 7.41619C74.2045 7.41619 73.8884 7.49254 73.6079 7.64524C73.3309 7.79439 73.1125 8.00213 72.9527 8.26847C72.7929 8.5348 72.713 8.84197 72.713 9.18999V14H70.7847ZM79.964 14.1598C79.165 14.1598 78.4725 13.984 77.8865 13.6325C77.3006 13.2809 76.8461 12.7891 76.5229 12.157C76.2033 11.5249 76.0435 10.7862 76.0435 9.94105C76.0435 9.09588 76.2033 8.35547 76.5229 7.71982C76.8461 7.08416 77.3006 6.59055 77.8865 6.23899C78.4725 5.88743 79.165 5.71165 79.964 5.71165C80.763 5.71165 81.4554 5.88743 82.0414 6.23899C82.6273 6.59055 83.0801 7.08416 83.3997 7.71982C83.7228 8.35547 83.8844 9.09588 83.8844 9.94105C83.8844 10.7862 83.7228 11.5249 83.3997 12.157C83.0801 12.7891 82.6273 13.2809 82.0414 13.6325C81.4554 13.984 80.763 14.1598 79.964 14.1598ZM79.9746 12.6151C80.4078 12.6151 80.7701 12.4961 81.0613 12.2582C81.3525 12.0167 81.5691 11.6935 81.7111 11.2887C81.8567 10.8839 81.9295 10.4329 81.9295 9.93572C81.9295 9.43501 81.8567 8.98224 81.7111 8.57741C81.5691 8.16903 81.3525 7.84411 81.0613 7.60263C80.7701 7.36115 80.4078 7.24041 79.9746 7.24041C79.5307 7.24041 79.1614 7.36115 78.8667 7.60263C78.5755 7.84411 78.3571 8.16903 78.2115 8.57741C78.0694 8.98224 77.9984 9.43501 77.9984 9.93572C77.9984 10.4329 78.0694 10.8839 78.2115 11.2887C78.3571 11.6935 78.5755 12.0167 78.8667 12.2582C79.1614 12.4961 79.5307 12.6151 79.9746 12.6151ZM91.9877 7.98082L90.2298 8.17258C90.1801 7.99503 90.0931 7.82812 89.9688 7.67188C89.8481 7.51562 89.6847 7.38956 89.4788 7.29368C89.2728 7.1978 89.0207 7.14986 88.7224 7.14986C88.3211 7.14986 87.9838 7.23686 87.7103 7.41087C87.4404 7.58487 87.3073 7.81037 87.3108 8.08736C87.3073 8.32528 87.3943 8.51882 87.5718 8.66797C87.7529 8.81712 88.0512 8.93963 88.4667 9.03551L89.8623 9.33381C90.6365 9.50071 91.2117 9.76527 91.5882 10.1275C91.9681 10.4897 92.1599 10.9638 92.1634 11.5497C92.1599 12.0646 92.009 12.5192 91.7107 12.9134C91.4159 13.304 91.0058 13.6094 90.4802 13.8295C89.9546 14.0497 89.3509 14.1598 88.6691 14.1598C87.6677 14.1598 86.8616 13.9503 86.2508 13.5312C85.64 13.1087 85.276 12.521 85.1588 11.7681L87.0392 11.587C87.1244 11.9563 87.3055 12.2351 87.5825 12.4233C87.8595 12.6115 88.2199 12.7056 88.6638 12.7056C89.1219 12.7056 89.4894 12.6115 89.7664 12.4233C90.047 12.2351 90.1872 12.0025 90.1872 11.7255C90.1872 11.4911 90.0967 11.2976 89.9156 11.1449C89.738 10.9922 89.461 10.875 89.0846 10.7933L87.689 10.5004C86.9042 10.337 86.3236 10.0618 85.9472 9.67472C85.5708 9.28409 85.3843 8.79048 85.3879 8.19389C85.3843 7.68963 85.521 7.25284 85.798 6.88352C86.0786 6.51065 86.4674 6.22301 86.9646 6.0206C87.4653 5.81463 88.0423 5.71165 88.6958 5.71165C89.6546 5.71165 90.4092 5.91584 90.9596 6.32422C91.5136 6.7326 91.8563 7.2848 91.9877 7.98082ZM97.3224 14.1598C96.5233 14.1598 95.8309 13.984 95.2449 13.6325C94.659 13.2809 94.2045 12.7891 93.8813 12.157C93.5617 11.5249 93.4019 10.7862 93.4019 9.94105C93.4019 9.09588 93.5617 8.35547 93.8813 7.71982C94.2045 7.08416 94.659 6.59055 95.2449 6.23899C95.8309 5.88743 96.5233 5.71165 97.3224 5.71165C98.1214 5.71165 98.8138 5.88743 99.3998 6.23899C99.9857 6.59055 100.438 7.08416 100.758 7.71982C101.081 8.35547 101.243 9.09588 101.243 9.94105C101.243 10.7862 101.081 11.5249 100.758 12.157C100.438 12.7891 99.9857 13.2809 99.3998 13.6325C98.8138 13.984 98.1214 14.1598 97.3224 14.1598ZM97.333 12.6151C97.7662 12.6151 98.1285 12.4961 98.4197 12.2582C98.7108 12.0167 98.9275 11.6935 99.0695 11.2887C99.2151 10.8839 99.2879 10.4329 99.2879 9.93572C99.2879 9.43501 99.2151 8.98224 99.0695 8.57741C98.9275 8.16903 98.7108 7.84411 98.4197 7.60263C98.1285 7.36115 97.7662 7.24041 97.333 7.24041C96.8891 7.24041 96.5198 7.36115 96.2251 7.60263C95.9339 7.84411 95.7155 8.16903 95.5699 8.57741C95.4278 8.98224 95.3568 9.43501 95.3568 9.93572C95.3568 10.4329 95.4278 10.8839 95.5699 11.2887C95.7155 11.6935 95.9339 12.0167 96.2251 12.2582C96.5198 12.4961 96.8891 12.6151 97.333 12.6151ZM102.879 14V5.81818H104.749V7.18182H104.834C104.983 6.70952 105.239 6.34553 105.601 6.08984C105.967 5.83061 106.384 5.70099 106.853 5.70099C106.96 5.70099 107.079 5.70632 107.21 5.71697C107.345 5.72408 107.457 5.73651 107.546 5.75426V7.52805C107.464 7.49964 107.334 7.47479 107.157 7.45348C106.983 7.42862 106.814 7.41619 106.651 7.41619C106.299 7.41619 105.983 7.49254 105.703 7.64524C105.426 7.79439 105.207 8.00213 105.047 8.26847C104.888 8.5348 104.808 8.84197 104.808 9.18999V14H102.879ZM113.027 8.54545C113.027 7.21378 113.203 5.99041 113.554 4.87535C113.909 3.75675 114.437 2.72337 115.136 1.77521H116.953C116.683 2.12678 116.431 2.55824 116.196 3.0696C115.962 3.57741 115.758 4.13494 115.584 4.74219C115.413 5.34588 115.278 5.97266 115.179 6.62251C115.083 7.27237 115.035 7.91335 115.035 8.54545C115.035 9.38707 115.118 10.2393 115.285 11.1023C115.456 11.9652 115.685 12.766 115.972 13.5046C116.264 14.2397 116.59 14.8416 116.953 15.3104H115.136C114.437 14.3622 113.909 13.3306 113.554 12.2156C113.203 11.0969 113.027 9.87358 113.027 8.54545ZM119.937 14H117.828L121.668 3.09091H124.108L127.954 14H125.844L122.93 5.32812H122.845L119.937 14ZM120.006 9.72266H125.759V11.31H120.006V9.72266ZM131.233 3.09091V14H129.305V3.09091H131.233ZM133.216 14V5.81818H135.059V7.20845H135.155C135.326 6.7397 135.608 6.37393 136.002 6.11115C136.396 5.84482 136.867 5.71165 137.414 5.71165C137.968 5.71165 138.435 5.84659 138.815 6.11648C139.198 6.38281 139.468 6.7468 139.624 7.20845H139.71C139.891 6.75391 140.196 6.39169 140.626 6.1218C141.059 5.84837 141.572 5.71165 142.165 5.71165C142.918 5.71165 143.532 5.94957 144.008 6.42543C144.484 6.90128 144.722 7.59553 144.722 8.50817V14H142.788V8.80646C142.788 8.29865 142.653 7.92756 142.384 7.69318C142.114 7.45526 141.783 7.33629 141.393 7.33629C140.928 7.33629 140.564 7.48189 140.301 7.77308C140.042 8.06072 139.912 8.43537 139.912 8.89702V14H138.021V8.72656C138.021 8.30398 137.893 7.96662 137.638 7.71449C137.385 7.46236 137.055 7.33629 136.647 7.33629C136.37 7.33629 136.118 7.40732 135.89 7.54936C135.663 7.68786 135.482 7.88494 135.347 8.14062C135.212 8.39276 135.145 8.6875 135.145 9.02486V14H133.216ZM149.033 14.1651C148.514 14.1651 148.047 14.0728 147.632 13.8881C147.22 13.6999 146.893 13.4229 146.652 13.0572C146.414 12.6914 146.295 12.2404 146.295 11.7042C146.295 11.2425 146.38 10.8608 146.55 10.5589C146.721 10.2571 146.953 10.0156 147.248 9.83452C147.543 9.65341 147.875 9.51669 148.244 9.42436C148.617 9.32848 149.002 9.25923 149.4 9.21662C149.88 9.1669 150.268 9.12251 150.567 9.08345C150.865 9.04084 151.082 8.97692 151.217 8.89169C151.355 8.80291 151.424 8.66619 151.424 8.48153V8.44957C151.424 8.0483 151.305 7.73757 151.067 7.5174C150.83 7.29723 150.487 7.18714 150.039 7.18714C149.567 7.18714 149.192 7.29013 148.915 7.49609C148.642 7.70206 148.457 7.94531 148.362 8.22585L146.561 7.97017C146.703 7.47301 146.938 7.05753 147.264 6.72372C147.591 6.38636 147.99 6.13423 148.463 5.96733C148.935 5.79688 149.457 5.71165 150.029 5.71165C150.423 5.71165 150.815 5.75781 151.206 5.85014C151.597 5.94247 151.953 6.09517 152.277 6.30824C152.6 6.51776 152.859 6.80362 153.054 7.16584C153.253 7.52805 153.353 7.98082 153.353 8.52415V14H151.499V12.8761H151.435C151.318 13.1033 151.153 13.3164 150.94 13.5153C150.73 13.7106 150.466 13.8686 150.146 13.9893C149.83 14.1065 149.459 14.1651 149.033 14.1651ZM149.533 12.7482C149.92 12.7482 150.256 12.6719 150.54 12.5192C150.824 12.3629 151.043 12.157 151.195 11.9013C151.352 11.6456 151.43 11.3668 151.43 11.065V10.1009C151.369 10.1506 151.266 10.1967 151.121 10.2393C150.979 10.282 150.819 10.3192 150.641 10.3512C150.464 10.3832 150.288 10.4116 150.114 10.4364C149.94 10.4613 149.789 10.4826 149.661 10.5004C149.374 10.5394 149.116 10.6033 148.889 10.6921C148.662 10.7809 148.482 10.9052 148.351 11.065C148.219 11.2212 148.154 11.4237 148.154 11.6722C148.154 12.0273 148.283 12.2955 148.543 12.4766C148.802 12.6577 149.132 12.7482 149.533 12.7482ZM158.86 14.1598C158.044 14.1598 157.342 13.9805 156.756 13.6218C156.174 13.2631 155.725 12.7678 155.409 12.1357C155.096 11.5 154.94 10.7685 154.94 9.94105C154.94 9.11009 155.1 8.37678 155.419 7.74112C155.739 7.10192 156.19 6.60476 156.772 6.24964C157.358 5.89098 158.051 5.71165 158.85 5.71165C159.514 5.71165 160.102 5.83416 160.613 6.07919C161.128 6.32067 161.538 6.66335 161.843 7.10724C162.149 7.54759 162.323 8.0625 162.365 8.65199H160.522C160.448 8.25781 160.27 7.92933 159.99 7.66655C159.713 7.40021 159.342 7.26705 158.876 7.26705C158.482 7.26705 158.136 7.37358 157.838 7.58665C157.539 7.79616 157.307 8.09801 157.14 8.49219C156.977 8.88636 156.895 9.35866 156.895 9.90909C156.895 10.4666 156.977 10.946 157.14 11.3473C157.303 11.745 157.532 12.0522 157.827 12.2688C158.125 12.4819 158.475 12.5884 158.876 12.5884C159.161 12.5884 159.414 12.5352 159.638 12.4286C159.865 12.3185 160.055 12.1605 160.208 11.9545C160.361 11.7486 160.466 11.4982 160.522 11.2035H162.365C162.319 11.7823 162.149 12.2955 161.854 12.7429C161.559 13.1868 161.158 13.5348 160.65 13.7869C160.142 14.0355 159.546 14.1598 158.86 14.1598ZM167.571 14.1598C166.751 14.1598 166.042 13.9893 165.446 13.6484C164.853 13.304 164.396 12.8175 164.077 12.1889C163.757 11.5568 163.597 10.8129 163.597 9.95703C163.597 9.11541 163.757 8.37678 164.077 7.74112C164.4 7.10192 164.851 6.60476 165.43 6.24964C166.008 5.89098 166.688 5.71165 167.47 5.71165C167.974 5.71165 168.45 5.79332 168.897 5.95668C169.348 6.11648 169.746 6.36506 170.09 6.70241C170.438 7.03977 170.712 7.46946 170.911 7.99148C171.11 8.50994 171.209 9.12784 171.209 9.84517V10.4364H164.503V9.13672H169.361C169.357 8.7674 169.277 8.43892 169.121 8.15128C168.965 7.86009 168.746 7.63104 168.466 7.46413C168.189 7.29723 167.866 7.21378 167.496 7.21378C167.102 7.21378 166.756 7.30966 166.458 7.50142C166.159 7.68963 165.927 7.93821 165.76 8.24716C165.597 8.55256 165.513 8.88814 165.509 9.25391V10.3885C165.509 10.8643 165.597 11.2727 165.771 11.6136C165.945 11.951 166.188 12.2102 166.5 12.3913C166.813 12.5689 167.179 12.6577 167.598 12.6577C167.878 12.6577 168.132 12.6186 168.359 12.5405C168.587 12.4588 168.784 12.3398 168.951 12.1836C169.117 12.0273 169.244 11.8338 169.329 11.603L171.129 11.8054C171.016 12.2812 170.799 12.6967 170.479 13.0518C170.163 13.4034 169.758 13.6768 169.265 13.8722C168.771 14.0639 168.207 14.1598 167.571 14.1598ZM174.769 9.20597V14H172.84V5.81818H174.683V7.20845H174.779C174.968 6.75035 175.268 6.38636 175.68 6.11648C176.095 5.84659 176.608 5.71165 177.219 5.71165C177.784 5.71165 178.275 5.83239 178.694 6.07386C179.117 6.31534 179.444 6.66513 179.675 7.12322C179.909 7.58132 180.024 8.13707 180.021 8.79048V14H178.093V9.08878C178.093 8.5419 177.95 8.11399 177.666 7.80504C177.386 7.49609 176.997 7.34162 176.5 7.34162C176.162 7.34162 175.862 7.41619 175.6 7.56534C175.34 7.71094 175.136 7.92223 174.987 8.19922C174.841 8.47621 174.769 8.81179 174.769 9.20597ZM184.335 14.1651C183.817 14.1651 183.35 14.0728 182.934 13.8881C182.523 13.6999 182.196 13.4229 181.954 13.0572C181.716 12.6914 181.597 12.2404 181.597 11.7042C181.597 11.2425 181.683 10.8608 181.853 10.5589C182.024 10.2571 182.256 10.0156 182.551 9.83452C182.846 9.65341 183.178 9.51669 183.547 9.42436C183.92 9.32848 184.305 9.25923 184.703 9.21662C185.182 9.1669 185.571 9.12251 185.869 9.08345C186.168 9.04084 186.384 8.97692 186.519 8.89169C186.658 8.80291 186.727 8.66619 186.727 8.48153V8.44957C186.727 8.0483 186.608 7.73757 186.37 7.5174C186.132 7.29723 185.79 7.18714 185.342 7.18714C184.87 7.18714 184.495 7.29013 184.218 7.49609C183.945 7.70206 183.76 7.94531 183.664 8.22585L181.864 7.97017C182.006 7.47301 182.24 7.05753 182.567 6.72372C182.894 6.38636 183.293 6.13423 183.765 5.96733C184.238 5.79688 184.76 5.71165 185.331 5.71165C185.726 5.71165 186.118 5.75781 186.509 5.85014C186.899 5.94247 187.256 6.09517 187.579 6.30824C187.903 6.51776 188.162 6.80362 188.357 7.16584C188.556 7.52805 188.655 7.98082 188.655 8.52415V14H186.802V12.8761H186.738C186.621 13.1033 186.455 13.3164 186.242 13.5153C186.033 13.7106 185.768 13.8686 185.449 13.9893C185.133 14.1065 184.762 14.1651 184.335 14.1651ZM184.836 12.7482C185.223 12.7482 185.559 12.6719 185.843 12.5192C186.127 12.3629 186.345 12.157 186.498 11.9013C186.654 11.6456 186.732 11.3668 186.732 11.065V10.1009C186.672 10.1506 186.569 10.1967 186.423 10.2393C186.281 10.282 186.122 10.3192 185.944 10.3512C185.767 10.3832 185.591 10.4116 185.417 10.4364C185.243 10.4613 185.092 10.4826 184.964 10.5004C184.676 10.5394 184.419 10.6033 184.192 10.6921C183.964 10.7809 183.785 10.9052 183.654 11.065C183.522 11.2212 183.456 11.4237 183.456 11.6722C183.456 12.0273 183.586 12.2955 183.845 12.4766C184.105 12.6577 184.435 12.7482 184.836 12.7482ZM190.594 14V5.81818H192.437V7.20845H192.533C192.704 6.7397 192.986 6.37393 193.38 6.11115C193.774 5.84482 194.245 5.71165 194.792 5.71165C195.346 5.71165 195.813 5.84659 196.193 6.11648C196.576 6.38281 196.846 6.7468 197.002 7.20845H197.088C197.269 6.75391 197.574 6.39169 198.004 6.1218C198.437 5.84837 198.95 5.71165 199.543 5.71165C200.296 5.71165 200.91 5.94957 201.386 6.42543C201.862 6.90128 202.1 7.59553 202.1 8.50817V14H200.166V8.80646C200.166 8.29865 200.031 7.92756 199.762 7.69318C199.492 7.45526 199.161 7.33629 198.771 7.33629C198.306 7.33629 197.942 7.48189 197.679 7.77308C197.42 8.06072 197.29 8.43537 197.29 8.89702V14H195.399V8.72656C195.399 8.30398 195.271 7.96662 195.015 7.71449C194.763 7.46236 194.433 7.33629 194.025 7.33629C193.748 7.33629 193.496 7.40732 193.268 7.54936C193.041 7.68786 192.86 7.88494 192.725 8.14062C192.59 8.39276 192.523 8.6875 192.523 9.02486V14H190.594ZM204.056 14V5.81818H205.984V14H204.056ZM205.026 4.65696C204.72 4.65696 204.457 4.55575 204.237 4.35334C204.017 4.14737 203.907 3.90057 203.907 3.61293C203.907 3.32173 204.017 3.07493 204.237 2.87251C204.457 2.66655 204.72 2.56357 205.026 2.56357C205.335 2.56357 205.597 2.66655 205.814 2.87251C206.034 3.07493 206.144 3.32173 206.144 3.61293C206.144 3.90057 206.034 4.14737 205.814 4.35334C205.597 4.55575 205.335 4.65696 205.026 4.65696ZM211.589 14.1598C210.769 14.1598 210.061 13.9893 209.464 13.6484C208.871 13.304 208.415 12.8175 208.095 12.1889C207.776 11.5568 207.616 10.8129 207.616 9.95703C207.616 9.11541 207.776 8.37678 208.095 7.74112C208.418 7.10192 208.869 6.60476 209.448 6.24964C210.027 5.89098 210.707 5.71165 211.488 5.71165C211.993 5.71165 212.468 5.79332 212.916 5.95668C213.367 6.11648 213.765 6.36506 214.109 6.70241C214.457 7.03977 214.73 7.46946 214.929 7.99148C215.128 8.50994 215.228 9.12784 215.228 9.84517V10.4364H208.521V9.13672H213.379C213.376 8.7674 213.296 8.43892 213.14 8.15128C212.983 7.86009 212.765 7.63104 212.484 7.46413C212.207 7.29723 211.884 7.21378 211.515 7.21378C211.121 7.21378 210.775 7.30966 210.476 7.50142C210.178 7.68963 209.945 7.93821 209.778 8.24716C209.615 8.55256 209.532 8.88814 209.528 9.25391V10.3885C209.528 10.8643 209.615 11.2727 209.789 11.6136C209.963 11.951 210.206 12.2102 210.519 12.3913C210.831 12.5689 211.197 12.6577 211.616 12.6577C211.897 12.6577 212.151 12.6186 212.378 12.5405C212.605 12.4588 212.802 12.3398 212.969 12.1836C213.136 12.0273 213.262 11.8338 213.347 11.603L215.148 11.8054C215.034 12.2812 214.817 12.6967 214.498 13.0518C214.182 13.4034 213.777 13.6768 213.283 13.8722C212.79 14.0639 212.225 14.1598 211.589 14.1598ZM218.787 9.20597V14H216.859V5.81818H218.702V7.20845H218.798C218.986 6.75035 219.286 6.38636 219.698 6.11648C220.114 5.84659 220.627 5.71165 221.237 5.71165C221.802 5.71165 222.294 5.83239 222.713 6.07386C223.136 6.31534 223.462 6.66513 223.693 7.12322C223.927 7.58132 224.043 8.13707 224.039 8.79048V14H222.111V9.08878C222.111 8.5419 221.969 8.11399 221.685 7.80504C221.404 7.49609 221.016 7.34162 220.518 7.34162C220.181 7.34162 219.881 7.41619 219.618 7.56534C219.359 7.71094 219.155 7.92223 219.006 8.19922C218.86 8.47621 218.787 8.81179 218.787 9.20597ZM230.085 5.81818V7.30966H225.382V5.81818H230.085ZM226.543 3.85795H228.471V11.5391C228.471 11.7983 228.51 11.9972 228.588 12.1357C228.67 12.2706 228.777 12.3629 228.908 12.4126C229.039 12.4624 229.185 12.4872 229.345 12.4872C229.465 12.4872 229.576 12.4783 229.675 12.4606C229.778 12.4428 229.856 12.4268 229.909 12.4126L230.234 13.9201C230.131 13.9556 229.984 13.9947 229.792 14.0373C229.604 14.0799 229.373 14.1048 229.1 14.1119C228.617 14.1261 228.182 14.0533 227.795 13.8935C227.408 13.7301 227.1 13.478 226.873 13.1371C226.649 12.7962 226.539 12.37 226.543 11.8587V3.85795ZM235.179 14.1598C234.38 14.1598 233.687 13.984 233.101 13.6325C232.515 13.2809 232.061 12.7891 231.738 12.157C231.418 11.5249 231.258 10.7862 231.258 9.94105C231.258 9.09588 231.418 8.35547 231.738 7.71982C232.061 7.08416 232.515 6.59055 233.101 6.23899C233.687 5.88743 234.38 5.71165 235.179 5.71165C235.978 5.71165 236.67 5.88743 237.256 6.23899C237.842 6.59055 238.295 7.08416 238.615 7.71982C238.938 8.35547 239.099 9.09588 239.099 9.94105C239.099 10.7862 238.938 11.5249 238.615 12.157C238.295 12.7891 237.842 13.2809 237.256 13.6325C236.67 13.984 235.978 14.1598 235.179 14.1598ZM235.189 12.6151C235.623 12.6151 235.985 12.4961 236.276 12.2582C236.567 12.0167 236.784 11.6935 236.926 11.2887C237.072 10.8839 237.144 10.4329 237.144 9.93572C237.144 9.43501 237.072 8.98224 236.926 8.57741C236.784 8.16903 236.567 7.84411 236.276 7.60263C235.985 7.36115 235.623 7.24041 235.189 7.24041C234.746 7.24041 234.376 7.36115 234.081 7.60263C233.79 7.84411 233.572 8.16903 233.426 8.57741C233.284 8.98224 233.213 9.43501 233.213 9.93572C233.213 10.4329 233.284 10.8839 233.426 11.2887C233.572 11.6935 233.79 12.0167 234.081 12.2582C234.376 12.4961 234.746 12.6151 235.189 12.6151ZM243.987 9.5522C243.987 10.8803 243.809 12.1037 243.454 13.2223C243.102 14.3374 242.577 15.369 241.877 16.3171H240.061C240.334 15.9656 240.586 15.5359 240.817 15.0281C241.051 14.5202 241.254 13.9627 241.424 13.3555C241.598 12.7482 241.733 12.1197 241.829 11.4698C241.929 10.82 241.978 10.1808 241.978 9.5522C241.978 8.71058 241.893 7.85831 241.723 6.99538C241.556 6.13246 241.327 5.33168 241.036 4.59304C240.748 3.8544 240.423 3.25071 240.061 2.78196H241.877C242.577 3.73011 243.102 4.76349 243.454 5.8821C243.809 6.99716 243.987 8.22053 243.987 9.5522ZM247.637 14.1172C247.313 14.1172 247.036 14.0036 246.806 13.7763C246.575 13.549 246.461 13.272 246.465 12.9453C246.461 12.6257 246.575 12.3523 246.806 12.125C247.036 11.8977 247.313 11.7841 247.637 11.7841C247.949 11.7841 248.221 11.8977 248.452 12.125C248.686 12.3523 248.805 12.6257 248.809 12.9453C248.805 13.1619 248.748 13.359 248.638 13.5366C248.532 13.7141 248.389 13.8562 248.212 13.9627C248.038 14.0657 247.846 14.1172 247.637 14.1172ZM247.637 8.27912C247.313 8.27912 247.036 8.16548 246.806 7.93821C246.575 7.70739 246.461 7.4304 246.465 7.10724C246.461 6.78764 246.575 6.5142 246.806 6.28693C247.036 6.05611 247.313 5.9407 247.637 5.9407C247.949 5.9407 248.221 6.05611 248.452 6.28693C248.686 6.5142 248.805 6.78764 248.809 7.10724C248.805 7.32031 248.748 7.51562 248.638 7.69318C248.532 7.87074 248.389 8.01278 248.212 8.11932C248.038 8.22585 247.846 8.27912 247.637 8.27912Z" fill="black"/>
<line y1="-1.5" x2="193.484" y2="-1.5" transform="matrix(0.999974 0.0072339 -0.00793331 0.999969 1.46582 89.7887)" stroke="black" stroke-width="3"/>
<path d="M232.756 122.129C232.178 122.129 231.658 122.018 231.196 121.797C230.737 121.572 230.371 121.264 230.097 120.874C229.823 120.483 229.677 120.036 229.659 119.535H231.044C231.077 119.941 231.257 120.275 231.584 120.537C231.91 120.798 232.301 120.929 232.756 120.929C233.119 120.929 233.441 120.846 233.721 120.68C234.004 120.51 234.226 120.278 234.386 119.983C234.549 119.687 234.631 119.35 234.631 118.972C234.631 118.587 234.547 118.244 234.381 117.942C234.215 117.641 233.986 117.404 233.693 117.231C233.404 117.059 233.072 116.971 232.696 116.968C232.41 116.968 232.122 117.017 231.833 117.116C231.544 117.214 231.31 117.344 231.131 117.504L229.825 117.31L230.356 112.545H235.554V113.769H231.542L231.242 116.414H231.297C231.482 116.236 231.727 116.086 232.031 115.966C232.339 115.846 232.669 115.786 233.019 115.786C233.595 115.786 234.107 115.923 234.557 116.197C235.009 116.471 235.365 116.845 235.623 117.319C235.885 117.79 236.014 118.331 236.011 118.944C236.014 119.556 235.875 120.103 235.595 120.583C235.318 121.063 234.934 121.441 234.441 121.718C233.952 121.992 233.39 122.129 232.756 122.129ZM240.989 122.157C240.259 122.154 239.636 121.962 239.119 121.58C238.602 121.198 238.206 120.643 237.932 119.913C237.659 119.184 237.522 118.305 237.522 117.277C237.522 116.252 237.659 115.377 237.932 114.651C238.209 113.924 238.606 113.37 239.124 112.989C239.644 112.607 240.265 112.416 240.989 112.416C241.712 112.416 242.332 112.609 242.849 112.993C243.366 113.375 243.762 113.929 244.035 114.655C244.312 115.378 244.451 116.252 244.451 117.277C244.451 118.308 244.314 119.189 244.04 119.918C243.766 120.644 243.371 121.2 242.854 121.585C242.337 121.966 241.715 122.157 240.989 122.157ZM240.989 120.924C241.629 120.924 242.129 120.612 242.489 119.987C242.852 119.362 243.034 118.459 243.034 117.277C243.034 116.493 242.951 115.829 242.784 115.288C242.621 114.743 242.386 114.33 242.078 114.05C241.773 113.767 241.41 113.626 240.989 113.626C240.352 113.626 239.851 113.94 239.488 114.567C239.125 115.195 238.942 116.099 238.939 117.277C238.939 118.065 239.02 118.732 239.184 119.276C239.35 119.818 239.585 120.229 239.89 120.509C240.195 120.786 240.561 120.924 240.989 120.924ZM249.38 122.157C248.651 122.154 248.028 121.962 247.511 121.58C246.993 121.198 246.598 120.643 246.324 119.913C246.05 119.184 245.913 118.305 245.913 117.277C245.913 116.252 246.05 115.377 246.324 114.651C246.601 113.924 246.998 113.37 247.515 112.989C248.035 112.607 248.657 112.416 249.38 112.416C250.103 112.416 250.724 112.609 251.241 112.993C251.758 113.375 252.153 113.929 252.427 114.655C252.704 115.378 252.843 116.252 252.843 117.277C252.843 118.308 252.706 119.189 252.432 119.918C252.158 120.644 251.762 121.2 251.245 121.585C250.728 121.966 250.107 122.157 249.38 122.157ZM249.38 120.924C250.02 120.924 250.52 120.612 250.881 119.987C251.244 119.362 251.425 118.459 251.425 117.277C251.425 116.493 251.342 115.829 251.176 115.288C251.013 114.743 250.777 114.33 250.47 114.05C250.165 113.767 249.802 113.626 249.38 113.626C248.743 113.626 248.243 113.94 247.88 114.567C247.517 115.195 247.334 116.099 247.33 117.277C247.33 118.065 247.412 118.732 247.575 119.276C247.741 119.818 247.977 120.229 248.281 120.509C248.586 120.786 248.952 120.924 249.38 120.924ZM254.499 122V114.909H255.824V116.063H255.911C256.059 115.672 256.301 115.368 256.636 115.149C256.972 114.928 257.373 114.817 257.841 114.817C258.315 114.817 258.712 114.928 259.032 115.149C259.355 115.371 259.594 115.675 259.748 116.063H259.822C259.991 115.685 260.26 115.383 260.629 115.158C260.999 114.931 261.439 114.817 261.95 114.817C262.593 114.817 263.118 115.018 263.524 115.422C263.933 115.825 264.138 116.433 264.138 117.245V122H262.758V117.374C262.758 116.894 262.627 116.546 262.365 116.331C262.104 116.116 261.791 116.008 261.428 116.008C260.979 116.008 260.629 116.146 260.38 116.423C260.131 116.697 260.006 117.05 260.006 117.48V122H258.63V117.287C258.63 116.902 258.51 116.593 258.27 116.359C258.03 116.125 257.718 116.008 257.333 116.008C257.072 116.008 256.83 116.077 256.608 116.216C256.39 116.351 256.213 116.54 256.078 116.783C255.945 117.027 255.879 117.308 255.879 117.628V122H254.499ZM266.099 122V112.545H267.479V116.059H267.562C267.642 115.911 267.758 115.74 267.908 115.546C268.059 115.352 268.269 115.183 268.536 115.038C268.804 114.891 269.158 114.817 269.598 114.817C270.17 114.817 270.681 114.961 271.131 115.251C271.58 115.54 271.932 115.957 272.188 116.502C272.446 117.047 272.576 117.702 272.576 118.468C272.576 119.235 272.448 119.892 272.193 120.44C271.937 120.984 271.586 121.404 271.14 121.7C270.694 121.992 270.184 122.138 269.612 122.138C269.181 122.138 268.829 122.066 268.555 121.922C268.284 121.777 268.072 121.608 267.918 121.414C267.764 121.22 267.645 121.047 267.562 120.897H267.447V122H266.099ZM267.451 118.455C267.451 118.953 267.524 119.39 267.668 119.766C267.813 120.141 268.022 120.435 268.296 120.647C268.57 120.857 268.906 120.961 269.303 120.961C269.715 120.961 270.06 120.852 270.337 120.634C270.614 120.412 270.823 120.112 270.965 119.733C271.109 119.355 271.182 118.929 271.182 118.455C271.182 117.987 271.111 117.567 270.969 117.194C270.831 116.822 270.621 116.528 270.341 116.312C270.064 116.097 269.718 115.989 269.303 115.989C268.903 115.989 268.564 116.092 268.287 116.299C268.013 116.505 267.805 116.793 267.664 117.162C267.522 117.531 267.451 117.962 267.451 118.455Z" fill="black"/>
<line y1="-2.5" x2="193.484" y2="-2.5" transform="matrix(0.999974 0.0072339 -0.00793331 0.999969 1.46582 116.382)" stroke="black" stroke-width="5"/>
</svg>
