<svg width="364" height="127" viewBox="0 0 364 127" fill="none" xmlns="http://www.w3.org/2000/svg">
<path d="M233.223 57.5455V67H231.791V58.9766H231.736L229.474 60.4538V59.0874L231.833 57.5455H233.223ZM239.072 67.157C238.342 67.1539 237.719 66.9615 237.202 66.5799C236.685 66.1983 236.289 65.6428 236.015 64.9134C235.742 64.1839 235.605 63.3053 235.605 62.2773C235.605 61.2525 235.742 60.3769 236.015 59.6506C236.292 58.9242 236.689 58.3703 237.207 57.9886C237.727 57.607 238.348 57.4162 239.072 57.4162C239.795 57.4162 240.415 57.6085 240.932 57.9933C241.449 58.3749 241.845 58.9289 242.118 59.6552C242.395 60.3784 242.534 61.2525 242.534 62.2773C242.534 63.3084 242.397 64.1886 242.123 64.918C241.849 65.6443 241.454 66.1998 240.937 66.5845C240.42 66.9661 239.798 67.157 239.072 67.157ZM239.072 65.9244C239.712 65.9244 240.212 65.612 240.572 64.9872C240.935 64.3625 241.117 63.4592 241.117 62.2773C241.117 61.4925 241.034 60.8293 240.867 60.2876C240.704 59.7429 240.469 59.3305 240.161 59.0504C239.856 58.7673 239.493 58.6257 239.072 58.6257C238.435 58.6257 237.934 58.9396 237.571 59.5675C237.208 60.1953 237.025 61.0986 237.022 62.2773C237.022 63.0652 237.103 63.7315 237.267 64.2763C237.433 64.8179 237.668 65.2288 237.973 65.5089C238.278 65.7859 238.644 65.9244 239.072 65.9244ZM247.463 67.157C246.734 67.1539 246.111 66.9615 245.594 66.5799C245.076 66.1983 244.681 65.6428 244.407 64.9134C244.133 64.1839 243.996 63.3053 243.996 62.2773C243.996 61.2525 244.133 60.3769 244.407 59.6506C244.684 58.9242 245.081 58.3703 245.598 57.9886C246.118 57.607 246.74 57.4162 247.463 57.4162C248.186 57.4162 248.807 57.6085 249.324 57.9933C249.841 58.3749 250.236 58.9289 250.51 59.6552C250.787 60.3784 250.926 61.2525 250.926 62.2773C250.926 63.3084 250.789 64.1886 250.515 64.918C250.241 65.6443 249.845 66.1998 249.328 66.5845C248.811 66.9661 248.19 67.157 247.463 67.157ZM247.463 65.9244C248.103 65.9244 248.603 65.612 248.964 64.9872C249.327 64.3625 249.508 63.4592 249.508 62.2773C249.508 61.4925 249.425 60.8293 249.259 60.2876C249.096 59.7429 248.86 59.3305 248.553 59.0504C248.248 58.7673 247.885 58.6257 247.463 58.6257C246.826 58.6257 246.326 58.9396 245.963 59.5675C245.6 60.1953 245.417 61.0986 245.413 62.2773C245.413 63.0652 245.495 63.7315 245.658 64.2763C245.824 64.8179 246.06 65.2288 246.364 65.5089C246.669 65.7859 247.035 65.9244 247.463 65.9244ZM252.582 67V59.9091H253.907V61.0632H253.994C254.142 60.6723 254.384 60.3677 254.719 60.1491C255.055 59.9276 255.456 59.8168 255.924 59.8168C256.398 59.8168 256.795 59.9276 257.115 60.1491C257.438 60.3707 257.677 60.6754 257.831 61.0632H257.905C258.074 60.6847 258.343 60.383 258.712 60.1584C259.082 59.9306 259.522 59.8168 260.033 59.8168C260.676 59.8168 261.201 60.0183 261.607 60.4215C262.016 60.8247 262.221 61.4325 262.221 62.245V67H260.841V62.3743C260.841 61.8942 260.71 61.5464 260.448 61.331C260.187 61.1155 259.874 61.0078 259.511 61.0078C259.062 61.0078 258.712 61.1463 258.463 61.4233C258.214 61.6972 258.089 62.0496 258.089 62.4805V67H256.713V62.2866C256.713 61.9019 256.593 61.5926 256.353 61.3587C256.113 61.1248 255.801 61.0078 255.416 61.0078C255.155 61.0078 254.913 61.0771 254.691 61.2156C254.473 61.351 254.296 61.5402 254.161 61.7834C254.028 62.0265 253.962 62.3081 253.962 62.6282V67H252.582ZM264.182 67V57.5455H265.562V61.0586H265.645C265.725 60.9109 265.841 60.7401 265.991 60.5462C266.142 60.3523 266.352 60.183 266.619 60.0384C266.887 59.8906 267.241 59.8168 267.681 59.8168C268.254 59.8168 268.764 59.9614 269.214 60.2507C269.663 60.54 270.015 60.957 270.271 61.5018C270.529 62.0465 270.659 62.7021 270.659 63.4684C270.659 64.2347 270.531 64.8918 270.276 65.4396C270.02 65.9844 269.669 66.4045 269.223 66.6999C268.777 66.9923 268.267 67.1385 267.695 67.1385C267.264 67.1385 266.912 67.0662 266.638 66.9215C266.367 66.7769 266.155 66.6076 266.001 66.4137C265.847 66.2198 265.728 66.0475 265.645 65.8967H265.53V67H264.182ZM265.534 63.4545C265.534 63.9531 265.607 64.3902 265.751 64.7656C265.896 65.1411 266.105 65.435 266.379 65.6474C266.653 65.8567 266.989 65.9613 267.386 65.9613C267.798 65.9613 268.143 65.852 268.42 65.6335C268.697 65.4119 268.906 65.1119 269.048 64.7333C269.192 64.3548 269.265 63.9285 269.265 63.4545C269.265 62.9867 269.194 62.5666 269.052 62.1942C268.914 61.8219 268.704 61.5279 268.424 61.3125C268.147 61.0971 267.801 60.9893 267.386 60.9893C266.986 60.9893 266.647 61.0924 266.37 61.2987C266.096 61.5049 265.888 61.7926 265.747 62.1619C265.605 62.5312 265.534 62.9621 265.534 63.4545Z" fill="black"/>
<line y1="-1.5" x2="193.484" y2="-1.5" transform="matrix(0.999974 0.0072339 -0.00793331 0.999969 0 61.7958)" stroke="black" stroke-width="3"/>
<path d="M232.927 92.1293C232.293 92.1293 231.727 92.02 231.228 91.8015C230.733 91.583 230.34 91.2798 230.051 90.892C229.765 90.5012 229.611 90.0488 229.589 89.5348H231.039C231.057 89.8149 231.151 90.058 231.321 90.2642C231.493 90.4673 231.718 90.6243 231.995 90.7351C232.272 90.8459 232.579 90.9013 232.918 90.9013C233.29 90.9013 233.62 90.8366 233.906 90.7074C234.195 90.5781 234.421 90.3981 234.584 90.1673C234.747 89.9334 234.829 89.6641 234.829 89.3594C234.829 89.0424 234.747 88.7638 234.584 88.5238C234.424 88.2807 234.189 88.0898 233.878 87.9513C233.57 87.8129 233.198 87.7436 232.761 87.7436H231.962V86.5803H232.761C233.112 86.5803 233.419 86.5172 233.684 86.391C233.952 86.2648 234.161 86.0894 234.312 85.8647C234.463 85.637 234.538 85.3707 234.538 85.0661C234.538 84.7737 234.472 84.5198 234.34 84.3043C234.21 84.0858 234.026 83.915 233.786 83.7919C233.549 83.6688 233.269 83.6072 232.946 83.6072C232.638 83.6072 232.35 83.6642 232.082 83.7781C231.818 83.8888 231.602 84.0489 231.436 84.2582C231.27 84.4644 231.181 84.7121 231.168 85.0014H229.788C229.803 84.4905 229.954 84.0412 230.24 83.6534C230.53 83.2656 230.911 82.9625 231.385 82.744C231.859 82.5254 232.385 82.4162 232.964 82.4162C233.57 82.4162 234.093 82.5347 234.534 82.7717C234.977 83.0056 235.318 83.3179 235.558 83.7088C235.802 84.0997 235.922 84.5275 235.919 84.9922C235.922 85.5215 235.774 85.9709 235.475 86.3402C235.18 86.7095 234.786 86.9573 234.294 87.0835V87.1573C234.921 87.2527 235.408 87.502 235.752 87.9052C236.1 88.3084 236.272 88.8085 236.269 89.4055C236.272 89.9257 236.128 90.3919 235.835 90.8043C235.546 91.2167 235.151 91.5414 234.649 91.7784C234.147 92.0123 233.573 92.1293 232.927 92.1293ZM241.306 92.157C240.577 92.1539 239.953 91.9615 239.436 91.5799C238.919 91.1983 238.524 90.6428 238.25 89.9134C237.976 89.1839 237.839 88.3053 237.839 87.2773C237.839 86.2525 237.976 85.3769 238.25 84.6506C238.527 83.9242 238.924 83.3703 239.441 82.9886C239.961 82.607 240.583 82.4162 241.306 82.4162C242.029 82.4162 242.649 82.6085 243.166 82.9933C243.683 83.3749 244.079 83.9289 244.353 84.6552C244.63 85.3784 244.768 86.2525 244.768 87.2773C244.768 88.3084 244.631 89.1886 244.357 89.918C244.084 90.6443 243.688 91.1998 243.171 91.5845C242.654 91.9661 242.032 92.157 241.306 92.157ZM241.306 90.9244C241.946 90.9244 242.446 90.612 242.806 89.9872C243.169 89.3625 243.351 88.4592 243.351 87.2773C243.351 86.4925 243.268 85.8293 243.102 85.2876C242.939 84.7429 242.703 84.3305 242.395 84.0504C242.091 83.7673 241.728 83.6257 241.306 83.6257C240.669 83.6257 240.169 83.9396 239.806 84.5675C239.442 85.1953 239.259 86.0986 239.256 87.2773C239.256 88.0652 239.338 88.7315 239.501 89.2763C239.667 89.8179 239.903 90.2288 240.207 90.5089C240.512 90.7859 240.878 90.9244 241.306 90.9244ZM249.698 92.157C248.968 92.1539 248.345 91.9615 247.828 91.5799C247.311 91.1983 246.915 90.6428 246.641 89.9134C246.368 89.1839 246.231 88.3053 246.231 87.2773C246.231 86.2525 246.368 85.3769 246.641 84.6506C246.918 83.9242 247.315 83.3703 247.833 82.9886C248.353 82.607 248.974 82.4162 249.698 82.4162C250.421 82.4162 251.041 82.6085 251.558 82.9933C252.075 83.3749 252.471 83.9289 252.744 84.6552C253.021 85.3784 253.16 86.2525 253.16 87.2773C253.16 88.3084 253.023 89.1886 252.749 89.918C252.475 90.6443 252.08 91.1998 251.563 91.5845C251.046 91.9661 250.424 92.157 249.698 92.157ZM249.698 90.9244C250.338 90.9244 250.838 90.612 251.198 89.9872C251.561 89.3625 251.743 88.4592 251.743 87.2773C251.743 86.4925 251.66 85.8293 251.493 85.2876C251.33 84.7429 251.095 84.3305 250.787 84.0504C250.482 83.7673 250.119 83.6257 249.698 83.6257C249.061 83.6257 248.56 83.9396 248.197 84.5675C247.834 85.1953 247.651 86.0986 247.648 87.2773C247.648 88.0652 247.729 88.7315 247.893 89.2763C248.059 89.8179 248.294 90.2288 248.599 90.5089C248.904 90.7859 249.27 90.9244 249.698 90.9244ZM254.816 92V84.9091H256.141V86.0632H256.229C256.376 85.6723 256.618 85.3677 256.954 85.1491C257.289 84.9276 257.691 84.8168 258.158 84.8168C258.632 84.8168 259.029 84.9276 259.349 85.1491C259.673 85.3707 259.911 85.6754 260.065 86.0632H260.139C260.308 85.6847 260.577 85.383 260.947 85.1584C261.316 84.9306 261.756 84.8168 262.267 84.8168C262.91 84.8168 263.435 85.0183 263.841 85.4215C264.251 85.8247 264.455 86.4325 264.455 87.245V92H263.075V87.3743C263.075 86.8942 262.944 86.5464 262.683 86.331C262.421 86.1155 262.109 86.0078 261.745 86.0078C261.296 86.0078 260.947 86.1463 260.697 86.4233C260.448 86.6972 260.324 87.0496 260.324 87.4805V92H258.948V87.2866C258.948 86.9019 258.828 86.5926 258.588 86.3587C258.348 86.1248 258.035 86.0078 257.651 86.0078C257.389 86.0078 257.147 86.0771 256.926 86.2156C256.707 86.351 256.53 86.5402 256.395 86.7834C256.263 87.0265 256.196 87.3081 256.196 87.6282V92H254.816ZM266.416 92V82.5455H267.796V86.0586H267.88C267.96 85.9109 268.075 85.7401 268.226 85.5462C268.377 85.3523 268.586 85.183 268.854 85.0384C269.121 84.8906 269.475 84.8168 269.915 84.8168C270.488 84.8168 270.999 84.9614 271.448 85.2507C271.897 85.54 272.25 85.957 272.505 86.5018C272.764 87.0465 272.893 87.7021 272.893 88.4684C272.893 89.2347 272.765 89.8918 272.51 90.4396C272.254 90.9844 271.904 91.4045 271.457 91.6999C271.011 91.9923 270.502 92.1385 269.929 92.1385C269.498 92.1385 269.146 92.0662 268.872 91.9215C268.601 91.7769 268.389 91.6076 268.235 91.4137C268.081 91.2198 267.963 91.0475 267.88 90.8967H267.764V92H266.416ZM267.769 88.4545C267.769 88.9531 267.841 89.3902 267.986 89.7656C268.13 90.1411 268.34 90.435 268.614 90.6474C268.888 90.8567 269.223 90.9613 269.62 90.9613C270.032 90.9613 270.377 90.852 270.654 90.6335C270.931 90.4119 271.14 90.1119 271.282 89.7333C271.427 89.3548 271.499 88.9285 271.499 88.4545C271.499 87.9867 271.428 87.5666 271.287 87.1942C271.148 86.8219 270.939 86.5279 270.659 86.3125C270.382 86.0971 270.035 85.9893 269.62 85.9893C269.22 85.9893 268.881 86.0924 268.604 86.2987C268.33 86.5049 268.123 86.7926 267.981 87.1619C267.84 87.5312 267.769 87.9621 267.769 88.4545Z" fill="black"/>
<path d="M75.2987 19H72.4862L77.6069 4.45455H80.8597L85.9876 19H83.1751L79.2901 7.4375H79.1765L75.2987 19ZM75.391 13.2969H83.0614V15.4134H75.391V13.2969ZM90.3608 4.45455V19H87.7898V4.45455H90.3608ZM93.0046 19V8.09091H95.462V9.9446H95.5898C95.8171 9.3196 96.1935 8.83191 96.7191 8.48153C97.2447 8.12642 97.872 7.94886 98.6012 7.94886C99.3398 7.94886 99.9625 8.12879 100.469 8.48864C100.98 8.84375 101.34 9.32907 101.549 9.9446H101.662C101.904 9.33854 102.311 8.85559 102.884 8.49574C103.462 8.13116 104.146 7.94886 104.936 7.94886C105.94 7.94886 106.759 8.2661 107.394 8.90057C108.028 9.53504 108.346 10.4607 108.346 11.6776V19H105.767V12.0753C105.767 11.3982 105.587 10.9034 105.228 10.5909C104.868 10.2737 104.427 10.1151 103.907 10.1151C103.286 10.1151 102.801 10.3092 102.451 10.6974C102.105 11.081 101.932 11.5805 101.932 12.196V19H99.4109V11.9688C99.4109 11.4053 99.2404 10.9555 98.8995 10.6193C98.5633 10.2831 98.123 10.1151 97.5785 10.1151C97.2092 10.1151 96.873 10.2098 96.57 10.3991C96.2669 10.5838 96.0254 10.8466 95.8455 11.1875C95.6656 11.5237 95.5756 11.9167 95.5756 12.3665V19H93.0046ZM114.093 19.2202C113.402 19.2202 112.779 19.0971 112.225 18.8509C111.676 18.5999 111.24 18.2306 110.918 17.7429C110.601 17.2552 110.442 16.6539 110.442 15.9389C110.442 15.3234 110.556 14.8144 110.783 14.4119C111.011 14.0095 111.321 13.6875 111.714 13.446C112.107 13.2045 112.549 13.0223 113.042 12.8991C113.539 12.7713 114.053 12.679 114.583 12.6222C115.222 12.5559 115.741 12.4967 116.138 12.4446C116.536 12.3878 116.825 12.3026 117.005 12.1889C117.19 12.0705 117.282 11.8883 117.282 11.642V11.5994C117.282 11.0644 117.123 10.6501 116.806 10.3565C116.489 10.063 116.032 9.91619 115.435 9.91619C114.806 9.91619 114.306 10.0535 113.937 10.3281C113.572 10.6027 113.326 10.9271 113.198 11.3011L110.798 10.9602C110.987 10.2973 111.299 9.74337 111.735 9.2983C112.171 8.84848 112.703 8.51231 113.333 8.28977C113.963 8.0625 114.659 7.94886 115.421 7.94886C115.947 7.94886 116.47 8.01042 116.991 8.13352C117.512 8.25663 117.987 8.46023 118.418 8.74432C118.849 9.02367 119.195 9.40483 119.455 9.88778C119.72 10.3707 119.853 10.9744 119.853 11.6989V19H117.381V17.5014H117.296C117.14 17.8045 116.92 18.0885 116.636 18.3537C116.356 18.6141 116.004 18.8248 115.577 18.9858C115.156 19.142 114.661 19.2202 114.093 19.2202ZM114.761 17.331C115.277 17.331 115.724 17.2292 116.103 17.0256C116.482 16.8172 116.773 16.5426 116.977 16.2017C117.185 15.8608 117.289 15.4891 117.289 15.0866V13.8011C117.209 13.8674 117.071 13.929 116.877 13.9858C116.688 14.0426 116.475 14.0923 116.238 14.1349C116.001 14.1776 115.767 14.2154 115.535 14.2486C115.303 14.2817 115.102 14.3101 114.931 14.3338C114.548 14.3859 114.204 14.4711 113.901 14.5895C113.598 14.7079 113.359 14.8736 113.184 15.0866C113.009 15.295 112.921 15.5649 112.921 15.8963C112.921 16.3698 113.094 16.7273 113.44 16.9688C113.785 17.2102 114.226 17.331 114.761 17.331ZM127.197 19.2131C126.108 19.2131 125.173 18.974 124.391 18.4957C123.615 18.0175 123.016 17.357 122.594 16.5142C122.178 15.6667 121.969 14.6913 121.969 13.5881C121.969 12.4801 122.183 11.5024 122.609 10.6548C123.035 9.80256 123.636 9.13968 124.413 8.66619C125.194 8.18797 126.117 7.94886 127.183 7.94886C128.068 7.94886 128.852 8.11222 129.533 8.43892C130.22 8.76089 130.767 9.2178 131.174 9.80966C131.581 10.3968 131.813 11.0833 131.87 11.8693H129.413C129.313 11.3437 129.076 10.9058 128.702 10.5554C128.333 10.2003 127.838 10.0227 127.218 10.0227C126.692 10.0227 126.231 10.1648 125.833 10.4489C125.435 10.7282 125.125 11.1307 124.903 11.6562C124.685 12.1818 124.576 12.8116 124.576 13.5455C124.576 14.2888 124.685 14.928 124.903 15.4631C125.121 15.9934 125.426 16.4029 125.819 16.6918C126.217 16.9759 126.683 17.1179 127.218 17.1179C127.597 17.1179 127.935 17.0469 128.234 16.9048C128.537 16.758 128.79 16.5473 128.994 16.2727C129.197 15.9981 129.337 15.6643 129.413 15.2713H131.87C131.808 16.0431 131.581 16.7273 131.188 17.3239C130.795 17.9157 130.26 18.3797 129.583 18.7159C128.906 19.0473 128.111 19.2131 127.197 19.2131ZM138.811 19.2131C137.717 19.2131 136.772 18.9858 135.977 18.5312C135.186 18.072 134.578 17.4233 134.152 16.5852C133.725 15.7424 133.512 14.7505 133.512 13.6094C133.512 12.4872 133.725 11.5024 134.152 10.6548C134.583 9.80256 135.184 9.13968 135.956 8.66619C136.727 8.18797 137.634 7.94886 138.676 7.94886C139.348 7.94886 139.983 8.05777 140.579 8.27557C141.181 8.48864 141.711 8.82008 142.17 9.26989C142.634 9.7197 142.999 10.2926 143.264 10.9886C143.529 11.6799 143.662 12.5038 143.662 13.4602V14.2486H134.72V12.5156H141.197C141.192 12.0232 141.086 11.5852 140.877 11.2017C140.669 10.8134 140.378 10.508 140.004 10.2855C139.635 10.063 139.204 9.9517 138.711 9.9517C138.186 9.9517 137.724 10.0795 137.326 10.3352C136.929 10.5862 136.618 10.9176 136.396 11.3295C136.178 11.7367 136.067 12.1842 136.062 12.6719V14.1847C136.062 14.8191 136.178 15.3636 136.41 15.8182C136.642 16.268 136.967 16.6136 137.383 16.8551C137.8 17.0919 138.288 17.2102 138.846 17.2102C139.22 17.2102 139.559 17.1581 139.862 17.054C140.165 16.9451 140.428 16.7865 140.65 16.5781C140.873 16.3698 141.041 16.1117 141.154 15.804L143.555 16.0739C143.404 16.7083 143.115 17.2623 142.689 17.7358C142.267 18.2045 141.727 18.5691 141.069 18.8295C140.411 19.0852 139.658 19.2131 138.811 19.2131ZM148.408 12.608V19H145.837V8.09091H148.294V9.9446H148.422C148.673 9.33381 149.073 8.84848 149.622 8.48864C150.176 8.12879 150.86 7.94886 151.675 7.94886C152.428 7.94886 153.083 8.10985 153.642 8.43182C154.205 8.75379 154.641 9.22017 154.949 9.83097C155.261 10.4418 155.415 11.1828 155.411 12.054V19H152.839V12.4517C152.839 11.7225 152.65 11.152 152.271 10.7401C151.897 10.3281 151.379 10.1222 150.716 10.1222C150.266 10.1222 149.866 10.2216 149.516 10.4205C149.17 10.6146 148.898 10.8963 148.699 11.2656C148.505 11.6349 148.408 12.0824 148.408 12.608ZM161.163 19.2202C160.472 19.2202 159.849 19.0971 159.295 18.8509C158.746 18.5999 158.311 18.2306 157.989 17.7429C157.671 17.2552 157.513 16.6539 157.513 15.9389C157.513 15.3234 157.626 14.8144 157.854 14.4119C158.081 14.0095 158.391 13.6875 158.784 13.446C159.177 13.2045 159.62 13.0223 160.112 12.8991C160.609 12.7713 161.123 12.679 161.653 12.6222C162.293 12.5559 162.811 12.4967 163.209 12.4446C163.607 12.3878 163.895 12.3026 164.075 12.1889C164.26 12.0705 164.352 11.8883 164.352 11.642V11.5994C164.352 11.0644 164.194 10.6501 163.876 10.3565C163.559 10.063 163.102 9.91619 162.506 9.91619C161.876 9.91619 161.376 10.0535 161.007 10.3281C160.643 10.6027 160.396 10.9271 160.268 11.3011L157.868 10.9602C158.057 10.2973 158.37 9.74337 158.805 9.2983C159.241 8.84848 159.774 8.51231 160.403 8.28977C161.033 8.0625 161.729 7.94886 162.491 7.94886C163.017 7.94886 163.54 8.01042 164.061 8.13352C164.582 8.25663 165.058 8.46023 165.489 8.74432C165.92 9.02367 166.265 9.40483 166.526 9.88778C166.791 10.3707 166.923 10.9744 166.923 11.6989V19H164.452V17.5014H164.366C164.21 17.8045 163.99 18.0885 163.706 18.3537C163.427 18.6141 163.074 18.8248 162.648 18.9858C162.226 19.142 161.732 19.2202 161.163 19.2202ZM161.831 17.331C162.347 17.331 162.795 17.2292 163.173 17.0256C163.552 16.8172 163.843 16.5426 164.047 16.2017C164.255 15.8608 164.359 15.4891 164.359 15.0866V13.8011C164.279 13.8674 164.142 13.929 163.947 13.9858C163.758 14.0426 163.545 14.0923 163.308 14.1349C163.071 14.1776 162.837 14.2154 162.605 14.2486C162.373 14.2817 162.172 14.3101 162.001 14.3338C161.618 14.3859 161.275 14.4711 160.972 14.5895C160.669 14.7079 160.429 14.8736 160.254 15.0866C160.079 15.295 159.991 15.5649 159.991 15.8963C159.991 16.3698 160.164 16.7273 160.51 16.9688C160.856 17.2102 161.296 17.331 161.831 17.331ZM169.509 19V8.09091H171.966V9.9446H172.094C172.321 9.3196 172.697 8.83191 173.223 8.48153C173.749 8.12642 174.376 7.94886 175.105 7.94886C175.844 7.94886 176.466 8.12879 176.973 8.48864C177.484 8.84375 177.844 9.32907 178.053 9.9446H178.166C178.408 9.33854 178.815 8.85559 179.388 8.49574C179.965 8.13116 180.65 7.94886 181.44 7.94886C182.444 7.94886 183.263 8.2661 183.898 8.90057C184.532 9.53504 184.849 10.4607 184.849 11.6776V19H182.271V12.0753C182.271 11.3982 182.091 10.9034 181.732 10.5909C181.372 10.2737 180.931 10.1151 180.411 10.1151C179.79 10.1151 179.305 10.3092 178.955 10.6974C178.609 11.081 178.436 11.5805 178.436 12.196V19H175.915V11.9688C175.915 11.4053 175.744 10.9555 175.403 10.6193C175.067 10.2831 174.627 10.1151 174.082 10.1151C173.713 10.1151 173.377 10.2098 173.074 10.3991C172.771 10.5838 172.529 10.8466 172.349 11.1875C172.17 11.5237 172.08 11.9167 172.08 12.3665V19H169.509ZM187.458 19V8.09091H190.029V19H187.458ZM188.75 6.54261C188.343 6.54261 187.993 6.40767 187.699 6.13778C187.406 5.86316 187.259 5.53409 187.259 5.15057C187.259 4.76231 187.406 4.43324 187.699 4.16335C187.993 3.88873 188.343 3.75142 188.75 3.75142C189.162 3.75142 189.513 3.88873 189.801 4.16335C190.095 4.43324 190.242 4.76231 190.242 5.15057C190.242 5.53409 190.095 5.86316 189.801 6.13778C189.513 6.40767 189.162 6.54261 188.75 6.54261ZM197.502 19.2131C196.408 19.2131 195.464 18.9858 194.668 18.5312C193.878 18.072 193.269 17.4233 192.843 16.5852C192.417 15.7424 192.204 14.7505 192.204 13.6094C192.204 12.4872 192.417 11.5024 192.843 10.6548C193.274 9.80256 193.875 9.13968 194.647 8.66619C195.419 8.18797 196.326 7.94886 197.367 7.94886C198.04 7.94886 198.674 8.05777 199.271 8.27557C199.872 8.48864 200.402 8.82008 200.862 9.26989C201.326 9.7197 201.69 10.2926 201.955 10.9886C202.22 11.6799 202.353 12.5038 202.353 13.4602V14.2486H193.411V12.5156H199.888C199.884 12.0232 199.777 11.5852 199.569 11.2017C199.361 10.8134 199.069 10.508 198.695 10.2855C198.326 10.063 197.895 9.9517 197.403 9.9517C196.877 9.9517 196.415 10.0795 196.018 10.3352C195.62 10.5862 195.31 10.9176 195.087 11.3295C194.87 11.7367 194.758 12.1842 194.754 12.6719V14.1847C194.754 14.8191 194.87 15.3636 195.102 15.8182C195.334 16.268 195.658 16.6136 196.075 16.8551C196.491 17.0919 196.979 17.2102 197.538 17.2102C197.912 17.2102 198.25 17.1581 198.553 17.054C198.856 16.9451 199.119 16.7865 199.342 16.5781C199.564 16.3698 199.732 16.1117 199.846 15.804L202.246 16.0739C202.095 16.7083 201.806 17.2623 201.38 17.7358C200.959 18.2045 200.419 18.5691 199.761 18.8295C199.103 19.0852 198.35 19.2131 197.502 19.2131ZM207.099 12.608V19H204.528V8.09091H206.985V9.9446H207.113C207.364 9.33381 207.764 8.84848 208.314 8.48864C208.868 8.12879 209.552 7.94886 210.366 7.94886C211.119 7.94886 211.775 8.10985 212.333 8.43182C212.897 8.75379 213.333 9.22017 213.64 9.83097C213.953 10.4418 214.107 11.1828 214.102 12.054V19H211.531V12.4517C211.531 11.7225 211.342 11.152 210.963 10.7401C210.589 10.3281 210.07 10.1222 209.407 10.1222C208.958 10.1222 208.557 10.2216 208.207 10.4205C207.861 10.6146 207.589 10.8963 207.39 11.2656C207.196 11.6349 207.099 12.0824 207.099 12.608ZM222.163 8.09091V10.0795H215.892V8.09091H222.163ZM217.44 5.47727H220.011V15.7188C220.011 16.0644 220.063 16.3295 220.167 16.5142C220.276 16.6941 220.418 16.8172 220.593 16.8835C220.769 16.9498 220.963 16.983 221.176 16.983C221.337 16.983 221.484 16.9711 221.616 16.9474C221.753 16.9238 221.858 16.9025 221.929 16.8835L222.362 18.8935C222.225 18.9408 222.028 18.9929 221.772 19.0497C221.521 19.1065 221.214 19.1397 220.849 19.1491C220.205 19.1681 219.625 19.071 219.109 18.858C218.593 18.6402 218.183 18.304 217.88 17.8494C217.582 17.3949 217.435 16.8267 217.44 16.1449V5.47727ZM228.955 19.2131C227.889 19.2131 226.966 18.9787 226.185 18.5099C225.403 18.0412 224.797 17.3854 224.366 16.5426C223.94 15.6998 223.727 14.715 223.727 13.5881C223.727 12.4612 223.94 11.474 224.366 10.6264C224.797 9.77888 225.403 9.12074 226.185 8.65199C226.966 8.18324 227.889 7.94886 228.955 7.94886C230.02 7.94886 230.943 8.18324 231.724 8.65199C232.506 9.12074 233.109 9.77888 233.536 10.6264C233.966 11.474 234.182 12.4612 234.182 13.5881C234.182 14.715 233.966 15.6998 233.536 16.5426C233.109 17.3854 232.506 18.0412 231.724 18.5099C230.943 18.9787 230.02 19.2131 228.955 19.2131ZM228.969 17.1534C229.546 17.1534 230.029 16.9948 230.418 16.6776C230.806 16.3556 231.095 15.9247 231.284 15.3849C231.478 14.8452 231.575 14.2438 231.575 13.581C231.575 12.9134 231.478 12.3097 231.284 11.7699C231.095 11.2254 230.806 10.7921 230.418 10.4702C230.029 10.1482 229.546 9.98722 228.969 9.98722C228.377 9.98722 227.884 10.1482 227.491 10.4702C227.103 10.7921 226.812 11.2254 226.618 11.7699C226.429 12.3097 226.334 12.9134 226.334 13.581C226.334 14.2438 226.429 14.8452 226.618 15.3849C226.812 15.9247 227.103 16.3556 227.491 16.6776C227.884 16.9948 228.377 17.1534 228.969 17.1534Z" fill="black"/>
<line y1="-3.75" x2="193.484" y2="-3.75" transform="matrix(0.999974 0.0072339 -0.00793331 0.999969 1.46582 86.7887)" stroke="black" stroke-width="7.5"/>
<path d="M232.756 122.129C232.178 122.129 231.658 122.018 231.196 121.797C230.737 121.572 230.371 121.264 230.097 120.874C229.823 120.483 229.677 120.036 229.659 119.535H231.044C231.077 119.941 231.257 120.275 231.584 120.537C231.91 120.798 232.301 120.929 232.756 120.929C233.119 120.929 233.441 120.846 233.721 120.68C234.004 120.51 234.226 120.278 234.386 119.983C234.549 119.687 234.631 119.35 234.631 118.972C234.631 118.587 234.547 118.244 234.381 117.942C234.215 117.641 233.986 117.404 233.693 117.231C233.404 117.059 233.072 116.971 232.696 116.968C232.41 116.968 232.122 117.017 231.833 117.116C231.544 117.214 231.31 117.344 231.131 117.504L229.825 117.31L230.356 112.545H235.554V113.769H231.542L231.242 116.414H231.297C231.482 116.236 231.727 116.086 232.031 115.966C232.339 115.846 232.669 115.786 233.019 115.786C233.595 115.786 234.107 115.923 234.557 116.197C235.009 116.471 235.365 116.845 235.623 117.319C235.885 117.79 236.014 118.331 236.011 118.944C236.014 119.556 235.875 120.103 235.595 120.583C235.318 121.063 234.934 121.441 234.441 121.718C233.952 121.992 233.39 122.129 232.756 122.129ZM240.989 122.157C240.259 122.154 239.636 121.962 239.119 121.58C238.602 121.198 238.206 120.643 237.932 119.913C237.659 119.184 237.522 118.305 237.522 117.277C237.522 116.252 237.659 115.377 237.932 114.651C238.209 113.924 238.606 113.37 239.124 112.989C239.644 112.607 240.265 112.416 240.989 112.416C241.712 112.416 242.332 112.609 242.849 112.993C243.366 113.375 243.762 113.929 244.035 114.655C244.312 115.378 244.451 116.252 244.451 117.277C244.451 118.308 244.314 119.189 244.04 119.918C243.766 120.644 243.371 121.2 242.854 121.585C242.337 121.966 241.715 122.157 240.989 122.157ZM240.989 120.924C241.629 120.924 242.129 120.612 242.489 119.987C242.852 119.362 243.034 118.459 243.034 117.277C243.034 116.493 242.951 115.829 242.784 115.288C242.621 114.743 242.386 114.33 242.078 114.05C241.773 113.767 241.41 113.626 240.989 113.626C240.352 113.626 239.851 113.94 239.488 114.567C239.125 115.195 238.942 116.099 238.939 117.277C238.939 118.065 239.02 118.732 239.184 119.276C239.35 119.818 239.585 120.229 239.89 120.509C240.195 120.786 240.561 120.924 240.989 120.924ZM249.38 122.157C248.651 122.154 248.028 121.962 247.511 121.58C246.993 121.198 246.598 120.643 246.324 119.913C246.05 119.184 245.913 118.305 245.913 117.277C245.913 116.252 246.05 115.377 246.324 114.651C246.601 113.924 246.998 113.37 247.515 112.989C248.035 112.607 248.657 112.416 249.38 112.416C250.103 112.416 250.724 112.609 251.241 112.993C251.758 113.375 252.153 113.929 252.427 114.655C252.704 115.378 252.843 116.252 252.843 117.277C252.843 118.308 252.706 119.189 252.432 119.918C252.158 120.644 251.762 121.2 251.245 121.585C250.728 121.966 250.107 122.157 249.38 122.157ZM249.38 120.924C250.02 120.924 250.52 120.612 250.881 119.987C251.244 119.362 251.425 118.459 251.425 117.277C251.425 116.493 251.342 115.829 251.176 115.288C251.013 114.743 250.777 114.33 250.47 114.05C250.165 113.767 249.802 113.626 249.38 113.626C248.743 113.626 248.243 113.94 247.88 114.567C247.517 115.195 247.334 116.099 247.33 117.277C247.33 118.065 247.412 118.732 247.575 119.276C247.741 119.818 247.977 120.229 248.281 120.509C248.586 120.786 248.952 120.924 249.38 120.924ZM254.499 122V114.909H255.824V116.063H255.911C256.059 115.672 256.301 115.368 256.636 115.149C256.972 114.928 257.373 114.817 257.841 114.817C258.315 114.817 258.712 114.928 259.032 115.149C259.355 115.371 259.594 115.675 259.748 116.063H259.822C259.991 115.685 260.26 115.383 260.629 115.158C260.999 114.931 261.439 114.817 261.95 114.817C262.593 114.817 263.118 115.018 263.524 115.422C263.933 115.825 264.138 116.433 264.138 117.245V122H262.758V117.374C262.758 116.894 262.627 116.546 262.365 116.331C262.104 116.116 261.791 116.008 261.428 116.008C260.979 116.008 260.629 116.146 260.38 116.423C260.131 116.697 260.006 117.05 260.006 117.48V122H258.63V117.287C258.63 116.902 258.51 116.593 258.27 116.359C258.03 116.125 257.718 116.008 257.333 116.008C257.072 116.008 256.83 116.077 256.608 116.216C256.39 116.351 256.213 116.54 256.078 116.783C255.945 117.027 255.879 117.308 255.879 117.628V122H254.499ZM266.099 122V112.545H267.479V116.059H267.562C267.642 115.911 267.758 115.74 267.908 115.546C268.059 115.352 268.269 115.183 268.536 115.038C268.804 114.891 269.158 114.817 269.598 114.817C270.17 114.817 270.681 114.961 271.131 115.251C271.58 115.54 271.932 115.957 272.188 116.502C272.446 117.047 272.576 117.702 272.576 118.468C272.576 119.235 272.448 119.892 272.193 120.44C271.937 120.984 271.586 121.404 271.14 121.7C270.694 121.992 270.184 122.138 269.612 122.138C269.181 122.138 268.829 122.066 268.555 121.922C268.284 121.777 268.072 121.608 267.918 121.414C267.764 121.22 267.645 121.047 267.562 120.897H267.447V122H266.099ZM267.451 118.455C267.451 118.953 267.524 119.39 267.668 119.766C267.813 120.141 268.022 120.435 268.296 120.647C268.57 120.857 268.906 120.961 269.303 120.961C269.715 120.961 270.06 120.852 270.337 120.634C270.614 120.412 270.823 120.112 270.965 119.733C271.109 119.355 271.182 118.929 271.182 118.455C271.182 117.987 271.111 117.567 270.969 117.194C270.831 116.822 270.621 116.528 270.341 116.312C270.064 116.097 269.718 115.989 269.303 115.989C268.903 115.989 268.564 116.092 268.287 116.299C268.013 116.505 267.805 116.793 267.664 117.162C267.522 117.531 267.451 117.962 267.451 118.455Z" fill="black"/>
<line y1="-6" x2="193.484" y2="-6" transform="matrix(0.999974 0.0072339 -0.00793331 0.999969 1.46582 116.382)" stroke="black" stroke-width="12"/>
<path d="M196 61.5L188.5 67.1292V55.8708L196 61.5Z" fill="black"/>
<path d="M200 84.5L188.75 92.7272V76.2728L200 84.5Z" fill="black"/>
<path d="M208 112L189.25 125.856V98.1436L208 112Z" fill="black"/>
</svg>
