<svg width="329" height="118" viewBox="0 0 329 118" fill="none" xmlns="http://www.w3.org/2000/svg">
<path d="M232.927 58.157C232.198 58.1539 231.574 57.9615 231.057 57.5799C230.54 57.1983 230.145 56.6428 229.871 55.9134C229.597 55.1839 229.46 54.3053 229.46 53.2773C229.46 52.2525 229.597 51.3769 229.871 50.6506C230.148 49.9242 230.545 49.3703 231.062 48.9886C231.582 48.607 232.204 48.4162 232.927 48.4162C233.65 48.4162 234.27 48.6085 234.788 48.9933C235.305 49.3749 235.7 49.9289 235.974 50.6552C236.251 51.3784 236.389 52.2525 236.389 53.2773C236.389 54.3084 236.252 55.1886 235.979 55.918C235.705 56.6443 235.309 57.1998 234.792 57.5845C234.275 57.9661 233.653 58.157 232.927 58.157ZM232.927 56.9244C233.567 56.9244 234.067 56.612 234.427 55.9872C234.791 55.3625 234.972 54.4592 234.972 53.2773C234.972 52.4925 234.889 51.8293 234.723 51.2876C234.56 50.7429 234.324 50.3305 234.017 50.0504C233.712 49.7673 233.349 49.6257 232.927 49.6257C232.29 49.6257 231.79 49.9396 231.427 50.5675C231.064 51.1953 230.88 52.0986 230.877 53.2773C230.877 54.0652 230.959 54.7315 231.122 55.2763C231.288 55.8179 231.524 56.2288 231.828 56.5089C232.133 56.7859 232.499 56.9244 232.927 56.9244ZM238.046 58V50.9091H239.371V52.0632H239.458C239.606 51.6723 239.848 51.3677 240.183 51.1491C240.518 50.9276 240.92 50.8168 241.388 50.8168C241.862 50.8168 242.259 50.9276 242.579 51.1491C242.902 51.3707 243.141 51.6754 243.295 52.0632H243.368C243.538 51.6847 243.807 51.383 244.176 51.1584C244.546 50.9306 244.986 50.8168 245.497 50.8168C246.14 50.8168 246.665 51.0183 247.071 51.4215C247.48 51.8247 247.685 52.4325 247.685 53.245V58H246.304V53.3743C246.304 52.8942 246.174 52.5464 245.912 52.331C245.65 52.1155 245.338 52.0078 244.975 52.0078C244.526 52.0078 244.176 52.1463 243.927 52.4233C243.678 52.6972 243.553 53.0496 243.553 53.4805V58H242.177V53.2866C242.177 52.9019 242.057 52.5926 241.817 52.3587C241.577 52.1248 241.265 52.0078 240.88 52.0078C240.619 52.0078 240.377 52.0771 240.155 52.2156C239.937 52.351 239.76 52.5402 239.624 52.7834C239.492 53.0265 239.426 53.3081 239.426 53.6282V58H238.046ZM249.646 58V48.5455H251.026V52.0586H251.109C251.189 51.9109 251.304 51.7401 251.455 51.5462C251.606 51.3523 251.815 51.183 252.083 51.0384C252.351 50.8906 252.705 50.8168 253.145 50.8168C253.717 50.8168 254.228 50.9614 254.678 51.2507C255.127 51.54 255.479 51.957 255.735 52.5018C255.993 53.0465 256.123 53.7021 256.123 54.4684C256.123 55.2347 255.995 55.8918 255.739 56.4396C255.484 56.9844 255.133 57.4045 254.687 57.6999C254.241 57.9923 253.731 58.1385 253.159 58.1385C252.728 58.1385 252.376 58.0662 252.102 57.9215C251.831 57.7769 251.618 57.6076 251.465 57.4137C251.311 57.2198 251.192 57.0475 251.109 56.8967H250.994V58H249.646ZM250.998 54.4545C250.998 54.9531 251.071 55.3902 251.215 55.7656C251.36 56.1411 251.569 56.435 251.843 56.6474C252.117 56.8567 252.452 56.9613 252.849 56.9613C253.262 56.9613 253.607 56.852 253.884 56.6335C254.161 56.4119 254.37 56.1119 254.511 55.7333C254.656 55.3548 254.728 54.9285 254.728 54.4545C254.728 53.9867 254.658 53.5666 254.516 53.1942C254.378 52.8219 254.168 52.5279 253.888 52.3125C253.611 52.0971 253.265 51.9893 252.849 51.9893C252.449 51.9893 252.111 52.0924 251.834 52.2987C251.56 52.5049 251.352 52.7926 251.211 53.1619C251.069 53.5312 250.998 53.9621 250.998 54.4545ZM265.291 52.6726V53.8729H261.099V52.6726H265.291ZM274.14 48.5455V58H272.708V49.9766H272.653L270.391 51.4538V50.0874L272.75 48.5455H274.14ZM279.818 58.1293C279.239 58.1293 278.719 58.0185 278.257 57.7969C277.799 57.5722 277.433 57.2644 277.159 56.8736C276.885 56.4827 276.739 56.0365 276.72 55.5348H278.105C278.139 55.9411 278.319 56.275 278.645 56.5366C278.971 56.7982 279.362 56.929 279.818 56.929C280.181 56.929 280.503 56.8459 280.783 56.6797C281.066 56.5104 281.287 56.2781 281.447 55.9826C281.611 55.6871 281.692 55.3501 281.692 54.9716C281.692 54.5869 281.609 54.2437 281.443 53.9421C281.277 53.6405 281.047 53.4035 280.755 53.2312C280.466 53.0588 280.133 52.9711 279.758 52.968C279.472 52.968 279.184 53.0173 278.894 53.1158C278.605 53.2143 278.371 53.3435 278.193 53.5036L276.886 53.3097L277.417 48.5455H282.615V49.7688H278.604L278.304 52.4141H278.359C278.544 52.2356 278.788 52.0863 279.093 51.9663C279.401 51.8462 279.73 51.7862 280.081 51.7862C280.656 51.7862 281.169 51.9232 281.618 52.1971C282.071 52.471 282.426 52.8449 282.685 53.3189C282.946 53.7898 283.075 54.3314 283.072 54.9439C283.075 55.5563 282.937 56.1026 282.657 56.5827C282.38 57.0629 281.995 57.4414 281.503 57.7184C281.013 57.9923 280.452 58.1293 279.818 58.1293ZM288.05 58.157C287.321 58.1539 286.697 57.9615 286.18 57.5799C285.663 57.1983 285.268 56.6428 284.994 55.9134C284.72 55.1839 284.583 54.3053 284.583 53.2773C284.583 52.2525 284.72 51.3769 284.994 50.6506C285.271 49.9242 285.668 49.3703 286.185 48.9886C286.705 48.607 287.327 48.4162 288.05 48.4162C288.773 48.4162 289.394 48.6085 289.911 48.9933C290.428 49.3749 290.823 49.9289 291.097 50.6552C291.374 51.3784 291.512 52.2525 291.512 53.2773C291.512 54.3084 291.376 55.1886 291.102 55.918C290.828 56.6443 290.432 57.1998 289.915 57.5845C289.398 57.9661 288.776 58.157 288.05 58.157ZM288.05 56.9244C288.69 56.9244 289.19 56.612 289.55 55.9872C289.914 55.3625 290.095 54.4592 290.095 53.2773C290.095 52.4925 290.012 51.8293 289.846 51.2876C289.683 50.7429 289.447 50.3305 289.14 50.0504C288.835 49.7673 288.472 49.6257 288.05 49.6257C287.413 49.6257 286.913 49.9396 286.55 50.5675C286.187 51.1953 286.003 52.0986 286 53.2773C286 54.0652 286.082 54.7315 286.245 55.2763C286.411 55.8179 286.647 56.2288 286.951 56.5089C287.256 56.7859 287.622 56.9244 288.05 56.9244ZM293.169 58V50.9091H294.494V52.0632H294.581C294.729 51.6723 294.971 51.3677 295.306 51.1491C295.642 50.9276 296.043 50.8168 296.511 50.8168C296.985 50.8168 297.382 50.9276 297.702 51.1491C298.025 51.3707 298.264 51.6754 298.418 52.0632H298.491C298.661 51.6847 298.93 51.383 299.299 51.1584C299.669 50.9306 300.109 50.8168 300.62 50.8168C301.263 50.8168 301.788 51.0183 302.194 51.4215C302.603 51.8247 302.808 52.4325 302.808 53.245V58H301.428V53.3743C301.428 52.8942 301.297 52.5464 301.035 52.331C300.774 52.1155 300.461 52.0078 300.098 52.0078C299.649 52.0078 299.299 52.1463 299.05 52.4233C298.801 52.6972 298.676 53.0496 298.676 53.4805V58H297.3V53.2866C297.3 52.9019 297.18 52.5926 296.94 52.3587C296.7 52.1248 296.388 52.0078 296.003 52.0078C295.742 52.0078 295.5 52.0771 295.278 52.2156C295.06 52.351 294.883 52.5402 294.747 52.7834C294.615 53.0265 294.549 53.3081 294.549 53.6282V58H293.169ZM304.769 58V48.5455H306.149V52.0586H306.232C306.312 51.9109 306.428 51.7401 306.578 51.5462C306.729 51.3523 306.938 51.183 307.206 51.0384C307.474 50.8906 307.828 50.8168 308.268 50.8168C308.84 50.8168 309.351 50.9614 309.801 51.2507C310.25 51.54 310.602 51.957 310.858 52.5018C311.116 53.0465 311.246 53.7021 311.246 54.4684C311.246 55.2347 311.118 55.8918 310.862 56.4396C310.607 56.9844 310.256 57.4045 309.81 57.6999C309.364 57.9923 308.854 58.1385 308.282 58.1385C307.851 58.1385 307.499 58.0662 307.225 57.9215C306.954 57.7769 306.741 57.6076 306.588 57.4137C306.434 57.2198 306.315 57.0475 306.232 56.8967H306.117V58H304.769ZM306.121 54.4545C306.121 54.9531 306.194 55.3902 306.338 55.7656C306.483 56.1411 306.692 56.435 306.966 56.6474C307.24 56.8567 307.576 56.9613 307.973 56.9613C308.385 56.9613 308.73 56.852 309.007 56.6335C309.284 56.4119 309.493 56.1119 309.634 55.7333C309.779 55.3548 309.851 54.9285 309.851 54.4545C309.851 53.9867 309.781 53.5666 309.639 53.1942C309.501 52.8219 309.291 52.5279 309.011 52.3125C308.734 52.0971 308.388 51.9893 307.973 51.9893C307.572 51.9893 307.234 52.0924 306.957 52.2987C306.683 52.5049 306.475 52.7926 306.334 53.1619C306.192 53.5312 306.121 53.9621 306.121 54.4545Z" fill="black"/>
<line y1="-0.5" x2="193.484" y2="-0.5" transform="matrix(0.999974 0.0072339 -0.00793331 0.999969 0 61.7958)" stroke="black"/>
<path d="M233.223 76.5455V86H231.791V77.9766H231.736L229.474 79.4538V78.0874L231.833 76.5455H233.223ZM238.901 86.1293C238.322 86.1293 237.802 86.0185 237.34 85.7969C236.882 85.5722 236.516 85.2644 236.242 84.8736C235.968 84.4827 235.822 84.0365 235.803 83.5348H237.188C237.222 83.9411 237.402 84.275 237.728 84.5366C238.054 84.7982 238.445 84.929 238.901 84.929C239.264 84.929 239.586 84.8459 239.866 84.6797C240.149 84.5104 240.37 84.2781 240.53 83.9826C240.694 83.6871 240.775 83.3501 240.775 82.9716C240.775 82.5869 240.692 82.2437 240.526 81.9421C240.36 81.6405 240.13 81.4035 239.838 81.2312C239.549 81.0588 239.216 80.9711 238.841 80.968C238.555 80.968 238.267 81.0173 237.977 81.1158C237.688 81.2143 237.454 81.3435 237.276 81.5036L235.969 81.3097L236.5 76.5455H241.698V77.7688H237.687L237.387 80.4141H237.442C237.627 80.2356 237.871 80.0863 238.176 79.9663C238.484 79.8462 238.813 79.7862 239.164 79.7862C239.739 79.7862 240.252 79.9232 240.701 80.1971C241.154 80.471 241.509 80.8449 241.768 81.3189C242.029 81.7898 242.158 82.3314 242.155 82.9439C242.158 83.5563 242.02 84.1026 241.74 84.5827C241.463 85.0629 241.078 85.4414 240.586 85.7184C240.096 85.9923 239.535 86.1293 238.901 86.1293ZM247.133 86.157C246.404 86.1539 245.78 85.9615 245.263 85.5799C244.746 85.1983 244.351 84.6428 244.077 83.9134C243.803 83.1839 243.666 82.3053 243.666 81.2773C243.666 80.2525 243.803 79.3769 244.077 78.6506C244.354 77.9242 244.751 77.3703 245.268 76.9886C245.788 76.607 246.41 76.4162 247.133 76.4162C247.856 76.4162 248.477 76.6085 248.994 76.9933C249.511 77.3749 249.906 77.9289 250.18 78.6552C250.457 79.3784 250.595 80.2525 250.595 81.2773C250.595 82.3084 250.459 83.1886 250.185 83.918C249.911 84.6443 249.515 85.1998 248.998 85.5845C248.481 85.9661 247.859 86.157 247.133 86.157ZM247.133 84.9244C247.773 84.9244 248.273 84.612 248.633 83.9872C248.997 83.3625 249.178 82.4592 249.178 81.2773C249.178 80.4925 249.095 79.8293 248.929 79.2876C248.766 78.7429 248.53 78.3305 248.223 78.0504C247.918 77.7673 247.555 77.6257 247.133 77.6257C246.496 77.6257 245.996 77.9396 245.633 78.5675C245.27 79.1953 245.086 80.0986 245.083 81.2773C245.083 82.0652 245.165 82.7315 245.328 83.2763C245.494 83.8179 245.73 84.2288 246.034 84.5089C246.339 84.7859 246.705 84.9244 247.133 84.9244ZM252.252 86V78.9091H253.577V80.0632H253.664C253.812 79.6723 254.054 79.3677 254.389 79.1491C254.725 78.9276 255.126 78.8168 255.594 78.8168C256.068 78.8168 256.465 78.9276 256.785 79.1491C257.108 79.3707 257.347 79.6754 257.501 80.0632H257.574C257.744 79.6847 258.013 79.383 258.382 79.1584C258.752 78.9306 259.192 78.8168 259.703 78.8168C260.346 78.8168 260.871 79.0183 261.277 79.4215C261.686 79.8247 261.891 80.4325 261.891 81.245V86H260.511V81.3743C260.511 80.8942 260.38 80.5464 260.118 80.331C259.857 80.1155 259.544 80.0078 259.181 80.0078C258.732 80.0078 258.382 80.1463 258.133 80.4233C257.884 80.6972 257.759 81.0496 257.759 81.4805V86H256.383V81.2866C256.383 80.9019 256.263 80.5926 256.023 80.3587C255.783 80.1248 255.471 80.0078 255.086 80.0078C254.825 80.0078 254.583 80.0771 254.361 80.2156C254.143 80.351 253.966 80.5402 253.83 80.7834C253.698 81.0265 253.632 81.3081 253.632 81.6282V86H252.252ZM263.852 86V76.5455H265.232V80.0586H265.315C265.395 79.9109 265.511 79.7401 265.661 79.5462C265.812 79.3523 266.021 79.183 266.289 79.0384C266.557 78.8906 266.911 78.8168 267.351 78.8168C267.923 78.8168 268.434 78.9614 268.884 79.2507C269.333 79.54 269.685 79.957 269.941 80.5018C270.199 81.0465 270.329 81.7021 270.329 82.4684C270.329 83.2347 270.201 83.8918 269.945 84.4396C269.69 84.9844 269.339 85.4045 268.893 85.6999C268.447 85.9923 267.937 86.1385 267.365 86.1385C266.934 86.1385 266.582 86.0662 266.308 85.9215C266.037 85.7769 265.824 85.6076 265.671 85.4137C265.517 85.2198 265.398 85.0475 265.315 84.8967H265.2V86H263.852ZM265.204 82.4545C265.204 82.9531 265.277 83.3902 265.421 83.7656C265.566 84.1411 265.775 84.435 266.049 84.6474C266.323 84.8567 266.659 84.9613 267.056 84.9613C267.468 84.9613 267.813 84.852 268.09 84.6335C268.367 84.4119 268.576 84.1119 268.717 83.7333C268.862 83.3548 268.934 82.9285 268.934 82.4545C268.934 81.9867 268.864 81.5666 268.722 81.1942C268.584 80.8219 268.374 80.5279 268.094 80.3125C267.817 80.0971 267.471 79.9893 267.056 79.9893C266.655 79.9893 266.317 80.0924 266.04 80.2987C265.766 80.5049 265.558 80.7926 265.417 81.1619C265.275 81.5312 265.204 81.9621 265.204 82.4545ZM279.497 80.6726V81.8729H275.305V80.6726H279.497ZM288.05 86.1293C287.416 86.1293 286.85 86.02 286.351 85.8015C285.856 85.583 285.463 85.2798 285.174 84.892C284.888 84.5012 284.734 84.0488 284.712 83.5348H286.162C286.18 83.8149 286.274 84.058 286.444 84.2642C286.616 84.4673 286.841 84.6243 287.118 84.7351C287.395 84.8459 287.702 84.9013 288.041 84.9013C288.413 84.9013 288.743 84.8366 289.029 84.7074C289.318 84.5781 289.544 84.3981 289.707 84.1673C289.871 83.9334 289.952 83.6641 289.952 83.3594C289.952 83.0424 289.871 82.7638 289.707 82.5238C289.547 82.2807 289.312 82.0898 289.001 81.9513C288.693 81.8129 288.321 81.7436 287.884 81.7436H287.085V80.5803H287.884C288.235 80.5803 288.543 80.5172 288.807 80.391C289.075 80.2648 289.284 80.0894 289.435 79.8647C289.586 79.637 289.661 79.3707 289.661 79.0661C289.661 78.7737 289.595 78.5198 289.463 78.3043C289.333 78.0858 289.149 77.915 288.909 77.7919C288.672 77.6688 288.392 77.6072 288.069 77.6072C287.761 77.6072 287.473 77.6642 287.205 77.7781C286.941 77.8888 286.725 78.0489 286.559 78.2582C286.393 78.4644 286.304 78.7121 286.291 79.0014H284.911C284.926 78.4905 285.077 78.0412 285.363 77.6534C285.653 77.2656 286.034 76.9625 286.508 76.744C286.982 76.5254 287.508 76.4162 288.087 76.4162C288.693 76.4162 289.217 76.5347 289.657 76.7717C290.1 77.0056 290.441 77.3179 290.682 77.7088C290.925 78.0997 291.045 78.5275 291.042 78.9922C291.045 79.5215 290.897 79.9709 290.598 80.3402C290.303 80.7095 289.909 80.9573 289.417 81.0835V81.1573C290.044 81.2527 290.531 81.502 290.875 81.9052C291.223 82.3084 291.396 82.8085 291.392 83.4055C291.396 83.9257 291.251 84.3919 290.958 84.8043C290.669 85.2167 290.274 85.5414 289.772 85.7784C289.27 86.0123 288.696 86.1293 288.05 86.1293ZM296.429 86.157C295.7 86.1539 295.076 85.9615 294.559 85.5799C294.042 85.1983 293.647 84.6428 293.373 83.9134C293.099 83.1839 292.962 82.3053 292.962 81.2773C292.962 80.2525 293.099 79.3769 293.373 78.6506C293.65 77.9242 294.047 77.3703 294.564 76.9886C295.084 76.607 295.706 76.4162 296.429 76.4162C297.152 76.4162 297.772 76.6085 298.289 76.9933C298.807 77.3749 299.202 77.9289 299.476 78.6552C299.753 79.3784 299.891 80.2525 299.891 81.2773C299.891 82.3084 299.754 83.1886 299.481 83.918C299.207 84.6443 298.811 85.1998 298.294 85.5845C297.777 85.9661 297.155 86.157 296.429 86.157ZM296.429 84.9244C297.069 84.9244 297.569 84.612 297.929 83.9872C298.293 83.3625 298.474 82.4592 298.474 81.2773C298.474 80.4925 298.391 79.8293 298.225 79.2876C298.062 78.7429 297.826 78.3305 297.519 78.0504C297.214 77.7673 296.851 77.6257 296.429 77.6257C295.792 77.6257 295.292 77.9396 294.929 78.5675C294.566 79.1953 294.382 80.0986 294.379 81.2773C294.379 82.0652 294.461 82.7315 294.624 83.2763C294.79 83.8179 295.026 84.2288 295.33 84.5089C295.635 84.7859 296.001 84.9244 296.429 84.9244ZM304.821 86.157C304.091 86.1539 303.468 85.9615 302.951 85.5799C302.434 85.1983 302.038 84.6428 301.765 83.9134C301.491 83.1839 301.354 82.3053 301.354 81.2773C301.354 80.2525 301.491 79.3769 301.765 78.6506C302.042 77.9242 302.439 77.3703 302.956 76.9886C303.476 76.607 304.097 76.4162 304.821 76.4162C305.544 76.4162 306.164 76.6085 306.681 76.9933C307.198 77.3749 307.594 77.9289 307.867 78.6552C308.144 79.3784 308.283 80.2525 308.283 81.2773C308.283 82.3084 308.146 83.1886 307.872 83.918C307.598 84.6443 307.203 85.1998 306.686 85.5845C306.169 85.9661 305.547 86.157 304.821 86.157ZM304.821 84.9244C305.461 84.9244 305.961 84.612 306.321 83.9872C306.684 83.3625 306.866 82.4592 306.866 81.2773C306.866 80.4925 306.783 79.8293 306.616 79.2876C306.453 78.7429 306.218 78.3305 305.91 78.0504C305.605 77.7673 305.242 77.6257 304.821 77.6257C304.184 77.6257 303.683 77.9396 303.32 78.5675C302.957 79.1953 302.774 80.0986 302.771 81.2773C302.771 82.0652 302.852 82.7315 303.016 83.2763C303.182 83.8179 303.417 84.2288 303.722 84.5089C304.027 84.7859 304.393 84.9244 304.821 84.9244ZM309.939 86V78.9091H311.264V80.0632H311.352C311.5 79.6723 311.741 79.3677 312.077 79.1491C312.412 78.9276 312.814 78.8168 313.281 78.8168C313.755 78.8168 314.152 78.9276 314.473 79.1491C314.796 79.3707 315.034 79.6754 315.188 80.0632H315.262C315.431 79.6847 315.701 79.383 316.07 79.1584C316.439 78.9306 316.879 78.8168 317.39 78.8168C318.033 78.8168 318.558 79.0183 318.964 79.4215C319.374 79.8247 319.578 80.4325 319.578 81.245V86H318.198V81.3743C318.198 80.8942 318.067 80.5464 317.806 80.331C317.544 80.1155 317.232 80.0078 316.868 80.0078C316.419 80.0078 316.07 80.1463 315.821 80.4233C315.571 80.6972 315.447 81.0496 315.447 81.4805V86H314.071V81.2866C314.071 80.9019 313.951 80.5926 313.711 80.3587C313.471 80.1248 313.158 80.0078 312.774 80.0078C312.512 80.0078 312.27 80.0771 312.049 80.2156C311.83 80.351 311.653 80.5402 311.518 80.7834C311.386 81.0265 311.319 81.3081 311.319 81.6282V86H309.939ZM321.539 86V76.5455H322.92V80.0586H323.003C323.083 79.9109 323.198 79.7401 323.349 79.5462C323.5 79.3523 323.709 79.183 323.977 79.0384C324.244 78.8906 324.598 78.8168 325.038 78.8168C325.611 78.8168 326.122 78.9614 326.571 79.2507C327.02 79.54 327.373 79.957 327.628 80.5018C327.887 81.0465 328.016 81.7021 328.016 82.4684C328.016 83.2347 327.888 83.8918 327.633 84.4396C327.378 84.9844 327.027 85.4045 326.58 85.6999C326.134 85.9923 325.625 86.1385 325.052 86.1385C324.621 86.1385 324.269 86.0662 323.995 85.9215C323.724 85.7769 323.512 85.6076 323.358 85.4137C323.204 85.2198 323.086 85.0475 323.003 84.8967H322.887V86H321.539ZM322.892 82.4545C322.892 82.9531 322.964 83.3902 323.109 83.7656C323.253 84.1411 323.463 84.435 323.737 84.6474C324.011 84.8567 324.346 84.9613 324.743 84.9613C325.155 84.9613 325.5 84.852 325.777 84.6335C326.054 84.4119 326.263 84.1119 326.405 83.7333C326.55 83.3548 326.622 82.9285 326.622 82.4545C326.622 81.9867 326.551 81.5666 326.41 81.1942C326.271 80.8219 326.062 80.5279 325.782 80.3125C325.505 80.0971 325.159 79.9893 324.743 79.9893C324.343 79.9893 324.004 80.0924 323.727 80.2987C323.453 80.5049 323.246 80.7926 323.104 81.1619C322.963 81.5312 322.892 81.9621 322.892 82.4545Z" fill="black"/>
<path d="M76.081 6.57457C75.9922 6.28693 75.8697 6.02947 75.7135 5.8022C75.5608 5.57138 75.3761 5.37429 75.1595 5.21094C74.9464 5.04759 74.7014 4.92507 74.4244 4.84339C74.1474 4.75817 73.8456 4.71555 73.5189 4.71555C72.9329 4.71555 72.4109 4.86293 71.9528 5.15767C71.4947 5.45241 71.1343 5.88565 70.8715 6.45739C70.6123 7.02557 70.4826 7.71804 70.4826 8.5348C70.4826 9.35866 70.6123 10.0565 70.8715 10.6282C71.1307 11.1999 71.4912 11.6349 71.9528 11.9332C72.4145 12.228 72.9507 12.3754 73.5615 12.3754C74.1155 12.3754 74.5949 12.2688 74.9997 12.0558C75.4081 11.8427 75.7223 11.5408 75.9425 11.1502C76.1627 10.756 76.2728 10.2944 76.2728 9.76527L76.7202 9.83452H73.7586V8.28977H78.1851V9.60014C78.1851 10.5341 77.9862 11.342 77.5885 12.0238C77.1907 12.7056 76.6439 13.2312 75.9478 13.6005C75.2518 13.9663 74.4528 14.1491 73.5508 14.1491C72.5459 14.1491 71.6634 13.9237 70.9035 13.4727C70.1471 13.0181 69.5558 12.3736 69.1297 11.5391C68.7071 10.701 68.4958 9.70668 68.4958 8.55611C68.4958 7.67543 68.6201 6.88885 68.8687 6.19638C69.1208 5.50391 69.4723 4.91619 69.9233 4.43324C70.3743 3.94673 70.9035 3.57741 71.5107 3.32528C72.1179 3.0696 72.7785 2.94176 73.4922 2.94176C74.0959 2.94176 74.6588 3.03054 75.1808 3.2081C75.7028 3.3821 76.1662 3.63068 76.5711 3.95384C76.9794 4.27699 77.315 4.66051 77.5778 5.1044C77.8406 5.5483 78.0128 6.03835 78.0945 6.57457H76.081ZM80.0108 14V5.81818H81.8805V7.18182H81.9657C82.1148 6.70952 82.3705 6.34553 82.7327 6.08984C83.0985 5.83061 83.5158 5.70099 83.9845 5.70099C84.091 5.70099 84.21 5.70632 84.3414 5.71697C84.4763 5.72408 84.5882 5.73651 84.677 5.75426V7.52805C84.5953 7.49964 84.4657 7.47479 84.2881 7.45348C84.1141 7.42862 83.9454 7.41619 83.7821 7.41619C83.4305 7.41619 83.1145 7.49254 82.8339 7.64524C82.557 7.79439 82.3386 8.00213 82.1788 8.26847C82.019 8.5348 81.9391 8.84197 81.9391 9.18999V14H80.0108ZM89.19 14.1598C88.391 14.1598 87.6986 13.984 87.1126 13.6325C86.5267 13.2809 86.0721 12.7891 85.749 12.157C85.4294 11.5249 85.2696 10.7862 85.2696 9.94105C85.2696 9.09588 85.4294 8.35547 85.749 7.71982C86.0721 7.08416 86.5267 6.59055 87.1126 6.23899C87.6986 5.88743 88.391 5.71165 89.19 5.71165C89.989 5.71165 90.6815 5.88743 91.2674 6.23899C91.8534 6.59055 92.3062 7.08416 92.6258 7.71982C92.9489 8.35547 93.1105 9.09588 93.1105 9.94105C93.1105 10.7862 92.9489 11.5249 92.6258 12.157C92.3062 12.7891 91.8534 13.2809 91.2674 13.6325C90.6815 13.984 89.989 14.1598 89.19 14.1598ZM89.2007 12.6151C89.6339 12.6151 89.9961 12.4961 90.2873 12.2582C90.5785 12.0167 90.7951 11.6935 90.9372 11.2887C91.0828 10.8839 91.1556 10.4329 91.1556 9.93572C91.1556 9.43501 91.0828 8.98224 90.9372 8.57741C90.7951 8.16903 90.5785 7.84411 90.2873 7.60263C89.9961 7.36115 89.6339 7.24041 89.2007 7.24041C88.7568 7.24041 88.3875 7.36115 88.0927 7.60263C87.8015 7.84411 87.5831 8.16903 87.4375 8.57741C87.2955 8.98224 87.2245 9.43501 87.2245 9.93572C87.2245 10.4329 87.2955 10.8839 87.4375 11.2887C87.5831 11.6935 87.8015 12.0167 88.0927 12.2582C88.3875 12.4961 88.7568 12.6151 89.2007 12.6151ZM101.214 7.98082L99.4559 8.17258C99.4062 7.99503 99.3192 7.82812 99.1949 7.67188C99.0742 7.51562 98.9108 7.38956 98.7049 7.29368C98.4989 7.1978 98.2468 7.14986 97.9485 7.14986C97.5472 7.14986 97.2098 7.23686 96.9364 7.41087C96.6665 7.58487 96.5333 7.81037 96.5369 8.08736C96.5333 8.32528 96.6203 8.51882 96.7979 8.66797C96.979 8.81712 97.2773 8.93963 97.6928 9.03551L99.0884 9.33381C99.8625 9.50071 100.438 9.76527 100.814 10.1275C101.194 10.4897 101.386 10.9638 101.39 11.5497C101.386 12.0646 101.235 12.5192 100.937 12.9134C100.642 13.304 100.232 13.6094 99.7063 13.8295C99.1807 14.0497 98.577 14.1598 97.8952 14.1598C96.8938 14.1598 96.0877 13.9503 95.4769 13.5312C94.8661 13.1087 94.5021 12.521 94.3849 11.7681L96.2652 11.587C96.3505 11.9563 96.5316 12.2351 96.8085 12.4233C97.0855 12.6115 97.446 12.7056 97.8899 12.7056C98.348 12.7056 98.7155 12.6115 98.9925 12.4233C99.273 12.2351 99.4133 12.0025 99.4133 11.7255C99.4133 11.4911 99.3228 11.2976 99.1416 11.1449C98.9641 10.9922 98.6871 10.875 98.3107 10.7933L96.9151 10.5004C96.1303 10.337 95.5497 10.0618 95.1733 9.67472C94.7968 9.28409 94.6104 8.79048 94.6139 8.19389C94.6104 7.68963 94.7471 7.25284 95.0241 6.88352C95.3046 6.51065 95.6935 6.22301 96.1907 6.0206C96.6914 5.81463 97.2684 5.71165 97.9218 5.71165C98.8806 5.71165 99.6353 5.91584 100.186 6.32422C100.74 6.7326 101.082 7.2848 101.214 7.98082ZM106.548 14.1598C105.749 14.1598 105.057 13.984 104.471 13.6325C103.885 13.2809 103.431 12.7891 103.107 12.157C102.788 11.5249 102.628 10.7862 102.628 9.94105C102.628 9.09588 102.788 8.35547 103.107 7.71982C103.431 7.08416 103.885 6.59055 104.471 6.23899C105.057 5.88743 105.749 5.71165 106.548 5.71165C107.347 5.71165 108.04 5.88743 108.626 6.23899C109.212 6.59055 109.665 7.08416 109.984 7.71982C110.307 8.35547 110.469 9.09588 110.469 9.94105C110.469 10.7862 110.307 11.5249 109.984 12.157C109.665 12.7891 109.212 13.2809 108.626 13.6325C108.04 13.984 107.347 14.1598 106.548 14.1598ZM106.559 12.6151C106.992 12.6151 107.355 12.4961 107.646 12.2582C107.937 12.0167 108.154 11.6935 108.296 11.2887C108.441 10.8839 108.514 10.4329 108.514 9.93572C108.514 9.43501 108.441 8.98224 108.296 8.57741C108.154 8.16903 107.937 7.84411 107.646 7.60263C107.355 7.36115 106.992 7.24041 106.559 7.24041C106.115 7.24041 105.746 7.36115 105.451 7.60263C105.16 7.84411 104.942 8.16903 104.796 8.57741C104.654 8.98224 104.583 9.43501 104.583 9.93572C104.583 10.4329 104.654 10.8839 104.796 11.2887C104.942 11.6935 105.16 12.0167 105.451 12.2582C105.746 12.4961 106.115 12.6151 106.559 12.6151ZM112.106 14V5.81818H113.975V7.18182H114.06C114.21 6.70952 114.465 6.34553 114.827 6.08984C115.193 5.83061 115.61 5.70099 116.079 5.70099C116.186 5.70099 116.305 5.70632 116.436 5.71697C116.571 5.72408 116.683 5.73651 116.772 5.75426V7.52805C116.69 7.49964 116.56 7.47479 116.383 7.45348C116.209 7.42862 116.04 7.41619 115.877 7.41619C115.525 7.41619 115.209 7.49254 114.929 7.64524C114.652 7.79439 114.433 8.00213 114.273 8.26847C114.114 8.5348 114.034 8.84197 114.034 9.18999V14H112.106ZM122.253 8.54545C122.253 7.21378 122.429 5.99041 122.78 4.87535C123.135 3.75675 123.663 2.72337 124.362 1.77521H126.179C125.909 2.12678 125.657 2.55824 125.422 3.0696C125.188 3.57741 124.984 4.13494 124.81 4.74219C124.639 5.34588 124.504 5.97266 124.405 6.62251C124.309 7.27237 124.261 7.91335 124.261 8.54545C124.261 9.38707 124.345 10.2393 124.511 11.1023C124.682 11.9652 124.911 12.766 125.199 13.5046C125.49 14.2397 125.816 14.8416 126.179 15.3104H124.362C123.663 14.3622 123.135 13.3306 122.78 12.2156C122.429 11.0969 122.253 9.87358 122.253 8.54545ZM129.163 14H127.054L130.894 3.09091H133.334L137.18 14H135.07L132.157 5.32812H132.071L129.163 14ZM129.232 9.72266H134.985V11.31H129.232V9.72266ZM140.46 3.09091V14H138.531V3.09091H140.46ZM142.442 14V5.81818H144.285V7.20845H144.381C144.552 6.7397 144.834 6.37393 145.228 6.11115C145.622 5.84482 146.093 5.71165 146.64 5.71165C147.194 5.71165 147.661 5.84659 148.041 6.11648C148.424 6.38281 148.694 6.7468 148.85 7.20845H148.936C149.117 6.75391 149.422 6.39169 149.852 6.1218C150.285 5.84837 150.798 5.71165 151.391 5.71165C152.144 5.71165 152.758 5.94957 153.234 6.42543C153.71 6.90128 153.948 7.59553 153.948 8.50817V14H152.015V8.80646C152.015 8.29865 151.88 7.92756 151.61 7.69318C151.34 7.45526 151.01 7.33629 150.619 7.33629C150.154 7.33629 149.79 7.48189 149.527 7.77308C149.268 8.06072 149.138 8.43537 149.138 8.89702V14H147.247V8.72656C147.247 8.30398 147.119 7.96662 146.864 7.71449C146.611 7.46236 146.281 7.33629 145.873 7.33629C145.596 7.33629 145.344 7.40732 145.116 7.54936C144.889 7.68786 144.708 7.88494 144.573 8.14062C144.438 8.39276 144.371 8.6875 144.371 9.02486V14H142.442ZM158.259 14.1651C157.74 14.1651 157.273 14.0728 156.858 13.8881C156.446 13.6999 156.119 13.4229 155.878 13.0572C155.64 12.6914 155.521 12.2404 155.521 11.7042C155.521 11.2425 155.606 10.8608 155.777 10.5589C155.947 10.2571 156.18 10.0156 156.474 9.83452C156.769 9.65341 157.101 9.51669 157.47 9.42436C157.843 9.32848 158.229 9.25923 158.626 9.21662C159.106 9.1669 159.495 9.12251 159.793 9.08345C160.091 9.04084 160.308 8.97692 160.443 8.89169C160.581 8.80291 160.65 8.66619 160.65 8.48153V8.44957C160.65 8.0483 160.531 7.73757 160.294 7.5174C160.056 7.29723 159.713 7.18714 159.265 7.18714C158.793 7.18714 158.419 7.29013 158.142 7.49609C157.868 7.70206 157.683 7.94531 157.588 8.22585L155.787 7.97017C155.929 7.47301 156.164 7.05753 156.49 6.72372C156.817 6.38636 157.216 6.13423 157.689 5.96733C158.161 5.79688 158.683 5.71165 159.255 5.71165C159.649 5.71165 160.041 5.75781 160.432 5.85014C160.823 5.94247 161.18 6.09517 161.503 6.30824C161.826 6.51776 162.085 6.80362 162.28 7.16584C162.479 7.52805 162.579 7.98082 162.579 8.52415V14H160.725V12.8761H160.661C160.544 13.1033 160.379 13.3164 160.166 13.5153C159.956 13.7106 159.692 13.8686 159.372 13.9893C159.056 14.1065 158.685 14.1651 158.259 14.1651ZM158.759 12.7482C159.147 12.7482 159.482 12.6719 159.766 12.5192C160.05 12.3629 160.269 12.157 160.421 11.9013C160.578 11.6456 160.656 11.3668 160.656 11.065V10.1009C160.595 10.1506 160.492 10.1967 160.347 10.2393C160.205 10.282 160.045 10.3192 159.867 10.3512C159.69 10.3832 159.514 10.4116 159.34 10.4364C159.166 10.4613 159.015 10.4826 158.887 10.5004C158.6 10.5394 158.342 10.6033 158.115 10.6921C157.888 10.7809 157.708 10.9052 157.577 11.065C157.446 11.2212 157.38 11.4237 157.38 11.6722C157.38 12.0273 157.509 12.2955 157.769 12.4766C158.028 12.6577 158.358 12.7482 158.759 12.7482ZM168.087 14.1598C167.27 14.1598 166.568 13.9805 165.982 13.6218C165.4 13.2631 164.951 12.7678 164.635 12.1357C164.322 11.5 164.166 10.7685 164.166 9.94105C164.166 9.11009 164.326 8.37678 164.645 7.74112C164.965 7.10192 165.416 6.60476 165.998 6.24964C166.584 5.89098 167.277 5.71165 168.076 5.71165C168.74 5.71165 169.328 5.83416 169.839 6.07919C170.354 6.32067 170.764 6.66335 171.069 7.10724C171.375 7.54759 171.549 8.0625 171.591 8.65199H169.748C169.674 8.25781 169.496 7.92933 169.216 7.66655C168.939 7.40021 168.568 7.26705 168.102 7.26705C167.708 7.26705 167.362 7.37358 167.064 7.58665C166.765 7.79616 166.533 8.09801 166.366 8.49219C166.203 8.88636 166.121 9.35866 166.121 9.90909C166.121 10.4666 166.203 10.946 166.366 11.3473C166.529 11.745 166.758 12.0522 167.053 12.2688C167.351 12.4819 167.701 12.5884 168.102 12.5884C168.387 12.5884 168.64 12.5352 168.864 12.4286C169.091 12.3185 169.281 12.1605 169.434 11.9545C169.587 11.7486 169.692 11.4982 169.748 11.2035H171.591C171.545 11.7823 171.375 12.2955 171.08 12.7429C170.785 13.1868 170.384 13.5348 169.876 13.7869C169.368 14.0355 168.772 14.1598 168.087 14.1598ZM176.797 14.1598C175.977 14.1598 175.268 13.9893 174.672 13.6484C174.079 13.304 173.622 12.8175 173.303 12.1889C172.983 11.5568 172.823 10.8129 172.823 9.95703C172.823 9.11541 172.983 8.37678 173.303 7.74112C173.626 7.10192 174.077 6.60476 174.656 6.24964C175.235 5.89098 175.915 5.71165 176.696 5.71165C177.2 5.71165 177.676 5.79332 178.123 5.95668C178.574 6.11648 178.972 6.36506 179.317 6.70241C179.665 7.03977 179.938 7.46946 180.137 7.99148C180.336 8.50994 180.435 9.12784 180.435 9.84517V10.4364H173.729V9.13672H178.587C178.583 8.7674 178.503 8.43892 178.347 8.15128C178.191 7.86009 177.972 7.63104 177.692 7.46413C177.415 7.29723 177.092 7.21378 176.722 7.21378C176.328 7.21378 175.982 7.30966 175.684 7.50142C175.385 7.68963 175.153 7.93821 174.986 8.24716C174.823 8.55256 174.739 8.88814 174.736 9.25391V10.3885C174.736 10.8643 174.823 11.2727 174.997 11.6136C175.171 11.951 175.414 12.2102 175.726 12.3913C176.039 12.5689 176.405 12.6577 176.824 12.6577C177.104 12.6577 177.358 12.6186 177.585 12.5405C177.813 12.4588 178.01 12.3398 178.177 12.1836C178.344 12.0273 178.47 11.8338 178.555 11.603L180.355 11.8054C180.242 12.2812 180.025 12.6967 179.705 13.0518C179.389 13.4034 178.985 13.6768 178.491 13.8722C177.997 14.0639 177.433 14.1598 176.797 14.1598ZM183.995 9.20597V14H182.066V5.81818H183.909V7.20845H184.005C184.194 6.75035 184.494 6.38636 184.906 6.11648C185.321 5.84659 185.834 5.71165 186.445 5.71165C187.01 5.71165 187.501 5.83239 187.92 6.07386C188.343 6.31534 188.67 6.66513 188.901 7.12322C189.135 7.58132 189.25 8.13707 189.247 8.79048V14H187.319V9.08878C187.319 8.5419 187.177 8.11399 186.892 7.80504C186.612 7.49609 186.223 7.34162 185.726 7.34162C185.389 7.34162 185.088 7.41619 184.826 7.56534C184.566 7.71094 184.362 7.92223 184.213 8.19922C184.068 8.47621 183.995 8.81179 183.995 9.20597ZM193.561 14.1651C193.043 14.1651 192.576 14.0728 192.161 13.8881C191.749 13.6999 191.422 13.4229 191.18 13.0572C190.943 12.6914 190.824 12.2404 190.824 11.7042C190.824 11.2425 190.909 10.8608 191.079 10.5589C191.25 10.2571 191.482 10.0156 191.777 9.83452C192.072 9.65341 192.404 9.51669 192.773 9.42436C193.146 9.32848 193.531 9.25923 193.929 9.21662C194.408 9.1669 194.797 9.12251 195.096 9.08345C195.394 9.04084 195.61 8.97692 195.745 8.89169C195.884 8.80291 195.953 8.66619 195.953 8.48153V8.44957C195.953 8.0483 195.834 7.73757 195.596 7.5174C195.358 7.29723 195.016 7.18714 194.568 7.18714C194.096 7.18714 193.721 7.29013 193.444 7.49609C193.171 7.70206 192.986 7.94531 192.89 8.22585L191.09 7.97017C191.232 7.47301 191.466 7.05753 191.793 6.72372C192.12 6.38636 192.519 6.13423 192.992 5.96733C193.464 5.79688 193.986 5.71165 194.558 5.71165C194.952 5.71165 195.344 5.75781 195.735 5.85014C196.125 5.94247 196.482 6.09517 196.805 6.30824C197.129 6.51776 197.388 6.80362 197.583 7.16584C197.782 7.52805 197.881 7.98082 197.881 8.52415V14H196.028V12.8761H195.964C195.847 13.1033 195.682 13.3164 195.468 13.5153C195.259 13.7106 194.994 13.8686 194.675 13.9893C194.359 14.1065 193.988 14.1651 193.561 14.1651ZM194.062 12.7482C194.449 12.7482 194.785 12.6719 195.069 12.5192C195.353 12.3629 195.571 12.157 195.724 11.9013C195.88 11.6456 195.958 11.3668 195.958 11.065V10.1009C195.898 10.1506 195.795 10.1967 195.65 10.2393C195.508 10.282 195.348 10.3192 195.17 10.3512C194.993 10.3832 194.817 10.4116 194.643 10.4364C194.469 10.4613 194.318 10.4826 194.19 10.5004C193.902 10.5394 193.645 10.6033 193.418 10.6921C193.19 10.7809 193.011 10.9052 192.88 11.065C192.748 11.2212 192.683 11.4237 192.683 11.6722C192.683 12.0273 192.812 12.2955 193.071 12.4766C193.331 12.6577 193.661 12.7482 194.062 12.7482ZM199.82 14V5.81818H201.663V7.20845H201.759C201.93 6.7397 202.212 6.37393 202.606 6.11115C203 5.84482 203.471 5.71165 204.018 5.71165C204.572 5.71165 205.039 5.84659 205.419 6.11648C205.802 6.38281 206.072 6.7468 206.228 7.20845H206.314C206.495 6.75391 206.8 6.39169 207.23 6.1218C207.663 5.84837 208.176 5.71165 208.769 5.71165C209.522 5.71165 210.136 5.94957 210.612 6.42543C211.088 6.90128 211.326 7.59553 211.326 8.50817V14H209.392V8.80646C209.392 8.29865 209.258 7.92756 208.988 7.69318C208.718 7.45526 208.387 7.33629 207.997 7.33629C207.532 7.33629 207.168 7.48189 206.905 7.77308C206.646 8.06072 206.516 8.43537 206.516 8.89702V14H204.625V8.72656C204.625 8.30398 204.497 7.96662 204.242 7.71449C203.989 7.46236 203.659 7.33629 203.251 7.33629C202.974 7.33629 202.722 7.40732 202.494 7.54936C202.267 7.68786 202.086 7.88494 201.951 8.14062C201.816 8.39276 201.749 8.6875 201.749 9.02486V14H199.82ZM213.282 14V5.81818H215.211V14H213.282ZM214.252 4.65696C213.946 4.65696 213.684 4.55575 213.463 4.35334C213.243 4.14737 213.133 3.90057 213.133 3.61293C213.133 3.32173 213.243 3.07493 213.463 2.87251C213.684 2.66655 213.946 2.56357 214.252 2.56357C214.561 2.56357 214.823 2.66655 215.04 2.87251C215.26 3.07493 215.37 3.32173 215.37 3.61293C215.37 3.90057 215.26 4.14737 215.04 4.35334C214.823 4.55575 214.561 4.65696 214.252 4.65696ZM220.816 14.1598C219.995 14.1598 219.287 13.9893 218.69 13.6484C218.097 13.304 217.641 12.8175 217.321 12.1889C217.002 11.5568 216.842 10.8129 216.842 9.95703C216.842 9.11541 217.002 8.37678 217.321 7.74112C217.644 7.10192 218.095 6.60476 218.674 6.24964C219.253 5.89098 219.933 5.71165 220.714 5.71165C221.219 5.71165 221.694 5.79332 222.142 5.95668C222.593 6.11648 222.991 6.36506 223.335 6.70241C223.683 7.03977 223.957 7.46946 224.155 7.99148C224.354 8.50994 224.454 9.12784 224.454 9.84517V10.4364H217.747V9.13672H222.605C222.602 8.7674 222.522 8.43892 222.366 8.15128C222.209 7.86009 221.991 7.63104 221.71 7.46413C221.433 7.29723 221.11 7.21378 220.741 7.21378C220.347 7.21378 220.001 7.30966 219.702 7.50142C219.404 7.68963 219.171 7.93821 219.004 8.24716C218.841 8.55256 218.758 8.88814 218.754 9.25391V10.3885C218.754 10.8643 218.841 11.2727 219.015 11.6136C219.189 11.951 219.432 12.2102 219.745 12.3913C220.057 12.5689 220.423 12.6577 220.842 12.6577C221.123 12.6577 221.377 12.6186 221.604 12.5405C221.831 12.4588 222.028 12.3398 222.195 12.1836C222.362 12.0273 222.488 11.8338 222.573 11.603L224.374 11.8054C224.26 12.2812 224.044 12.6967 223.724 13.0518C223.408 13.4034 223.003 13.6768 222.509 13.8722C222.016 14.0639 221.451 14.1598 220.816 14.1598ZM228.013 9.20597V14H226.085V5.81818H227.928V7.20845H228.024C228.212 6.75035 228.512 6.38636 228.924 6.11648C229.34 5.84659 229.853 5.71165 230.464 5.71165C231.028 5.71165 231.52 5.83239 231.939 6.07386C232.362 6.31534 232.688 6.66513 232.919 7.12322C233.154 7.58132 233.269 8.13707 233.265 8.79048V14H231.337V9.08878C231.337 8.5419 231.195 8.11399 230.911 7.80504C230.63 7.49609 230.242 7.34162 229.744 7.34162C229.407 7.34162 229.107 7.41619 228.844 7.56534C228.585 7.71094 228.381 7.92223 228.232 8.19922C228.086 8.47621 228.013 8.81179 228.013 9.20597ZM239.311 5.81818V7.30966H234.608V5.81818H239.311ZM235.769 3.85795H237.697V11.5391C237.697 11.7983 237.736 11.9972 237.814 12.1357C237.896 12.2706 238.003 12.3629 238.134 12.4126C238.265 12.4624 238.411 12.4872 238.571 12.4872C238.692 12.4872 238.802 12.4783 238.901 12.4606C239.004 12.4428 239.082 12.4268 239.135 12.4126L239.46 13.9201C239.357 13.9556 239.21 13.9947 239.018 14.0373C238.83 14.0799 238.599 14.1048 238.326 14.1119C237.843 14.1261 237.408 14.0533 237.021 13.8935C236.634 13.7301 236.326 13.478 236.099 13.1371C235.875 12.7962 235.765 12.37 235.769 11.8587V3.85795ZM244.405 14.1598C243.606 14.1598 242.913 13.984 242.327 13.6325C241.742 13.2809 241.287 12.7891 240.964 12.157C240.644 11.5249 240.484 10.7862 240.484 9.94105C240.484 9.09588 240.644 8.35547 240.964 7.71982C241.287 7.08416 241.742 6.59055 242.327 6.23899C242.913 5.88743 243.606 5.71165 244.405 5.71165C245.204 5.71165 245.896 5.88743 246.482 6.23899C247.068 6.59055 247.521 7.08416 247.841 7.71982C248.164 8.35547 248.325 9.09588 248.325 9.94105C248.325 10.7862 248.164 11.5249 247.841 12.157C247.521 12.7891 247.068 13.2809 246.482 13.6325C245.896 13.984 245.204 14.1598 244.405 14.1598ZM244.416 12.6151C244.849 12.6151 245.211 12.4961 245.502 12.2582C245.793 12.0167 246.01 11.6935 246.152 11.2887C246.298 10.8839 246.37 10.4329 246.37 9.93572C246.37 9.43501 246.298 8.98224 246.152 8.57741C246.01 8.16903 245.793 7.84411 245.502 7.60263C245.211 7.36115 244.849 7.24041 244.416 7.24041C243.972 7.24041 243.602 7.36115 243.308 7.60263C243.016 7.84411 242.798 8.16903 242.652 8.57741C242.51 8.98224 242.439 9.43501 242.439 9.93572C242.439 10.4329 242.51 10.8839 242.652 11.2887C242.798 11.6935 243.016 12.0167 243.308 12.2582C243.602 12.4961 243.972 12.6151 244.416 12.6151ZM253.213 9.5522C253.213 10.8803 253.035 12.1037 252.68 13.2223C252.328 14.3374 251.803 15.369 251.103 16.3171H249.287C249.56 15.9656 249.812 15.5359 250.043 15.0281C250.278 14.5202 250.48 13.9627 250.65 13.3555C250.824 12.7482 250.959 12.1197 251.055 11.4698C251.155 10.82 251.204 10.1808 251.204 9.5522C251.204 8.71058 251.119 7.85831 250.949 6.99538C250.782 6.13246 250.553 5.33168 250.262 4.59304C249.974 3.8544 249.649 3.25071 249.287 2.78196H251.103C251.803 3.73011 252.328 4.76349 252.68 5.8821C253.035 6.99716 253.213 8.22053 253.213 9.5522ZM256.863 14.1172C256.54 14.1172 256.263 14.0036 256.032 13.7763C255.801 13.549 255.687 13.272 255.691 12.9453C255.687 12.6257 255.801 12.3523 256.032 12.125C256.263 11.8977 256.54 11.7841 256.863 11.7841C257.175 11.7841 257.447 11.8977 257.678 12.125C257.912 12.3523 258.031 12.6257 258.035 12.9453C258.031 13.1619 257.974 13.359 257.864 13.5366C257.758 13.7141 257.616 13.8562 257.438 13.9627C257.264 14.0657 257.072 14.1172 256.863 14.1172ZM256.863 8.27912C256.54 8.27912 256.263 8.16548 256.032 7.93821C255.801 7.70739 255.687 7.4304 255.691 7.10724C255.687 6.78764 255.801 6.5142 256.032 6.28693C256.263 6.05611 256.54 5.9407 256.863 5.9407C257.175 5.9407 257.447 6.05611 257.678 6.28693C257.912 6.5142 258.031 6.78764 258.035 7.10724C258.031 7.32031 257.974 7.51562 257.864 7.69318C257.758 7.87074 257.616 8.01278 257.438 8.11932C257.264 8.22585 257.072 8.27912 256.863 8.27912Z" fill="black"/>
<line y1="-1" x2="193.484" y2="-1" transform="matrix(0.999974 0.0072339 -0.00793331 0.999969 1.46582 89.7887)" stroke="black" stroke-width="2"/>
<path d="M232.433 111.412V105.17H233.675V111.412H232.433ZM229.936 108.91V107.673H236.177V108.91H229.936ZM245.026 113.129C244.392 113.129 243.825 113.02 243.327 112.801C242.831 112.583 242.439 112.28 242.15 111.892C241.863 111.501 241.71 111.049 241.688 110.535H243.138C243.156 110.815 243.25 111.058 243.419 111.264C243.592 111.467 243.816 111.624 244.093 111.735C244.37 111.846 244.678 111.901 245.016 111.901C245.389 111.901 245.718 111.837 246.004 111.707C246.294 111.578 246.52 111.398 246.683 111.167C246.846 110.933 246.928 110.664 246.928 110.359C246.928 110.042 246.846 109.764 246.683 109.524C246.523 109.281 246.288 109.09 245.977 108.951C245.669 108.813 245.297 108.744 244.86 108.744H244.061V107.58H244.86C245.21 107.58 245.518 107.517 245.783 107.391C246.051 107.265 246.26 107.089 246.411 106.865C246.561 106.637 246.637 106.371 246.637 106.066C246.637 105.774 246.571 105.52 246.438 105.304C246.309 105.086 246.124 104.915 245.884 104.792C245.647 104.669 245.367 104.607 245.044 104.607C244.736 104.607 244.449 104.664 244.181 104.778C243.916 104.889 243.701 105.049 243.535 105.258C243.368 105.464 243.279 105.712 243.267 106.001H241.886C241.902 105.491 242.053 105.041 242.339 104.653C242.628 104.266 243.01 103.962 243.484 103.744C243.958 103.525 244.484 103.416 245.063 103.416C245.669 103.416 246.192 103.535 246.632 103.772C247.075 104.006 247.417 104.318 247.657 104.709C247.9 105.1 248.02 105.527 248.017 105.992C248.02 106.522 247.873 106.971 247.574 107.34C247.279 107.71 246.885 107.957 246.392 108.083V108.157C247.02 108.253 247.506 108.502 247.851 108.905C248.199 109.308 248.371 109.808 248.368 110.406C248.371 110.926 248.226 111.392 247.934 111.804C247.645 112.217 247.249 112.541 246.748 112.778C246.246 113.012 245.672 113.129 245.026 113.129ZM253.405 113.157C252.675 113.154 252.052 112.962 251.535 112.58C251.018 112.198 250.622 111.643 250.348 110.913C250.075 110.184 249.938 109.305 249.938 108.277C249.938 107.252 250.075 106.377 250.348 105.651C250.625 104.924 251.023 104.37 251.54 103.989C252.06 103.607 252.681 103.416 253.405 103.416C254.128 103.416 254.748 103.609 255.265 103.993C255.782 104.375 256.178 104.929 256.451 105.655C256.728 106.378 256.867 107.252 256.867 108.277C256.867 109.308 256.73 110.189 256.456 110.918C256.182 111.644 255.787 112.2 255.27 112.585C254.753 112.966 254.131 113.157 253.405 113.157ZM253.405 111.924C254.045 111.924 254.545 111.612 254.905 110.987C255.268 110.362 255.45 109.459 255.45 108.277C255.45 107.493 255.367 106.829 255.2 106.288C255.037 105.743 254.802 105.33 254.494 105.05C254.189 104.767 253.826 104.626 253.405 104.626C252.768 104.626 252.267 104.94 251.904 105.567C251.541 106.195 251.358 107.099 251.355 108.277C251.355 109.065 251.436 109.732 251.6 110.276C251.766 110.818 252.001 111.229 252.306 111.509C252.611 111.786 252.977 111.924 253.405 111.924ZM261.796 113.157C261.067 113.154 260.444 112.962 259.927 112.58C259.409 112.198 259.014 111.643 258.74 110.913C258.466 110.184 258.329 109.305 258.329 108.277C258.329 107.252 258.466 106.377 258.74 105.651C259.017 104.924 259.414 104.37 259.931 103.989C260.451 103.607 261.073 103.416 261.796 103.416C262.519 103.416 263.14 103.609 263.657 103.993C264.174 104.375 264.569 104.929 264.843 105.655C265.12 106.378 265.259 107.252 265.259 108.277C265.259 109.308 265.122 110.189 264.848 110.918C264.574 111.644 264.178 112.2 263.661 112.585C263.144 112.966 262.523 113.157 261.796 113.157ZM261.796 111.924C262.436 111.924 262.936 111.612 263.297 110.987C263.66 110.362 263.841 109.459 263.841 108.277C263.841 107.493 263.758 106.829 263.592 106.288C263.429 105.743 263.193 105.33 262.886 105.05C262.581 104.767 262.218 104.626 261.796 104.626C261.159 104.626 260.659 104.94 260.296 105.567C259.933 106.195 259.75 107.099 259.746 108.277C259.746 109.065 259.828 109.732 259.991 110.276C260.157 110.818 260.393 111.229 260.697 111.509C261.002 111.786 261.368 111.924 261.796 111.924ZM266.915 113V105.909H268.24V107.063H268.327C268.475 106.672 268.717 106.368 269.052 106.149C269.388 105.928 269.789 105.817 270.257 105.817C270.731 105.817 271.128 105.928 271.448 106.149C271.771 106.371 272.01 106.675 272.164 107.063H272.238C272.407 106.685 272.676 106.383 273.045 106.158C273.415 105.931 273.855 105.817 274.366 105.817C275.009 105.817 275.534 106.018 275.94 106.422C276.349 106.825 276.554 107.433 276.554 108.245V113H275.174V108.374C275.174 107.894 275.043 107.546 274.781 107.331C274.52 107.116 274.207 107.008 273.844 107.008C273.395 107.008 273.045 107.146 272.796 107.423C272.547 107.697 272.422 108.05 272.422 108.48V113H271.046V108.287C271.046 107.902 270.926 107.593 270.686 107.359C270.446 107.125 270.134 107.008 269.749 107.008C269.488 107.008 269.246 107.077 269.024 107.216C268.806 107.351 268.629 107.54 268.494 107.783C268.361 108.027 268.295 108.308 268.295 108.628V113H266.915ZM278.515 113V103.545H279.895V107.059H279.978C280.058 106.911 280.174 106.74 280.324 106.546C280.475 106.352 280.685 106.183 280.952 106.038C281.22 105.891 281.574 105.817 282.014 105.817C282.587 105.817 283.097 105.961 283.547 106.251C283.996 106.54 284.348 106.957 284.604 107.502C284.862 108.047 284.992 108.702 284.992 109.468C284.992 110.235 284.864 110.892 284.609 111.44C284.353 111.984 284.002 112.404 283.556 112.7C283.11 112.992 282.6 113.138 282.028 113.138C281.597 113.138 281.245 113.066 280.971 112.922C280.7 112.777 280.488 112.608 280.334 112.414C280.18 112.22 280.061 112.047 279.978 111.897H279.863V113H278.515ZM279.867 109.455C279.867 109.953 279.94 110.39 280.084 110.766C280.229 111.141 280.438 111.435 280.712 111.647C280.986 111.857 281.322 111.961 281.719 111.961C282.131 111.961 282.476 111.852 282.753 111.634C283.03 111.412 283.239 111.112 283.381 110.733C283.525 110.355 283.598 109.929 283.598 109.455C283.598 108.987 283.527 108.567 283.385 108.194C283.247 107.822 283.037 107.528 282.757 107.312C282.48 107.097 282.134 106.989 281.719 106.989C281.319 106.989 280.98 107.092 280.703 107.299C280.429 107.505 280.221 107.793 280.08 108.162C279.938 108.531 279.867 108.962 279.867 109.455Z" fill="black"/>
<line y1="-1.5" x2="193.484" y2="-1.5" transform="matrix(0.999974 0.0072339 -0.00793331 0.999969 1.46582 116.382)" stroke="black" stroke-width="3"/>
</svg>
