<svg width="364" height="127" viewBox="0 0 364 127" fill="none" xmlns="http://www.w3.org/2000/svg">
<path d="M155.376 9.09943C155.258 8.71591 155.095 8.37263 154.886 8.0696C154.683 7.76184 154.436 7.49905 154.148 7.28125C153.863 7.06345 153.537 6.90009 153.167 6.79119C152.798 6.67756 152.396 6.62074 151.96 6.62074C151.179 6.62074 150.483 6.81723 149.872 7.21023C149.261 7.60322 148.781 8.18087 148.43 8.94318C148.085 9.70076 147.912 10.6241 147.912 11.7131C147.912 12.8116 148.085 13.742 148.43 14.5043C148.776 15.2666 149.256 15.8466 149.872 16.2443C150.488 16.6373 151.202 16.8338 152.017 16.8338C152.756 16.8338 153.395 16.6918 153.934 16.4077C154.479 16.1236 154.898 15.7211 155.192 15.2003C155.485 14.6747 155.632 14.0592 155.632 13.3537L156.229 13.446H152.28V11.3864H158.182V13.1335C158.182 14.3788 157.916 15.456 157.386 16.3651C156.856 17.2741 156.127 17.9749 155.199 18.4673C154.271 18.955 153.205 19.1989 152.003 19.1989C150.663 19.1989 149.486 18.8982 148.473 18.2969C147.464 17.6908 146.676 16.8314 146.108 15.7188C145.544 14.6013 145.263 13.2756 145.263 11.7415C145.263 10.5672 145.428 9.51847 145.76 8.59517C146.096 7.67188 146.565 6.88826 147.166 6.24432C147.767 5.59564 148.473 5.10322 149.282 4.76705C150.092 4.42614 150.973 4.25568 151.925 4.25568C152.729 4.25568 153.48 4.37405 154.176 4.6108C154.872 4.8428 155.49 5.17424 156.03 5.60511C156.574 6.03598 157.022 6.54735 157.372 7.1392C157.722 7.73106 157.952 8.38447 158.061 9.09943H155.376ZM165.445 19.2131C164.352 19.2131 163.407 18.9858 162.612 18.5312C161.821 18.072 161.213 17.4233 160.786 16.5852C160.36 15.7424 160.147 14.7505 160.147 13.6094C160.147 12.4872 160.36 11.5024 160.786 10.6548C161.217 9.80256 161.819 9.13968 162.59 8.66619C163.362 8.18797 164.269 7.94886 165.311 7.94886C165.983 7.94886 166.617 8.05777 167.214 8.27557C167.815 8.48864 168.346 8.82008 168.805 9.26989C169.269 9.7197 169.633 10.2926 169.899 10.9886C170.164 11.6799 170.296 12.5038 170.296 13.4602V14.2486H161.355V12.5156H167.832C167.827 12.0232 167.721 11.5852 167.512 11.2017C167.304 10.8134 167.013 10.508 166.639 10.2855C166.269 10.063 165.838 9.9517 165.346 9.9517C164.82 9.9517 164.359 10.0795 163.961 10.3352C163.563 10.5862 163.253 10.9176 163.031 11.3295C162.813 11.7367 162.702 12.1842 162.697 12.6719V14.1847C162.697 14.8191 162.813 15.3636 163.045 15.8182C163.277 16.268 163.601 16.6136 164.018 16.8551C164.435 17.0919 164.922 17.2102 165.481 17.2102C165.855 17.2102 166.194 17.1581 166.497 17.054C166.8 16.9451 167.062 16.7865 167.285 16.5781C167.508 16.3698 167.676 16.1117 167.789 15.804L170.19 16.0739C170.038 16.7083 169.749 17.2623 169.323 17.7358C168.902 18.2045 168.362 18.5691 167.704 18.8295C167.046 19.0852 166.293 19.2131 165.445 19.2131ZM164.252 6.65625L165.843 3.41051H168.357L166.177 6.65625H164.252ZM175.042 12.608V19H172.471V8.09091H174.929V9.9446H175.057C175.308 9.33381 175.708 8.84848 176.257 8.48864C176.811 8.12879 177.495 7.94886 178.309 7.94886C179.062 7.94886 179.718 8.10985 180.277 8.43182C180.84 8.75379 181.276 9.22017 181.584 9.83097C181.896 10.4418 182.05 11.1828 182.045 12.054V19H179.474V12.4517C179.474 11.7225 179.285 11.152 178.906 10.7401C178.532 10.3281 178.014 10.1222 177.351 10.1222C176.901 10.1222 176.501 10.2216 176.15 10.4205C175.805 10.6146 175.532 10.8963 175.334 11.2656C175.14 11.6349 175.042 12.0824 175.042 12.608ZM189.488 19.2131C188.395 19.2131 187.45 18.9858 186.655 18.5312C185.864 18.072 185.256 17.4233 184.829 16.5852C184.403 15.7424 184.19 14.7505 184.19 13.6094C184.19 12.4872 184.403 11.5024 184.829 10.6548C185.26 9.80256 185.862 9.13968 186.633 8.66619C187.405 8.18797 188.312 7.94886 189.354 7.94886C190.026 7.94886 190.66 8.05777 191.257 8.27557C191.858 8.48864 192.389 8.82008 192.848 9.26989C193.312 9.7197 193.676 10.2926 193.942 10.9886C194.207 11.6799 194.339 12.5038 194.339 13.4602V14.2486H185.398V12.5156H191.875C191.87 12.0232 191.764 11.5852 191.555 11.2017C191.347 10.8134 191.056 10.508 190.682 10.2855C190.312 10.063 189.881 9.9517 189.389 9.9517C188.863 9.9517 188.402 10.0795 188.004 10.3352C187.606 10.5862 187.296 10.9176 187.074 11.3295C186.856 11.7367 186.745 12.1842 186.74 12.6719V14.1847C186.74 14.8191 186.856 15.3636 187.088 15.8182C187.32 16.268 187.644 16.6136 188.061 16.8551C188.478 17.0919 188.965 17.2102 189.524 17.2102C189.898 17.2102 190.237 17.1581 190.54 17.054C190.843 16.9451 191.105 16.7865 191.328 16.5781C191.55 16.3698 191.719 16.1117 191.832 15.804L194.233 16.0739C194.081 16.7083 193.792 17.2623 193.366 17.7358C192.945 18.2045 192.405 18.5691 191.747 18.8295C191.089 19.0852 190.336 19.2131 189.488 19.2131ZM196.514 19V8.09091H199.007V9.90909H199.121C199.32 9.27936 199.661 8.79403 200.144 8.45312C200.631 8.10748 201.188 7.93466 201.813 7.93466C201.955 7.93466 202.113 7.94176 202.289 7.95597C202.468 7.96544 202.618 7.98201 202.736 8.00568V10.3707C202.627 10.3329 202.454 10.2997 202.218 10.2713C201.985 10.2382 201.761 10.2216 201.543 10.2216C201.074 10.2216 200.653 10.3234 200.279 10.527C199.909 10.7259 199.618 11.0028 199.405 11.358C199.192 11.7131 199.085 12.1226 199.085 12.5866V19H196.514ZM208.753 19.2131C207.688 19.2131 206.765 18.9787 205.983 18.5099C205.202 18.0412 204.596 17.3854 204.165 16.5426C203.739 15.6998 203.526 14.715 203.526 13.5881C203.526 12.4612 203.739 11.474 204.165 10.6264C204.596 9.77888 205.202 9.12074 205.983 8.65199C206.765 8.18324 207.688 7.94886 208.753 7.94886C209.819 7.94886 210.742 8.18324 211.523 8.65199C212.305 9.12074 212.908 9.77888 213.334 10.6264C213.765 11.474 213.981 12.4612 213.981 13.5881C213.981 14.715 213.765 15.6998 213.334 16.5426C212.908 17.3854 212.305 18.0412 211.523 18.5099C210.742 18.9787 209.819 19.2131 208.753 19.2131ZM208.768 17.1534C209.345 17.1534 209.828 16.9948 210.216 16.6776C210.605 16.3556 210.894 15.9247 211.083 15.3849C211.277 14.8452 211.374 14.2438 211.374 13.581C211.374 12.9134 211.277 12.3097 211.083 11.7699C210.894 11.2254 210.605 10.7921 210.216 10.4702C209.828 10.1482 209.345 9.98722 208.768 9.98722C208.176 9.98722 207.683 10.1482 207.29 10.4702C206.902 10.7921 206.611 11.2254 206.417 11.7699C206.227 12.3097 206.133 12.9134 206.133 13.581C206.133 14.2438 206.227 14.8452 206.417 15.3849C206.611 15.9247 206.902 16.3556 207.29 16.6776C207.683 16.9948 208.176 17.1534 208.768 17.1534Z" fill="black"/>
<path d="M180.496 81.1654L201.338 108.38H159.654L180.496 81.1654Z" fill="#45D2F1"/>
<path d="M126.347 36.2857L147.189 63.5H105.505L126.347 36.2857Z" fill="#FF00D4"/>
<path d="M274.455 112.403H275.877V119.106C275.877 119.712 275.756 120.231 275.516 120.661C275.279 121.092 274.946 121.422 274.515 121.649C274.084 121.874 273.579 121.986 273 121.986C272.468 121.986 271.989 121.889 271.565 121.696C271.143 121.502 270.809 121.22 270.563 120.851C270.32 120.478 270.198 120.026 270.198 119.493H271.616C271.616 119.755 271.676 119.981 271.796 120.172C271.919 120.363 272.086 120.512 272.299 120.62C272.514 120.725 272.76 120.777 273.037 120.777C273.339 120.777 273.594 120.714 273.804 120.588C274.016 120.458 274.178 120.269 274.288 120.02C274.399 119.77 274.455 119.466 274.455 119.106V112.403ZM282.334 118.916V114.766H283.719V121.857H282.362V120.629H282.288C282.125 121.008 281.863 121.323 281.503 121.576C281.146 121.825 280.701 121.949 280.169 121.949C279.713 121.949 279.31 121.849 278.959 121.649C278.611 121.446 278.337 121.146 278.137 120.749C277.94 120.352 277.842 119.861 277.842 119.277V114.766H279.222V119.11C279.222 119.594 279.356 119.978 279.624 120.264C279.892 120.551 280.239 120.694 280.667 120.694C280.926 120.694 281.183 120.629 281.438 120.5C281.697 120.371 281.911 120.175 282.08 119.914C282.252 119.652 282.337 119.32 282.334 118.916ZM288.63 122C287.931 122 287.329 121.851 286.824 121.552C286.323 121.251 285.935 120.828 285.661 120.283C285.39 119.735 285.255 119.093 285.255 118.358C285.255 117.632 285.39 116.991 285.661 116.437C285.935 115.883 286.317 115.451 286.806 115.14C287.298 114.829 287.874 114.674 288.533 114.674C288.933 114.674 289.32 114.74 289.696 114.872C290.071 115.005 290.408 115.212 290.707 115.496C291.005 115.779 291.241 116.147 291.413 116.599C291.586 117.048 291.672 117.595 291.672 118.238V118.727H286.035V117.693H290.319C290.319 117.33 290.245 117.008 290.098 116.728C289.95 116.445 289.742 116.222 289.474 116.059C289.21 115.896 288.899 115.814 288.542 115.814C288.154 115.814 287.815 115.91 287.526 116.1C287.24 116.288 287.018 116.534 286.861 116.839C286.708 117.141 286.631 117.468 286.631 117.822V118.63C286.631 119.104 286.714 119.507 286.88 119.84C287.049 120.172 287.285 120.426 287.586 120.601C287.888 120.774 288.24 120.86 288.643 120.86C288.905 120.86 289.143 120.823 289.359 120.749C289.574 120.672 289.761 120.558 289.918 120.408C290.074 120.257 290.195 120.071 290.278 119.849L291.584 120.084C291.479 120.469 291.292 120.806 291.021 121.095C290.753 121.382 290.416 121.605 290.01 121.765C289.607 121.922 289.147 122 288.63 122ZM296.176 124.664C295.613 124.664 295.128 124.59 294.722 124.442C294.319 124.295 293.99 124.099 293.734 123.856C293.479 123.613 293.288 123.347 293.162 123.057L294.348 122.568C294.431 122.703 294.542 122.847 294.681 122.997C294.822 123.151 295.013 123.282 295.253 123.39C295.496 123.498 295.809 123.551 296.19 123.551C296.713 123.551 297.146 123.424 297.487 123.168C297.829 122.916 298 122.513 298 121.959V120.565H297.912C297.829 120.715 297.709 120.883 297.552 121.068C297.398 121.252 297.186 121.412 296.915 121.548C296.644 121.683 296.292 121.751 295.858 121.751C295.298 121.751 294.793 121.62 294.344 121.359C293.897 121.094 293.543 120.705 293.282 120.191C293.023 119.674 292.894 119.038 292.894 118.284C292.894 117.53 293.022 116.884 293.277 116.345C293.536 115.806 293.89 115.394 294.339 115.108C294.788 114.819 295.298 114.674 295.867 114.674C296.307 114.674 296.663 114.748 296.933 114.895C297.204 115.04 297.415 115.209 297.566 115.403C297.72 115.597 297.838 115.768 297.921 115.916H298.023V114.766H299.376V122.014C299.376 122.623 299.234 123.124 298.951 123.514C298.668 123.905 298.285 124.195 297.801 124.382C297.321 124.57 296.78 124.664 296.176 124.664ZM296.162 120.606C296.559 120.606 296.895 120.514 297.169 120.329C297.446 120.141 297.655 119.874 297.797 119.526C297.941 119.175 298.014 118.755 298.014 118.265C298.014 117.788 297.943 117.368 297.801 117.005C297.66 116.642 297.452 116.359 297.178 116.156C296.904 115.95 296.566 115.846 296.162 115.846C295.747 115.846 295.401 115.954 295.124 116.17C294.847 116.382 294.637 116.671 294.496 117.038C294.357 117.404 294.288 117.813 294.288 118.265C294.288 118.73 294.359 119.138 294.501 119.489C294.642 119.84 294.851 120.114 295.128 120.311C295.408 120.508 295.753 120.606 296.162 120.606ZM304.214 122C303.549 122 302.969 121.848 302.473 121.543C301.978 121.239 301.593 120.812 301.319 120.264C301.045 119.717 300.908 119.076 300.908 118.344C300.908 117.608 301.045 116.965 301.319 116.414C301.593 115.863 301.978 115.436 302.473 115.131C302.969 114.826 303.549 114.674 304.214 114.674C304.878 114.674 305.459 114.826 305.954 115.131C306.45 115.436 306.834 115.863 307.108 116.414C307.382 116.965 307.519 117.608 307.519 118.344C307.519 119.076 307.382 119.717 307.108 120.264C306.834 120.812 306.45 121.239 305.954 121.543C305.459 121.848 304.878 122 304.214 122ZM304.218 120.841C304.649 120.841 305.006 120.728 305.289 120.5C305.572 120.272 305.782 119.969 305.917 119.59C306.056 119.212 306.125 118.795 306.125 118.339C306.125 117.887 306.056 117.471 305.917 117.093C305.782 116.711 305.572 116.405 305.289 116.174C305.006 115.943 304.649 115.828 304.218 115.828C303.784 115.828 303.424 115.943 303.138 116.174C302.855 116.405 302.644 116.711 302.506 117.093C302.37 117.471 302.302 117.887 302.302 118.339C302.302 118.795 302.37 119.212 302.506 119.59C302.644 119.969 302.855 120.272 303.138 120.5C303.424 120.728 303.784 120.841 304.218 120.841Z" fill="black"/>
<path d="M71.1955 81.1654L92.0374 108.38H50.3536L71.1955 81.1654Z" fill="#FFA600"/>
<path d="M289.796 81.1654L310.638 108.38H268.954L289.796 81.1654Z" fill="#9F4343"/>
<path d="M148.443 120.902V111.448H151.814C152.546 111.448 153.154 111.574 153.637 111.826C154.123 112.079 154.486 112.428 154.727 112.874C154.967 113.317 155.087 113.83 155.087 114.411C155.087 114.99 154.965 115.499 154.722 115.94C154.482 116.377 154.119 116.717 153.632 116.96C153.149 117.203 152.541 117.324 151.809 117.324H149.256V116.096H151.68C152.141 116.096 152.517 116.03 152.806 115.898C153.098 115.766 153.312 115.573 153.448 115.321C153.583 115.069 153.651 114.765 153.651 114.411C153.651 114.054 153.582 113.745 153.443 113.484C153.308 113.222 153.094 113.022 152.801 112.883C152.512 112.742 152.132 112.671 151.661 112.671H149.87V120.902H148.443ZM153.111 116.637L155.447 120.902H153.822L151.532 116.637H153.111ZM159.679 121.045C158.98 121.045 158.379 120.896 157.874 120.598C157.372 120.296 156.984 119.873 156.71 119.328C156.44 118.78 156.304 118.138 156.304 117.403C156.304 116.677 156.44 116.036 156.71 115.482C156.984 114.928 157.366 114.496 157.855 114.185C158.348 113.874 158.923 113.719 159.582 113.719C159.982 113.719 160.37 113.785 160.745 113.917C161.121 114.05 161.458 114.258 161.756 114.541C162.055 114.824 162.29 115.192 162.463 115.644C162.635 116.093 162.721 116.64 162.721 117.283V117.772H157.084V116.738H161.368C161.368 116.375 161.295 116.053 161.147 115.773C160.999 115.49 160.791 115.267 160.524 115.104C160.259 114.941 159.948 114.859 159.591 114.859C159.203 114.859 158.865 114.955 158.576 115.145C158.289 115.333 158.068 115.579 157.911 115.884C157.757 116.186 157.68 116.513 157.68 116.867V117.675C157.68 118.149 157.763 118.552 157.929 118.885C158.098 119.217 158.334 119.471 158.636 119.647C158.937 119.819 159.29 119.905 159.693 119.905C159.954 119.905 160.193 119.868 160.408 119.794C160.624 119.717 160.81 119.603 160.967 119.453C161.124 119.302 161.244 119.116 161.327 118.894L162.633 119.129C162.529 119.514 162.341 119.851 162.07 120.141C161.802 120.427 161.465 120.65 161.059 120.81C160.656 120.967 160.196 121.045 159.679 121.045ZM166.907 121.041C166.335 121.041 165.824 120.895 165.374 120.602C164.928 120.307 164.577 119.887 164.322 119.342C164.069 118.794 163.943 118.137 163.943 117.371C163.943 116.604 164.071 115.949 164.326 115.404C164.585 114.859 164.939 114.442 165.388 114.153C165.838 113.864 166.347 113.719 166.916 113.719C167.356 113.719 167.71 113.793 167.978 113.941C168.249 114.085 168.458 114.254 168.606 114.448C168.757 114.642 168.874 114.813 168.957 114.961H169.04V111.448H170.42V120.902H169.072V119.799H168.957C168.874 119.95 168.754 120.122 168.597 120.316C168.443 120.51 168.23 120.679 167.96 120.824C167.689 120.968 167.338 121.041 166.907 121.041ZM167.212 119.864C167.609 119.864 167.944 119.759 168.218 119.55C168.495 119.337 168.704 119.043 168.846 118.668C168.991 118.292 169.063 117.855 169.063 117.357C169.063 116.864 168.992 116.433 168.851 116.064C168.709 115.695 168.501 115.407 168.227 115.201C167.953 114.995 167.615 114.892 167.212 114.892C166.796 114.892 166.45 114.999 166.173 115.215C165.896 115.43 165.687 115.724 165.545 116.096C165.407 116.469 165.337 116.889 165.337 117.357C165.337 117.831 165.408 118.257 165.55 118.636C165.691 119.014 165.901 119.314 166.178 119.536C166.458 119.754 166.802 119.864 167.212 119.864ZM181.098 113.931C181.049 113.494 180.846 113.156 180.489 112.916C180.132 112.673 179.682 112.551 179.141 112.551C178.753 112.551 178.418 112.613 178.134 112.736C177.851 112.856 177.631 113.022 177.474 113.234C177.32 113.444 177.243 113.682 177.243 113.95C177.243 114.174 177.296 114.368 177.4 114.531C177.508 114.695 177.648 114.832 177.82 114.942C177.996 115.05 178.184 115.141 178.384 115.215C178.584 115.286 178.776 115.344 178.961 115.39L179.884 115.63C180.186 115.704 180.495 115.804 180.812 115.93C181.129 116.056 181.423 116.223 181.694 116.429C181.964 116.635 182.183 116.891 182.349 117.195C182.518 117.5 182.603 117.865 182.603 118.289C182.603 118.825 182.465 119.3 182.188 119.716C181.914 120.131 181.515 120.459 180.992 120.699C180.472 120.939 179.842 121.059 179.104 121.059C178.396 121.059 177.784 120.947 177.266 120.722C176.749 120.498 176.345 120.179 176.052 119.767C175.76 119.351 175.598 118.859 175.568 118.289H176.999C177.026 118.631 177.137 118.916 177.331 119.143C177.528 119.368 177.779 119.536 178.084 119.647C178.391 119.754 178.728 119.808 179.095 119.808C179.498 119.808 179.856 119.745 180.17 119.619C180.487 119.49 180.737 119.311 180.918 119.083C181.1 118.853 181.19 118.583 181.19 118.275C181.19 117.995 181.11 117.766 180.95 117.588C180.793 117.409 180.58 117.261 180.309 117.144C180.041 117.027 179.738 116.924 179.399 116.835L178.282 116.53C177.525 116.324 176.925 116.021 176.482 115.621C176.042 115.221 175.822 114.692 175.822 114.033C175.822 113.488 175.969 113.013 176.265 112.606C176.56 112.2 176.96 111.885 177.465 111.66C177.97 111.432 178.539 111.318 179.173 111.318C179.813 111.318 180.378 111.431 180.867 111.655C181.36 111.88 181.748 112.189 182.031 112.583C182.314 112.974 182.462 113.424 182.474 113.931H181.098ZM187.184 121.045C186.519 121.045 185.939 120.893 185.443 120.588C184.948 120.284 184.563 119.857 184.289 119.31C184.015 118.762 183.878 118.122 183.878 117.389C183.878 116.654 184.015 116.01 184.289 115.459C184.563 114.908 184.948 114.481 185.443 114.176C185.939 113.871 186.519 113.719 187.184 113.719C187.849 113.719 188.429 113.871 188.924 114.176C189.42 114.481 189.804 114.908 190.078 115.459C190.352 116.01 190.489 116.654 190.489 117.389C190.489 118.122 190.352 118.762 190.078 119.31C189.804 119.857 189.42 120.284 188.924 120.588C188.429 120.893 187.849 121.045 187.184 121.045ZM187.188 119.887C187.619 119.887 187.976 119.773 188.259 119.545C188.543 119.317 188.752 119.014 188.887 118.636C189.026 118.257 189.095 117.84 189.095 117.384C189.095 116.932 189.026 116.517 188.887 116.138C188.752 115.756 188.543 115.45 188.259 115.219C187.976 114.989 187.619 114.873 187.188 114.873C186.754 114.873 186.394 114.989 186.108 115.219C185.825 115.45 185.614 115.756 185.476 116.138C185.34 116.517 185.273 116.932 185.273 117.384C185.273 117.84 185.34 118.257 185.476 118.636C185.614 119.014 185.825 119.317 186.108 119.545C186.394 119.773 186.754 119.887 187.188 119.887ZM195.017 121.045C194.331 121.045 193.74 120.89 193.244 120.579C192.752 120.265 192.373 119.833 192.108 119.282C191.844 118.731 191.711 118.1 191.711 117.389C191.711 116.669 191.847 116.033 192.118 115.482C192.389 114.928 192.77 114.496 193.263 114.185C193.755 113.874 194.335 113.719 195.003 113.719C195.542 113.719 196.022 113.819 196.443 114.019C196.865 114.216 197.205 114.493 197.464 114.85C197.725 115.207 197.881 115.624 197.93 116.101H196.586C196.513 115.769 196.343 115.482 196.079 115.242C195.817 115.002 195.466 114.882 195.026 114.882C194.641 114.882 194.304 114.984 194.015 115.187C193.729 115.387 193.506 115.673 193.346 116.046C193.186 116.415 193.106 116.852 193.106 117.357C193.106 117.874 193.184 118.32 193.341 118.696C193.498 119.071 193.72 119.362 194.006 119.568C194.295 119.774 194.635 119.877 195.026 119.877C195.288 119.877 195.525 119.83 195.737 119.734C195.952 119.636 196.132 119.496 196.277 119.314C196.425 119.133 196.528 118.914 196.586 118.659H197.93C197.881 119.117 197.731 119.527 197.482 119.887C197.233 120.247 196.899 120.53 196.48 120.736C196.065 120.942 195.577 121.045 195.017 121.045ZM199.406 120.902V113.811H200.786V120.902H199.406ZM200.103 112.717C199.863 112.717 199.657 112.637 199.484 112.477C199.315 112.314 199.231 112.12 199.231 111.895C199.231 111.668 199.315 111.474 199.484 111.314C199.657 111.151 199.863 111.069 200.103 111.069C200.343 111.069 200.548 111.151 200.717 111.314C200.889 111.474 200.976 111.668 200.976 111.895C200.976 112.12 200.889 112.314 200.717 112.477C200.548 112.637 200.343 112.717 200.103 112.717ZM204.707 121.059C204.257 121.059 203.851 120.976 203.488 120.81C203.125 120.641 202.837 120.396 202.625 120.076C202.415 119.756 202.311 119.363 202.311 118.899C202.311 118.499 202.388 118.169 202.542 117.911C202.696 117.652 202.903 117.448 203.165 117.297C203.426 117.146 203.719 117.032 204.042 116.955C204.365 116.878 204.694 116.82 205.03 116.78C205.455 116.73 205.799 116.69 206.064 116.66C206.329 116.626 206.521 116.572 206.641 116.498C206.761 116.424 206.821 116.304 206.821 116.138V116.106C206.821 115.703 206.707 115.39 206.48 115.169C206.255 114.947 205.919 114.836 205.473 114.836C205.008 114.836 204.642 114.939 204.374 115.145C204.11 115.349 203.927 115.575 203.825 115.824L202.528 115.529C202.682 115.098 202.906 114.75 203.202 114.485C203.5 114.218 203.844 114.024 204.231 113.904C204.619 113.781 205.027 113.719 205.455 113.719C205.738 113.719 206.038 113.753 206.355 113.821C206.675 113.885 206.973 114.005 207.25 114.181C207.531 114.356 207.76 114.607 207.938 114.933C208.117 115.256 208.206 115.676 208.206 116.193V120.902H206.858V119.933H206.803C206.713 120.111 206.58 120.287 206.401 120.459C206.223 120.631 205.993 120.774 205.713 120.888C205.433 121.002 205.098 121.059 204.707 121.059ZM205.007 119.951C205.389 119.951 205.715 119.876 205.986 119.725C206.259 119.574 206.467 119.377 206.609 119.134C206.753 118.888 206.826 118.625 206.826 118.345V117.431C206.777 117.48 206.681 117.526 206.54 117.569C206.401 117.609 206.243 117.645 206.064 117.675C205.886 117.703 205.712 117.729 205.542 117.754C205.373 117.775 205.232 117.794 205.118 117.809C204.85 117.843 204.605 117.9 204.384 117.98C204.165 118.06 203.99 118.175 203.857 118.326C203.728 118.474 203.663 118.671 203.663 118.917C203.663 119.259 203.79 119.517 204.042 119.693C204.294 119.865 204.616 119.951 205.007 119.951ZM211.425 111.448V120.902H210.045V111.448H211.425Z" fill="black"/>
<path d="M33.3805 120.902L33.3805 111.448H39.2434V112.676H34.8069V115.556H38.8233V116.78H34.8069V120.902H33.3805ZM43.3532 121.045C42.6884 121.045 42.1083 120.893 41.6128 120.588C41.1173 120.284 40.7326 119.857 40.4587 119.31C40.1848 118.762 40.0478 118.122 40.0478 117.389C40.0478 116.654 40.1848 116.01 40.4587 115.459C40.7326 114.908 41.1173 114.481 41.6128 114.176C42.1083 113.871 42.6884 113.719 43.3532 113.719C44.018 113.719 44.5981 113.871 45.0936 114.176C45.5891 114.481 45.9738 114.908 46.2477 115.459C46.5216 116.01 46.6586 116.654 46.6586 117.389C46.6586 118.122 46.5216 118.762 46.2477 119.31C45.9738 119.857 45.5891 120.284 45.0936 120.588C44.5981 120.893 44.018 121.045 43.3532 121.045ZM43.3578 119.887C43.7887 119.887 44.1457 119.773 44.4288 119.545C44.712 119.317 44.9213 119.014 45.0567 118.636C45.1952 118.257 45.2644 117.84 45.2644 117.384C45.2644 116.932 45.1952 116.517 45.0567 116.138C44.9213 115.756 44.712 115.45 44.4288 115.219C44.1457 114.989 43.7887 114.873 43.3578 114.873C42.9239 114.873 42.5638 114.989 42.2776 115.219C41.9944 115.45 41.7836 115.756 41.6451 116.138C41.5097 116.517 41.442 116.932 41.442 117.384C41.442 117.84 41.5097 118.257 41.6451 118.636C41.7836 119.014 41.9944 119.317 42.2776 119.545C42.5638 119.773 42.9239 119.887 43.3578 119.887ZM51.5094 113.811V114.919H47.6361V113.811H51.5094ZM48.6748 112.112H50.0552V118.82C50.0552 119.088 50.0952 119.29 50.1752 119.425C50.2552 119.557 50.3583 119.648 50.4845 119.697C50.6138 119.743 50.7538 119.767 50.9046 119.767C51.0154 119.767 51.1123 119.759 51.1954 119.743C51.2785 119.728 51.3432 119.716 51.3893 119.707L51.6386 120.847C51.5586 120.878 51.4447 120.908 51.297 120.939C51.1493 120.973 50.9646 120.991 50.743 120.995C50.3799 121.001 50.0413 120.936 49.7274 120.801C49.4135 120.665 49.1596 120.456 48.9657 120.173C48.7718 119.89 48.6748 119.534 48.6748 119.106V112.112ZM55.9469 121.045C55.2822 121.045 54.702 120.893 54.2065 120.588C53.711 120.284 53.3263 119.857 53.0524 119.31C52.7785 118.762 52.6415 118.122 52.6415 117.389C52.6415 116.654 52.7785 116.01 53.0524 115.459C53.3263 114.908 53.711 114.481 54.2065 114.176C54.702 113.871 55.2822 113.719 55.9469 113.719C56.6117 113.719 57.1919 113.871 57.6874 114.176C58.1829 114.481 58.5676 114.908 58.8415 115.459C59.1154 116.01 59.2523 116.654 59.2523 117.389C59.2523 118.122 59.1154 118.762 58.8415 119.31C58.5676 119.857 58.1829 120.284 57.6874 120.588C57.1919 120.893 56.6117 121.045 55.9469 121.045ZM55.9516 119.887C56.3824 119.887 56.7394 119.773 57.0226 119.545C57.3057 119.317 57.515 119.014 57.6504 118.636C57.7889 118.257 57.8582 117.84 57.8582 117.384C57.8582 116.932 57.7889 116.517 57.6504 116.138C57.515 115.756 57.3057 115.45 57.0226 115.219C56.7394 114.989 56.3824 114.873 55.9516 114.873C55.5176 114.873 55.1575 114.989 54.8713 115.219C54.5882 115.45 54.3773 115.756 54.2388 116.138C54.1034 116.517 54.0357 116.932 54.0357 117.384C54.0357 117.84 54.1034 118.257 54.2388 118.636C54.3773 119.014 54.5882 119.317 54.8713 119.545C55.1575 119.773 55.5176 119.887 55.9516 119.887ZM65.106 123.561C64.8998 123.561 64.7121 123.544 64.5428 123.511C64.3736 123.48 64.2474 123.446 64.1643 123.409L64.4967 122.278C64.749 122.346 64.9737 122.375 65.1707 122.366C65.3676 122.356 65.5415 122.283 65.6923 122.144C65.8462 122.006 65.9816 121.779 66.0986 121.465L66.2694 120.995L63.6749 113.811H65.1522L66.948 119.314H67.0219L68.8177 113.811H70.2996L67.3773 121.849C67.2419 122.218 67.0696 122.53 66.8603 122.786C66.651 123.044 66.4017 123.238 66.1124 123.367C65.8231 123.497 65.4877 123.561 65.106 123.561ZM75.9744 111.448L78.6058 119.148H78.7119L81.3433 111.448H82.8852L79.4829 120.902H77.8348L74.4325 111.448H75.9744ZM84.1398 120.902V113.811H85.5201V120.902H84.1398ZM84.8369 112.717C84.5968 112.717 84.3906 112.637 84.2182 112.477C84.049 112.314 83.9643 112.12 83.9643 111.895C83.9643 111.668 84.049 111.474 84.2182 111.314C84.3906 111.151 84.5968 111.069 84.8369 111.069C85.0769 111.069 85.2816 111.151 85.4508 111.314C85.6232 111.474 85.7094 111.668 85.7094 111.895C85.7094 112.12 85.6232 112.314 85.4508 112.477C85.2816 112.637 85.0769 112.717 84.8369 112.717ZM90.0315 121.041C89.4591 121.041 88.9482 120.895 88.4989 120.602C88.0526 120.307 87.7018 119.887 87.4463 119.342C87.1939 118.794 87.0678 118.137 87.0678 117.371C87.0678 116.604 87.1955 115.949 87.4509 115.404C87.7095 114.859 88.0634 114.442 88.5127 114.153C88.9621 113.864 89.4714 113.719 90.0408 113.719C90.4809 113.719 90.8348 113.793 91.1026 113.941C91.3734 114.085 91.5827 114.254 91.7304 114.448C91.8812 114.642 91.9982 114.813 92.0813 114.961H92.1644V111.448H93.5447V120.902H92.1967V119.799H92.0813C91.9982 119.95 91.8781 120.122 91.7212 120.316C91.5673 120.51 91.3549 120.679 91.0841 120.824C90.8133 120.968 90.4624 121.041 90.0315 121.041ZM90.3362 119.864C90.7332 119.864 91.0687 119.759 91.3426 119.55C91.6196 119.337 91.8289 119.043 91.9705 118.668C92.1151 118.292 92.1874 117.855 92.1874 117.357C92.1874 116.864 92.1167 116.433 91.9751 116.064C91.8335 115.695 91.6258 115.407 91.3519 115.201C91.0779 114.995 90.7394 114.892 90.3362 114.892C89.9207 114.892 89.5745 114.999 89.2975 115.215C89.0205 115.43 88.8113 115.724 88.6697 116.096C88.5312 116.469 88.4619 116.889 88.4619 117.357C88.4619 117.831 88.5327 118.257 88.6743 118.636C88.8159 119.014 89.0252 119.314 89.3021 119.536C89.5822 119.754 89.9269 119.864 90.3362 119.864ZM98.5709 121.045C97.8722 121.045 97.2706 120.896 96.7658 120.598C96.2642 120.296 95.8764 119.873 95.6025 119.328C95.3316 118.78 95.1962 118.138 95.1962 117.403C95.1962 116.677 95.3316 116.036 95.6025 115.482C95.8764 114.928 96.258 114.496 96.7474 114.185C97.2398 113.874 97.8153 113.719 98.4739 113.719C98.874 113.719 99.2618 113.785 99.6373 113.917C100.013 114.05 100.35 114.258 100.648 114.541C100.947 114.824 101.182 115.192 101.355 115.644C101.527 116.093 101.613 116.64 101.613 117.283V117.772H95.9764V116.738H100.261C100.261 116.375 100.187 116.053 100.039 115.773C99.8912 115.49 99.6834 115.267 99.4157 115.104C99.151 114.941 98.8402 114.859 98.4832 114.859C98.0954 114.859 97.7568 114.955 97.4675 115.145C97.1813 115.333 96.9597 115.579 96.8028 115.884C96.6489 116.186 96.5719 116.513 96.5719 116.867V117.675C96.5719 118.149 96.655 118.552 96.8212 118.885C96.9905 119.217 97.2259 119.471 97.5275 119.647C97.8292 119.819 98.1815 119.905 98.5847 119.905C98.8463 119.905 99.0848 119.868 99.3003 119.794C99.5157 119.717 99.7019 119.603 99.8589 119.453C100.016 119.302 100.136 119.116 100.219 118.894L101.525 119.129C101.421 119.514 101.233 119.851 100.962 120.141C100.694 120.427 100.357 120.65 99.9512 120.81C99.548 120.967 99.0879 121.045 98.5709 121.045ZM106.132 121.045C105.467 121.045 104.887 120.893 104.391 120.588C103.896 120.284 103.511 119.857 103.237 119.31C102.963 118.762 102.826 118.122 102.826 117.389C102.826 116.654 102.963 116.01 103.237 115.459C103.511 114.908 103.896 114.481 104.391 114.176C104.887 113.871 105.467 113.719 106.132 113.719C106.796 113.719 107.376 113.871 107.872 114.176C108.367 114.481 108.752 114.908 109.026 115.459C109.3 116.01 109.437 116.654 109.437 117.389C109.437 118.122 109.3 118.762 109.026 119.31C108.752 119.857 108.367 120.284 107.872 120.588C107.376 120.893 106.796 121.045 106.132 121.045ZM106.136 119.887C106.567 119.887 106.924 119.773 107.207 119.545C107.49 119.317 107.7 119.014 107.835 118.636C107.973 118.257 108.043 117.84 108.043 117.384C108.043 116.932 107.973 116.517 107.835 116.138C107.7 115.756 107.49 115.45 107.207 115.219C106.924 114.989 106.567 114.873 106.136 114.873C105.702 114.873 105.342 114.989 105.056 115.219C104.773 115.45 104.562 115.756 104.423 116.138C104.288 116.517 104.22 116.932 104.22 117.384C104.22 117.84 104.288 118.257 104.423 118.636C104.562 119.014 104.773 119.317 105.056 119.545C105.342 119.773 105.702 119.887 106.136 119.887Z" fill="black"/>
<path d="M106.471 69.0517C106.421 68.6147 106.218 68.2761 105.861 68.0361C105.504 67.7929 105.055 67.6714 104.513 67.6714C104.126 67.6714 103.79 67.7329 103.507 67.856C103.224 67.9761 103.004 68.1423 102.847 68.3546C102.693 68.5639 102.616 68.8024 102.616 69.0702C102.616 69.2948 102.668 69.4887 102.773 69.6518C102.881 69.815 103.021 69.9519 103.193 70.0627C103.368 70.1704 103.556 70.2612 103.756 70.3351C103.956 70.4059 104.149 70.4643 104.333 70.5105L105.257 70.7506C105.558 70.8244 105.867 70.9245 106.184 71.0506C106.501 71.1768 106.795 71.343 107.066 71.5492C107.337 71.7554 107.556 72.0109 107.722 72.3156C107.891 72.6202 107.976 72.9849 107.976 73.4097C107.976 73.9452 107.837 74.4207 107.56 74.8361C107.286 75.2516 106.888 75.5794 106.365 75.8195C105.844 76.0595 105.215 76.1795 104.476 76.1795C103.769 76.1795 103.156 76.0672 102.639 75.8425C102.122 75.6179 101.717 75.2993 101.425 74.8869C101.133 74.4714 100.971 73.979 100.94 73.4097H102.371C102.399 73.7513 102.51 74.036 102.704 74.2637C102.901 74.4884 103.151 74.6561 103.456 74.7669C103.764 74.8746 104.101 74.9285 104.467 74.9285C104.87 74.9285 105.229 74.8654 105.543 74.7392C105.86 74.6099 106.109 74.4314 106.291 74.2037C106.472 73.9729 106.563 73.7036 106.563 73.3958C106.563 73.1157 106.483 72.8865 106.323 72.708C106.166 72.5294 105.952 72.3817 105.681 72.2648C105.414 72.1478 105.11 72.0447 104.772 71.9555L103.655 71.6508C102.898 71.4446 102.297 71.1414 101.854 70.7413C101.414 70.3412 101.194 69.8119 101.194 69.1533C101.194 68.6085 101.342 68.133 101.637 67.7268C101.933 67.3205 102.333 67.0051 102.838 66.7804C103.342 66.5526 103.912 66.4388 104.546 66.4388C105.186 66.4388 105.751 66.5511 106.24 66.7758C106.732 67.0004 107.12 67.3098 107.403 67.7037C107.686 68.0946 107.834 68.5439 107.846 69.0517H106.471ZM112.626 76.1657C111.927 76.1657 111.325 76.0164 110.821 75.7179C110.319 75.4163 109.931 74.9931 109.657 74.4484C109.386 73.9005 109.251 73.2589 109.251 72.5233C109.251 71.797 109.386 71.1568 109.657 70.6028C109.931 70.0489 110.313 69.6165 110.802 69.3056C111.295 68.9948 111.87 68.8393 112.529 68.8393C112.929 68.8393 113.317 68.9055 113.692 69.0379C114.067 69.1702 114.405 69.3779 114.703 69.6611C115.002 69.9442 115.237 70.312 115.409 70.7644C115.582 71.2138 115.668 71.76 115.668 72.4033V72.8926H110.031V71.8585H114.315C114.315 71.4954 114.241 71.1737 114.094 70.8937C113.946 70.6105 113.738 70.3874 113.47 70.2243C113.206 70.0612 112.895 69.9796 112.538 69.9796C112.15 69.9796 111.812 70.075 111.522 70.2658C111.236 70.4536 111.014 70.6998 110.858 71.0045C110.704 71.3061 110.627 71.6339 110.627 71.9878V72.7957C110.627 73.2696 110.71 73.6728 110.876 74.0052C111.045 74.3376 111.281 74.5915 111.582 74.7669C111.884 74.9392 112.236 75.0254 112.639 75.0254C112.901 75.0254 113.14 74.9885 113.355 74.9146C113.57 74.8377 113.757 74.7238 113.914 74.573C114.071 74.4222 114.191 74.236 114.274 74.0144L115.58 74.2499C115.476 74.6346 115.288 74.9716 115.017 75.2609C114.749 75.5471 114.412 75.7702 114.006 75.9303C113.603 76.0872 113.143 76.1657 112.626 76.1657ZM117.199 76.0226V68.9317H118.534V70.0581H118.607C118.737 69.6765 118.964 69.3764 119.291 69.1579C119.62 68.9363 119.992 68.8255 120.408 68.8255C120.494 68.8255 120.596 68.8286 120.713 68.8347C120.833 68.8409 120.926 68.8486 120.994 68.8578V70.1781C120.939 70.1627 120.84 70.1458 120.699 70.1273C120.557 70.1058 120.416 70.095 120.274 70.095C119.948 70.095 119.657 70.1643 119.401 70.3028C119.149 70.4382 118.949 70.6275 118.801 70.8706C118.654 71.1107 118.58 71.3846 118.58 71.6923V76.0226H117.199ZM128.471 68.9317L125.899 76.0226H124.422L121.846 68.9317H123.328L125.124 74.3883H125.197L126.989 68.9317H128.471ZM129.768 76.0226V68.9317H131.148V76.0226H129.768ZM130.465 67.8376C130.225 67.8376 130.019 67.7575 129.846 67.5975C129.677 67.4344 129.592 67.2405 129.592 67.0158C129.592 66.7881 129.677 66.5942 129.846 66.4342C130.019 66.271 130.225 66.1895 130.465 66.1895C130.705 66.1895 130.91 66.271 131.079 66.4342C131.251 66.5942 131.337 66.7881 131.337 67.0158C131.337 67.2405 131.251 67.4344 131.079 67.5975C130.91 67.7575 130.705 67.8376 130.465 67.8376ZM135.992 76.1657C135.306 76.1657 134.715 76.0103 134.219 75.6994C133.727 75.3855 133.348 74.9531 133.084 74.4022C132.819 73.8513 132.687 73.2204 132.687 72.5094C132.687 71.7893 132.822 71.1537 133.093 70.6028C133.364 70.0489 133.745 69.6165 134.238 69.3056C134.73 68.9948 135.31 68.8393 135.978 68.8393C136.517 68.8393 136.997 68.9394 137.418 69.1394C137.84 69.3364 138.18 69.6134 138.439 69.9704C138.7 70.3274 138.856 70.7444 138.905 71.2214H137.562C137.488 70.8891 137.318 70.6028 137.054 70.3628C136.792 70.1227 136.441 70.0027 136.001 70.0027C135.616 70.0027 135.279 70.1043 134.99 70.3074C134.704 70.5074 134.481 70.7937 134.321 71.166C134.161 71.5354 134.081 71.9724 134.081 72.4771C134.081 72.9942 134.159 73.4404 134.316 73.8159C134.473 74.1914 134.695 74.4822 134.981 74.6884C135.27 74.8946 135.61 74.9977 136.001 74.9977C136.263 74.9977 136.5 74.95 136.712 74.8546C136.928 74.7561 137.108 74.6161 137.252 74.4345C137.4 74.2529 137.503 74.0344 137.562 73.779H138.905C138.856 74.2375 138.706 74.6469 138.457 75.007C138.208 75.367 137.874 75.6502 137.455 75.8564C137.04 76.0626 136.552 76.1657 135.992 76.1657ZM140.381 76.0226V68.9317H141.761V76.0226H140.381ZM141.078 67.8376C140.838 67.8376 140.632 67.7575 140.46 67.5975C140.29 67.4344 140.206 67.2405 140.206 67.0158C140.206 66.7881 140.29 66.5942 140.46 66.4342C140.632 66.271 140.838 66.1895 141.078 66.1895C141.318 66.1895 141.523 66.271 141.692 66.4342C141.864 66.5942 141.951 66.7881 141.951 67.0158C141.951 67.2405 141.864 67.4344 141.692 67.5975C141.523 67.7575 141.318 67.8376 141.078 67.8376ZM146.605 76.1657C145.94 76.1657 145.36 76.0133 144.865 75.7087C144.369 75.404 143.985 74.9777 143.711 74.4299C143.437 73.8821 143.3 73.2419 143.3 72.5094C143.3 71.7739 143.437 71.1307 143.711 70.5798C143.985 70.0289 144.369 69.6011 144.865 69.2964C145.36 68.9917 145.94 68.8393 146.605 68.8393C147.27 68.8393 147.85 68.9917 148.346 69.2964C148.841 69.6011 149.226 70.0289 149.5 70.5798C149.774 71.1307 149.911 71.7739 149.911 72.5094C149.911 73.2419 149.774 73.8821 149.5 74.4299C149.226 74.9777 148.841 75.404 148.346 75.7087C147.85 76.0133 147.27 76.1657 146.605 76.1657ZM146.61 75.007C147.041 75.007 147.398 74.8931 147.681 74.6653C147.964 74.4376 148.173 74.1344 148.309 73.7559C148.447 73.3773 148.516 72.9603 148.516 72.5048C148.516 72.0524 148.447 71.6369 148.309 71.2584C148.173 70.8767 147.964 70.5705 147.681 70.3397C147.398 70.1089 147.041 69.9935 146.61 69.9935C146.176 69.9935 145.816 70.1089 145.53 70.3397C145.246 70.5705 145.036 70.8767 144.897 71.2584C144.762 71.6369 144.694 72.0524 144.694 72.5048C144.694 72.9603 144.762 73.3773 144.897 73.7559C145.036 74.1344 145.246 74.4376 145.53 74.6653C145.816 74.8931 146.176 75.007 146.61 75.007Z" fill="black"/>
<path d="M235.647 36.2857L256.489 63.5H214.805L235.647 36.2857Z" fill="#0009FF"/>
<path d="M183.54 76.9774V67.5229H189.468V68.7509H184.967V71.6315H189.158V72.8549H184.967V75.7494H189.523V76.9774H183.54ZM192.643 72.7672V76.9774H191.262V69.8865H192.587V71.0406H192.675C192.838 70.6652 193.094 70.3635 193.441 70.1358C193.792 69.9081 194.234 69.7942 194.766 69.7942C195.249 69.7942 195.673 69.8957 196.036 70.0989C196.399 70.2989 196.681 70.5974 196.881 70.9945C197.081 71.3915 197.181 71.8824 197.181 72.4671V76.9774H195.8V72.6333C195.8 72.1193 195.667 71.7177 195.399 71.4284C195.131 71.136 194.763 70.9898 194.295 70.9898C193.975 70.9898 193.691 71.0591 193.441 71.1976C193.195 71.3361 193 71.5392 192.855 71.807C192.713 72.0716 192.643 72.3917 192.643 72.7672ZM202.342 69.8865V70.9945H198.469V69.8865H202.342ZM199.507 68.1876H200.888V74.8954C200.888 75.1631 200.928 75.3647 201.008 75.5001C201.088 75.6325 201.191 75.7233 201.317 75.7725C201.446 75.8187 201.586 75.8418 201.737 75.8418C201.848 75.8418 201.945 75.8341 202.028 75.8187C202.111 75.8033 202.176 75.791 202.222 75.7818L202.471 76.922C202.391 76.9528 202.277 76.9836 202.13 77.0144C201.982 77.0482 201.797 77.0667 201.576 77.0697C201.212 77.0759 200.874 77.0113 200.56 76.8759C200.246 76.7404 199.992 76.5312 199.798 76.248C199.604 75.9649 199.507 75.6094 199.507 75.1816V68.1876ZM203.869 76.9774V69.8865H205.203V71.0129H205.277C205.406 70.6313 205.634 70.3312 205.96 70.1127C206.289 69.8911 206.662 69.7803 207.077 69.7803C207.163 69.7803 207.265 69.7834 207.382 69.7896C207.502 69.7957 207.596 69.8034 207.664 69.8126V71.133C207.608 71.1176 207.51 71.1006 207.368 71.0822C207.227 71.0606 207.085 71.0499 206.943 71.0499C206.617 71.0499 206.326 71.1191 206.071 71.2576C205.819 71.393 205.618 71.5823 205.471 71.8254C205.323 72.0655 205.249 72.3394 205.249 72.6472V76.9774H203.869ZM211.66 77.1205C210.962 77.1205 210.36 76.9713 209.855 76.6727C209.354 76.3711 208.966 75.9479 208.692 75.4032C208.421 74.8554 208.286 74.2137 208.286 73.4781C208.286 72.7518 208.421 72.1117 208.692 71.5577C208.966 71.0037 209.347 70.5713 209.837 70.2604C210.329 69.9496 210.905 69.7942 211.563 69.7942C211.963 69.7942 212.351 69.8603 212.727 69.9927C213.102 70.125 213.439 70.3328 213.738 70.6159C214.036 70.8991 214.272 71.2668 214.444 71.7193C214.616 72.1686 214.703 72.7149 214.703 73.3581V73.8474H209.066V72.8134H213.35C213.35 72.4502 213.276 72.1286 213.128 71.8485C212.981 71.5654 212.773 71.3422 212.505 71.1791C212.24 71.016 211.93 70.9344 211.573 70.9344C211.185 70.9344 210.846 71.0299 210.557 71.2207C210.271 71.4084 210.049 71.6546 209.892 71.9593C209.738 72.2609 209.661 72.5887 209.661 72.9426V73.7505C209.661 74.2245 209.744 74.6276 209.911 74.96C210.08 75.2924 210.315 75.5463 210.617 75.7217C210.919 75.8941 211.271 75.9803 211.674 75.9803C211.936 75.9803 212.174 75.9433 212.39 75.8695C212.605 75.7925 212.791 75.6786 212.948 75.5278C213.105 75.377 213.225 75.1908 213.308 74.9693L214.615 75.2047C214.51 75.5894 214.322 75.9264 214.052 76.2157C213.784 76.5019 213.447 76.7251 213.041 76.8851C212.637 77.042 212.177 77.1205 211.66 77.1205ZM219.544 69.8865V70.9945H215.671V69.8865H219.544ZM216.71 68.1876H218.09V74.8954C218.09 75.1631 218.13 75.3647 218.21 75.5001C218.29 75.6325 218.393 75.7233 218.519 75.7725C218.648 75.8187 218.789 75.8418 218.939 75.8418C219.05 75.8418 219.147 75.8341 219.23 75.8187C219.313 75.8033 219.378 75.791 219.424 75.7818L219.673 76.922C219.593 76.9528 219.479 76.9836 219.332 77.0144C219.184 77.0482 218.999 77.0667 218.778 77.0697C218.415 77.0759 218.076 77.0113 217.762 76.8759C217.448 76.7404 217.194 76.5312 217 76.248C216.807 75.9649 216.71 75.6094 216.71 75.1816V68.1876ZM224.051 77.1205C223.352 77.1205 222.751 76.9713 222.246 76.6727C221.744 76.3711 221.356 75.9479 221.083 75.4032C220.812 74.8554 220.676 74.2137 220.676 73.4781C220.676 72.7518 220.812 72.1117 221.083 71.5577C221.356 71.0037 221.738 70.5713 222.227 70.2604C222.72 69.9496 223.295 69.7942 223.954 69.7942C224.354 69.7942 224.742 69.8603 225.117 69.9927C225.493 70.125 225.83 70.3328 226.128 70.6159C226.427 70.8991 226.662 71.2668 226.835 71.7193C227.007 72.1686 227.093 72.7149 227.093 73.3581V73.8474H221.456V72.8134H225.741C225.741 72.4502 225.667 72.1286 225.519 71.8485C225.371 71.5654 225.163 71.3422 224.896 71.1791C224.631 71.016 224.32 70.9344 223.963 70.9344C223.575 70.9344 223.237 71.0299 222.948 71.2207C222.661 71.4084 222.44 71.6546 222.283 71.9593C222.129 72.2609 222.052 72.5887 222.052 72.9426V73.7505C222.052 74.2245 222.135 74.6276 222.301 74.96C222.471 75.2924 222.706 75.5463 223.008 75.7217C223.309 75.8941 223.662 75.9803 224.065 75.9803C224.326 75.9803 224.565 75.9433 224.78 75.8695C224.996 75.7925 225.182 75.6786 225.339 75.5278C225.496 75.377 225.616 75.1908 225.699 74.9693L227.005 75.2047C226.901 75.5894 226.713 75.9264 226.442 76.2157C226.174 76.5019 225.837 76.7251 225.431 76.8851C225.028 77.042 224.568 77.1205 224.051 77.1205ZM230.005 72.7672V76.9774H228.625V69.8865H229.95V71.0406H230.037C230.2 70.6652 230.456 70.3635 230.804 70.1358C231.155 69.9081 231.596 69.7942 232.129 69.7942C232.612 69.7942 233.035 69.8957 233.398 70.0989C233.761 70.2989 234.043 70.5974 234.243 70.9945C234.443 71.3915 234.543 71.8824 234.543 72.4671V76.9774H233.163V72.6333C233.163 72.1193 233.029 71.7177 232.761 71.4284C232.493 71.136 232.126 70.9898 231.658 70.9898C231.338 70.9898 231.053 71.0591 230.804 71.1976C230.557 71.3361 230.362 71.5392 230.217 71.807C230.076 72.0716 230.005 72.3917 230.005 72.7672ZM236.394 76.9774V69.8865H237.775V76.9774H236.394ZM237.091 68.7924C236.851 68.7924 236.645 68.7124 236.473 68.5523C236.303 68.3892 236.219 68.1953 236.219 67.9707C236.219 67.7429 236.303 67.549 236.473 67.389C236.645 67.2259 236.851 67.1443 237.091 67.1443C237.331 67.1443 237.536 67.2259 237.705 67.389C237.878 67.549 237.964 67.7429 237.964 67.9707C237.964 68.1953 237.878 68.3892 237.705 68.5523C237.536 68.7124 237.331 68.7924 237.091 68.7924ZM242.688 77.1205C241.989 77.1205 241.387 76.9713 240.883 76.6727C240.381 76.3711 239.993 75.9479 239.719 75.4032C239.448 74.8554 239.313 74.2137 239.313 73.4781C239.313 72.7518 239.448 72.1117 239.719 71.5577C239.993 71.0037 240.375 70.5713 240.864 70.2604C241.357 69.9496 241.932 69.7942 242.591 69.7942C242.991 69.7942 243.379 69.8603 243.754 69.9927C244.13 70.125 244.467 70.3328 244.765 70.6159C245.064 70.8991 245.299 71.2668 245.471 71.7193C245.644 72.1686 245.73 72.7149 245.73 73.3581V73.8474H240.093V72.8134H244.377C244.377 72.4502 244.303 72.1286 244.156 71.8485C244.008 71.5654 243.8 71.3422 243.532 71.1791C243.268 71.016 242.957 70.9344 242.6 70.9344C242.212 70.9344 241.874 71.0299 241.584 71.2207C241.298 71.4084 241.076 71.6546 240.92 71.9593C240.766 72.2609 240.689 72.5887 240.689 72.9426V73.7505C240.689 74.2245 240.772 74.6276 240.938 74.96C241.107 75.2924 241.343 75.5463 241.644 75.7217C241.946 75.8941 242.298 75.9803 242.701 75.9803C242.963 75.9803 243.202 75.9433 243.417 75.8695C243.632 75.7925 243.819 75.6786 243.976 75.5278C244.133 75.377 244.253 75.1908 244.336 74.9693L245.642 75.2047C245.538 75.5894 245.35 75.9264 245.079 76.2157C244.811 76.5019 244.474 76.7251 244.068 76.8851C243.665 77.042 243.205 77.1205 242.688 77.1205ZM247.261 76.9774V69.8865H248.586V71.0406H248.674C248.822 70.6498 249.063 70.3451 249.399 70.1266C249.734 69.905 250.136 69.7942 250.604 69.7942C251.078 69.7942 251.475 69.905 251.795 70.1266C252.118 70.3482 252.356 70.6528 252.51 71.0406H252.584C252.753 70.6621 253.023 70.3605 253.392 70.1358C253.761 69.9081 254.202 69.7942 254.712 69.7942C255.356 69.7942 255.88 69.9958 256.287 70.3989C256.696 70.8021 256.901 71.4099 256.901 72.2224V76.9774H255.52V72.3517C255.52 71.8716 255.389 71.5238 255.128 71.3084C254.866 71.0929 254.554 70.9852 254.191 70.9852C253.741 70.9852 253.392 71.1237 253.143 71.4007C252.894 71.6746 252.769 72.027 252.769 72.4579V76.9774H251.393V72.264C251.393 71.8793 251.273 71.57 251.033 71.3361C250.793 71.1022 250.481 70.9852 250.096 70.9852C249.834 70.9852 249.593 71.0545 249.371 71.193C249.153 71.3284 248.976 71.5177 248.84 71.7608C248.708 72.0039 248.642 72.2855 248.642 72.6056V76.9774H247.261ZM258.751 76.9774V69.8865H260.131V76.9774H258.751ZM259.448 68.7924C259.208 68.7924 259.002 68.7124 258.829 68.5523C258.66 68.3892 258.575 68.1953 258.575 67.9707C258.575 67.7429 258.66 67.549 258.829 67.389C259.002 67.2259 259.208 67.1443 259.448 67.1443C259.688 67.1443 259.892 67.2259 260.062 67.389C260.234 67.549 260.32 67.7429 260.32 67.9707C260.32 68.1953 260.234 68.3892 260.062 68.5523C259.892 68.7124 259.688 68.7924 259.448 68.7924ZM265.044 77.1205C264.345 77.1205 263.744 76.9713 263.239 76.6727C262.737 76.3711 262.35 75.9479 262.076 75.4032C261.805 74.8554 261.669 74.2137 261.669 73.4781C261.669 72.7518 261.805 72.1117 262.076 71.5577C262.35 71.0037 262.731 70.5713 263.221 70.2604C263.713 69.9496 264.289 69.7942 264.947 69.7942C265.347 69.7942 265.735 69.8603 266.11 69.9927C266.486 70.125 266.823 70.3328 267.122 70.6159C267.42 70.8991 267.655 71.2668 267.828 71.7193C268 72.1686 268.086 72.7149 268.086 73.3581V73.8474H262.45V72.8134H266.734C266.734 72.4502 266.66 72.1286 266.512 71.8485C266.364 71.5654 266.157 71.3422 265.889 71.1791C265.624 71.016 265.313 70.9344 264.956 70.9344C264.569 70.9344 264.23 71.0299 263.941 71.2207C263.655 71.4084 263.433 71.6546 263.276 71.9593C263.122 72.2609 263.045 72.5887 263.045 72.9426V73.7505C263.045 74.2245 263.128 74.6276 263.294 74.96C263.464 75.2924 263.699 75.5463 264.001 75.7217C264.302 75.8941 264.655 75.9803 265.058 75.9803C265.32 75.9803 265.558 75.9433 265.773 75.8695C265.989 75.7925 266.175 75.6786 266.332 75.5278C266.489 75.377 266.609 75.1908 266.692 74.9693L267.999 75.2047C267.894 75.5894 267.706 75.9264 267.435 76.2157C267.168 76.5019 266.831 76.7251 266.424 76.8851C266.021 77.042 265.561 77.1205 265.044 77.1205ZM270.998 72.7672V76.9774H269.618V69.8865H270.943V71.0406H271.031C271.194 70.6652 271.449 70.3635 271.797 70.1358C272.148 69.9081 272.589 69.7942 273.122 69.7942C273.605 69.7942 274.028 69.8957 274.391 70.0989C274.754 70.2989 275.036 70.5974 275.236 70.9945C275.436 71.3915 275.536 71.8824 275.536 72.4671V76.9774H274.156V72.6333C274.156 72.1193 274.022 71.7177 273.754 71.4284C273.486 71.136 273.119 70.9898 272.651 70.9898C272.331 70.9898 272.046 71.0591 271.797 71.1976C271.551 71.3361 271.355 71.5392 271.211 71.807C271.069 72.0716 270.998 72.3917 270.998 72.7672ZM280.697 69.8865V70.9945H276.824V69.8865H280.697ZM277.863 68.1876H279.243V74.8954C279.243 75.1631 279.283 75.3647 279.363 75.5001C279.443 75.6325 279.546 75.7233 279.673 75.7725C279.802 75.8187 279.942 75.8418 280.093 75.8418C280.203 75.8418 280.3 75.8341 280.383 75.8187C280.467 75.8033 280.531 75.791 280.577 75.7818L280.827 76.922C280.747 76.9528 280.633 76.9836 280.485 77.0144C280.337 77.0482 280.153 77.0667 279.931 77.0697C279.568 77.0759 279.229 77.0113 278.915 76.8759C278.602 76.7404 278.348 76.5312 278.154 76.248C277.96 75.9649 277.863 75.6094 277.863 75.1816V68.1876ZM285.135 77.1205C284.47 77.1205 283.89 76.9682 283.395 76.6635C282.899 76.3588 282.514 75.9326 282.24 75.3847C281.967 74.8369 281.83 74.1968 281.83 73.4643C281.83 72.7287 281.967 72.0855 282.24 71.5346C282.514 70.9837 282.899 70.5559 283.395 70.2512C283.89 69.9465 284.47 69.7942 285.135 69.7942C285.8 69.7942 286.38 69.9465 286.875 70.2512C287.371 70.5559 287.756 70.9837 288.03 71.5346C288.303 72.0855 288.44 72.7287 288.44 73.4643C288.44 74.1968 288.303 74.8369 288.03 75.3847C287.756 75.9326 287.371 76.3588 286.875 76.6635C286.38 76.9682 285.8 77.1205 285.135 77.1205ZM285.14 75.9618C285.57 75.9618 285.927 75.8479 286.211 75.6202C286.494 75.3924 286.703 75.0893 286.838 74.7107C286.977 74.3322 287.046 73.9152 287.046 73.4597C287.046 73.0072 286.977 72.5918 286.838 72.2132C286.703 71.8316 286.494 71.5254 286.211 71.2945C285.927 71.0637 285.57 70.9483 285.14 70.9483C284.706 70.9483 284.346 71.0637 284.059 71.2945C283.776 71.5254 283.565 71.8316 283.427 72.2132C283.291 72.5918 283.224 73.0072 283.224 73.4597C283.224 73.9152 283.291 74.3322 283.427 74.7107C283.565 75.0893 283.776 75.3924 284.059 75.6202C284.346 75.8479 284.706 75.9618 285.14 75.9618Z" fill="black"/>
</svg>
