<svg width="364" height="128" viewBox="0 0 364 128" fill="none" xmlns="http://www.w3.org/2000/svg">
<path d="M99.735 6.77166H97.7428C97.686 6.44496 97.5812 6.15554 97.4285 5.90341C97.2758 5.64773 97.0858 5.43111 96.8586 5.25355C96.6313 5.07599 96.3721 4.94283 96.0809 4.85405C95.7932 4.76172 95.4825 4.71555 95.1487 4.71555C94.5557 4.71555 94.0301 4.8647 93.572 5.163C93.1139 5.45774 92.7552 5.89098 92.496 6.46271C92.2368 7.03089 92.1072 7.72514 92.1072 8.54545C92.1072 9.37997 92.2368 10.0831 92.496 10.6548C92.7588 11.223 93.1175 11.6527 93.572 11.9439C94.0301 12.2315 94.5539 12.3754 95.1434 12.3754C95.4701 12.3754 95.7755 12.3327 96.0596 12.2475C96.3472 12.1587 96.6047 12.0291 96.8319 11.8587C97.0628 11.6882 97.2563 11.4787 97.4126 11.2301C97.5724 10.9815 97.6824 10.6974 97.7428 10.3778L99.735 10.3885C99.6604 10.907 99.4988 11.3935 99.2503 11.848C99.0052 12.3026 98.6839 12.7038 98.2861 13.0518C97.8884 13.3963 97.4232 13.6662 96.8905 13.8615C96.3579 14.0533 95.7666 14.1491 95.1167 14.1491C94.1579 14.1491 93.3021 13.9272 92.5493 13.4833C91.7964 13.0394 91.2034 12.3984 90.7702 11.5604C90.3369 10.7223 90.1203 9.71733 90.1203 8.54545C90.1203 7.37003 90.3387 6.36506 90.7755 5.53054C91.2123 4.69247 91.8071 4.05149 92.5599 3.6076C93.3128 3.16371 94.165 2.94176 95.1167 2.94176C95.724 2.94176 96.2886 3.02699 96.8106 3.19744C97.3327 3.3679 97.7979 3.61825 98.2062 3.94851C98.6146 4.27521 98.9502 4.67649 99.213 5.15234C99.4793 5.62464 99.6533 6.16442 99.735 6.77166ZM105.028 14.1598C104.229 14.1598 103.537 13.984 102.951 13.6325C102.365 13.2809 101.911 12.7891 101.587 12.157C101.268 11.5249 101.108 10.7862 101.108 9.94105C101.108 9.09588 101.268 8.35547 101.587 7.71982C101.911 7.08416 102.365 6.59055 102.951 6.23899C103.537 5.88743 104.229 5.71165 105.028 5.71165C105.827 5.71165 106.52 5.88743 107.106 6.23899C107.692 6.59055 108.145 7.08416 108.464 7.71982C108.787 8.35547 108.949 9.09588 108.949 9.94105C108.949 10.7862 108.787 11.5249 108.464 12.157C108.145 12.7891 107.692 13.2809 107.106 13.6325C106.52 13.984 105.827 14.1598 105.028 14.1598ZM105.039 12.6151C105.472 12.6151 105.835 12.4961 106.126 12.2582C106.417 12.0167 106.634 11.6935 106.776 11.2887C106.921 10.8839 106.994 10.4329 106.994 9.93572C106.994 9.43501 106.921 8.98224 106.776 8.57741C106.634 8.16903 106.417 7.84411 106.126 7.60263C105.835 7.36115 105.472 7.24041 105.039 7.24041C104.595 7.24041 104.226 7.36115 103.931 7.60263C103.64 7.84411 103.422 8.16903 103.276 8.57741C103.134 8.98224 103.063 9.43501 103.063 9.93572C103.063 10.4329 103.134 10.8839 103.276 11.2887C103.422 11.6935 103.64 12.0167 103.931 12.2582C104.226 12.4961 104.595 12.6151 105.039 12.6151ZM112.514 3.09091V14H110.585V3.09091H112.514ZM118.066 14.1598C117.267 14.1598 116.574 13.984 115.988 13.6325C115.402 13.2809 114.948 12.7891 114.624 12.157C114.305 11.5249 114.145 10.7862 114.145 9.94105C114.145 9.09588 114.305 8.35547 114.624 7.71982C114.948 7.08416 115.402 6.59055 115.988 6.23899C116.574 5.88743 117.267 5.71165 118.066 5.71165C118.865 5.71165 119.557 5.88743 120.143 6.23899C120.729 6.59055 121.182 7.08416 121.501 7.71982C121.824 8.35547 121.986 9.09588 121.986 9.94105C121.986 10.7862 121.824 11.5249 121.501 12.157C121.182 12.7891 120.729 13.2809 120.143 13.6325C119.557 13.984 118.865 14.1598 118.066 14.1598ZM118.076 12.6151C118.509 12.6151 118.872 12.4961 119.163 12.2582C119.454 12.0167 119.671 11.6935 119.813 11.2887C119.958 10.8839 120.031 10.4329 120.031 9.93572C120.031 9.43501 119.958 8.98224 119.813 8.57741C119.671 8.16903 119.454 7.84411 119.163 7.60263C118.872 7.36115 118.509 7.24041 118.076 7.24041C117.632 7.24041 117.263 7.36115 116.968 7.60263C116.677 7.84411 116.459 8.16903 116.313 8.57741C116.171 8.98224 116.1 9.43501 116.1 9.93572C116.1 10.4329 116.171 10.8839 116.313 11.2887C116.459 11.6935 116.677 12.0167 116.968 12.2582C117.263 12.4961 117.632 12.6151 118.076 12.6151ZM123.623 14V5.81818H125.492V7.18182H125.578C125.727 6.70952 125.982 6.34553 126.345 6.08984C126.71 5.83061 127.128 5.70099 127.596 5.70099C127.703 5.70099 127.822 5.70632 127.953 5.71697C128.088 5.72408 128.2 5.73651 128.289 5.75426V7.52805C128.207 7.49964 128.078 7.47479 127.9 7.45348C127.726 7.42862 127.557 7.41619 127.394 7.41619C127.042 7.41619 126.726 7.49254 126.446 7.64524C126.169 7.79439 125.95 8.00213 125.791 8.26847C125.631 8.5348 125.551 8.84197 125.551 9.18999V14H123.623ZM136.327 14.1438C135.684 14.1438 135.109 13.9787 134.601 13.6484C134.093 13.3182 133.692 12.8388 133.397 12.2102C133.102 11.5817 132.955 10.8182 132.955 9.91974C132.955 9.01065 133.104 8.24361 133.402 7.61861C133.704 6.99006 134.111 6.51598 134.622 6.19638C135.134 5.87322 135.704 5.71165 136.332 5.71165C136.812 5.71165 137.206 5.79332 137.515 5.95668C137.824 6.11648 138.069 6.31001 138.25 6.53729C138.431 6.76101 138.571 6.9723 138.671 7.17116H138.75V3.09091H140.684V14H138.788V12.7109H138.671C138.571 12.9098 138.427 13.1211 138.239 13.3448C138.051 13.565 137.802 13.7532 137.493 13.9094C137.184 14.0657 136.796 14.1438 136.327 14.1438ZM136.865 12.5618C137.273 12.5618 137.621 12.4517 137.909 12.2315C138.196 12.0078 138.415 11.6971 138.564 11.2994C138.713 10.9016 138.788 10.4382 138.788 9.90909C138.788 9.37997 138.713 8.9201 138.564 8.52947C138.418 8.13885 138.202 7.83523 137.914 7.61861C137.63 7.40199 137.28 7.29368 136.865 7.29368C136.435 7.29368 136.076 7.40554 135.789 7.62926C135.501 7.85298 135.285 8.16193 135.139 8.55611C134.993 8.95028 134.921 9.40128 134.921 9.90909C134.921 10.4205 134.993 10.8768 135.139 11.2781C135.288 11.6758 135.506 11.9901 135.794 12.2209C136.085 12.4482 136.442 12.5618 136.865 12.5618ZM146.361 14.1598C145.541 14.1598 144.832 13.9893 144.236 13.6484C143.643 13.304 143.186 12.8175 142.867 12.1889C142.547 11.5568 142.387 10.8129 142.387 9.95703C142.387 9.11541 142.547 8.37678 142.867 7.74112C143.19 7.10192 143.641 6.60476 144.22 6.24964C144.798 5.89098 145.479 5.71165 146.26 5.71165C146.764 5.71165 147.24 5.79332 147.687 5.95668C148.138 6.11648 148.536 6.36506 148.881 6.70241C149.229 7.03977 149.502 7.46946 149.701 7.99148C149.9 8.50994 149.999 9.12784 149.999 9.84517V10.4364H143.293V9.13672H148.151C148.147 8.7674 148.067 8.43892 147.911 8.15128C147.755 7.86009 147.536 7.63104 147.256 7.46413C146.979 7.29723 146.656 7.21378 146.286 7.21378C145.892 7.21378 145.546 7.30966 145.248 7.50142C144.949 7.68963 144.717 7.93821 144.55 8.24716C144.387 8.55256 144.303 8.88814 144.3 9.25391V10.3885C144.3 10.8643 144.387 11.2727 144.561 11.6136C144.735 11.951 144.978 12.2102 145.29 12.3913C145.603 12.5689 145.969 12.6577 146.388 12.6577C146.668 12.6577 146.922 12.6186 147.149 12.5405C147.377 12.4588 147.574 12.3398 147.741 12.1836C147.907 12.0273 148.034 11.8338 148.119 11.603L149.919 11.8054C149.806 12.2812 149.589 12.6967 149.269 13.0518C148.953 13.4034 148.548 13.6768 148.055 13.8722C147.561 14.0639 146.997 14.1598 146.361 14.1598ZM159.495 5.81818V7.30966H154.659V5.81818H159.495ZM155.868 14V5.04581C155.868 4.49538 155.981 4.03729 156.209 3.67152C156.44 3.30575 156.748 3.03232 157.136 2.85121C157.523 2.6701 157.952 2.57954 158.425 2.57954C158.758 2.57954 159.055 2.60618 159.314 2.65945C159.573 2.71271 159.765 2.76065 159.889 2.80327L159.506 4.29474C159.424 4.26989 159.321 4.24503 159.197 4.22017C159.073 4.19176 158.934 4.17756 158.782 4.17756C158.423 4.17756 158.169 4.26456 158.02 4.43857C157.874 4.60902 157.801 4.85405 157.801 5.17365V14H155.868ZM162.934 3.09091V14H161.005V3.09091H162.934ZM168.539 14.1598C167.718 14.1598 167.01 13.9893 166.413 13.6484C165.82 13.304 165.364 12.8175 165.044 12.1889C164.725 11.5568 164.565 10.8129 164.565 9.95703C164.565 9.11541 164.725 8.37678 165.044 7.74112C165.368 7.10192 165.819 6.60476 166.397 6.24964C166.976 5.89098 167.656 5.71165 168.438 5.71165C168.942 5.71165 169.418 5.79332 169.865 5.95668C170.316 6.11648 170.714 6.36506 171.058 6.70241C171.406 7.03977 171.68 7.46946 171.879 7.99148C172.077 8.50994 172.177 9.12784 172.177 9.84517V10.4364H165.471V9.13672H170.328C170.325 8.7674 170.245 8.43892 170.089 8.15128C169.933 7.86009 169.714 7.63104 169.434 7.46413C169.157 7.29723 168.833 7.21378 168.464 7.21378C168.07 7.21378 167.724 7.30966 167.425 7.50142C167.127 7.68963 166.895 7.93821 166.728 8.24716C166.564 8.55256 166.481 8.88814 166.477 9.25391V10.3885C166.477 10.8643 166.564 11.2727 166.738 11.6136C166.912 11.951 167.156 12.2102 167.468 12.3913C167.781 12.5689 168.146 12.6577 168.565 12.6577C168.846 12.6577 169.1 12.6186 169.327 12.5405C169.554 12.4588 169.751 12.3398 169.918 12.1836C170.085 12.0273 170.211 11.8338 170.297 11.603L172.097 11.8054C171.983 12.2812 171.767 12.6967 171.447 13.0518C171.131 13.4034 170.726 13.6768 170.233 13.8722C169.739 14.0639 169.174 14.1598 168.539 14.1598ZM177.377 14.1598C176.56 14.1598 175.859 13.9805 175.273 13.6218C174.691 13.2631 174.241 12.7678 173.925 12.1357C173.613 11.5 173.457 10.7685 173.457 9.94105C173.457 9.11009 173.616 8.37678 173.936 7.74112C174.256 7.10192 174.707 6.60476 175.289 6.24964C175.875 5.89098 176.567 5.71165 177.366 5.71165C178.03 5.71165 178.618 5.83416 179.13 6.07919C179.644 6.32067 180.055 6.66335 180.36 7.10724C180.665 7.54759 180.839 8.0625 180.882 8.65199H179.039C178.964 8.25781 178.787 7.92933 178.506 7.66655C178.229 7.40021 177.858 7.26705 177.393 7.26705C176.999 7.26705 176.653 7.37358 176.354 7.58665C176.056 7.79616 175.823 8.09801 175.657 8.49219C175.493 8.88636 175.411 9.35866 175.411 9.90909C175.411 10.4666 175.493 10.946 175.657 11.3473C175.82 11.745 176.049 12.0522 176.344 12.2688C176.642 12.4819 176.992 12.5884 177.393 12.5884C177.677 12.5884 177.931 12.5352 178.155 12.4286C178.382 12.3185 178.572 12.1605 178.725 11.9545C178.877 11.7486 178.982 11.4982 179.039 11.2035H180.882C180.836 11.7823 180.665 12.2955 180.371 12.7429C180.076 13.1868 179.675 13.5348 179.167 13.7869C178.659 14.0355 178.062 14.1598 177.377 14.1598ZM184.394 9.20597V14H182.465V3.09091H184.351V7.20845H184.447C184.639 6.7468 184.935 6.38281 185.336 6.11648C185.741 5.84659 186.256 5.71165 186.881 5.71165C187.449 5.71165 187.945 5.83061 188.367 6.06854C188.79 6.30646 189.117 6.65447 189.347 7.11257C189.582 7.57067 189.699 8.12997 189.699 8.79048V14H187.771V9.08878C187.771 8.53835 187.629 8.11044 187.345 7.80504C187.064 7.49609 186.67 7.34162 186.162 7.34162C185.821 7.34162 185.516 7.41619 185.246 7.56534C184.98 7.71094 184.77 7.92223 184.617 8.19922C184.468 8.47621 184.394 8.81179 184.394 9.20597ZM194.019 14.1651C193.501 14.1651 193.034 14.0728 192.618 13.8881C192.206 13.6999 191.879 13.4229 191.638 13.0572C191.4 12.6914 191.281 12.2404 191.281 11.7042C191.281 11.2425 191.366 10.8608 191.537 10.5589C191.707 10.2571 191.94 10.0156 192.235 9.83452C192.529 9.65341 192.861 9.51669 193.231 9.42436C193.604 9.32848 193.989 9.25923 194.387 9.21662C194.866 9.1669 195.255 9.12251 195.553 9.08345C195.851 9.04084 196.068 8.97692 196.203 8.89169C196.341 8.80291 196.411 8.66619 196.411 8.48153V8.44957C196.411 8.0483 196.292 7.73757 196.054 7.5174C195.816 7.29723 195.473 7.18714 195.026 7.18714C194.553 7.18714 194.179 7.29013 193.902 7.49609C193.628 7.70206 193.444 7.94531 193.348 8.22585L191.547 7.97017C191.689 7.47301 191.924 7.05753 192.251 6.72372C192.577 6.38636 192.977 6.13423 193.449 5.96733C193.921 5.79688 194.443 5.71165 195.015 5.71165C195.409 5.71165 195.802 5.75781 196.192 5.85014C196.583 5.94247 196.94 6.09517 197.263 6.30824C197.586 6.51776 197.845 6.80362 198.041 7.16584C198.24 7.52805 198.339 7.98082 198.339 8.52415V14H196.485V12.8761H196.421C196.304 13.1033 196.139 13.3164 195.926 13.5153C195.716 13.7106 195.452 13.8686 195.132 13.9893C194.816 14.1065 194.445 14.1651 194.019 14.1651ZM194.52 12.7482C194.907 12.7482 195.242 12.6719 195.526 12.5192C195.811 12.3629 196.029 12.157 196.182 11.9013C196.338 11.6456 196.416 11.3668 196.416 11.065V10.1009C196.356 10.1506 196.253 10.1967 196.107 10.2393C195.965 10.282 195.805 10.3192 195.628 10.3512C195.45 10.3832 195.274 10.4116 195.1 10.4364C194.926 10.4613 194.775 10.4826 194.648 10.5004C194.36 10.5394 194.102 10.6033 193.875 10.6921C193.648 10.7809 193.469 10.9052 193.337 11.065C193.206 11.2212 193.14 11.4237 193.14 11.6722C193.14 12.0273 193.27 12.2955 193.529 12.4766C193.788 12.6577 194.118 12.7482 194.52 12.7482ZM204.478 8.54545C204.478 7.21378 204.654 5.99041 205.005 4.87535C205.36 3.75675 205.888 2.72337 206.587 1.77521H208.404C208.134 2.12678 207.882 2.55824 207.647 3.0696C207.413 3.57741 207.209 4.13494 207.035 4.74219C206.864 5.34588 206.729 5.97266 206.63 6.62251C206.534 7.27237 206.486 7.91335 206.486 8.54545C206.486 9.38707 206.57 10.2393 206.737 11.1023C206.907 11.9652 207.136 12.766 207.424 13.5046C207.715 14.2397 208.042 14.8416 208.404 15.3104H206.587C205.888 14.3622 205.36 13.3306 205.005 12.2156C204.654 11.0969 204.478 9.87358 204.478 8.54545ZM217.295 6.57457C217.207 6.28693 217.084 6.02947 216.928 5.8022C216.775 5.57138 216.59 5.37429 216.374 5.21094C216.161 5.04759 215.916 4.92507 215.639 4.84339C215.362 4.75817 215.06 4.71555 214.733 4.71555C214.147 4.71555 213.625 4.86293 213.167 5.15767C212.709 5.45241 212.349 5.88565 212.086 6.45739C211.827 7.02557 211.697 7.71804 211.697 8.5348C211.697 9.35866 211.827 10.0565 212.086 10.6282C212.345 11.1999 212.706 11.6349 213.167 11.9332C213.629 12.228 214.165 12.3754 214.776 12.3754C215.33 12.3754 215.809 12.2688 216.214 12.0558C216.622 11.8427 216.937 11.5408 217.157 11.1502C217.377 10.756 217.487 10.2944 217.487 9.76527L217.935 9.83452H214.973V8.28977H219.399V9.60014C219.399 10.5341 219.201 11.342 218.803 12.0238C218.405 12.7056 217.858 13.2312 217.162 13.6005C216.466 13.9663 215.667 14.1491 214.765 14.1491C213.76 14.1491 212.878 13.9237 212.118 13.4727C211.361 13.0181 210.77 12.3736 210.344 11.5391C209.921 10.701 209.71 9.70668 209.71 8.55611C209.71 7.67543 209.834 6.88885 210.083 6.19638C210.335 5.50391 210.687 4.91619 211.138 4.43324C211.589 3.94673 212.118 3.57741 212.725 3.32528C213.332 3.0696 213.993 2.94176 214.707 2.94176C215.31 2.94176 215.873 3.03054 216.395 3.2081C216.917 3.3821 217.381 3.63068 217.785 3.95384C218.194 4.27699 218.529 4.66051 218.792 5.1044C219.055 5.5483 219.227 6.03835 219.309 6.57457H217.295ZM224.847 14.1598C224.027 14.1598 223.319 13.9893 222.722 13.6484C222.129 13.304 221.673 12.8175 221.353 12.1889C221.033 11.5568 220.874 10.8129 220.874 9.95703C220.874 9.11541 221.033 8.37678 221.353 7.74112C221.676 7.10192 222.127 6.60476 222.706 6.24964C223.285 5.89098 223.965 5.71165 224.746 5.71165C225.25 5.71165 225.726 5.79332 226.174 5.95668C226.625 6.11648 227.022 6.36506 227.367 6.70241C227.715 7.03977 227.988 7.46946 228.187 7.99148C228.386 8.50994 228.485 9.12784 228.485 9.84517V10.4364H221.779V9.13672H226.637C226.634 8.7674 226.554 8.43892 226.397 8.15128C226.241 7.86009 226.023 7.63104 225.742 7.46413C225.465 7.29723 225.142 7.21378 224.773 7.21378C224.379 7.21378 224.032 7.30966 223.734 7.50142C223.436 7.68963 223.203 7.93821 223.036 8.24716C222.873 8.55256 222.789 8.88814 222.786 9.25391V10.3885C222.786 10.8643 222.873 11.2727 223.047 11.6136C223.221 11.951 223.464 12.2102 223.777 12.3913C224.089 12.5689 224.455 12.6577 224.874 12.6577C225.154 12.6577 225.408 12.6186 225.636 12.5405C225.863 12.4588 226.06 12.3398 226.227 12.1836C226.394 12.0273 226.52 11.8338 226.605 11.603L228.406 11.8054C228.292 12.2812 228.075 12.6967 227.756 13.0518C227.44 13.4034 227.035 13.6768 226.541 13.8722C226.048 14.0639 225.483 14.1598 224.847 14.1598ZM232.045 9.20597V14H230.117V5.81818H231.96V7.20845H232.056C232.244 6.75035 232.544 6.38636 232.956 6.11648C233.371 5.84659 233.884 5.71165 234.495 5.71165C235.06 5.71165 235.552 5.83239 235.971 6.07386C236.393 6.31534 236.72 6.66513 236.951 7.12322C237.185 7.58132 237.301 8.13707 237.297 8.79048V14H235.369V9.08878C235.369 8.5419 235.227 8.11399 234.943 7.80504C234.662 7.49609 234.273 7.34162 233.776 7.34162C233.439 7.34162 233.139 7.41619 232.876 7.56534C232.617 7.71094 232.413 7.92223 232.263 8.19922C232.118 8.47621 232.045 8.81179 232.045 9.20597ZM242.88 14.1598C242.059 14.1598 241.351 13.9893 240.754 13.6484C240.161 13.304 239.705 12.8175 239.385 12.1889C239.066 11.5568 238.906 10.8129 238.906 9.95703C238.906 9.11541 239.066 8.37678 239.385 7.74112C239.708 7.10192 240.159 6.60476 240.738 6.24964C241.317 5.89098 241.997 5.71165 242.778 5.71165C243.283 5.71165 243.758 5.79332 244.206 5.95668C244.657 6.11648 245.055 6.36506 245.399 6.70241C245.747 7.03977 246.021 7.46946 246.219 7.99148C246.418 8.50994 246.518 9.12784 246.518 9.84517V10.4364H239.811V9.13672H244.669C244.666 8.7674 244.586 8.43892 244.43 8.15128C244.273 7.86009 244.055 7.63104 243.774 7.46413C243.497 7.29723 243.174 7.21378 242.805 7.21378C242.411 7.21378 242.065 7.30966 241.766 7.50142C241.468 7.68963 241.235 7.93821 241.068 8.24716C240.905 8.55256 240.822 8.88814 240.818 9.25391V10.3885C240.818 10.8643 240.905 11.2727 241.079 11.6136C241.253 11.951 241.496 12.2102 241.809 12.3913C242.121 12.5689 242.487 12.6577 242.906 12.6577C243.187 12.6577 243.441 12.6186 243.668 12.5405C243.895 12.4588 244.092 12.3398 244.259 12.1836C244.426 12.0273 244.552 11.8338 244.637 11.603L246.438 11.8054C246.324 12.2812 246.108 12.6967 245.788 13.0518C245.472 13.4034 245.067 13.6768 244.573 13.8722C244.08 14.0639 243.515 14.1598 242.88 14.1598ZM248.149 14V5.81818H250.019V7.18182H250.104C250.253 6.70952 250.509 6.34553 250.871 6.08984C251.237 5.83061 251.654 5.70099 252.123 5.70099C252.229 5.70099 252.348 5.70632 252.48 5.71697C252.615 5.72408 252.726 5.73651 252.815 5.75426V7.52805C252.733 7.49964 252.604 7.47479 252.426 7.45348C252.252 7.42862 252.084 7.41619 251.92 7.41619C251.569 7.41619 251.253 7.49254 250.972 7.64524C250.695 7.79439 250.477 8.00213 250.317 8.26847C250.157 8.5348 250.077 8.84197 250.077 9.18999V14H248.149ZM257.328 14.1598C256.529 14.1598 255.837 13.984 255.251 13.6325C254.665 13.2809 254.21 12.7891 253.887 12.157C253.568 11.5249 253.408 10.7862 253.408 9.94105C253.408 9.09588 253.568 8.35547 253.887 7.71982C254.21 7.08416 254.665 6.59055 255.251 6.23899C255.837 5.88743 256.529 5.71165 257.328 5.71165C258.127 5.71165 258.82 5.88743 259.406 6.23899C259.992 6.59055 260.444 7.08416 260.764 7.71982C261.087 8.35547 261.249 9.09588 261.249 9.94105C261.249 10.7862 261.087 11.5249 260.764 12.157C260.444 12.7891 259.992 13.2809 259.406 13.6325C258.82 13.984 258.127 14.1598 257.328 14.1598ZM257.339 12.6151C257.772 12.6151 258.134 12.4961 258.426 12.2582C258.717 12.0167 258.933 11.6935 259.075 11.2887C259.221 10.8839 259.294 10.4329 259.294 9.93572C259.294 9.43501 259.221 8.98224 259.075 8.57741C258.933 8.16903 258.717 7.84411 258.426 7.60263C258.134 7.36115 257.772 7.24041 257.339 7.24041C256.895 7.24041 256.526 7.36115 256.231 7.60263C255.94 7.84411 255.721 8.16903 255.576 8.57741C255.434 8.98224 255.363 9.43501 255.363 9.93572C255.363 10.4329 255.434 10.8839 255.576 11.2887C255.721 11.6935 255.94 12.0167 256.231 12.2582C256.526 12.4961 256.895 12.6151 257.339 12.6151ZM266.136 9.5522C266.136 10.8803 265.958 12.1037 265.603 13.2223C265.252 14.3374 264.726 15.369 264.027 16.3171H262.21C262.484 15.9656 262.736 15.5359 262.967 15.0281C263.201 14.5202 263.403 13.9627 263.574 13.3555C263.748 12.7482 263.883 12.1197 263.979 11.4698C264.078 10.82 264.128 10.1808 264.128 9.5522C264.128 8.71058 264.043 7.85831 263.872 6.99538C263.705 6.13246 263.476 5.33168 263.185 4.59304C262.897 3.8544 262.572 3.25071 262.21 2.78196H264.027C264.726 3.73011 265.252 4.76349 265.603 5.8821C265.958 6.99716 266.136 8.22053 266.136 9.5522ZM269.786 14.1172C269.463 14.1172 269.186 14.0036 268.955 13.7763C268.724 13.549 268.611 13.272 268.614 12.9453C268.611 12.6257 268.724 12.3523 268.955 12.125C269.186 11.8977 269.463 11.7841 269.786 11.7841C270.099 11.7841 270.37 11.8977 270.601 12.125C270.835 12.3523 270.954 12.6257 270.958 12.9453C270.954 13.1619 270.898 13.359 270.787 13.5366C270.681 13.7141 270.539 13.8562 270.361 13.9627C270.187 14.0657 269.996 14.1172 269.786 14.1172ZM269.786 8.27912C269.463 8.27912 269.186 8.16548 268.955 7.93821C268.724 7.70739 268.611 7.4304 268.614 7.10724C268.611 6.78764 268.724 6.5142 268.955 6.28693C269.186 6.05611 269.463 5.9407 269.786 5.9407C270.099 5.9407 270.37 6.05611 270.601 6.28693C270.835 6.5142 270.954 6.78764 270.958 7.10724C270.954 7.32031 270.898 7.51562 270.787 7.69318C270.681 7.87074 270.539 8.01278 270.361 8.11932C270.187 8.22585 269.996 8.27912 269.786 8.27912Z" fill="black"/>
<path d="M28 41L56 69L28 55.4094L0 69L28 41Z" fill="#B300FF"/>
<path d="M81.0387 51.5455H82.7699L85.7798 58.8949H85.8906L88.9006 51.5455H90.6317V61H89.2745V54.1584H89.1868L86.3984 60.9861H85.272L82.4837 54.1538H82.396V61H81.0387V51.5455ZM97.0867 58.0593V53.9091H98.4717V61H97.1144V59.772H97.0406C96.8775 60.1506 96.6159 60.466 96.2558 60.7184C95.8988 60.9677 95.454 61.0923 94.9216 61.0923C94.4661 61.0923 94.0629 60.9923 93.7121 60.7923C93.3643 60.5891 93.0904 60.2891 92.8904 59.892C92.6934 59.495 92.5949 59.0041 92.5949 58.4194V53.9091H93.9752V58.2532C93.9752 58.7364 94.1091 59.1211 94.3769 59.4073C94.6446 59.6935 94.9924 59.8366 95.4202 59.8366C95.6787 59.8366 95.9357 59.772 96.1911 59.6428C96.4497 59.5135 96.6636 59.3181 96.8328 59.0565C97.0052 58.7949 97.0898 58.4625 97.0867 58.0593ZM105.64 55.6403L104.389 55.8619C104.337 55.7018 104.253 55.5495 104.14 55.4048C104.029 55.2602 103.878 55.1417 103.687 55.0494C103.496 54.957 103.258 54.9109 102.972 54.9109C102.581 54.9109 102.254 54.9986 101.993 55.174C101.731 55.3464 101.6 55.5695 101.6 55.8434C101.6 56.0804 101.688 56.2712 101.864 56.4158C102.039 56.5605 102.322 56.679 102.713 56.7713L103.839 57.0298C104.492 57.1806 104.978 57.413 105.298 57.7269C105.618 58.0408 105.778 58.4486 105.778 58.9503C105.778 59.375 105.655 59.7536 105.409 60.0859C105.166 60.4152 104.826 60.6738 104.389 60.8615C103.955 61.0492 103.452 61.1431 102.879 61.1431C102.085 61.1431 101.437 60.9738 100.936 60.6353C100.434 60.2937 100.126 59.8089 100.012 59.1811L101.347 58.978C101.43 59.3258 101.6 59.5889 101.859 59.7674C102.118 59.9428 102.455 60.0305 102.87 60.0305C103.322 60.0305 103.684 59.9367 103.955 59.7489C104.226 59.5581 104.361 59.3258 104.361 59.0518C104.361 58.8303 104.278 58.6441 104.112 58.4933C103.949 58.3424 103.698 58.2286 103.359 58.1516L102.159 57.8885C101.497 57.7377 101.008 57.4976 100.691 57.1683C100.377 56.839 100.22 56.422 100.22 55.9173C100.22 55.4987 100.337 55.1325 100.571 54.8185C100.805 54.5046 101.128 54.2599 101.54 54.0845C101.953 53.906 102.425 53.8168 102.958 53.8168C103.724 53.8168 104.327 53.983 104.767 54.3153C105.208 54.6446 105.498 55.0863 105.64 55.6403ZM107.296 61V53.9091H108.676V61H107.296ZM107.993 52.815C107.753 52.815 107.547 52.735 107.375 52.5749C107.205 52.4118 107.121 52.2179 107.121 51.9933C107.121 51.7655 107.205 51.5716 107.375 51.4116C107.547 51.2485 107.753 51.1669 107.993 51.1669C108.233 51.1669 108.438 51.2485 108.607 51.4116C108.78 51.5716 108.866 51.7655 108.866 51.9933C108.866 52.2179 108.78 52.4118 108.607 52.5749C108.438 52.735 108.233 52.815 107.993 52.815ZM113.52 61.1431C112.834 61.1431 112.243 60.9877 111.748 60.6768C111.255 60.3629 110.877 59.9305 110.612 59.3796C110.347 58.8287 110.215 58.1978 110.215 57.4869C110.215 56.7667 110.35 56.1312 110.621 55.5803C110.892 55.0263 111.274 54.5939 111.766 54.283C112.258 53.9722 112.839 53.8168 113.506 53.8168C114.045 53.8168 114.525 53.9168 114.947 54.1168C115.368 54.3138 115.708 54.5908 115.967 54.9478C116.229 55.3048 116.384 55.7218 116.433 56.1989H115.09C115.016 55.8665 114.847 55.5803 114.582 55.3402C114.32 55.1001 113.97 54.9801 113.529 54.9801C113.145 54.9801 112.808 55.0817 112.518 55.2848C112.232 55.4848 112.009 55.7711 111.849 56.1435C111.689 56.5128 111.609 56.9498 111.609 57.4545C111.609 57.9716 111.687 58.4178 111.844 58.7933C112.001 59.1688 112.223 59.4596 112.509 59.6658C112.799 59.872 113.139 59.9751 113.529 59.9751C113.791 59.9751 114.028 59.9274 114.24 59.832C114.456 59.7335 114.636 59.5935 114.781 59.4119C114.928 59.2303 115.031 59.0118 115.09 58.7564H116.433C116.384 59.215 116.235 59.6243 115.985 59.9844C115.736 60.3445 115.402 60.6276 114.984 60.8338C114.568 61.04 114.08 61.1431 113.52 61.1431ZM119.973 61.157C119.524 61.157 119.117 61.0739 118.754 60.9077C118.391 60.7384 118.103 60.4937 117.891 60.1736C117.682 59.8536 117.577 59.4612 117.577 58.9964C117.577 58.5964 117.654 58.267 117.808 58.0085C117.962 57.75 118.169 57.5453 118.431 57.3945C118.693 57.2437 118.985 57.1299 119.308 57.0529C119.631 56.976 119.961 56.9175 120.296 56.8775C120.721 56.8282 121.065 56.7882 121.33 56.7575C121.595 56.7236 121.787 56.6697 121.907 56.5959C122.027 56.522 122.087 56.402 122.087 56.2358V56.2035C122.087 55.8003 121.973 55.4879 121.746 55.2663C121.521 55.0447 121.186 54.9339 120.739 54.9339C120.275 54.9339 119.908 55.037 119.641 55.2433C119.376 55.4464 119.193 55.6726 119.091 55.9219L117.794 55.6264C117.948 55.1955 118.172 54.8478 118.468 54.5831C118.766 54.3153 119.11 54.1214 119.497 54.0014C119.885 53.8783 120.293 53.8168 120.721 53.8168C121.004 53.8168 121.304 53.8506 121.621 53.9183C121.941 53.983 122.24 54.103 122.517 54.2784C122.797 54.4538 123.026 54.7047 123.204 55.0309C123.383 55.354 123.472 55.7741 123.472 56.2912V61H122.124V60.0305H122.069C121.98 60.209 121.846 60.3845 121.667 60.5568C121.489 60.7292 121.259 60.8723 120.979 60.9861C120.699 61.1 120.364 61.157 119.973 61.157ZM120.273 60.049C120.655 60.049 120.981 59.9736 121.252 59.8228C121.526 59.672 121.733 59.475 121.875 59.2319C122.02 58.9857 122.092 58.7225 122.092 58.4425V57.5284C122.043 57.5777 121.947 57.6238 121.806 57.6669C121.667 57.7069 121.509 57.7423 121.33 57.7731C121.152 57.8008 120.978 57.8269 120.809 57.8516C120.639 57.8731 120.498 57.8916 120.384 57.907C120.116 57.9408 119.871 57.9978 119.65 58.0778C119.431 58.1578 119.256 58.2732 119.123 58.424C118.994 58.5717 118.93 58.7687 118.93 59.0149C118.93 59.3565 119.056 59.6151 119.308 59.7905C119.561 59.9628 119.882 60.049 120.273 60.049Z" fill="black"/>
<path d="M28 70L56 98L28 84.4094L0 98L28 70Z" fill="#FFEE00"/>
<path d="M84.0387 89V79.5455H87.4087C88.1412 79.5455 88.7491 79.6716 89.2322 79.924C89.7185 80.1764 90.0817 80.5257 90.3217 80.9719C90.5618 81.4151 90.6818 81.9276 90.6818 82.5092C90.6818 83.0878 90.5603 83.5972 90.3171 84.0373C90.0771 84.4743 89.7139 84.8144 89.2276 85.0575C88.7444 85.3007 88.1366 85.4222 87.4041 85.4222H84.8512V84.1942H87.2749C87.7365 84.1942 88.112 84.1281 88.4013 83.9957C88.6937 83.8634 88.9076 83.671 89.043 83.4187C89.1784 83.1663 89.2461 82.8632 89.2461 82.5092C89.2461 82.1522 89.1768 81.8429 89.0384 81.5813C88.9029 81.3197 88.689 81.1197 88.3967 80.9812C88.1074 80.8396 87.7273 80.7688 87.2564 80.7688H85.4652V89H84.0387ZM88.706 84.7344L91.0419 89H89.4169L87.1271 84.7344H88.706ZM95.2741 89.1431C94.5754 89.1431 93.9737 88.9938 93.469 88.6953C92.9674 88.3937 92.5796 87.9705 92.3057 87.4258C92.0348 86.878 91.8994 86.2363 91.8994 85.5007C91.8994 84.7744 92.0348 84.1342 92.3057 83.5803C92.5796 83.0263 92.9612 82.5939 93.4505 82.283C93.943 81.9722 94.5185 81.8168 95.1771 81.8168C95.5772 81.8168 95.965 81.8829 96.3405 82.0153C96.7159 82.1476 97.0529 82.3553 97.3515 82.6385C97.65 82.9216 97.8854 83.2894 98.0578 83.7418C98.2301 84.1912 98.3163 84.7375 98.3163 85.3807V85.87H92.6796V84.8359H96.9637C96.9637 84.4728 96.8898 84.1512 96.7421 83.8711C96.5944 83.5879 96.3866 83.3648 96.1189 83.2017C95.8542 83.0386 95.5434 82.957 95.1863 82.957C94.7986 82.957 94.46 83.0524 94.1707 83.2433C93.8845 83.431 93.6629 83.6772 93.5059 83.9819C93.3521 84.2835 93.2751 84.6113 93.2751 84.9652V85.7731C93.2751 86.247 93.3582 86.6502 93.5244 86.9826C93.6937 87.315 93.9291 87.5689 94.2307 87.7443C94.5323 87.9167 94.8847 88.0028 95.2879 88.0028C95.5495 88.0028 95.788 87.9659 96.0035 87.892C96.2189 87.8151 96.4051 87.7012 96.5621 87.5504C96.719 87.3996 96.839 87.2134 96.9221 86.9918L98.2286 87.2273C98.124 87.612 97.9362 87.949 97.6654 88.2383C97.3976 88.5245 97.0606 88.7476 96.6544 88.9077C96.2512 89.0646 95.7911 89.1431 95.2741 89.1431ZM102.502 89.1385C101.93 89.1385 101.419 88.9923 100.97 88.6999C100.523 88.4045 100.173 87.9844 99.9171 87.4396C99.6647 86.8918 99.5385 86.2347 99.5385 85.4684C99.5385 84.7021 99.6663 84.0465 99.9217 83.5018C100.18 82.957 100.534 82.54 100.983 82.2507C101.433 81.9614 101.942 81.8168 102.512 81.8168C102.952 81.8168 103.306 81.8906 103.573 82.0384C103.844 82.183 104.053 82.3523 104.201 82.5462C104.352 82.7401 104.469 82.9109 104.552 83.0586H104.635V79.5455H106.015V89H104.667V87.8967H104.552C104.469 88.0475 104.349 88.2198 104.192 88.4137C104.038 88.6076 103.826 88.7769 103.555 88.9215C103.284 89.0662 102.933 89.1385 102.502 89.1385ZM102.807 87.9613C103.204 87.9613 103.539 87.8567 103.813 87.6474C104.09 87.435 104.3 87.1411 104.441 86.7656C104.586 86.3902 104.658 85.9531 104.658 85.4545C104.658 84.9621 104.587 84.5312 104.446 84.1619C104.304 83.7926 104.097 83.5049 103.823 83.2986C103.549 83.0924 103.21 82.9893 102.807 82.9893C102.392 82.9893 102.045 83.0971 101.768 83.3125C101.491 83.5279 101.282 83.8219 101.14 84.1942C101.002 84.5666 100.933 84.9867 100.933 85.4545C100.933 85.9285 101.003 86.3548 101.145 86.7333C101.287 87.1119 101.496 87.4119 101.773 87.6335C102.053 87.852 102.398 87.9613 102.807 87.9613ZM116.693 82.0291C116.644 81.5921 116.441 81.2536 116.084 81.0135C115.727 80.7704 115.278 80.6488 114.736 80.6488C114.348 80.6488 114.013 80.7103 113.73 80.8335C113.446 80.9535 113.226 81.1197 113.069 81.332C112.916 81.5413 112.839 81.7798 112.839 82.0476C112.839 82.2723 112.891 82.4661 112.996 82.6293C113.103 82.7924 113.243 82.9293 113.416 83.0401C113.591 83.1478 113.779 83.2386 113.979 83.3125C114.179 83.3833 114.371 83.4418 114.556 83.4879L115.479 83.728C115.781 83.8018 116.09 83.9019 116.407 84.0281C116.724 84.1542 117.018 84.3204 117.289 84.5266C117.56 84.7328 117.778 84.9883 117.944 85.293C118.114 85.5977 118.198 85.9624 118.198 86.3871C118.198 86.9226 118.06 87.3981 117.783 87.8136C117.509 88.229 117.11 88.5568 116.587 88.7969C116.067 89.0369 115.438 89.157 114.699 89.157C113.991 89.157 113.379 89.0446 112.862 88.82C112.345 88.5953 111.94 88.2768 111.648 87.8643C111.355 87.4489 111.194 86.9564 111.163 86.3871H112.594C112.622 86.7287 112.732 87.0134 112.926 87.2411C113.123 87.4658 113.374 87.6335 113.679 87.7443C113.987 87.852 114.324 87.9059 114.69 87.9059C115.093 87.9059 115.452 87.8428 115.765 87.7166C116.082 87.5874 116.332 87.4089 116.513 87.1811C116.695 86.9503 116.786 86.681 116.786 86.3732C116.786 86.0932 116.706 85.8639 116.546 85.6854C116.389 85.5069 116.175 85.3591 115.904 85.2422C115.636 85.1252 115.333 85.0221 114.994 84.9329L113.877 84.6282C113.12 84.422 112.52 84.1188 112.077 83.7187C111.637 83.3187 111.417 82.7893 111.417 82.1307C111.417 81.5859 111.564 81.1104 111.86 80.7042C112.155 80.2979 112.555 79.9825 113.06 79.7578C113.565 79.5301 114.134 79.4162 114.768 79.4162C115.408 79.4162 115.973 79.5285 116.463 79.7532C116.955 79.9779 117.343 80.2872 117.626 80.6811C117.909 81.072 118.057 81.5213 118.069 82.0291H116.693ZM122.779 89.1431C122.114 89.1431 121.534 88.9908 121.039 88.6861C120.543 88.3814 120.158 87.9551 119.884 87.4073C119.611 86.8595 119.474 86.2193 119.474 85.4869C119.474 84.7513 119.611 84.1081 119.884 83.5572C120.158 83.0063 120.543 82.5785 121.039 82.2738C121.534 81.9691 122.114 81.8168 122.779 81.8168C123.444 81.8168 124.024 81.9691 124.519 82.2738C125.015 82.5785 125.4 83.0063 125.674 83.5572C125.947 84.1081 126.084 84.7513 126.084 85.4869C126.084 86.2193 125.947 86.8595 125.674 87.4073C125.4 87.9551 125.015 88.3814 124.519 88.6861C124.024 88.9908 123.444 89.1431 122.779 89.1431ZM122.784 87.9844C123.215 87.9844 123.572 87.8705 123.855 87.6428C124.138 87.415 124.347 87.1119 124.483 86.7333C124.621 86.3548 124.69 85.9377 124.69 85.4822C124.69 85.0298 124.621 84.6143 124.483 84.2358C124.347 83.8542 124.138 83.5479 123.855 83.3171C123.572 83.0863 123.215 82.9709 122.784 82.9709C122.35 82.9709 121.99 83.0863 121.703 83.3171C121.42 83.5479 121.209 83.8542 121.071 84.2358C120.936 84.6143 120.868 85.0298 120.868 85.4822C120.868 85.9377 120.936 86.3548 121.071 86.7333C121.209 87.1119 121.42 87.415 121.703 87.6428C121.99 87.8705 122.35 87.9844 122.784 87.9844ZM130.612 89.1431C129.926 89.1431 129.335 88.9877 128.839 88.6768C128.347 88.3629 127.968 87.9305 127.704 87.3796C127.439 86.8287 127.307 86.1978 127.307 85.4869C127.307 84.7667 127.442 84.1312 127.713 83.5803C127.984 83.0263 128.365 82.5939 128.858 82.283C129.35 81.9722 129.93 81.8168 130.598 81.8168C131.137 81.8168 131.617 81.9168 132.039 82.1168C132.46 82.3138 132.8 82.5908 133.059 82.9478C133.32 83.3048 133.476 83.7218 133.525 84.1989H132.182C132.108 83.8665 131.939 83.5803 131.674 83.3402C131.412 83.1001 131.061 82.9801 130.621 82.9801C130.237 82.9801 129.9 83.0817 129.61 83.2848C129.324 83.4848 129.101 83.7711 128.941 84.1435C128.781 84.5128 128.701 84.9498 128.701 85.4545C128.701 85.9716 128.779 86.4178 128.936 86.7933C129.093 87.1688 129.315 87.4596 129.601 87.6658C129.89 87.872 130.23 87.9751 130.621 87.9751C130.883 87.9751 131.12 87.9274 131.332 87.832C131.548 87.7335 131.728 87.5935 131.872 87.4119C132.02 87.2303 132.123 87.0118 132.182 86.7564H133.525C133.476 87.215 133.327 87.6243 133.077 87.9844C132.828 88.3445 132.494 88.6276 132.075 88.8338C131.66 89.04 131.172 89.1431 130.612 89.1431ZM135.001 89V81.9091H136.381V89H135.001ZM135.698 80.815C135.458 80.815 135.252 80.735 135.08 80.5749C134.91 80.4118 134.826 80.2179 134.826 79.9933C134.826 79.7655 134.91 79.5716 135.08 79.4116C135.252 79.2485 135.458 79.1669 135.698 79.1669C135.938 79.1669 136.143 79.2485 136.312 79.4116C136.485 79.5716 136.571 79.7655 136.571 79.9933C136.571 80.2179 136.485 80.4118 136.312 80.5749C136.143 80.735 135.938 80.815 135.698 80.815ZM140.302 89.157C139.853 89.157 139.446 89.0739 139.083 88.9077C138.72 88.7384 138.432 88.4937 138.22 88.1736C138.011 87.8536 137.906 87.4612 137.906 86.9964C137.906 86.5964 137.983 86.267 138.137 86.0085C138.291 85.75 138.499 85.5453 138.76 85.3945C139.022 85.2437 139.314 85.1299 139.637 85.0529C139.96 84.976 140.29 84.9175 140.625 84.8775C141.05 84.8282 141.395 84.7882 141.659 84.7575C141.924 84.7236 142.116 84.6697 142.236 84.5959C142.356 84.522 142.416 84.402 142.416 84.2358V84.2035C142.416 83.8003 142.302 83.4879 142.075 83.2663C141.85 83.0447 141.515 82.9339 141.068 82.9339C140.604 82.9339 140.237 83.037 139.97 83.2433C139.705 83.4464 139.522 83.6726 139.42 83.9219L138.123 83.6264C138.277 83.1955 138.502 82.8478 138.797 82.5831C139.096 82.3153 139.439 82.1214 139.827 82.0014C140.214 81.8783 140.622 81.8168 141.05 81.8168C141.333 81.8168 141.633 81.8506 141.95 81.9183C142.27 81.983 142.569 82.103 142.846 82.2784C143.126 82.4538 143.355 82.7047 143.534 83.0309C143.712 83.354 143.801 83.7741 143.801 84.2912V89H142.453V88.0305H142.398C142.309 88.209 142.175 88.3845 141.996 88.5568C141.818 88.7292 141.588 88.8723 141.308 88.9861C141.028 89.1 140.693 89.157 140.302 89.157ZM140.602 88.049C140.984 88.049 141.31 87.9736 141.581 87.8228C141.855 87.672 142.062 87.475 142.204 87.2319C142.349 86.9857 142.421 86.7225 142.421 86.4425V85.5284C142.372 85.5777 142.276 85.6238 142.135 85.6669C141.996 85.7069 141.838 85.7423 141.659 85.7731C141.481 85.8008 141.307 85.8269 141.138 85.8516C140.968 85.8731 140.827 85.8916 140.713 85.907C140.445 85.9408 140.2 85.9977 139.979 86.0778C139.76 86.1578 139.585 86.2732 139.453 86.424C139.323 86.5717 139.259 86.7687 139.259 87.0149C139.259 87.3565 139.385 87.6151 139.637 87.7905C139.89 87.9628 140.211 88.049 140.602 88.049ZM147.02 79.5455V89H145.64V79.5455H147.02Z" fill="black"/>
<path d="M28 99L56 127L28 113.409L0 127L28 99Z" fill="#FFA600"/>
<path d="M84.0387 118V108.545H89.9016V109.773H85.4652V112.654H89.4815V113.877H85.4652V118H84.0387ZM94.0115 118.143C93.3467 118.143 92.7665 117.991 92.271 117.686C91.7755 117.381 91.3908 116.955 91.1169 116.407C90.843 115.859 90.7061 115.219 90.7061 114.487C90.7061 113.751 90.843 113.108 91.1169 112.557C91.3908 112.006 91.7755 111.578 92.271 111.274C92.7665 110.969 93.3467 110.817 94.0115 110.817C94.6762 110.817 95.2564 110.969 95.7519 111.274C96.2474 111.578 96.6321 112.006 96.906 112.557C97.1799 113.108 97.3168 113.751 97.3168 114.487C97.3168 115.219 97.1799 115.859 96.906 116.407C96.6321 116.955 96.2474 117.381 95.7519 117.686C95.2564 117.991 94.6762 118.143 94.0115 118.143ZM94.0161 116.984C94.4469 116.984 94.8039 116.871 95.0871 116.643C95.3702 116.415 95.5795 116.112 95.7149 115.733C95.8534 115.355 95.9227 114.938 95.9227 114.482C95.9227 114.03 95.8534 113.614 95.7149 113.236C95.5795 112.854 95.3702 112.548 95.0871 112.317C94.8039 112.086 94.4469 111.971 94.0161 111.971C93.5821 111.971 93.222 112.086 92.9358 112.317C92.6527 112.548 92.4418 112.854 92.3034 113.236C92.1679 113.614 92.1002 114.03 92.1002 114.482C92.1002 114.938 92.1679 115.355 92.3034 115.733C92.4418 116.112 92.6527 116.415 92.9358 116.643C93.222 116.871 93.5821 116.984 94.0161 116.984ZM102.168 110.909V112.017H98.2944V110.909H102.168ZM99.3331 109.21H100.713V115.918C100.713 116.186 100.753 116.387 100.833 116.523C100.913 116.655 101.017 116.746 101.143 116.795C101.272 116.841 101.412 116.864 101.563 116.864C101.674 116.864 101.771 116.857 101.854 116.841C101.937 116.826 102.001 116.814 102.048 116.804L102.297 117.945C102.217 117.975 102.103 118.006 101.955 118.037C101.808 118.071 101.623 118.089 101.401 118.092C101.038 118.098 100.7 118.034 100.386 117.898C100.072 117.763 99.8178 117.554 99.6239 117.271C99.43 116.987 99.3331 116.632 99.3331 116.204V109.21ZM106.605 118.143C105.94 118.143 105.36 117.991 104.865 117.686C104.369 117.381 103.985 116.955 103.711 116.407C103.437 115.859 103.3 115.219 103.3 114.487C103.3 113.751 103.437 113.108 103.711 112.557C103.985 112.006 104.369 111.578 104.865 111.274C105.36 110.969 105.94 110.817 106.605 110.817C107.27 110.817 107.85 110.969 108.346 111.274C108.841 111.578 109.226 112.006 109.5 112.557C109.774 113.108 109.911 113.751 109.911 114.487C109.911 115.219 109.774 115.859 109.5 116.407C109.226 116.955 108.841 117.381 108.346 117.686C107.85 117.991 107.27 118.143 106.605 118.143ZM106.61 116.984C107.041 116.984 107.398 116.871 107.681 116.643C107.964 116.415 108.173 116.112 108.309 115.733C108.447 115.355 108.516 114.938 108.516 114.482C108.516 114.03 108.447 113.614 108.309 113.236C108.173 112.854 107.964 112.548 107.681 112.317C107.398 112.086 107.041 111.971 106.61 111.971C106.176 111.971 105.816 112.086 105.53 112.317C105.246 112.548 105.036 112.854 104.897 113.236C104.762 113.614 104.694 114.03 104.694 114.482C104.694 114.938 104.762 115.355 104.897 115.733C105.036 116.112 105.246 116.415 105.53 116.643C105.816 116.871 106.176 116.984 106.61 116.984ZM115.764 120.659C115.558 120.659 115.37 120.642 115.201 120.608C115.032 120.578 114.906 120.544 114.823 120.507L115.155 119.376C115.407 119.443 115.632 119.473 115.829 119.463C116.026 119.454 116.2 119.38 116.351 119.242C116.504 119.103 116.64 118.877 116.757 118.563L116.928 118.092L114.333 110.909H115.81L117.606 116.412H117.68L119.476 110.909H120.958L118.036 118.946C117.9 119.316 117.728 119.628 117.519 119.884C117.309 120.142 117.06 120.336 116.771 120.465C116.481 120.594 116.146 120.659 115.764 120.659ZM126.633 108.545L129.264 116.246H129.37L132.002 108.545H133.543L130.141 118H128.493L125.091 108.545H126.633ZM134.798 118V110.909H136.178V118H134.798ZM135.495 109.815C135.255 109.815 135.049 109.735 134.877 109.575C134.707 109.412 134.623 109.218 134.623 108.993C134.623 108.766 134.707 108.572 134.877 108.412C135.049 108.248 135.255 108.167 135.495 108.167C135.735 108.167 135.94 108.248 136.109 108.412C136.281 108.572 136.368 108.766 136.368 108.993C136.368 109.218 136.281 109.412 136.109 109.575C135.94 109.735 135.735 109.815 135.495 109.815ZM140.69 118.138C140.117 118.138 139.606 117.992 139.157 117.7C138.711 117.404 138.36 116.984 138.105 116.44C137.852 115.892 137.726 115.235 137.726 114.468C137.726 113.702 137.854 113.047 138.109 112.502C138.368 111.957 138.722 111.54 139.171 111.251C139.62 110.961 140.13 110.817 140.699 110.817C141.139 110.817 141.493 110.891 141.761 111.038C142.032 111.183 142.241 111.352 142.389 111.546C142.539 111.74 142.656 111.911 142.74 112.059H142.823V108.545H144.203V118H142.855V116.897H142.74C142.656 117.047 142.536 117.22 142.379 117.414C142.226 117.608 142.013 117.777 141.742 117.922C141.472 118.066 141.121 118.138 140.69 118.138ZM140.994 116.961C141.392 116.961 141.727 116.857 142.001 116.647C142.278 116.435 142.487 116.141 142.629 115.766C142.773 115.39 142.846 114.953 142.846 114.455C142.846 113.962 142.775 113.531 142.633 113.162C142.492 112.793 142.284 112.505 142.01 112.299C141.736 112.092 141.398 111.989 140.994 111.989C140.579 111.989 140.233 112.097 139.956 112.312C139.679 112.528 139.47 112.822 139.328 113.194C139.189 113.567 139.12 113.987 139.12 114.455C139.12 114.929 139.191 115.355 139.333 115.733C139.474 116.112 139.683 116.412 139.96 116.634C140.24 116.852 140.585 116.961 140.994 116.961ZM149.229 118.143C148.531 118.143 147.929 117.994 147.424 117.695C146.922 117.394 146.535 116.971 146.261 116.426C145.99 115.878 145.854 115.236 145.854 114.501C145.854 113.774 145.99 113.134 146.261 112.58C146.535 112.026 146.916 111.594 147.406 111.283C147.898 110.972 148.474 110.817 149.132 110.817C149.532 110.817 149.92 110.883 150.296 111.015C150.671 111.148 151.008 111.355 151.307 111.638C151.605 111.922 151.841 112.289 152.013 112.742C152.185 113.191 152.271 113.737 152.271 114.381V114.87H146.635V113.836H150.919C150.919 113.473 150.845 113.151 150.697 112.871C150.549 112.588 150.342 112.365 150.074 112.202C149.809 112.039 149.498 111.957 149.141 111.957C148.754 111.957 148.415 112.052 148.126 112.243C147.84 112.431 147.618 112.677 147.461 112.982C147.307 113.283 147.23 113.611 147.23 113.965V114.773C147.23 115.247 147.313 115.65 147.479 115.983C147.649 116.315 147.884 116.569 148.186 116.744C148.487 116.917 148.84 117.003 149.243 117.003C149.505 117.003 149.743 116.966 149.959 116.892C150.174 116.815 150.36 116.701 150.517 116.55C150.674 116.4 150.794 116.213 150.877 115.992L152.184 116.227C152.079 116.612 151.891 116.949 151.62 117.238C151.353 117.525 151.016 117.748 150.609 117.908C150.206 118.065 149.746 118.143 149.229 118.143ZM156.79 118.143C156.125 118.143 155.545 117.991 155.049 117.686C154.554 117.381 154.169 116.955 153.895 116.407C153.621 115.859 153.484 115.219 153.484 114.487C153.484 113.751 153.621 113.108 153.895 112.557C154.169 112.006 154.554 111.578 155.049 111.274C155.545 110.969 156.125 110.817 156.79 110.817C157.455 110.817 158.035 110.969 158.53 111.274C159.026 111.578 159.41 112.006 159.684 112.557C159.958 113.108 160.095 113.751 160.095 114.487C160.095 115.219 159.958 115.859 159.684 116.407C159.41 116.955 159.026 117.381 158.53 117.686C158.035 117.991 157.455 118.143 156.79 118.143ZM156.794 116.984C157.225 116.984 157.582 116.871 157.865 116.643C158.149 116.415 158.358 116.112 158.493 115.733C158.632 115.355 158.701 114.938 158.701 114.482C158.701 114.03 158.632 113.614 158.493 113.236C158.358 112.854 158.149 112.548 157.865 112.317C157.582 112.086 157.225 111.971 156.794 111.971C156.36 111.971 156 112.086 155.714 112.317C155.431 112.548 155.22 112.854 155.082 113.236C154.946 113.614 154.879 114.03 154.879 114.482C154.879 114.938 154.946 115.355 155.082 115.733C155.22 116.112 155.431 116.415 155.714 116.643C156 116.871 156.36 116.984 156.794 116.984Z" fill="black"/>
<path d="M203 41L231 69L203 55.4094L175 69L203 41Z" fill="#FF00D5"/>
<path d="M263.195 51.0291C263.146 50.5921 262.943 50.2536 262.586 50.0135C262.229 49.7704 261.78 49.6488 261.238 49.6488C260.85 49.6488 260.515 49.7103 260.232 49.8335C259.948 49.9535 259.728 50.1197 259.571 50.332C259.417 50.5413 259.341 50.7798 259.341 51.0476C259.341 51.2723 259.393 51.4661 259.498 51.6293C259.605 51.7924 259.745 51.9293 259.918 52.0401C260.093 52.1478 260.281 52.2386 260.481 52.3125C260.681 52.3833 260.873 52.4418 261.058 52.4879L261.981 52.728C262.283 52.8018 262.592 52.9019 262.909 53.0281C263.226 53.1542 263.52 53.3204 263.791 53.5266C264.062 53.7328 264.28 53.9883 264.446 54.293C264.616 54.5977 264.7 54.9624 264.7 55.3871C264.7 55.9226 264.562 56.3981 264.285 56.8136C264.011 57.229 263.612 57.5568 263.089 57.7969C262.569 58.0369 261.94 58.157 261.201 58.157C260.493 58.157 259.881 58.0446 259.364 57.82C258.847 57.5953 258.442 57.2768 258.15 56.8643C257.857 56.4489 257.696 55.9564 257.665 55.3871H259.096C259.124 55.7287 259.234 56.0134 259.428 56.2411C259.625 56.4658 259.876 56.6335 260.181 56.7443C260.489 56.852 260.826 56.9059 261.192 56.9059C261.595 56.9059 261.953 56.8428 262.267 56.7166C262.584 56.5874 262.834 56.4089 263.015 56.1811C263.197 55.9503 263.288 55.681 263.288 55.3732C263.288 55.0932 263.208 54.8639 263.048 54.6854C262.891 54.5069 262.677 54.3591 262.406 54.2422C262.138 54.1252 261.835 54.0221 261.496 53.9329L260.379 53.6282C259.622 53.422 259.022 53.1188 258.579 52.7187C258.139 52.3187 257.919 51.7893 257.919 51.1307C257.919 50.5859 258.066 50.1104 258.362 49.7042C258.657 49.2979 259.057 48.9825 259.562 48.7578C260.067 48.5301 260.636 48.4162 261.27 48.4162C261.91 48.4162 262.475 48.5285 262.964 48.7532C263.457 48.9779 263.845 49.2872 264.128 49.6811C264.411 50.072 264.559 50.5213 264.571 51.0291H263.195ZM269.35 58.1431C268.652 58.1431 268.05 57.9938 267.545 57.6953C267.044 57.3937 266.656 56.9705 266.382 56.4258C266.111 55.878 265.976 55.2363 265.976 54.5007C265.976 53.7744 266.111 53.1342 266.382 52.5803C266.656 52.0263 267.037 51.5939 267.527 51.283C268.019 50.9722 268.595 50.8168 269.253 50.8168C269.653 50.8168 270.041 50.8829 270.417 51.0153C270.792 51.1476 271.129 51.3553 271.428 51.6385C271.726 51.9216 271.962 52.2894 272.134 52.7418C272.306 53.1912 272.392 53.7375 272.392 54.3807V54.87H266.756V53.8359H271.04C271.04 53.4728 270.966 53.1512 270.818 52.8711C270.671 52.5879 270.463 52.3648 270.195 52.2017C269.93 52.0386 269.62 51.957 269.263 51.957C268.875 51.957 268.536 52.0524 268.247 52.2433C267.961 52.431 267.739 52.6772 267.582 52.9819C267.428 53.2835 267.351 53.6113 267.351 53.9652V54.7731C267.351 55.247 267.434 55.6502 267.601 55.9826C267.77 56.315 268.005 56.5689 268.307 56.7443C268.609 56.9167 268.961 57.0028 269.364 57.0028C269.626 57.0028 269.864 56.9659 270.08 56.892C270.295 56.8151 270.481 56.7012 270.638 56.5504C270.795 56.3996 270.915 56.2134 270.998 55.9918L272.305 56.2273C272.2 56.612 272.012 56.949 271.742 57.2383C271.474 57.5245 271.137 57.7476 270.731 57.9077C270.327 58.0646 269.867 58.1431 269.35 58.1431ZM273.924 58V50.9091H275.258V52.0355H275.332C275.461 51.6539 275.689 51.3538 276.015 51.1353C276.345 50.9137 276.717 50.8029 277.132 50.8029C277.219 50.8029 277.32 50.806 277.437 50.8121C277.557 50.8183 277.651 50.826 277.719 50.8352V52.1555C277.663 52.1402 277.565 52.1232 277.423 52.1048C277.282 52.0832 277.14 52.0724 276.999 52.0724C276.672 52.0724 276.382 52.1417 276.126 52.2802C275.874 52.4156 275.674 52.6049 275.526 52.848C275.378 53.0881 275.304 53.362 275.304 53.6697V58H273.924ZM285.195 50.9091L282.624 58H281.146L278.57 50.9091H280.052L281.848 56.3658H281.922L283.713 50.9091H285.195ZM286.492 58V50.9091H287.873V58H286.492ZM287.189 49.815C286.949 49.815 286.743 49.735 286.571 49.5749C286.402 49.4118 286.317 49.2179 286.317 48.9933C286.317 48.7655 286.402 48.5716 286.571 48.4116C286.743 48.2485 286.949 48.1669 287.189 48.1669C287.43 48.1669 287.634 48.2485 287.803 48.4116C287.976 48.5716 288.062 48.7655 288.062 48.9933C288.062 49.2179 287.976 49.4118 287.803 49.5749C287.634 49.735 287.43 49.815 287.189 49.815ZM292.717 58.1431C292.03 58.1431 291.439 57.9877 290.944 57.6768C290.451 57.3629 290.073 56.9305 289.808 56.3796C289.543 55.8287 289.411 55.1978 289.411 54.4869C289.411 53.7667 289.547 53.1312 289.817 52.5803C290.088 52.0263 290.47 51.5939 290.962 51.283C291.455 50.9722 292.035 50.8168 292.703 50.8168C293.241 50.8168 293.721 50.9168 294.143 51.1168C294.565 51.3138 294.905 51.5908 295.163 51.9478C295.425 52.3048 295.58 52.7218 295.63 53.1989H294.286C294.212 52.8665 294.043 52.5803 293.778 52.3402C293.517 52.1001 293.166 51.9801 292.726 51.9801C292.341 51.9801 292.004 52.0817 291.715 52.2848C291.429 52.4848 291.205 52.7711 291.045 53.1435C290.885 53.5128 290.805 53.9498 290.805 54.4545C290.805 54.9716 290.884 55.4178 291.041 55.7933C291.198 56.1688 291.419 56.4596 291.706 56.6658C291.995 56.872 292.335 56.9751 292.726 56.9751C292.987 56.9751 293.224 56.9274 293.437 56.832C293.652 56.7335 293.832 56.5935 293.977 56.4119C294.125 56.2303 294.228 56.0118 294.286 55.7564H295.63C295.58 56.215 295.431 56.6243 295.182 56.9844C294.932 57.3445 294.599 57.6276 294.18 57.8338C293.764 58.04 293.277 58.1431 292.717 58.1431ZM297.106 58V50.9091H298.486V58H297.106ZM297.803 49.815C297.563 49.815 297.356 49.735 297.184 49.5749C297.015 49.4118 296.93 49.2179 296.93 48.9933C296.93 48.7655 297.015 48.5716 297.184 48.4116C297.356 48.2485 297.563 48.1669 297.803 48.1669C298.043 48.1669 298.247 48.2485 298.417 48.4116C298.589 48.5716 298.675 48.7655 298.675 48.9933C298.675 49.2179 298.589 49.4118 298.417 49.5749C298.247 49.735 298.043 49.815 297.803 49.815ZM303.33 58.1431C302.665 58.1431 302.085 57.9908 301.589 57.6861C301.094 57.3814 300.709 56.9551 300.435 56.4073C300.161 55.8595 300.024 55.2193 300.024 54.4869C300.024 53.7513 300.161 53.1081 300.435 52.5572C300.709 52.0063 301.094 51.5785 301.589 51.2738C302.085 50.9691 302.665 50.8168 303.33 50.8168C303.995 50.8168 304.575 50.9691 305.07 51.2738C305.566 51.5785 305.95 52.0063 306.224 52.5572C306.498 53.1081 306.635 53.7513 306.635 54.4869C306.635 55.2193 306.498 55.8595 306.224 56.4073C305.95 56.9551 305.566 57.3814 305.07 57.6861C304.575 57.9908 303.995 58.1431 303.33 58.1431ZM303.334 56.9844C303.765 56.9844 304.122 56.8705 304.405 56.6428C304.689 56.415 304.898 56.1119 305.033 55.7333C305.172 55.3548 305.241 54.9377 305.241 54.4822C305.241 54.0298 305.172 53.6143 305.033 53.2358C304.898 52.8542 304.689 52.5479 304.405 52.3171C304.122 52.0863 303.765 51.9709 303.334 51.9709C302.9 51.9709 302.54 52.0863 302.254 52.3171C301.971 52.5479 301.76 52.8542 301.622 53.2358C301.486 53.6143 301.419 54.0298 301.419 54.4822C301.419 54.9377 301.486 55.3548 301.622 55.7333C301.76 56.1119 301.971 56.415 302.254 56.6428C302.54 56.8705 302.9 56.9844 303.334 56.9844Z" fill="black"/>
<path d="M203 70L231 98L203 84.4094L175 98L203 70Z" fill="#0009FF"/>
<path d="M258.039 87V77.5455H263.966V78.7734H259.465V81.6541H263.657V82.8775H259.465V85.772H264.022V87H258.039ZM267.141 82.7898V87H265.761V79.9091H267.086V81.0632H267.174C267.337 80.6877 267.592 80.3861 267.94 80.1584C268.291 79.9306 268.732 79.8168 269.265 79.8168C269.748 79.8168 270.171 79.9183 270.534 80.1214C270.898 80.3215 271.179 80.62 271.379 81.017C271.579 81.4141 271.679 81.9049 271.679 82.4897V87H270.299V82.6559C270.299 82.1419 270.165 81.7403 269.897 81.451C269.63 81.1586 269.262 81.0124 268.794 81.0124C268.474 81.0124 268.189 81.0817 267.94 81.2202C267.694 81.3587 267.498 81.5618 267.354 81.8295C267.212 82.0942 267.141 82.4143 267.141 82.7898ZM276.84 79.9091V81.017H272.967V79.9091H276.84ZM274.006 78.2102H275.386V84.918C275.386 85.1857 275.426 85.3873 275.506 85.5227C275.586 85.6551 275.689 85.7459 275.816 85.7951C275.945 85.8413 276.085 85.8643 276.236 85.8643C276.347 85.8643 276.443 85.8567 276.527 85.8413C276.61 85.8259 276.674 85.8136 276.72 85.8043L276.97 86.9446C276.89 86.9754 276.776 87.0062 276.628 87.0369C276.48 87.0708 276.296 87.0893 276.074 87.0923C275.711 87.0985 275.372 87.0339 275.059 86.8984C274.745 86.763 274.491 86.5537 274.297 86.2706C274.103 85.9875 274.006 85.632 274.006 85.2042V78.2102ZM278.367 87V79.9091H279.702V81.0355H279.775C279.905 80.6539 280.132 80.3538 280.459 80.1353C280.788 79.9137 281.16 79.8029 281.576 79.8029C281.662 79.8029 281.764 79.806 281.881 79.8121C282.001 79.8183 282.094 79.826 282.162 79.8352V81.1555C282.107 81.1402 282.008 81.1232 281.867 81.1048C281.725 81.0832 281.584 81.0724 281.442 81.0724C281.116 81.0724 280.825 81.1417 280.569 81.2802C280.317 81.4156 280.117 81.6049 279.969 81.848C279.822 82.0881 279.748 82.362 279.748 82.6697V87H278.367ZM286.159 87.1431C285.46 87.1431 284.859 86.9938 284.354 86.6953C283.852 86.3937 283.464 85.9705 283.19 85.4258C282.92 84.878 282.784 84.2363 282.784 83.5007C282.784 82.7744 282.92 82.1342 283.19 81.5803C283.464 81.0263 283.846 80.5939 284.335 80.283C284.828 79.9722 285.403 79.8168 286.062 79.8168C286.462 79.8168 286.85 79.8829 287.225 80.0153C287.601 80.1476 287.938 80.3554 288.236 80.6385C288.535 80.9216 288.77 81.2894 288.943 81.7418C289.115 82.1912 289.201 82.7375 289.201 83.3807V83.87H283.564V82.8359H287.848C287.848 82.4728 287.775 82.1512 287.627 81.8711C287.479 81.588 287.271 81.3648 287.004 81.2017C286.739 81.0386 286.428 80.957 286.071 80.957C285.683 80.957 285.345 81.0524 285.055 81.2433C284.769 81.431 284.548 81.6772 284.391 81.9819C284.237 82.2835 284.16 82.6113 284.16 82.9652V83.7731C284.16 84.247 284.243 84.6502 284.409 84.9826C284.578 85.315 284.814 85.5689 285.116 85.7443C285.417 85.9167 285.77 86.0028 286.173 86.0028C286.434 86.0028 286.673 85.9659 286.888 85.892C287.104 85.8151 287.29 85.7012 287.447 85.5504C287.604 85.3996 287.724 85.2134 287.807 84.9918L289.113 85.2273C289.009 85.612 288.821 85.949 288.55 86.2383C288.282 86.5245 287.945 86.7476 287.539 86.9077C287.136 87.0646 286.676 87.1431 286.159 87.1431ZM294.043 79.9091V81.017H290.169V79.9091H294.043ZM291.208 78.2102H292.588V84.918C292.588 85.1857 292.628 85.3873 292.708 85.5227C292.788 85.6551 292.892 85.7459 293.018 85.7951C293.147 85.8413 293.287 85.8643 293.438 85.8643C293.549 85.8643 293.646 85.8567 293.729 85.8413C293.812 85.8259 293.876 85.8136 293.923 85.8043L294.172 86.9446C294.092 86.9754 293.978 87.0062 293.83 87.0369C293.683 87.0708 293.498 87.0893 293.276 87.0923C292.913 87.0985 292.575 87.0339 292.261 86.8984C291.947 86.763 291.693 86.5537 291.499 86.2706C291.305 85.9875 291.208 85.632 291.208 85.2042V78.2102ZM298.549 87.1431C297.851 87.1431 297.249 86.9938 296.744 86.6953C296.243 86.3937 295.855 85.9705 295.581 85.4258C295.31 84.878 295.175 84.2363 295.175 83.5007C295.175 82.7744 295.31 82.1342 295.581 81.5803C295.855 81.0263 296.237 80.5939 296.726 80.283C297.218 79.9722 297.794 79.8168 298.453 79.8168C298.853 79.8168 299.24 79.8829 299.616 80.0153C299.991 80.1476 300.328 80.3554 300.627 80.6385C300.925 80.9216 301.161 81.2894 301.333 81.7418C301.506 82.1912 301.592 82.7375 301.592 83.3807V83.87H295.955V82.8359H300.239C300.239 82.4728 300.165 82.1512 300.017 81.8711C299.87 81.588 299.662 81.3648 299.394 81.2017C299.13 81.0386 298.819 80.957 298.462 80.957C298.074 80.957 297.735 81.0524 297.446 81.2433C297.16 81.431 296.938 81.6772 296.781 81.9819C296.627 82.2835 296.551 82.6113 296.551 82.9652V83.7731C296.551 84.247 296.634 84.6502 296.8 84.9826C296.969 85.315 297.205 85.5689 297.506 85.7443C297.808 85.9167 298.16 86.0028 298.563 86.0028C298.825 86.0028 299.063 85.9659 299.279 85.892C299.494 85.8151 299.68 85.7012 299.837 85.5504C299.994 85.3996 300.114 85.2134 300.198 84.9918L301.504 85.2273C301.399 85.612 301.212 85.949 300.941 86.2383C300.673 86.5245 300.336 86.7476 299.93 86.9077C299.527 87.0646 299.066 87.1431 298.549 87.1431ZM304.504 82.7898V87H303.123V79.9091H304.448V81.0632H304.536C304.699 80.6877 304.954 80.3861 305.302 80.1584C305.653 79.9306 306.095 79.8168 306.627 79.8168C307.11 79.8168 307.534 79.9183 307.897 80.1214C308.26 80.3215 308.541 80.62 308.741 81.017C308.942 81.4141 309.042 81.9049 309.042 82.4897V87H307.661V82.6559C307.661 82.1419 307.527 81.7403 307.26 81.451C306.992 81.1586 306.624 81.0124 306.156 81.0124C305.836 81.0124 305.551 81.0817 305.302 81.2202C305.056 81.3587 304.861 81.5618 304.716 81.8295C304.574 82.0942 304.504 82.4143 304.504 82.7898ZM310.893 87V79.9091H312.273V87H310.893ZM311.59 78.815C311.35 78.815 311.144 78.735 310.971 78.5749C310.802 78.4118 310.717 78.2179 310.717 77.9933C310.717 77.7655 310.802 77.5716 310.971 77.4116C311.144 77.2485 311.35 77.1669 311.59 77.1669C311.83 77.1669 312.035 77.2485 312.204 77.4116C312.376 77.5716 312.462 77.7655 312.462 77.9933C312.462 78.2179 312.376 78.4118 312.204 78.5749C312.035 78.735 311.83 78.815 311.59 78.815ZM317.186 87.1431C316.488 87.1431 315.886 86.9938 315.381 86.6953C314.879 86.3937 314.492 85.9705 314.218 85.4258C313.947 84.878 313.812 84.2363 313.812 83.5007C313.812 82.7744 313.947 82.1342 314.218 81.5803C314.492 81.0263 314.873 80.5939 315.363 80.283C315.855 79.9722 316.431 79.8168 317.089 79.8168C317.489 79.8168 317.877 79.8829 318.253 80.0153C318.628 80.1476 318.965 80.3554 319.264 80.6385C319.562 80.9216 319.798 81.2894 319.97 81.7418C320.142 82.1912 320.228 82.7375 320.228 83.3807V83.87H314.592V82.8359H318.876C318.876 82.4728 318.802 82.1512 318.654 81.8711C318.506 81.588 318.299 81.3648 318.031 81.2017C317.766 81.0386 317.455 80.957 317.098 80.957C316.711 80.957 316.372 81.0524 316.083 81.2433C315.797 81.431 315.575 81.6772 315.418 81.9819C315.264 82.2835 315.187 82.6113 315.187 82.9652V83.7731C315.187 84.247 315.27 84.6502 315.437 84.9826C315.606 85.315 315.841 85.5689 316.143 85.7443C316.444 85.9167 316.797 86.0028 317.2 86.0028C317.462 86.0028 317.7 85.9659 317.916 85.892C318.131 85.8151 318.317 85.7012 318.474 85.5504C318.631 85.3996 318.751 85.2134 318.834 84.9918L320.141 85.2273C320.036 85.612 319.848 85.949 319.578 86.2383C319.31 86.5245 318.973 86.7476 318.567 86.9077C318.163 87.0646 317.703 87.1431 317.186 87.1431ZM321.76 87V79.9091H323.085V81.0632H323.173C323.32 80.6723 323.562 80.3677 323.897 80.1491C324.233 79.9276 324.634 79.8168 325.102 79.8168C325.576 79.8168 325.973 79.9276 326.293 80.1491C326.616 80.3707 326.855 80.6754 327.009 81.0632H327.083C327.252 80.6847 327.521 80.383 327.891 80.1584C328.26 79.9306 328.7 79.8168 329.211 79.8168C329.854 79.8168 330.379 80.0183 330.785 80.4215C331.194 80.8247 331.399 81.4325 331.399 82.245V87H330.019V82.3743C330.019 81.8942 329.888 81.5464 329.626 81.331C329.365 81.1155 329.052 81.0078 328.689 81.0078C328.24 81.0078 327.891 81.1463 327.641 81.4233C327.392 81.6972 327.267 82.0496 327.267 82.4805V87H325.892V82.2866C325.892 81.9019 325.772 81.5926 325.532 81.3587C325.292 81.1248 324.979 81.0078 324.594 81.0078C324.333 81.0078 324.091 81.0771 323.87 81.2156C323.651 81.351 323.474 81.5402 323.339 81.7834C323.206 82.0265 323.14 82.3081 323.14 82.6282V87H321.76ZM333.249 87V79.9091H334.63V87H333.249ZM333.946 78.815C333.706 78.815 333.5 78.735 333.328 78.5749C333.158 78.4118 333.074 78.2179 333.074 77.9933C333.074 77.7655 333.158 77.5716 333.328 77.4116C333.5 77.2485 333.706 77.1669 333.946 77.1669C334.186 77.1669 334.391 77.2485 334.56 77.4116C334.733 77.5716 334.819 77.7655 334.819 77.9933C334.819 78.2179 334.733 78.4118 334.56 78.5749C334.391 78.735 334.186 78.815 333.946 78.815ZM339.543 87.1431C338.844 87.1431 338.242 86.9938 337.738 86.6953C337.236 86.3937 336.848 85.9705 336.574 85.4258C336.303 84.878 336.168 84.2363 336.168 83.5007C336.168 82.7744 336.303 82.1342 336.574 81.5803C336.848 81.0263 337.23 80.5939 337.719 80.283C338.212 79.9722 338.787 79.8168 339.446 79.8168C339.846 79.8168 340.234 79.8829 340.609 80.0153C340.985 80.1476 341.322 80.3554 341.62 80.6385C341.919 80.9216 342.154 81.2894 342.326 81.7418C342.499 82.1912 342.585 82.7375 342.585 83.3807V83.87H336.948V82.8359H341.232C341.232 82.4728 341.158 82.1512 341.011 81.8711C340.863 81.588 340.655 81.3648 340.387 81.2017C340.123 81.0386 339.812 80.957 339.455 80.957C339.067 80.957 338.729 81.0524 338.439 81.2433C338.153 81.431 337.931 81.6772 337.775 81.9819C337.621 82.2835 337.544 82.6113 337.544 82.9652V83.7731C337.544 84.247 337.627 84.6502 337.793 84.9826C337.962 85.315 338.198 85.5689 338.499 85.7443C338.801 85.9167 339.153 86.0028 339.556 86.0028C339.818 86.0028 340.057 85.9659 340.272 85.892C340.487 85.8151 340.674 85.7012 340.831 85.5504C340.988 85.3996 341.108 85.2134 341.191 84.9918L342.497 85.2273C342.393 85.612 342.205 85.949 341.934 86.2383C341.666 86.5245 341.329 86.7476 340.923 86.9077C340.52 87.0646 340.06 87.1431 339.543 87.1431ZM345.497 82.7898V87H344.116V79.9091H345.441V81.0632H345.529C345.692 80.6877 345.948 80.3861 346.295 80.1584C346.646 79.9306 347.088 79.8168 347.62 79.8168C348.103 79.8168 348.527 79.9183 348.89 80.1214C349.253 80.3215 349.535 80.62 349.735 81.017C349.935 81.4141 350.035 81.9049 350.035 82.4897V87H348.654V82.6559C348.654 82.1419 348.521 81.7403 348.253 81.451C347.985 81.1586 347.617 81.0124 347.149 81.0124C346.829 81.0124 346.545 81.0817 346.295 81.2202C346.049 81.3587 345.854 81.5618 345.709 81.8295C345.568 82.0942 345.497 82.4143 345.497 82.7898ZM355.196 79.9091V81.017H351.323V79.9091H355.196ZM352.361 78.2102H353.742V84.918C353.742 85.1857 353.782 85.3873 353.862 85.5227C353.942 85.6551 354.045 85.7459 354.171 85.7951C354.3 85.8413 354.44 85.8643 354.591 85.8643C354.702 85.8643 354.799 85.8567 354.882 85.8413C354.965 85.8259 355.03 85.8136 355.076 85.8043L355.325 86.9446C355.245 86.9754 355.131 87.0062 354.984 87.0369C354.836 87.0708 354.651 87.0893 354.43 87.0923C354.066 87.0985 353.728 87.0339 353.414 86.8984C353.1 86.763 352.846 86.5537 352.652 86.2706C352.458 85.9875 352.361 85.632 352.361 85.2042V78.2102ZM359.634 87.1431C358.969 87.1431 358.389 86.9908 357.893 86.6861C357.398 86.3814 357.013 85.9551 356.739 85.4073C356.465 84.8595 356.328 84.2193 356.328 83.4869C356.328 82.7513 356.465 82.1081 356.739 81.5572C357.013 81.0063 357.398 80.5785 357.893 80.2738C358.389 79.9691 358.969 79.8168 359.634 79.8168C360.298 79.8168 360.878 79.9691 361.374 80.2738C361.869 80.5785 362.254 81.0063 362.528 81.5572C362.802 82.1081 362.939 82.7513 362.939 83.4869C362.939 84.2193 362.802 84.8595 362.528 85.4073C362.254 85.9551 361.869 86.3814 361.374 86.6861C360.878 86.9908 360.298 87.1431 359.634 87.1431ZM359.638 85.9844C360.069 85.9844 360.426 85.8705 360.709 85.6428C360.992 85.415 361.202 85.1119 361.337 84.7333C361.476 84.3548 361.545 83.9377 361.545 83.4822C361.545 83.0298 361.476 82.6143 361.337 82.2358C361.202 81.8542 360.992 81.5479 360.709 81.3171C360.426 81.0863 360.069 80.9709 359.638 80.9709C359.204 80.9709 358.844 81.0863 358.558 81.3171C358.275 81.5479 358.064 81.8542 357.925 82.2358C357.79 82.6143 357.722 83.0298 357.722 83.4822C357.722 83.9377 357.79 84.3548 357.925 84.7333C358.064 85.1119 358.275 85.415 358.558 85.6428C358.844 85.8705 359.204 85.9844 359.638 85.9844Z" fill="black"/>
<path d="M203 100L231 128L203 114.409L175 128L203 100Z" fill="#9F4343"/>
<path d="M261.713 105.545H263.135V112.249C263.135 112.855 263.015 113.373 262.775 113.804C262.538 114.235 262.204 114.565 261.773 114.792C261.343 115.017 260.838 115.129 260.259 115.129C259.727 115.129 259.248 115.032 258.824 114.838C258.402 114.645 258.068 114.363 257.822 113.994C257.579 113.621 257.457 113.169 257.457 112.636H258.874C258.874 112.898 258.934 113.124 259.054 113.315C259.177 113.506 259.345 113.655 259.558 113.763C259.773 113.867 260.019 113.92 260.296 113.92C260.598 113.92 260.853 113.857 261.062 113.73C261.275 113.601 261.436 113.412 261.547 113.163C261.658 112.913 261.713 112.609 261.713 112.249V105.545ZM269.593 112.059V107.909H270.978V115H269.62V113.772H269.546C269.383 114.151 269.122 114.466 268.762 114.718C268.405 114.968 267.96 115.092 267.427 115.092C266.972 115.092 266.569 114.992 266.218 114.792C265.87 114.589 265.596 114.289 265.396 113.892C265.199 113.495 265.101 113.004 265.101 112.419V107.909H266.481V112.253C266.481 112.736 266.615 113.121 266.883 113.407C267.15 113.694 267.498 113.837 267.926 113.837C268.185 113.837 268.442 113.772 268.697 113.643C268.956 113.513 269.169 113.318 269.339 113.056C269.511 112.795 269.596 112.462 269.593 112.059ZM275.888 115.143C275.19 115.143 274.588 114.994 274.083 114.695C273.582 114.394 273.194 113.971 272.92 113.426C272.649 112.878 272.514 112.236 272.514 111.501C272.514 110.774 272.649 110.134 272.92 109.58C273.194 109.026 273.575 108.594 274.065 108.283C274.557 107.972 275.133 107.817 275.791 107.817C276.191 107.817 276.579 107.883 276.955 108.015C277.33 108.148 277.667 108.355 277.966 108.638C278.264 108.922 278.5 109.289 278.672 109.742C278.844 110.191 278.931 110.737 278.931 111.381V111.87H273.294V110.836H277.578C277.578 110.473 277.504 110.151 277.356 109.871C277.209 109.588 277.001 109.365 276.733 109.202C276.468 109.039 276.158 108.957 275.801 108.957C275.413 108.957 275.074 109.052 274.785 109.243C274.499 109.431 274.277 109.677 274.12 109.982C273.966 110.283 273.889 110.611 273.889 110.965V111.773C273.889 112.247 273.972 112.65 274.139 112.983C274.308 113.315 274.543 113.569 274.845 113.744C275.147 113.917 275.499 114.003 275.902 114.003C276.164 114.003 276.402 113.966 276.618 113.892C276.833 113.815 277.019 113.701 277.176 113.55C277.333 113.4 277.453 113.213 277.536 112.992L278.843 113.227C278.738 113.612 278.55 113.949 278.28 114.238C278.012 114.525 277.675 114.748 277.269 114.908C276.865 115.065 276.405 115.143 275.888 115.143ZM283.435 117.807C282.872 117.807 282.387 117.733 281.981 117.585C281.578 117.437 281.248 117.242 280.993 116.999C280.738 116.756 280.547 116.49 280.421 116.2L281.607 115.711C281.69 115.846 281.801 115.989 281.939 116.14C282.081 116.294 282.272 116.425 282.512 116.533C282.755 116.64 283.067 116.694 283.449 116.694C283.972 116.694 284.405 116.567 284.746 116.311C285.088 116.059 285.259 115.656 285.259 115.102V113.707H285.171C285.088 113.858 284.968 114.026 284.811 114.211C284.657 114.395 284.445 114.555 284.174 114.691C283.903 114.826 283.551 114.894 283.117 114.894C282.556 114.894 282.052 114.763 281.602 114.501C281.156 114.237 280.802 113.847 280.541 113.333C280.282 112.816 280.153 112.181 280.153 111.427C280.153 110.673 280.281 110.027 280.536 109.488C280.794 108.949 281.148 108.537 281.598 108.251C282.047 107.961 282.556 107.817 283.126 107.817C283.566 107.817 283.921 107.891 284.192 108.038C284.463 108.183 284.674 108.352 284.825 108.546C284.979 108.74 285.097 108.911 285.18 109.059H285.282V107.909H286.634V115.157C286.634 115.766 286.493 116.266 286.21 116.657C285.926 117.048 285.543 117.337 285.06 117.525C284.58 117.713 284.038 117.807 283.435 117.807ZM283.421 113.749C283.818 113.749 284.154 113.657 284.428 113.472C284.705 113.284 284.914 113.016 285.055 112.669C285.2 112.318 285.272 111.898 285.272 111.408C285.272 110.931 285.202 110.511 285.06 110.148C284.919 109.785 284.711 109.502 284.437 109.299C284.163 109.092 283.824 108.989 283.421 108.989C283.006 108.989 282.66 109.097 282.383 109.312C282.106 109.525 281.896 109.814 281.755 110.18C281.616 110.547 281.547 110.956 281.547 111.408C281.547 111.873 281.618 112.281 281.759 112.632C281.901 112.983 282.11 113.257 282.387 113.453C282.667 113.65 283.012 113.749 283.421 113.749ZM291.472 115.143C290.808 115.143 290.227 114.991 289.732 114.686C289.236 114.381 288.852 113.955 288.578 113.407C288.304 112.859 288.167 112.219 288.167 111.487C288.167 110.751 288.304 110.108 288.578 109.557C288.852 109.006 289.236 108.578 289.732 108.274C290.227 107.969 290.808 107.817 291.472 107.817C292.137 107.817 292.717 107.969 293.213 108.274C293.708 108.578 294.093 109.006 294.367 109.557C294.641 110.108 294.778 110.751 294.778 111.487C294.778 112.219 294.641 112.859 294.367 113.407C294.093 113.955 293.708 114.381 293.213 114.686C292.717 114.991 292.137 115.143 291.472 115.143ZM291.477 113.984C291.908 113.984 292.265 113.871 292.548 113.643C292.831 113.415 293.04 113.112 293.176 112.733C293.314 112.355 293.384 111.938 293.384 111.482C293.384 111.03 293.314 110.614 293.176 110.236C293.04 109.854 292.831 109.548 292.548 109.317C292.265 109.086 291.908 108.971 291.477 108.971C291.043 108.971 290.683 109.086 290.397 109.317C290.114 109.548 289.903 109.854 289.764 110.236C289.629 110.614 289.561 111.03 289.561 111.482C289.561 111.938 289.629 112.355 289.764 112.733C289.903 113.112 290.114 113.415 290.397 113.643C290.683 113.871 291.043 113.984 291.477 113.984Z" fill="black"/>
</svg>
