<svg width="303" height="103" viewBox="0 0 303 103" fill="none" xmlns="http://www.w3.org/2000/svg">
<path d="M223.765 55.5455H225.496L228.506 62.8949H228.617L231.627 55.5455H233.358V65H232.001V58.1584H231.913L229.125 64.9862H227.998L225.21 58.1538H225.122V65H223.765V55.5455ZM238.377 65.1431C237.678 65.1431 237.077 64.9938 236.572 64.6953C236.07 64.3937 235.683 63.9705 235.409 63.4258C235.138 62.878 235.002 62.2363 235.002 61.5007C235.002 60.7744 235.138 60.1342 235.409 59.5803C235.683 59.0263 236.064 58.5939 236.554 58.283C237.046 57.9722 237.622 57.8168 238.28 57.8168C238.68 57.8168 239.068 57.8829 239.443 58.0153C239.819 58.1476 240.156 58.3554 240.455 58.6385C240.753 58.9216 240.988 59.2894 241.161 59.7418C241.333 60.1912 241.419 60.7375 241.419 61.3807V61.87H235.783V60.8359H240.067C240.067 60.4728 239.993 60.1512 239.845 59.8711C239.697 59.5879 239.49 59.3648 239.222 59.2017C238.957 59.0386 238.646 58.957 238.289 58.957C237.902 58.957 237.563 59.0524 237.274 59.2433C236.988 59.431 236.766 59.6772 236.609 59.9819C236.455 60.2835 236.378 60.6113 236.378 60.9652V61.7731C236.378 62.247 236.461 62.6502 236.627 62.9826C236.797 63.315 237.032 63.5689 237.334 63.7443C237.635 63.9167 237.988 64.0028 238.391 64.0028C238.653 64.0028 238.891 63.9659 239.106 63.892C239.322 63.8151 239.508 63.7012 239.665 63.5504C239.822 63.3996 239.942 63.2134 240.025 62.9918L241.332 63.2273C241.227 63.612 241.039 63.949 240.768 64.2383C240.501 64.5245 240.164 64.7476 239.757 64.9077C239.354 65.0646 238.894 65.1431 238.377 65.1431ZM249.364 67.8068C248.801 67.8068 248.316 67.733 247.91 67.5852C247.507 67.4375 247.178 67.2421 246.922 66.9989C246.667 66.7558 246.476 66.4896 246.35 66.2003L247.536 65.7109C247.619 65.8464 247.73 65.9895 247.869 66.1403C248.01 66.2942 248.201 66.425 248.441 66.5327C248.684 66.6404 248.997 66.6942 249.378 66.6942C249.901 66.6942 250.334 66.5665 250.675 66.3111C251.017 66.0587 251.188 65.6555 251.188 65.1016V63.7074H251.1C251.017 63.8582 250.897 64.0259 250.74 64.2106C250.586 64.3952 250.374 64.5553 250.103 64.6907C249.832 64.8261 249.48 64.8938 249.046 64.8938C248.486 64.8938 247.981 64.763 247.532 64.5014C247.085 64.2367 246.731 63.8474 246.47 63.3335C246.211 62.8164 246.082 62.1809 246.082 61.4268C246.082 60.6728 246.21 60.0265 246.465 59.4879C246.724 58.9493 247.078 58.5369 247.527 58.2507C247.976 57.9614 248.486 57.8168 249.055 57.8168C249.495 57.8168 249.851 57.8906 250.121 58.0384C250.392 58.183 250.603 58.3523 250.754 58.5462C250.908 58.7401 251.026 58.9109 251.109 59.0586H251.211V57.9091H252.564V65.157C252.564 65.7663 252.422 66.2665 252.139 66.6573C251.856 67.0482 251.472 67.3375 250.989 67.5252C250.509 67.7129 249.968 67.8068 249.364 67.8068ZM249.35 63.7489C249.747 63.7489 250.083 63.6566 250.357 63.4719C250.634 63.2842 250.843 63.0165 250.985 62.6687C251.129 62.3178 251.202 61.8977 251.202 61.4084C251.202 60.9313 251.131 60.5112 250.989 60.1481C250.848 59.7849 250.64 59.5018 250.366 59.2987C250.092 59.0924 249.754 58.9893 249.35 58.9893C248.935 58.9893 248.589 59.0971 248.312 59.3125C248.035 59.5249 247.825 59.8142 247.684 60.1804C247.545 60.5466 247.476 60.956 247.476 61.4084C247.476 61.8731 247.547 62.2809 247.689 62.6317C247.83 62.9826 248.039 63.2565 248.316 63.4535C248.596 63.6504 248.941 63.7489 249.35 63.7489ZM258.907 62.0593V57.9091H260.292V65H258.934V63.772H258.86C258.697 64.1506 258.436 64.466 258.076 64.7184C257.719 64.9677 257.274 65.0923 256.741 65.0923C256.286 65.0923 255.883 64.9923 255.532 64.7923C255.184 64.5891 254.91 64.2891 254.71 63.892C254.513 63.495 254.415 63.0041 254.415 62.4194V57.9091H255.795V62.2532C255.795 62.7364 255.929 63.1211 256.197 63.4073C256.464 63.6935 256.812 63.8366 257.24 63.8366C257.499 63.8366 257.756 63.772 258.011 63.6428C258.269 63.5135 258.483 63.3181 258.653 63.0565C258.825 62.7949 258.91 62.4625 258.907 62.0593ZM267.46 59.6403L266.209 59.8619C266.156 59.7018 266.073 59.5495 265.959 59.4048C265.849 59.2602 265.698 59.1417 265.507 59.0494C265.316 58.957 265.078 58.9109 264.791 58.9109C264.401 58.9109 264.074 58.9986 263.813 59.174C263.551 59.3464 263.42 59.5695 263.42 59.8434C263.42 60.0804 263.508 60.2712 263.683 60.4158C263.859 60.5605 264.142 60.679 264.533 60.7713L265.659 61.0298C266.312 61.1806 266.798 61.413 267.118 61.7269C267.438 62.0408 267.598 62.4486 267.598 62.9503C267.598 63.375 267.475 63.7536 267.229 64.0859C266.986 64.4152 266.646 64.6738 266.209 64.8615C265.775 65.0492 265.272 65.1431 264.699 65.1431C263.905 65.1431 263.257 64.9738 262.756 64.6353C262.254 64.2937 261.946 63.8089 261.832 63.1811L263.166 62.978C263.25 63.3258 263.42 63.5889 263.679 63.7674C263.937 63.9428 264.274 64.0305 264.69 64.0305C265.142 64.0305 265.504 63.9367 265.775 63.7489C266.046 63.5581 266.181 63.3258 266.181 63.0518C266.181 62.8303 266.098 62.6441 265.932 62.4933C265.769 62.3424 265.518 62.2286 265.179 62.1516L263.979 61.8885C263.317 61.7377 262.828 61.4976 262.511 61.1683C262.197 60.839 262.04 60.422 262.04 59.9173C262.04 59.4987 262.157 59.1325 262.391 58.8185C262.625 58.5046 262.948 58.2599 263.36 58.0845C263.773 57.906 264.245 57.8168 264.778 57.8168C265.544 57.8168 266.147 57.983 266.587 58.3153C267.027 58.6446 267.318 59.0863 267.46 59.6403ZM272.426 57.9091V59.017H268.553V57.9091H272.426ZM269.591 56.2102H270.972V62.918C270.972 63.1857 271.012 63.3873 271.092 63.5227C271.172 63.6551 271.275 63.7459 271.401 63.7951C271.53 63.8413 271.67 63.8643 271.821 63.8643C271.932 63.8643 272.029 63.8567 272.112 63.8413C272.195 63.8259 272.26 63.8136 272.306 63.8043L272.555 64.9446C272.475 64.9754 272.361 65.0062 272.214 65.0369C272.066 65.0708 271.881 65.0893 271.66 65.0923C271.296 65.0985 270.958 65.0339 270.644 64.8984C270.33 64.763 270.076 64.5537 269.882 64.2706C269.688 63.9875 269.591 63.632 269.591 63.2042V56.2102ZM276.016 65.157C275.567 65.157 275.161 65.0739 274.798 64.9077C274.434 64.7384 274.147 64.4937 273.934 64.1737C273.725 63.8536 273.62 63.4612 273.62 62.9964C273.62 62.5964 273.697 62.267 273.851 62.0085C274.005 61.75 274.213 61.5453 274.474 61.3945C274.736 61.2437 275.028 61.1299 275.352 61.0529C275.675 60.976 276.004 60.9175 276.34 60.8775C276.764 60.8282 277.109 60.7882 277.374 60.7575C277.638 60.7236 277.831 60.6697 277.951 60.5959C278.071 60.522 278.131 60.402 278.131 60.2358V60.2035C278.131 59.8003 278.017 59.4879 277.789 59.2663C277.564 59.0447 277.229 58.9339 276.783 58.9339C276.318 58.9339 275.952 59.037 275.684 59.2433C275.419 59.4464 275.236 59.6726 275.135 59.9219L273.837 59.6264C273.991 59.1955 274.216 58.8478 274.511 58.5831C274.81 58.3153 275.153 58.1214 275.541 58.0014C275.929 57.8783 276.336 57.8168 276.764 57.8168C277.047 57.8168 277.347 57.8506 277.664 57.9183C277.985 57.983 278.283 58.103 278.56 58.2784C278.84 58.4538 279.069 58.7047 279.248 59.0309C279.426 59.354 279.516 59.7741 279.516 60.2912V65H278.168V64.0305H278.112C278.023 64.209 277.889 64.3845 277.711 64.5568C277.532 64.7292 277.303 64.8723 277.023 64.9862C276.743 65.1 276.407 65.157 276.016 65.157ZM276.316 64.049C276.698 64.049 277.024 63.9736 277.295 63.8228C277.569 63.672 277.777 63.475 277.918 63.2319C278.063 62.9857 278.135 62.7225 278.135 62.4425V61.5284C278.086 61.5777 277.991 61.6238 277.849 61.6669C277.711 61.7069 277.552 61.7423 277.374 61.7731C277.195 61.8008 277.021 61.8269 276.852 61.8516C276.683 61.8731 276.541 61.8916 276.427 61.907C276.159 61.9408 275.915 61.9978 275.693 62.0778C275.475 62.1578 275.299 62.2732 275.167 62.424C275.038 62.5717 274.973 62.7687 274.973 63.0149C274.973 63.3565 275.099 63.6151 275.352 63.7905C275.604 63.9628 275.926 64.049 276.316 64.049Z" fill="black"/>
<path d="M79.4733 6.77166H77.4811C77.4243 6.44496 77.3195 6.15554 77.1668 5.90341C77.0141 5.64773 76.8241 5.43111 76.5969 5.25355C76.3696 5.07599 76.1104 4.94283 75.8192 4.85405C75.5315 4.76172 75.2208 4.71555 74.887 4.71555C74.2939 4.71555 73.7684 4.8647 73.3103 5.163C72.8522 5.45774 72.4935 5.89098 72.2343 6.46271C71.9751 7.03089 71.8454 7.72514 71.8454 8.54545C71.8454 9.37997 71.9751 10.0831 72.2343 10.6548C72.4971 11.223 72.8557 11.6527 73.3103 11.9439C73.7684 12.2315 74.2922 12.3754 74.8817 12.3754C75.2084 12.3754 75.5138 12.3327 75.7979 12.2475C76.0855 12.1587 76.343 12.0291 76.5702 11.8587C76.801 11.6882 76.9946 11.4787 77.1508 11.2301C77.3106 10.9815 77.4207 10.6974 77.4811 10.3778L79.4733 10.3885C79.3987 10.907 79.2371 11.3935 78.9885 11.848C78.7435 12.3026 78.4221 12.7038 78.0244 13.0518C77.6267 13.3963 77.1615 13.6662 76.6288 13.8615C76.0961 14.0533 75.5049 14.1491 74.855 14.1491C73.8962 14.1491 73.0404 13.9272 72.2876 13.4833C71.5347 13.0394 70.9417 12.3984 70.5084 11.5604C70.0752 10.7223 69.8586 9.71733 69.8586 8.54545C69.8586 7.37003 70.077 6.36506 70.5138 5.53054C70.9506 4.69247 71.5454 4.05149 72.2982 3.6076C73.051 3.16371 73.9033 2.94176 74.855 2.94176C75.4623 2.94176 76.0269 3.02699 76.5489 3.19744C77.0709 3.3679 77.5361 3.61825 77.9445 3.94851C78.3529 4.27521 78.6885 4.67649 78.9513 5.15234C79.2176 5.62464 79.3916 6.16442 79.4733 6.77166ZM84.7667 14.1598C83.9677 14.1598 83.2752 13.984 82.6893 13.6325C82.1033 13.2809 81.6488 12.7891 81.3256 12.157C81.006 11.5249 80.8462 10.7862 80.8462 9.94105C80.8462 9.09588 81.006 8.35547 81.3256 7.71982C81.6488 7.08416 82.1033 6.59055 82.6893 6.23899C83.2752 5.88743 83.9677 5.71165 84.7667 5.71165C85.5657 5.71165 86.2582 5.88743 86.8441 6.23899C87.43 6.59055 87.8828 7.08416 88.2024 7.71982C88.5256 8.35547 88.6871 9.09588 88.6871 9.94105C88.6871 10.7862 88.5256 11.5249 88.2024 12.157C87.8828 12.7891 87.43 13.2809 86.8441 13.6325C86.2582 13.984 85.5657 14.1598 84.7667 14.1598ZM84.7773 12.6151C85.2106 12.6151 85.5728 12.4961 85.864 12.2582C86.1552 12.0167 86.3718 11.6935 86.5138 11.2887C86.6594 10.8839 86.7322 10.4329 86.7322 9.93572C86.7322 9.43501 86.6594 8.98224 86.5138 8.57741C86.3718 8.16903 86.1552 7.84411 85.864 7.60263C85.5728 7.36115 85.2106 7.24041 84.7773 7.24041C84.3335 7.24041 83.9641 7.36115 83.6694 7.60263C83.3782 7.84411 83.1598 8.16903 83.0142 8.57741C82.8722 8.98224 82.8011 9.43501 82.8011 9.93572C82.8011 10.4329 82.8722 10.8839 83.0142 11.2887C83.1598 11.6935 83.3782 12.0167 83.6694 12.2582C83.9641 12.4961 84.3335 12.6151 84.7773 12.6151ZM92.252 3.09091V14H90.3238V3.09091H92.252ZM97.8038 14.1598C97.0048 14.1598 96.3123 13.984 95.7264 13.6325C95.1404 13.2809 94.6859 12.7891 94.3627 12.157C94.0431 11.5249 93.8833 10.7862 93.8833 9.94105C93.8833 9.09588 94.0431 8.35547 94.3627 7.71982C94.6859 7.08416 95.1404 6.59055 95.7264 6.23899C96.3123 5.88743 97.0048 5.71165 97.8038 5.71165C98.6028 5.71165 99.2953 5.88743 99.8812 6.23899C100.467 6.59055 100.92 7.08416 101.24 7.71982C101.563 8.35547 101.724 9.09588 101.724 9.94105C101.724 10.7862 101.563 11.5249 101.24 12.157C100.92 12.7891 100.467 13.2809 99.8812 13.6325C99.2953 13.984 98.6028 14.1598 97.8038 14.1598ZM97.8145 12.6151C98.2477 12.6151 98.6099 12.4961 98.9011 12.2582C99.1923 12.0167 99.4089 11.6935 99.551 11.2887C99.6966 10.8839 99.7694 10.4329 99.7694 9.93572C99.7694 9.43501 99.6966 8.98224 99.551 8.57741C99.4089 8.16903 99.1923 7.84411 98.9011 7.60263C98.6099 7.36115 98.2477 7.24041 97.8145 7.24041C97.3706 7.24041 97.0012 7.36115 96.7065 7.60263C96.4153 7.84411 96.1969 8.16903 96.0513 8.57741C95.9093 8.98224 95.8382 9.43501 95.8382 9.93572C95.8382 10.4329 95.9093 10.8839 96.0513 11.2887C96.1969 11.6935 96.4153 12.0167 96.7065 12.2582C97.0012 12.4961 97.3706 12.6151 97.8145 12.6151ZM103.361 14V5.81818H105.231V7.18182H105.316C105.465 6.70952 105.721 6.34553 106.083 6.08984C106.449 5.83061 106.866 5.70099 107.335 5.70099C107.441 5.70099 107.56 5.70632 107.691 5.71697C107.826 5.72408 107.938 5.73651 108.027 5.75426V7.52805C107.945 7.49964 107.816 7.47479 107.638 7.45348C107.464 7.42862 107.296 7.41619 107.132 7.41619C106.781 7.41619 106.465 7.49254 106.184 7.64524C105.907 7.79439 105.689 8.00213 105.529 8.26847C105.369 8.5348 105.289 8.84197 105.289 9.18999V14H103.361ZM116.065 14.1438C115.422 14.1438 114.847 13.9787 114.339 13.6484C113.831 13.3182 113.43 12.8388 113.135 12.2102C112.841 11.5817 112.693 10.8182 112.693 9.91974C112.693 9.01065 112.842 8.24361 113.141 7.61861C113.443 6.99006 113.849 6.51598 114.361 6.19638C114.872 5.87322 115.442 5.71165 116.07 5.71165C116.55 5.71165 116.944 5.79332 117.253 5.95668C117.562 6.11648 117.807 6.31001 117.988 6.53729C118.169 6.76101 118.309 6.9723 118.409 7.17116H118.489V3.09091H120.422V14H118.526V12.7109H118.409C118.309 12.9098 118.166 13.1211 117.977 13.3448C117.789 13.565 117.541 13.7532 117.232 13.9094C116.923 14.0657 116.534 14.1438 116.065 14.1438ZM116.603 12.5618C117.011 12.5618 117.359 12.4517 117.647 12.2315C117.935 12.0078 118.153 11.6971 118.302 11.2994C118.451 10.9016 118.526 10.4382 118.526 9.90909C118.526 9.37997 118.451 8.9201 118.302 8.52947C118.157 8.13885 117.94 7.83523 117.652 7.61861C117.368 7.40199 117.019 7.29368 116.603 7.29368C116.173 7.29368 115.815 7.40554 115.527 7.62926C115.239 7.85298 115.023 8.16193 114.877 8.55611C114.732 8.95028 114.659 9.40128 114.659 9.90909C114.659 10.4205 114.732 10.8768 114.877 11.2781C115.026 11.6758 115.245 11.9901 115.532 12.2209C115.824 12.4482 116.18 12.5618 116.603 12.5618ZM126.099 14.1598C125.279 14.1598 124.57 13.9893 123.974 13.6484C123.381 13.304 122.925 12.8175 122.605 12.1889C122.285 11.5568 122.126 10.8129 122.126 9.95703C122.126 9.11541 122.285 8.37678 122.605 7.74112C122.928 7.10192 123.379 6.60476 123.958 6.24964C124.537 5.89098 125.217 5.71165 125.998 5.71165C126.502 5.71165 126.978 5.79332 127.426 5.95668C127.877 6.11648 128.274 6.36506 128.619 6.70241C128.967 7.03977 129.24 7.46946 129.439 7.99148C129.638 8.50994 129.737 9.12784 129.737 9.84517V10.4364H123.031V9.13672H127.889C127.885 8.7674 127.806 8.43892 127.649 8.15128C127.493 7.86009 127.275 7.63104 126.994 7.46413C126.717 7.29723 126.394 7.21378 126.025 7.21378C125.631 7.21378 125.284 7.30966 124.986 7.50142C124.688 7.68963 124.455 7.93821 124.288 8.24716C124.125 8.55256 124.041 8.88814 124.038 9.25391V10.3885C124.038 10.8643 124.125 11.2727 124.299 11.6136C124.473 11.951 124.716 12.2102 125.029 12.3913C125.341 12.5689 125.707 12.6577 126.126 12.6577C126.406 12.6577 126.66 12.6186 126.888 12.5405C127.115 12.4588 127.312 12.3398 127.479 12.1836C127.646 12.0273 127.772 11.8338 127.857 11.603L129.657 11.8054C129.544 12.2812 129.327 12.6967 129.008 13.0518C128.692 13.4034 128.287 13.6768 127.793 13.8722C127.3 14.0639 126.735 14.1598 126.099 14.1598ZM137.018 3.09091V14H135.089V3.09091H137.018ZM139.001 14V5.81818H140.929V14H139.001ZM139.97 4.65696C139.665 4.65696 139.402 4.55575 139.182 4.35334C138.961 4.14737 138.851 3.90057 138.851 3.61293C138.851 3.32173 138.961 3.07493 139.182 2.87251C139.402 2.66655 139.665 2.56357 139.97 2.56357C140.279 2.56357 140.542 2.66655 140.758 2.87251C140.979 3.07493 141.089 3.32173 141.089 3.61293C141.089 3.90057 140.979 4.14737 140.758 4.35334C140.542 4.55575 140.279 4.65696 139.97 4.65696ZM144.84 9.20597V14H142.912V5.81818H144.755V7.20845H144.851C145.039 6.75035 145.339 6.38636 145.751 6.11648C146.166 5.84659 146.679 5.71165 147.29 5.71165C147.855 5.71165 148.347 5.83239 148.766 6.07386C149.188 6.31534 149.515 6.66513 149.746 7.12322C149.98 7.58132 150.096 8.13707 150.092 8.79048V14H148.164V9.08878C148.164 8.5419 148.022 8.11399 147.738 7.80504C147.457 7.49609 147.068 7.34162 146.571 7.34162C146.234 7.34162 145.934 7.41619 145.671 7.56534C145.412 7.71094 145.207 7.92223 145.058 8.19922C144.913 8.47621 144.84 8.81179 144.84 9.20597ZM155.674 14.1598C154.854 14.1598 154.146 13.9893 153.549 13.6484C152.956 13.304 152.5 12.8175 152.18 12.1889C151.861 11.5568 151.701 10.8129 151.701 9.95703C151.701 9.11541 151.861 8.37678 152.18 7.74112C152.503 7.10192 152.954 6.60476 153.533 6.24964C154.112 5.89098 154.792 5.71165 155.573 5.71165C156.078 5.71165 156.553 5.79332 157.001 5.95668C157.452 6.11648 157.85 6.36506 158.194 6.70241C158.542 7.03977 158.815 7.46946 159.014 7.99148C159.213 8.50994 159.313 9.12784 159.313 9.84517V10.4364H152.606V9.13672H157.464C157.461 8.7674 157.381 8.43892 157.225 8.15128C157.068 7.86009 156.85 7.63104 156.569 7.46413C156.292 7.29723 155.969 7.21378 155.6 7.21378C155.206 7.21378 154.859 7.30966 154.561 7.50142C154.263 7.68963 154.03 7.93821 153.863 8.24716C153.7 8.55256 153.617 8.88814 153.613 9.25391V10.3885C153.613 10.8643 153.7 11.2727 153.874 11.6136C154.048 11.951 154.291 12.2102 154.604 12.3913C154.916 12.5689 155.282 12.6577 155.701 12.6577C155.982 12.6577 156.236 12.6186 156.463 12.5405C156.69 12.4588 156.887 12.3398 157.054 12.1836C157.221 12.0273 157.347 11.8338 157.432 11.603L159.233 11.8054C159.119 12.2812 158.902 12.6967 158.583 13.0518C158.267 13.4034 157.862 13.6768 157.368 13.8722C156.875 14.0639 156.31 14.1598 155.674 14.1598ZM163.298 14.1651C162.78 14.1651 162.313 14.0728 161.897 13.8881C161.485 13.6999 161.159 13.4229 160.917 13.0572C160.679 12.6914 160.56 12.2404 160.56 11.7042C160.56 11.2425 160.646 10.8608 160.816 10.5589C160.987 10.2571 161.219 10.0156 161.514 9.83452C161.809 9.65341 162.141 9.51669 162.51 9.42436C162.883 9.32848 163.268 9.25923 163.666 9.21662C164.145 9.1669 164.534 9.12251 164.832 9.08345C165.131 9.04084 165.347 8.97692 165.482 8.89169C165.621 8.80291 165.69 8.66619 165.69 8.48153V8.44957C165.69 8.0483 165.571 7.73757 165.333 7.5174C165.095 7.29723 164.752 7.18714 164.305 7.18714C163.833 7.18714 163.458 7.29013 163.181 7.49609C162.908 7.70206 162.723 7.94531 162.627 8.22585L160.827 7.97017C160.969 7.47301 161.203 7.05753 161.53 6.72372C161.857 6.38636 162.256 6.13423 162.728 5.96733C163.201 5.79688 163.723 5.71165 164.294 5.71165C164.689 5.71165 165.081 5.75781 165.472 5.85014C165.862 5.94247 166.219 6.09517 166.542 6.30824C166.865 6.51776 167.125 6.80362 167.32 7.16584C167.519 7.52805 167.618 7.98082 167.618 8.52415V14H165.765V12.8761H165.701C165.583 13.1033 165.418 13.3164 165.205 13.5153C164.996 13.7106 164.731 13.8686 164.412 13.9893C164.096 14.1065 163.724 14.1651 163.298 14.1651ZM163.799 12.7482C164.186 12.7482 164.522 12.6719 164.806 12.5192C165.09 12.3629 165.308 12.157 165.461 11.9013C165.617 11.6456 165.695 11.3668 165.695 11.065V10.1009C165.635 10.1506 165.532 10.1967 165.386 10.2393C165.244 10.282 165.085 10.3192 164.907 10.3512C164.729 10.3832 164.554 10.4116 164.38 10.4364C164.206 10.4613 164.055 10.4826 163.927 10.5004C163.639 10.5394 163.382 10.6033 163.154 10.6921C162.927 10.7809 162.748 10.9052 162.616 11.065C162.485 11.2212 162.419 11.4237 162.419 11.6722C162.419 12.0273 162.549 12.2955 162.808 12.4766C163.067 12.6577 163.398 12.7482 163.799 12.7482ZM173.757 8.54545C173.757 7.21378 173.933 5.99041 174.285 4.87535C174.64 3.75675 175.167 2.72337 175.867 1.77521H177.683C177.413 2.12678 177.161 2.55824 176.927 3.0696C176.692 3.57741 176.488 4.13494 176.314 4.74219C176.144 5.34588 176.009 5.97266 175.909 6.62251C175.813 7.27237 175.765 7.91335 175.765 8.54545C175.765 9.38707 175.849 10.2393 176.016 11.1023C176.186 11.9652 176.415 12.766 176.703 13.5046C176.994 14.2397 177.321 14.8416 177.683 15.3104H175.867C175.167 14.3622 174.64 13.3306 174.285 12.2156C173.933 11.0969 173.757 9.87358 173.757 8.54545ZM186.575 6.57457C186.486 6.28693 186.363 6.02947 186.207 5.8022C186.054 5.57138 185.87 5.37429 185.653 5.21094C185.44 5.04759 185.195 4.92507 184.918 4.84339C184.641 4.75817 184.339 4.71555 184.013 4.71555C183.427 4.71555 182.905 4.86293 182.446 5.15767C181.988 5.45241 181.628 5.88565 181.365 6.45739C181.106 7.02557 180.976 7.71804 180.976 8.5348C180.976 9.35866 181.106 10.0565 181.365 10.6282C181.624 11.1999 181.985 11.6349 182.446 11.9332C182.908 12.228 183.444 12.3754 184.055 12.3754C184.609 12.3754 185.089 12.2688 185.493 12.0558C185.902 11.8427 186.216 11.5408 186.436 11.1502C186.656 10.756 186.766 10.2944 186.766 9.76527L187.214 9.83452H184.252V8.28977H188.679V9.60014C188.679 10.5341 188.48 11.342 188.082 12.0238C187.684 12.7056 187.138 13.2312 186.441 13.6005C185.745 13.9663 184.946 14.1491 184.044 14.1491C183.04 14.1491 182.157 13.9237 181.397 13.4727C180.641 13.0181 180.049 12.3736 179.623 11.5391C179.201 10.701 178.989 9.70668 178.989 8.55611C178.989 7.67543 179.114 6.88885 179.362 6.19638C179.614 5.50391 179.966 4.91619 180.417 4.43324C180.868 3.94673 181.397 3.57741 182.004 3.32528C182.612 3.0696 183.272 2.94176 183.986 2.94176C184.59 2.94176 185.152 3.03054 185.674 3.2081C186.196 3.3821 186.66 3.63068 187.065 3.95384C187.473 4.27699 187.809 4.66051 188.071 5.1044C188.334 5.5483 188.506 6.03835 188.588 6.57457H186.575ZM195.719 10.5589V5.81818H197.648V14H195.778V12.5458H195.693C195.508 13.0039 195.204 13.3786 194.782 13.6697C194.363 13.9609 193.846 14.1065 193.232 14.1065C192.695 14.1065 192.221 13.9876 191.809 13.7496C191.401 13.5082 191.081 13.1584 190.851 12.7003C190.62 12.2386 190.504 11.6811 190.504 11.0277V5.81818H192.433V10.7294C192.433 11.2479 192.575 11.6598 192.859 11.9652C193.143 12.2706 193.516 12.4233 193.977 12.4233C194.262 12.4233 194.537 12.354 194.803 12.2156C195.069 12.0771 195.288 11.8711 195.458 11.5977C195.632 11.3207 195.719 10.9744 195.719 10.5589ZM206.097 7.98082L204.339 8.17258C204.29 7.99503 204.203 7.82812 204.078 7.67188C203.957 7.51562 203.794 7.38956 203.588 7.29368C203.382 7.1978 203.13 7.14986 202.832 7.14986C202.43 7.14986 202.093 7.23686 201.82 7.41087C201.55 7.58487 201.417 7.81037 201.42 8.08736C201.417 8.32528 201.504 8.51882 201.681 8.66797C201.862 8.81712 202.161 8.93963 202.576 9.03551L203.972 9.33381C204.746 9.50071 205.321 9.76527 205.698 10.1275C206.078 10.4897 206.269 10.9638 206.273 11.5497C206.269 12.0646 206.118 12.5192 205.82 12.9134C205.525 13.304 205.115 13.6094 204.59 13.8295C204.064 14.0497 203.46 14.1598 202.778 14.1598C201.777 14.1598 200.971 13.9503 200.36 13.5312C199.749 13.1087 199.385 12.521 199.268 11.7681L201.149 11.587C201.234 11.9563 201.415 12.2351 201.692 12.4233C201.969 12.6115 202.329 12.7056 202.773 12.7056C203.231 12.7056 203.599 12.6115 203.876 12.4233C204.156 12.2351 204.297 12.0025 204.297 11.7255C204.297 11.4911 204.206 11.2976 204.025 11.1449C203.847 10.9922 203.57 10.875 203.194 10.7933L201.798 10.5004C201.014 10.337 200.433 10.0618 200.057 9.67472C199.68 9.28409 199.494 8.79048 199.497 8.19389C199.494 7.68963 199.63 7.25284 199.907 6.88352C200.188 6.51065 200.577 6.22301 201.074 6.0206C201.575 5.81463 202.152 5.71165 202.805 5.71165C203.764 5.71165 204.519 5.91584 205.069 6.32422C205.623 6.7326 205.966 7.2848 206.097 7.98082ZM211.948 5.81818V7.30966H207.245V5.81818H211.948ZM208.406 3.85795H210.334V11.5391C210.334 11.7983 210.373 11.9972 210.452 12.1357C210.533 12.2706 210.64 12.3629 210.771 12.4126C210.903 12.4624 211.048 12.4872 211.208 12.4872C211.329 12.4872 211.439 12.4783 211.538 12.4606C211.641 12.4428 211.719 12.4268 211.773 12.4126L212.098 13.9201C211.995 13.9556 211.847 13.9947 211.655 14.0373C211.467 14.0799 211.236 14.1048 210.963 14.1119C210.48 14.1261 210.045 14.0533 209.658 13.8935C209.271 13.7301 208.964 13.478 208.736 13.1371C208.513 12.7962 208.403 12.37 208.406 11.8587V3.85795ZM217.042 14.1598C216.243 14.1598 215.551 13.984 214.965 13.6325C214.379 13.2809 213.924 12.7891 213.601 12.157C213.281 11.5249 213.122 10.7862 213.122 9.94105C213.122 9.09588 213.281 8.35547 213.601 7.71982C213.924 7.08416 214.379 6.59055 214.965 6.23899C215.551 5.88743 216.243 5.71165 217.042 5.71165C217.841 5.71165 218.534 5.88743 219.119 6.23899C219.705 6.59055 220.158 7.08416 220.478 7.71982C220.801 8.35547 220.963 9.09588 220.963 9.94105C220.963 10.7862 220.801 11.5249 220.478 12.157C220.158 12.7891 219.705 13.2809 219.119 13.6325C218.534 13.984 217.841 14.1598 217.042 14.1598ZM217.053 12.6151C217.486 12.6151 217.848 12.4961 218.139 12.2582C218.431 12.0167 218.647 11.6935 218.789 11.2887C218.935 10.8839 219.008 10.4329 219.008 9.93572C219.008 9.43501 218.935 8.98224 218.789 8.57741C218.647 8.16903 218.431 7.84411 218.139 7.60263C217.848 7.36115 217.486 7.24041 217.053 7.24041C216.609 7.24041 216.24 7.36115 215.945 7.60263C215.654 7.84411 215.435 8.16903 215.29 8.57741C215.148 8.98224 215.077 9.43501 215.077 9.93572C215.077 10.4329 215.148 10.8839 215.29 11.2887C215.435 11.6935 215.654 12.0167 215.945 12.2582C216.24 12.4961 216.609 12.6151 217.053 12.6151ZM225.85 9.5522C225.85 10.8803 225.672 12.1037 225.317 13.2223C224.966 14.3374 224.44 15.369 223.74 16.3171H221.924C222.197 15.9656 222.45 15.5359 222.68 15.0281C222.915 14.5202 223.117 13.9627 223.288 13.3555C223.462 12.7482 223.597 12.1197 223.692 11.4698C223.792 10.82 223.842 10.1808 223.842 9.5522C223.842 8.71058 223.756 7.85831 223.586 6.99538C223.419 6.13246 223.19 5.33168 222.899 4.59304C222.611 3.8544 222.286 3.25071 221.924 2.78196H223.74C224.44 3.73011 224.966 4.76349 225.317 5.8821C225.672 6.99716 225.85 8.22053 225.85 9.5522ZM229.5 14.1172C229.177 14.1172 228.9 14.0036 228.669 13.7763C228.438 13.549 228.324 13.272 228.328 12.9453C228.324 12.6257 228.438 12.3523 228.669 12.125C228.9 11.8977 229.177 11.7841 229.5 11.7841C229.812 11.7841 230.084 11.8977 230.315 12.125C230.549 12.3523 230.668 12.6257 230.672 12.9453C230.668 13.1619 230.611 13.359 230.501 13.5366C230.395 13.7141 230.253 13.8562 230.075 13.9627C229.901 14.0657 229.709 14.1172 229.5 14.1172ZM229.5 8.27912C229.177 8.27912 228.9 8.16548 228.669 7.93821C228.438 7.70739 228.324 7.4304 228.328 7.10724C228.324 6.78764 228.438 6.5142 228.669 6.28693C228.9 6.05611 229.177 5.9407 229.5 5.9407C229.812 5.9407 230.084 6.05611 230.315 6.28693C230.549 6.5142 230.668 6.78764 230.672 7.10724C230.668 7.32031 230.611 7.51562 230.501 7.69318C230.395 7.87074 230.253 8.01278 230.075 8.11932C229.901 8.22585 229.709 8.27912 229.5 8.27912Z" fill="black"/>
<line y1="-1" x2="193.484" y2="-1" transform="matrix(0.999974 0.0072339 -0.00793331 0.999969 1 68.9384)" stroke="#32FF00" stroke-width="2"/>
<path d="M231.396 89.5455V99H230.085L225.279 92.0661H225.191V99H223.765V89.5455H225.085L229.895 96.4886H229.983V89.5455H231.396ZM236.353 99.1431C235.688 99.1431 235.108 98.9908 234.612 98.6861C234.117 98.3814 233.732 97.9551 233.458 97.4073C233.184 96.8595 233.047 96.2193 233.047 95.4869C233.047 94.7513 233.184 94.1081 233.458 93.5572C233.732 93.0063 234.117 92.5785 234.612 92.2738C235.108 91.9691 235.688 91.8168 236.353 91.8168C237.018 91.8168 237.598 91.9691 238.093 92.2738C238.589 92.5785 238.973 93.0063 239.247 93.5572C239.521 94.1081 239.658 94.7513 239.658 95.4869C239.658 96.2193 239.521 96.8595 239.247 97.4073C238.973 97.9551 238.589 98.3814 238.093 98.6861C237.598 98.9908 237.018 99.1431 236.353 99.1431ZM236.357 97.9844C236.788 97.9844 237.145 97.8705 237.428 97.6428C237.712 97.415 237.921 97.1119 238.056 96.7333C238.195 96.3548 238.264 95.9377 238.264 95.4822C238.264 95.0298 238.195 94.6143 238.056 94.2358C237.921 93.8542 237.712 93.5479 237.428 93.3171C237.145 93.0863 236.788 92.9709 236.357 92.9709C235.923 92.9709 235.563 93.0863 235.277 93.3171C234.994 93.5479 234.783 93.8542 234.645 94.2358C234.509 94.6143 234.442 95.0298 234.442 95.4822C234.442 95.9377 234.509 96.3548 234.645 96.7333C234.783 97.1119 234.994 97.415 235.277 97.6428C235.563 97.8705 235.923 97.9844 236.357 97.9844ZM244.639 99V91.9091H245.964V93.0632H246.052C246.2 92.6723 246.441 92.3677 246.777 92.1491C247.112 91.9276 247.514 91.8168 247.982 91.8168C248.456 91.8168 248.853 91.9276 249.173 92.1491C249.496 92.3707 249.734 92.6754 249.888 93.0632H249.962C250.131 92.6847 250.401 92.383 250.77 92.1584C251.139 91.9306 251.579 91.8168 252.09 91.8168C252.734 91.8168 253.258 92.0183 253.665 92.4215C254.074 92.8247 254.279 93.4325 254.279 94.245V99H252.898V94.3743C252.898 93.8942 252.767 93.5464 252.506 93.331C252.244 93.1155 251.932 93.0078 251.569 93.0078C251.119 93.0078 250.77 93.1463 250.521 93.4233C250.271 93.6972 250.147 94.0496 250.147 94.4805V99H248.771V94.2866C248.771 93.9019 248.651 93.5926 248.411 93.3587C248.171 93.1248 247.859 93.0078 247.474 93.0078C247.212 93.0078 246.971 93.0771 246.749 93.2156C246.531 93.351 246.354 93.5402 246.218 93.7834C246.086 94.0265 246.02 94.3081 246.02 94.6282V99H244.639ZM259.185 99.1431C258.486 99.1431 257.884 98.9938 257.38 98.6953C256.878 98.3937 256.49 97.9705 256.216 97.4258C255.945 96.878 255.81 96.2363 255.81 95.5007C255.81 94.7744 255.945 94.1342 256.216 93.5803C256.49 93.0263 256.872 92.5939 257.361 92.283C257.854 91.9722 258.429 91.8168 259.088 91.8168C259.488 91.8168 259.876 91.8829 260.251 92.0153C260.627 92.1476 260.964 92.3554 261.262 92.6385C261.561 92.9216 261.796 93.2894 261.968 93.7418C262.141 94.1912 262.227 94.7375 262.227 95.3807V95.87H256.59V94.8359H260.874C260.874 94.4728 260.8 94.1512 260.653 93.8711C260.505 93.5879 260.297 93.3648 260.03 93.2017C259.765 93.0386 259.454 92.957 259.097 92.957C258.709 92.957 258.371 93.0524 258.081 93.2433C257.795 93.431 257.574 93.6772 257.417 93.9819C257.263 94.2835 257.186 94.6113 257.186 94.9652V95.7731C257.186 96.247 257.269 96.6502 257.435 96.9826C257.604 97.315 257.84 97.5689 258.141 97.7443C258.443 97.9167 258.795 98.0028 259.199 98.0028C259.46 98.0028 259.699 97.9659 259.914 97.892C260.13 97.8151 260.316 97.7012 260.473 97.5504C260.63 97.3996 260.75 97.2134 260.833 96.9918L262.139 97.2273C262.035 97.612 261.847 97.949 261.576 98.2383C261.308 98.5245 260.971 98.7476 260.565 98.9077C260.162 99.0646 259.702 99.1431 259.185 99.1431ZM270.172 101.807C269.609 101.807 269.124 101.733 268.718 101.585C268.315 101.438 267.985 101.242 267.73 100.999C267.474 100.756 267.284 100.49 267.157 100.2L268.344 99.7109C268.427 99.8464 268.538 99.9895 268.676 100.14C268.818 100.294 269.009 100.425 269.249 100.533C269.492 100.64 269.804 100.694 270.186 100.694C270.709 100.694 271.141 100.567 271.483 100.311C271.825 100.059 271.995 99.6555 271.995 99.1016V97.7074H271.908C271.825 97.8582 271.705 98.0259 271.548 98.2106C271.394 98.3952 271.181 98.5553 270.911 98.6907C270.64 98.8261 270.287 98.8938 269.853 98.8938C269.293 98.8938 268.789 98.763 268.339 98.5014C267.893 98.2367 267.539 97.8474 267.277 97.3335C267.019 96.8164 266.89 96.1809 266.89 95.4268C266.89 94.6728 267.017 94.0265 267.273 93.4879C267.531 92.9493 267.885 92.5369 268.335 92.2507C268.784 91.9614 269.293 91.8168 269.863 91.8168C270.303 91.8168 270.658 91.8906 270.929 92.0384C271.2 92.183 271.411 92.3523 271.561 92.5462C271.715 92.7401 271.834 92.9109 271.917 93.0586H272.019V91.9091H273.371V99.157C273.371 99.7663 273.23 100.266 272.946 100.657C272.663 101.048 272.28 101.337 271.797 101.525C271.317 101.713 270.775 101.807 270.172 101.807ZM270.158 97.7489C270.555 97.7489 270.891 97.6566 271.164 97.4719C271.441 97.2842 271.651 97.0165 271.792 96.6687C271.937 96.3178 272.009 95.8977 272.009 95.4084C272.009 94.9313 271.938 94.5112 271.797 94.1481C271.655 93.7849 271.448 93.5018 271.174 93.2987C270.9 93.0924 270.561 92.9893 270.158 92.9893C269.743 92.9893 269.396 93.0971 269.119 93.3125C268.842 93.5249 268.633 93.8142 268.492 94.1804C268.353 94.5466 268.284 94.956 268.284 95.4084C268.284 95.8731 268.355 96.2809 268.496 96.6317C268.638 96.9826 268.847 97.2565 269.124 97.4535C269.404 97.6504 269.749 97.7489 270.158 97.7489ZM279.714 96.0593V91.9091H281.099V99H279.742V97.772H279.668C279.505 98.1506 279.243 98.466 278.883 98.7184C278.526 98.9677 278.081 99.0923 277.549 99.0923C277.094 99.0923 276.69 98.9923 276.34 98.7923C275.992 98.5891 275.718 98.2891 275.518 97.892C275.321 97.495 275.222 97.0041 275.222 96.4194V91.9091H276.603V96.2532C276.603 96.7364 276.737 97.1211 277.004 97.4073C277.272 97.6935 277.62 97.8366 278.048 97.8366C278.306 97.8366 278.563 97.772 278.819 97.6428C279.077 97.5135 279.291 97.3181 279.46 97.0565C279.633 96.7949 279.717 96.4625 279.714 96.0593ZM288.267 93.6403L287.016 93.8619C286.964 93.7018 286.881 93.5495 286.767 93.4048C286.656 93.2602 286.505 93.1417 286.315 93.0494C286.124 92.957 285.885 92.9109 285.599 92.9109C285.208 92.9109 284.882 92.9986 284.62 93.174C284.359 93.3464 284.228 93.5695 284.228 93.8434C284.228 94.0804 284.316 94.2712 284.491 94.4158C284.667 94.5605 284.95 94.679 285.341 94.7713L286.467 95.0298C287.119 95.1806 287.606 95.413 287.926 95.7269C288.246 96.0408 288.406 96.4486 288.406 96.9503C288.406 97.375 288.283 97.7536 288.037 98.0859C287.793 98.4152 287.453 98.6738 287.016 98.8615C286.582 99.0492 286.079 99.1431 285.507 99.1431C284.713 99.1431 284.065 98.9738 283.563 98.6353C283.062 98.2937 282.754 97.8089 282.64 97.1811L283.974 96.978C284.057 97.3258 284.228 97.5889 284.486 97.7674C284.745 97.9428 285.082 98.0305 285.497 98.0305C285.95 98.0305 286.312 97.9367 286.582 97.7489C286.853 97.5581 286.989 97.3258 286.989 97.0518C286.989 96.8303 286.905 96.6441 286.739 96.4933C286.576 96.3424 286.325 96.2286 285.987 96.1516L284.787 95.8885C284.125 95.7377 283.635 95.4976 283.318 95.1683C283.005 94.839 282.848 94.422 282.848 93.9173C282.848 93.4987 282.965 93.1325 283.198 92.8185C283.432 92.5046 283.756 92.2599 284.168 92.0845C284.58 91.906 285.053 91.8168 285.585 91.8168C286.352 91.8168 286.955 91.983 287.395 92.3153C287.835 92.6446 288.126 93.0863 288.267 93.6403ZM293.234 91.9091V93.017H289.36V91.9091H293.234ZM290.399 90.2102H291.779V96.918C291.779 97.1857 291.819 97.3873 291.899 97.5227C291.979 97.6551 292.082 97.7459 292.209 97.7951C292.338 97.8413 292.478 97.8643 292.629 97.8643C292.74 97.8643 292.837 97.8567 292.92 97.8413C293.003 97.8259 293.067 97.8136 293.114 97.8043L293.363 98.9446C293.283 98.9754 293.169 99.0062 293.021 99.0369C292.873 99.0708 292.689 99.0893 292.467 99.0923C292.104 99.0985 291.765 99.0339 291.452 98.8984C291.138 98.763 290.884 98.5537 290.69 98.2706C290.496 97.9875 290.399 97.632 290.399 97.2042V90.2102ZM296.824 99.157C296.375 99.157 295.968 99.0739 295.605 98.9077C295.242 98.7384 294.954 98.4937 294.742 98.1737C294.533 97.8536 294.428 97.4612 294.428 96.9964C294.428 96.5964 294.505 96.267 294.659 96.0085C294.813 95.75 295.02 95.5453 295.282 95.3945C295.544 95.2437 295.836 95.1299 296.159 95.0529C296.482 94.976 296.812 94.9175 297.147 94.8775C297.572 94.8282 297.917 94.7882 298.181 94.7575C298.446 94.7236 298.638 94.6697 298.758 94.5959C298.878 94.522 298.938 94.402 298.938 94.2358V94.2035C298.938 93.8003 298.824 93.4879 298.597 93.2663C298.372 93.0447 298.037 92.9339 297.59 92.9339C297.126 92.9339 296.759 93.037 296.492 93.2433C296.227 93.4464 296.044 93.6726 295.942 93.9219L294.645 93.6264C294.799 93.1955 295.024 92.8478 295.319 92.5831C295.618 92.3153 295.961 92.1214 296.348 92.0014C296.736 91.8783 297.144 91.8168 297.572 91.8168C297.855 91.8168 298.155 91.8506 298.472 91.9183C298.792 91.983 299.091 92.103 299.368 92.2784C299.648 92.4538 299.877 92.7047 300.056 93.0309C300.234 93.354 300.323 93.7741 300.323 94.2912V99H298.975V98.0305H298.92C298.831 98.209 298.697 98.3845 298.518 98.5568C298.34 98.7292 298.11 98.8723 297.83 98.9862C297.55 99.1 297.215 99.157 296.824 99.157ZM297.124 98.049C297.506 98.049 297.832 97.9736 298.103 97.8228C298.377 97.672 298.584 97.475 298.726 97.2319C298.871 96.9857 298.943 96.7225 298.943 96.4425V95.5284C298.894 95.5777 298.798 95.6238 298.657 95.6669C298.518 95.7069 298.36 95.7423 298.181 95.7731C298.003 95.8008 297.829 95.8269 297.66 95.8516C297.49 95.8731 297.349 95.8916 297.235 95.907C296.967 95.9408 296.722 95.9978 296.501 96.0778C296.282 96.1578 296.107 96.2732 295.975 96.424C295.845 96.5717 295.781 96.7687 295.781 97.0149C295.781 97.3565 295.907 97.6151 296.159 97.7905C296.412 97.9628 296.733 98.049 297.124 98.049Z" fill="black"/>
<line y1="-1" x2="193.484" y2="-1" transform="matrix(0.999974 0.0072339 -0.00793331 0.999969 0.46582 101.13)" stroke="#FF0000" stroke-width="2"/>
</svg>
