<svg width="365" height="127" viewBox="0 0 365 127" fill="none" xmlns="http://www.w3.org/2000/svg">
<path d="M223.765 55.5455H225.496L228.506 62.8949H228.617L231.627 55.5455H233.358V65H232.001V58.1584H231.913L229.125 64.9862H227.998L225.21 58.1538H225.122V65H223.765V55.5455ZM238.377 65.1431C237.678 65.1431 237.077 64.9938 236.572 64.6953C236.07 64.3937 235.683 63.9705 235.409 63.4258C235.138 62.878 235.002 62.2363 235.002 61.5007C235.002 60.7744 235.138 60.1342 235.409 59.5803C235.683 59.0263 236.064 58.5939 236.554 58.283C237.046 57.9722 237.622 57.8168 238.28 57.8168C238.68 57.8168 239.068 57.8829 239.443 58.0153C239.819 58.1476 240.156 58.3554 240.455 58.6385C240.753 58.9216 240.988 59.2894 241.161 59.7418C241.333 60.1912 241.419 60.7375 241.419 61.3807V61.87H235.783V60.8359H240.067C240.067 60.4728 239.993 60.1512 239.845 59.8711C239.697 59.5879 239.49 59.3648 239.222 59.2017C238.957 59.0386 238.646 58.957 238.289 58.957C237.902 58.957 237.563 59.0524 237.274 59.2433C236.988 59.431 236.766 59.6772 236.609 59.9819C236.455 60.2835 236.378 60.6113 236.378 60.9652V61.7731C236.378 62.247 236.461 62.6502 236.627 62.9826C236.797 63.315 237.032 63.5689 237.334 63.7443C237.635 63.9167 237.988 64.0028 238.391 64.0028C238.653 64.0028 238.891 63.9659 239.106 63.892C239.322 63.8151 239.508 63.7012 239.665 63.5504C239.822 63.3996 239.942 63.2134 240.025 62.9918L241.332 63.2273C241.227 63.612 241.039 63.949 240.768 64.2383C240.501 64.5245 240.164 64.7476 239.757 64.9077C239.354 65.0646 238.894 65.1431 238.377 65.1431ZM249.364 67.8068C248.801 67.8068 248.316 67.733 247.91 67.5852C247.507 67.4375 247.178 67.2421 246.922 66.9989C246.667 66.7558 246.476 66.4896 246.35 66.2003L247.536 65.7109C247.619 65.8464 247.73 65.9895 247.869 66.1403C248.01 66.2942 248.201 66.425 248.441 66.5327C248.684 66.6404 248.997 66.6942 249.378 66.6942C249.901 66.6942 250.334 66.5665 250.675 66.3111C251.017 66.0587 251.188 65.6555 251.188 65.1016V63.7074H251.1C251.017 63.8582 250.897 64.0259 250.74 64.2106C250.586 64.3952 250.374 64.5553 250.103 64.6907C249.832 64.8261 249.48 64.8938 249.046 64.8938C248.486 64.8938 247.981 64.763 247.532 64.5014C247.085 64.2367 246.731 63.8474 246.47 63.3335C246.211 62.8164 246.082 62.1809 246.082 61.4268C246.082 60.6728 246.21 60.0265 246.465 59.4879C246.724 58.9493 247.078 58.5369 247.527 58.2507C247.976 57.9614 248.486 57.8168 249.055 57.8168C249.495 57.8168 249.851 57.8906 250.121 58.0384C250.392 58.183 250.603 58.3523 250.754 58.5462C250.908 58.7401 251.026 58.9109 251.109 59.0586H251.211V57.9091H252.564V65.157C252.564 65.7663 252.422 66.2665 252.139 66.6573C251.856 67.0482 251.472 67.3375 250.989 67.5252C250.509 67.7129 249.968 67.8068 249.364 67.8068ZM249.35 63.7489C249.747 63.7489 250.083 63.6566 250.357 63.4719C250.634 63.2842 250.843 63.0165 250.985 62.6687C251.129 62.3178 251.202 61.8977 251.202 61.4084C251.202 60.9313 251.131 60.5112 250.989 60.1481C250.848 59.7849 250.64 59.5018 250.366 59.2987C250.092 59.0924 249.754 58.9893 249.35 58.9893C248.935 58.9893 248.589 59.0971 248.312 59.3125C248.035 59.5249 247.825 59.8142 247.684 60.1804C247.545 60.5466 247.476 60.956 247.476 61.4084C247.476 61.8731 247.547 62.2809 247.689 62.6317C247.83 62.9826 248.039 63.2565 248.316 63.4535C248.596 63.6504 248.941 63.7489 249.35 63.7489ZM258.907 62.0593V57.9091H260.292V65H258.934V63.772H258.86C258.697 64.1506 258.436 64.466 258.076 64.7184C257.719 64.9677 257.274 65.0923 256.741 65.0923C256.286 65.0923 255.883 64.9923 255.532 64.7923C255.184 64.5891 254.91 64.2891 254.71 63.892C254.513 63.495 254.415 63.0041 254.415 62.4194V57.9091H255.795V62.2532C255.795 62.7364 255.929 63.1211 256.197 63.4073C256.464 63.6935 256.812 63.8366 257.24 63.8366C257.499 63.8366 257.756 63.772 258.011 63.6428C258.269 63.5135 258.483 63.3181 258.653 63.0565C258.825 62.7949 258.91 62.4625 258.907 62.0593ZM267.46 59.6403L266.209 59.8619C266.156 59.7018 266.073 59.5495 265.959 59.4048C265.849 59.2602 265.698 59.1417 265.507 59.0494C265.316 58.957 265.078 58.9109 264.791 58.9109C264.401 58.9109 264.074 58.9986 263.813 59.174C263.551 59.3464 263.42 59.5695 263.42 59.8434C263.42 60.0804 263.508 60.2712 263.683 60.4158C263.859 60.5605 264.142 60.679 264.533 60.7713L265.659 61.0298C266.312 61.1806 266.798 61.413 267.118 61.7269C267.438 62.0408 267.598 62.4486 267.598 62.9503C267.598 63.375 267.475 63.7536 267.229 64.0859C266.986 64.4152 266.646 64.6738 266.209 64.8615C265.775 65.0492 265.272 65.1431 264.699 65.1431C263.905 65.1431 263.257 64.9738 262.756 64.6353C262.254 64.2937 261.946 63.8089 261.832 63.1811L263.166 62.978C263.25 63.3258 263.42 63.5889 263.679 63.7674C263.937 63.9428 264.274 64.0305 264.69 64.0305C265.142 64.0305 265.504 63.9367 265.775 63.7489C266.046 63.5581 266.181 63.3258 266.181 63.0518C266.181 62.8303 266.098 62.6441 265.932 62.4933C265.769 62.3424 265.518 62.2286 265.179 62.1516L263.979 61.8885C263.317 61.7377 262.828 61.4976 262.511 61.1683C262.197 60.839 262.04 60.422 262.04 59.9173C262.04 59.4987 262.157 59.1325 262.391 58.8185C262.625 58.5046 262.948 58.2599 263.36 58.0845C263.773 57.906 264.245 57.8168 264.778 57.8168C265.544 57.8168 266.147 57.983 266.587 58.3153C267.027 58.6446 267.318 59.0863 267.46 59.6403ZM272.426 57.9091V59.017H268.553V57.9091H272.426ZM269.591 56.2102H270.972V62.918C270.972 63.1857 271.012 63.3873 271.092 63.5227C271.172 63.6551 271.275 63.7459 271.401 63.7951C271.53 63.8413 271.67 63.8643 271.821 63.8643C271.932 63.8643 272.029 63.8567 272.112 63.8413C272.195 63.8259 272.26 63.8136 272.306 63.8043L272.555 64.9446C272.475 64.9754 272.361 65.0062 272.214 65.0369C272.066 65.0708 271.881 65.0893 271.66 65.0923C271.296 65.0985 270.958 65.0339 270.644 64.8984C270.33 64.763 270.076 64.5537 269.882 64.2706C269.688 63.9875 269.591 63.632 269.591 63.2042V56.2102ZM276.016 65.157C275.567 65.157 275.161 65.0739 274.798 64.9077C274.434 64.7384 274.147 64.4937 273.934 64.1737C273.725 63.8536 273.62 63.4612 273.62 62.9964C273.62 62.5964 273.697 62.267 273.851 62.0085C274.005 61.75 274.213 61.5453 274.474 61.3945C274.736 61.2437 275.028 61.1299 275.352 61.0529C275.675 60.976 276.004 60.9175 276.34 60.8775C276.764 60.8282 277.109 60.7882 277.374 60.7575C277.638 60.7236 277.831 60.6697 277.951 60.5959C278.071 60.522 278.131 60.402 278.131 60.2358V60.2035C278.131 59.8003 278.017 59.4879 277.789 59.2663C277.564 59.0447 277.229 58.9339 276.783 58.9339C276.318 58.9339 275.952 59.037 275.684 59.2433C275.419 59.4464 275.236 59.6726 275.135 59.9219L273.837 59.6264C273.991 59.1955 274.216 58.8478 274.511 58.5831C274.81 58.3153 275.153 58.1214 275.541 58.0014C275.929 57.8783 276.336 57.8168 276.764 57.8168C277.047 57.8168 277.347 57.8506 277.664 57.9183C277.985 57.983 278.283 58.103 278.56 58.2784C278.84 58.4538 279.069 58.7047 279.248 59.0309C279.426 59.354 279.516 59.7741 279.516 60.2912V65H278.168V64.0305H278.112C278.023 64.209 277.889 64.3845 277.711 64.5568C277.532 64.7292 277.303 64.8723 277.023 64.9862C276.743 65.1 276.407 65.157 276.016 65.157ZM276.316 64.049C276.698 64.049 277.024 63.9736 277.295 63.8228C277.569 63.672 277.777 63.475 277.918 63.2319C278.063 62.9857 278.135 62.7225 278.135 62.4425V61.5284C278.086 61.5777 277.991 61.6238 277.849 61.6669C277.711 61.7069 277.552 61.7423 277.374 61.7731C277.195 61.8008 277.021 61.8269 276.852 61.8516C276.683 61.8731 276.541 61.8916 276.427 61.907C276.159 61.9408 275.915 61.9978 275.693 62.0778C275.475 62.1578 275.299 62.2732 275.167 62.424C275.038 62.5717 274.973 62.7687 274.973 63.0149C274.973 63.3565 275.099 63.6151 275.352 63.7905C275.604 63.9628 275.926 64.049 276.316 64.049Z" fill="black"/>
<path d="M134.46 9.09943C134.341 8.71591 134.178 8.37263 133.97 8.0696C133.766 7.76184 133.52 7.49905 133.231 7.28125C132.947 7.06345 132.62 6.90009 132.251 6.79119C131.882 6.67756 131.479 6.62074 131.044 6.62074C130.262 6.62074 129.566 6.81723 128.955 7.21023C128.345 7.60322 127.864 8.18087 127.514 8.94318C127.168 9.70076 126.995 10.6241 126.995 11.7131C126.995 12.8116 127.168 13.742 127.514 14.5043C127.859 15.2666 128.34 15.8466 128.955 16.2443C129.571 16.6373 130.286 16.8338 131.1 16.8338C131.839 16.8338 132.478 16.6918 133.018 16.4077C133.562 16.1236 133.982 15.7211 134.275 15.2003C134.569 14.6747 134.715 14.0592 134.715 13.3537L135.312 13.446H131.363V11.3864H137.265V13.1335C137.265 14.3788 137 15.456 136.47 16.3651C135.939 17.2741 135.21 17.9749 134.282 18.4673C133.354 18.955 132.289 19.1989 131.086 19.1989C129.746 19.1989 128.57 18.8982 127.556 18.2969C126.548 17.6908 125.759 16.8314 125.191 15.7188C124.628 14.6013 124.346 13.2756 124.346 11.7415C124.346 10.5672 124.512 9.51847 124.843 8.59517C125.179 7.67188 125.648 6.88826 126.25 6.24432C126.851 5.59564 127.556 5.10322 128.366 4.76705C129.176 4.42614 130.056 4.25568 131.008 4.25568C131.813 4.25568 132.563 4.37405 133.259 4.6108C133.955 4.8428 134.573 5.17424 135.113 5.60511C135.658 6.03598 136.105 6.54735 136.455 7.1392C136.806 7.73106 137.035 8.38447 137.144 9.09943H134.46ZM146.653 14.4119V8.09091H149.224V19H146.731V17.0611H146.617C146.371 17.6719 145.966 18.1714 145.403 18.5597C144.844 18.9479 144.155 19.142 143.336 19.142C142.621 19.142 141.989 18.9834 141.439 18.6662C140.895 18.3442 140.469 17.8778 140.161 17.267C139.853 16.6515 139.699 15.9081 139.699 15.0369V8.09091H142.27V14.6392C142.27 15.3305 142.46 15.8797 142.839 16.2869C143.217 16.6941 143.715 16.8977 144.33 16.8977C144.709 16.8977 145.076 16.8054 145.431 16.6207C145.786 16.4361 146.077 16.1615 146.305 15.7969C146.537 15.4276 146.653 14.9659 146.653 14.4119ZM160.49 10.9744L158.146 11.2301C158.08 10.9934 157.964 10.7708 157.798 10.5625C157.637 10.3542 157.419 10.1861 157.144 10.0582C156.87 9.9304 156.534 9.86648 156.136 9.86648C155.601 9.86648 155.151 9.98248 154.786 10.2145C154.427 10.4465 154.249 10.7472 154.254 11.1165C154.249 11.4337 154.365 11.6918 154.602 11.8906C154.843 12.0895 155.241 12.2528 155.795 12.3807L157.656 12.7784C158.688 13.0009 159.455 13.3537 159.957 13.8366C160.464 14.3196 160.719 14.9517 160.724 15.733C160.719 16.4195 160.518 17.0256 160.12 17.5511C159.727 18.072 159.18 18.4792 158.48 18.7727C157.779 19.0663 156.974 19.2131 156.065 19.2131C154.73 19.2131 153.655 18.9337 152.84 18.375C152.026 17.8116 151.541 17.0279 151.384 16.0241L153.892 15.7827C154.005 16.2751 154.247 16.6468 154.616 16.8977C154.985 17.1487 155.466 17.2741 156.058 17.2741C156.669 17.2741 157.159 17.1487 157.528 16.8977C157.902 16.6468 158.089 16.3366 158.089 15.9673C158.089 15.6548 157.968 15.3968 157.727 15.1932C157.49 14.9896 157.121 14.8333 156.619 14.7244L154.758 14.3338C153.712 14.116 152.937 13.7491 152.436 13.233C151.934 12.7121 151.685 12.054 151.69 11.2585C151.685 10.5862 151.867 10.0038 152.237 9.51136C152.611 9.0142 153.129 8.63068 153.792 8.3608C154.46 8.08617 155.229 7.94886 156.1 7.94886C157.379 7.94886 158.385 8.22112 159.119 8.76562C159.857 9.31013 160.314 10.0464 160.49 10.9744ZM168.291 8.09091V10.0795H162.02V8.09091H168.291ZM163.568 5.47727H166.139V15.7188C166.139 16.0644 166.192 16.3295 166.296 16.5142C166.405 16.6941 166.547 16.8172 166.722 16.8835C166.897 16.9498 167.091 16.983 167.304 16.983C167.465 16.983 167.612 16.9711 167.745 16.9474C167.882 16.9238 167.986 16.9025 168.057 16.8835L168.49 18.8935C168.353 18.9408 168.156 18.9929 167.901 19.0497C167.65 19.1065 167.342 19.1397 166.977 19.1491C166.334 19.1681 165.754 19.071 165.237 18.858C164.721 18.6402 164.312 18.304 164.009 17.8494C163.71 17.3949 163.564 16.8267 163.568 16.1449V5.47727ZM175.083 19.2131C174.018 19.2131 173.094 18.9787 172.313 18.5099C171.532 18.0412 170.926 17.3854 170.495 16.5426C170.069 15.6998 169.856 14.715 169.856 13.5881C169.856 12.4612 170.069 11.474 170.495 10.6264C170.926 9.77888 171.532 9.12074 172.313 8.65199C173.094 8.18324 174.018 7.94886 175.083 7.94886C176.148 7.94886 177.072 8.18324 177.853 8.65199C178.634 9.12074 179.238 9.77888 179.664 10.6264C180.095 11.474 180.31 12.4612 180.31 13.5881C180.31 14.715 180.095 15.6998 179.664 16.5426C179.238 17.3854 178.634 18.0412 177.853 18.5099C177.072 18.9787 176.148 19.2131 175.083 19.2131ZM175.097 17.1534C175.675 17.1534 176.158 16.9948 176.546 16.6776C176.934 16.3556 177.223 15.9247 177.413 15.3849C177.607 14.8452 177.704 14.2438 177.704 13.581C177.704 12.9134 177.607 12.3097 177.413 11.7699C177.223 11.2254 176.934 10.7921 176.546 10.4702C176.158 10.1482 175.675 9.98722 175.097 9.98722C174.505 9.98722 174.013 10.1482 173.62 10.4702C173.232 10.7921 172.94 11.2254 172.746 11.7699C172.557 12.3097 172.462 12.9134 172.462 13.581C172.462 14.2438 172.557 14.8452 172.746 15.3849C172.94 15.9247 173.232 16.3556 173.62 16.6776C174.013 16.9948 174.505 17.1534 175.097 17.1534Z" fill="black"/>
<line y1="-1" x2="193.484" y2="-1" transform="matrix(0.999974 0.0072339 -0.00793331 0.999969 1 68.9384)" stroke="#32FF00" stroke-width="2"/>
<path d="M231.396 89.5455V99H230.085L225.279 92.0661H225.191V99H223.765V89.5455H225.085L229.895 96.4886H229.983V89.5455H231.396ZM236.353 99.1431C235.688 99.1431 235.108 98.9908 234.612 98.6861C234.117 98.3814 233.732 97.9551 233.458 97.4073C233.184 96.8595 233.047 96.2193 233.047 95.4869C233.047 94.7513 233.184 94.1081 233.458 93.5572C233.732 93.0063 234.117 92.5785 234.612 92.2738C235.108 91.9691 235.688 91.8168 236.353 91.8168C237.018 91.8168 237.598 91.9691 238.093 92.2738C238.589 92.5785 238.973 93.0063 239.247 93.5572C239.521 94.1081 239.658 94.7513 239.658 95.4869C239.658 96.2193 239.521 96.8595 239.247 97.4073C238.973 97.9551 238.589 98.3814 238.093 98.6861C237.598 98.9908 237.018 99.1431 236.353 99.1431ZM236.357 97.9844C236.788 97.9844 237.145 97.8705 237.428 97.6428C237.712 97.415 237.921 97.1119 238.056 96.7333C238.195 96.3548 238.264 95.9377 238.264 95.4822C238.264 95.0298 238.195 94.6143 238.056 94.2358C237.921 93.8542 237.712 93.5479 237.428 93.3171C237.145 93.0863 236.788 92.9709 236.357 92.9709C235.923 92.9709 235.563 93.0863 235.277 93.3171C234.994 93.5479 234.783 93.8542 234.645 94.2358C234.509 94.6143 234.442 95.0298 234.442 95.4822C234.442 95.9377 234.509 96.3548 234.645 96.7333C234.783 97.1119 234.994 97.415 235.277 97.6428C235.563 97.8705 235.923 97.9844 236.357 97.9844ZM244.639 99V91.9091H245.964V93.0632H246.052C246.2 92.6723 246.441 92.3677 246.777 92.1491C247.112 91.9276 247.514 91.8168 247.982 91.8168C248.456 91.8168 248.853 91.9276 249.173 92.1491C249.496 92.3707 249.734 92.6754 249.888 93.0632H249.962C250.131 92.6847 250.401 92.383 250.77 92.1584C251.139 91.9306 251.579 91.8168 252.09 91.8168C252.734 91.8168 253.258 92.0183 253.665 92.4215C254.074 92.8247 254.279 93.4325 254.279 94.245V99H252.898V94.3743C252.898 93.8942 252.767 93.5464 252.506 93.331C252.244 93.1155 251.932 93.0078 251.569 93.0078C251.119 93.0078 250.77 93.1463 250.521 93.4233C250.271 93.6972 250.147 94.0496 250.147 94.4805V99H248.771V94.2866C248.771 93.9019 248.651 93.5926 248.411 93.3587C248.171 93.1248 247.859 93.0078 247.474 93.0078C247.212 93.0078 246.971 93.0771 246.749 93.2156C246.531 93.351 246.354 93.5402 246.218 93.7834C246.086 94.0265 246.02 94.3081 246.02 94.6282V99H244.639ZM259.185 99.1431C258.486 99.1431 257.884 98.9938 257.38 98.6953C256.878 98.3937 256.49 97.9705 256.216 97.4258C255.945 96.878 255.81 96.2363 255.81 95.5007C255.81 94.7744 255.945 94.1342 256.216 93.5803C256.49 93.0263 256.872 92.5939 257.361 92.283C257.854 91.9722 258.429 91.8168 259.088 91.8168C259.488 91.8168 259.876 91.8829 260.251 92.0153C260.627 92.1476 260.964 92.3554 261.262 92.6385C261.561 92.9216 261.796 93.2894 261.968 93.7418C262.141 94.1912 262.227 94.7375 262.227 95.3807V95.87H256.59V94.8359H260.874C260.874 94.4728 260.8 94.1512 260.653 93.8711C260.505 93.5879 260.297 93.3648 260.03 93.2017C259.765 93.0386 259.454 92.957 259.097 92.957C258.709 92.957 258.371 93.0524 258.081 93.2433C257.795 93.431 257.574 93.6772 257.417 93.9819C257.263 94.2835 257.186 94.6113 257.186 94.9652V95.7731C257.186 96.247 257.269 96.6502 257.435 96.9826C257.604 97.315 257.84 97.5689 258.141 97.7443C258.443 97.9167 258.795 98.0028 259.199 98.0028C259.46 98.0028 259.699 97.9659 259.914 97.892C260.13 97.8151 260.316 97.7012 260.473 97.5504C260.63 97.3996 260.75 97.2134 260.833 96.9918L262.139 97.2273C262.035 97.612 261.847 97.949 261.576 98.2383C261.308 98.5245 260.971 98.7476 260.565 98.9077C260.162 99.0646 259.702 99.1431 259.185 99.1431ZM270.172 101.807C269.609 101.807 269.124 101.733 268.718 101.585C268.315 101.438 267.985 101.242 267.73 100.999C267.474 100.756 267.284 100.49 267.157 100.2L268.344 99.7109C268.427 99.8464 268.538 99.9895 268.676 100.14C268.818 100.294 269.009 100.425 269.249 100.533C269.492 100.64 269.804 100.694 270.186 100.694C270.709 100.694 271.141 100.567 271.483 100.311C271.825 100.059 271.995 99.6555 271.995 99.1016V97.7074H271.908C271.825 97.8582 271.705 98.0259 271.548 98.2106C271.394 98.3952 271.181 98.5553 270.911 98.6907C270.64 98.8261 270.287 98.8938 269.853 98.8938C269.293 98.8938 268.789 98.763 268.339 98.5014C267.893 98.2367 267.539 97.8474 267.277 97.3335C267.019 96.8164 266.89 96.1809 266.89 95.4268C266.89 94.6728 267.017 94.0265 267.273 93.4879C267.531 92.9493 267.885 92.5369 268.335 92.2507C268.784 91.9614 269.293 91.8168 269.863 91.8168C270.303 91.8168 270.658 91.8906 270.929 92.0384C271.2 92.183 271.411 92.3523 271.561 92.5462C271.715 92.7401 271.834 92.9109 271.917 93.0586H272.019V91.9091H273.371V99.157C273.371 99.7663 273.23 100.266 272.946 100.657C272.663 101.048 272.28 101.337 271.797 101.525C271.317 101.713 270.775 101.807 270.172 101.807ZM270.158 97.7489C270.555 97.7489 270.891 97.6566 271.164 97.4719C271.441 97.2842 271.651 97.0165 271.792 96.6687C271.937 96.3178 272.009 95.8977 272.009 95.4084C272.009 94.9313 271.938 94.5112 271.797 94.1481C271.655 93.7849 271.448 93.5018 271.174 93.2987C270.9 93.0924 270.561 92.9893 270.158 92.9893C269.743 92.9893 269.396 93.0971 269.119 93.3125C268.842 93.5249 268.633 93.8142 268.492 94.1804C268.353 94.5466 268.284 94.956 268.284 95.4084C268.284 95.8731 268.355 96.2809 268.496 96.6317C268.638 96.9826 268.847 97.2565 269.124 97.4535C269.404 97.6504 269.749 97.7489 270.158 97.7489ZM279.714 96.0593V91.9091H281.099V99H279.742V97.772H279.668C279.505 98.1506 279.243 98.466 278.883 98.7184C278.526 98.9677 278.081 99.0923 277.549 99.0923C277.094 99.0923 276.69 98.9923 276.34 98.7923C275.992 98.5891 275.718 98.2891 275.518 97.892C275.321 97.495 275.222 97.0041 275.222 96.4194V91.9091H276.603V96.2532C276.603 96.7364 276.737 97.1211 277.004 97.4073C277.272 97.6935 277.62 97.8366 278.048 97.8366C278.306 97.8366 278.563 97.772 278.819 97.6428C279.077 97.5135 279.291 97.3181 279.46 97.0565C279.633 96.7949 279.717 96.4625 279.714 96.0593ZM288.267 93.6403L287.016 93.8619C286.964 93.7018 286.881 93.5495 286.767 93.4048C286.656 93.2602 286.505 93.1417 286.315 93.0494C286.124 92.957 285.885 92.9109 285.599 92.9109C285.208 92.9109 284.882 92.9986 284.62 93.174C284.359 93.3464 284.228 93.5695 284.228 93.8434C284.228 94.0804 284.316 94.2712 284.491 94.4158C284.667 94.5605 284.95 94.679 285.341 94.7713L286.467 95.0298C287.119 95.1806 287.606 95.413 287.926 95.7269C288.246 96.0408 288.406 96.4486 288.406 96.9503C288.406 97.375 288.283 97.7536 288.037 98.0859C287.793 98.4152 287.453 98.6738 287.016 98.8615C286.582 99.0492 286.079 99.1431 285.507 99.1431C284.713 99.1431 284.065 98.9738 283.563 98.6353C283.062 98.2937 282.754 97.8089 282.64 97.1811L283.974 96.978C284.057 97.3258 284.228 97.5889 284.486 97.7674C284.745 97.9428 285.082 98.0305 285.497 98.0305C285.95 98.0305 286.312 97.9367 286.582 97.7489C286.853 97.5581 286.989 97.3258 286.989 97.0518C286.989 96.8303 286.905 96.6441 286.739 96.4933C286.576 96.3424 286.325 96.2286 285.987 96.1516L284.787 95.8885C284.125 95.7377 283.635 95.4976 283.318 95.1683C283.005 94.839 282.848 94.422 282.848 93.9173C282.848 93.4987 282.965 93.1325 283.198 92.8185C283.432 92.5046 283.756 92.2599 284.168 92.0845C284.58 91.906 285.053 91.8168 285.585 91.8168C286.352 91.8168 286.955 91.983 287.395 92.3153C287.835 92.6446 288.126 93.0863 288.267 93.6403ZM293.234 91.9091V93.017H289.36V91.9091H293.234ZM290.399 90.2102H291.779V96.918C291.779 97.1857 291.819 97.3873 291.899 97.5227C291.979 97.6551 292.082 97.7459 292.209 97.7951C292.338 97.8413 292.478 97.8643 292.629 97.8643C292.74 97.8643 292.837 97.8567 292.92 97.8413C293.003 97.8259 293.067 97.8136 293.114 97.8043L293.363 98.9446C293.283 98.9754 293.169 99.0062 293.021 99.0369C292.873 99.0708 292.689 99.0893 292.467 99.0923C292.104 99.0985 291.765 99.0339 291.452 98.8984C291.138 98.763 290.884 98.5537 290.69 98.2706C290.496 97.9875 290.399 97.632 290.399 97.2042V90.2102ZM296.824 99.157C296.375 99.157 295.968 99.0739 295.605 98.9077C295.242 98.7384 294.954 98.4937 294.742 98.1737C294.533 97.8536 294.428 97.4612 294.428 96.9964C294.428 96.5964 294.505 96.267 294.659 96.0085C294.813 95.75 295.02 95.5453 295.282 95.3945C295.544 95.2437 295.836 95.1299 296.159 95.0529C296.482 94.976 296.812 94.9175 297.147 94.8775C297.572 94.8282 297.917 94.7882 298.181 94.7575C298.446 94.7236 298.638 94.6697 298.758 94.5959C298.878 94.522 298.938 94.402 298.938 94.2358V94.2035C298.938 93.8003 298.824 93.4879 298.597 93.2663C298.372 93.0447 298.037 92.9339 297.59 92.9339C297.126 92.9339 296.759 93.037 296.492 93.2433C296.227 93.4464 296.044 93.6726 295.942 93.9219L294.645 93.6264C294.799 93.1955 295.024 92.8478 295.319 92.5831C295.618 92.3153 295.961 92.1214 296.348 92.0014C296.736 91.8783 297.144 91.8168 297.572 91.8168C297.855 91.8168 298.155 91.8506 298.472 91.9183C298.792 91.983 299.091 92.103 299.368 92.2784C299.648 92.4538 299.877 92.7047 300.056 93.0309C300.234 93.354 300.323 93.7741 300.323 94.2912V99H298.975V98.0305H298.92C298.831 98.209 298.697 98.3845 298.518 98.5568C298.34 98.7292 298.11 98.8723 297.83 98.9862C297.55 99.1 297.215 99.157 296.824 99.157ZM297.124 98.049C297.506 98.049 297.832 97.9736 298.103 97.8228C298.377 97.672 298.584 97.475 298.726 97.2319C298.871 96.9857 298.943 96.7225 298.943 96.4425V95.5284C298.894 95.5777 298.798 95.6238 298.657 95.6669C298.518 95.7069 298.36 95.7423 298.181 95.7731C298.003 95.8008 297.829 95.8269 297.66 95.8516C297.49 95.8731 297.349 95.8916 297.235 95.907C296.967 95.9408 296.722 95.9978 296.501 96.0778C296.282 96.1578 296.107 96.2732 295.975 96.424C295.845 96.5717 295.781 96.7687 295.781 97.0149C295.781 97.3565 295.907 97.6151 296.159 97.7905C296.412 97.9628 296.733 98.049 297.124 98.049Z" fill="black"/>
<line y1="-1" x2="193.484" y2="-1" transform="matrix(0.999974 0.0072339 -0.00793331 0.999969 0.46582 101.13)" stroke="#FF0000" stroke-width="2"/>
</svg>
