<svg width="324" height="114" viewBox="0 0 324 114" fill="none" xmlns="http://www.w3.org/2000/svg">
<path d="M73.7824 6.08984C73.7327 5.62464 73.5232 5.26243 73.1539 5.0032C72.7881 4.74396 72.3123 4.61435 71.7263 4.61435C71.3144 4.61435 70.9611 4.67649 70.6663 4.80078C70.3716 4.92507 70.1461 5.09375 69.9898 5.30682C69.8336 5.51989 69.7537 5.76314 69.7501 6.03658C69.7501 6.26385 69.8016 6.46094 69.9046 6.62784C70.0111 6.79474 70.155 6.93679 70.3361 7.05398C70.5172 7.16761 70.7178 7.26349 70.938 7.34162C71.1582 7.41974 71.3801 7.48544 71.6038 7.53871L72.6266 7.79439C73.0385 7.89027 73.4344 8.01989 73.8144 8.18324C74.1979 8.34659 74.5406 8.55256 74.8425 8.80114C75.1479 9.04972 75.3893 9.34979 75.5669 9.70135C75.7445 10.0529 75.8332 10.4648 75.8332 10.9371C75.8332 11.5763 75.6699 12.1392 75.3432 12.6257C75.0165 13.1087 74.5442 13.4869 73.9263 13.7603C73.3119 14.0302 72.568 14.1651 71.6944 14.1651C70.8457 14.1651 70.1088 14.0337 69.4838 13.771C68.8623 13.5082 68.3758 13.1246 68.0243 12.6204C67.6763 12.1161 67.4881 11.5018 67.4597 10.7773H69.4039C69.4323 11.1573 69.5495 11.4734 69.7555 11.7255C69.9614 11.9776 70.2295 12.1658 70.5598 12.2901C70.8936 12.4144 71.2665 12.4766 71.6784 12.4766C72.1081 12.4766 72.4845 12.4126 72.8077 12.2848C73.1344 12.1534 73.39 11.9723 73.5747 11.7415C73.7594 11.5071 73.8535 11.2337 73.857 10.9212C73.8535 10.6371 73.77 10.4027 73.6067 10.218C73.4433 10.0298 73.2143 9.87358 72.9195 9.74929C72.6283 9.62145 72.2874 9.50781 71.8968 9.40838L70.6557 9.08878C69.7572 8.85795 69.047 8.50817 68.525 8.03942C68.0065 7.56712 67.7473 6.94034 67.7473 6.15909C67.7473 5.51633 67.9213 4.95348 68.2693 4.47053C68.6209 3.98757 69.0985 3.61293 69.7022 3.34659C70.3059 3.0767 70.9895 2.94176 71.753 2.94176C72.5271 2.94176 73.2054 3.0767 73.7878 3.34659C74.3737 3.61293 74.8336 3.98402 75.1674 4.45987C75.5012 4.93217 75.6734 5.4755 75.6841 6.08984H73.7824ZM79.8642 14.1651C79.3457 14.1651 78.8788 14.0728 78.4633 13.8881C78.0514 13.6999 77.7247 13.4229 77.4832 13.0572C77.2453 12.6914 77.1263 12.2404 77.1263 11.7042C77.1263 11.2425 77.2115 10.8608 77.382 10.5589C77.5524 10.2571 77.785 10.0156 78.0798 9.83452C78.3745 9.65341 78.7065 9.51669 79.0759 9.42436C79.4487 9.32848 79.834 9.25923 80.2318 9.21662C80.7112 9.1669 81.1 9.12251 81.3983 9.08345C81.6966 9.04084 81.9132 8.97692 82.0482 8.89169C82.1867 8.80291 82.2559 8.66619 82.2559 8.48153V8.44957C82.2559 8.0483 82.1369 7.73757 81.899 7.5174C81.6611 7.29723 81.3184 7.18714 80.871 7.18714C80.3987 7.18714 80.024 7.29013 79.747 7.49609C79.4736 7.70206 79.2889 7.94531 79.193 8.22585L77.3926 7.97017C77.5347 7.47301 77.769 7.05753 78.0957 6.72372C78.4225 6.38636 78.822 6.13423 79.2943 5.96733C79.7666 5.79688 80.2886 5.71165 80.8603 5.71165C81.2545 5.71165 81.6469 5.75781 82.0375 5.85014C82.4281 5.94247 82.785 6.09517 83.1082 6.30824C83.4313 6.51776 83.6906 6.80362 83.8859 7.16584C84.0847 7.52805 84.1842 7.98082 84.1842 8.52415V14H82.3305V12.8761H82.2666C82.1494 13.1033 81.9842 13.3164 81.7712 13.5153C81.5617 13.7106 81.2971 13.8686 80.9775 13.9893C80.6614 14.1065 80.2903 14.1651 79.8642 14.1651ZM80.3649 12.7482C80.752 12.7482 81.0876 12.6719 81.3717 12.5192C81.6558 12.3629 81.8742 12.157 82.0269 11.9013C82.1831 11.6456 82.2612 11.3668 82.2612 11.065V10.1009C82.2009 10.1506 82.0979 10.1967 81.9523 10.2393C81.8102 10.282 81.6504 10.3192 81.4729 10.3512C81.2953 10.3832 81.1195 10.4116 80.9455 10.4364C80.7715 10.4613 80.6206 10.4826 80.4928 10.5004C80.2051 10.5394 79.9477 10.6033 79.7204 10.6921C79.4931 10.7809 79.3138 10.9052 79.1824 11.065C79.051 11.2212 78.9853 11.4237 78.9853 11.6722C78.9853 12.0273 79.1149 12.2955 79.3742 12.4766C79.6334 12.6577 79.9636 12.7482 80.3649 12.7482ZM90.2087 5.81818V7.30966H85.5052V5.81818H90.2087ZM86.6664 3.85795H88.5947V11.5391C88.5947 11.7983 88.6337 11.9972 88.7119 12.1357C88.7935 12.2706 88.9001 12.3629 89.0315 12.4126C89.1629 12.4624 89.3085 12.4872 89.4683 12.4872C89.589 12.4872 89.6991 12.4783 89.7985 12.4606C89.9015 12.4428 89.9796 12.4268 90.0329 12.4126L90.3578 13.9201C90.2548 13.9556 90.1075 13.9947 89.9157 14.0373C89.7275 14.0799 89.4967 14.1048 89.2232 14.1119C88.7403 14.1261 88.3053 14.0533 87.9182 13.8935C87.5311 13.7301 87.2239 13.478 86.9967 13.1371C86.7729 12.7962 86.6629 12.37 86.6664 11.8587V3.85795ZM97.0362 10.5589V5.81818H98.9644V14H97.0948V12.5458H97.0095C96.8249 13.0039 96.5213 13.3786 96.0987 13.6697C95.6796 13.9609 95.163 14.1065 94.5486 14.1065C94.0124 14.1065 93.5383 13.9876 93.1264 13.7496C92.718 13.5082 92.3984 13.1584 92.1676 12.7003C91.9367 12.2386 91.8213 11.6811 91.8213 11.0277V5.81818H93.7496V10.7294C93.7496 11.2479 93.8916 11.6598 94.1757 11.9652C94.4598 12.2706 94.8327 12.4233 95.2943 12.4233C95.5784 12.4233 95.8536 12.354 96.12 12.2156C96.3863 12.0771 96.6047 11.8711 96.7752 11.5977C96.9492 11.3207 97.0362 10.9744 97.0362 10.5589ZM100.947 14V5.81818H102.817V7.18182H102.902C103.051 6.70952 103.307 6.34553 103.669 6.08984C104.035 5.83061 104.452 5.70099 104.921 5.70099C105.028 5.70099 105.147 5.70632 105.278 5.71697C105.413 5.72408 105.525 5.73651 105.614 5.75426V7.52805C105.532 7.49964 105.402 7.47479 105.225 7.45348C105.051 7.42862 104.882 7.41619 104.719 7.41619C104.367 7.41619 104.051 7.49254 103.77 7.64524C103.493 7.79439 103.275 8.00213 103.115 8.26847C102.955 8.5348 102.876 8.84197 102.876 9.18999V14H100.947ZM109.102 14.1651C108.584 14.1651 108.117 14.0728 107.702 13.8881C107.29 13.6999 106.963 13.4229 106.721 13.0572C106.484 12.6914 106.365 12.2404 106.365 11.7042C106.365 11.2425 106.45 10.8608 106.62 10.5589C106.791 10.2571 107.023 10.0156 107.318 9.83452C107.613 9.65341 107.945 9.51669 108.314 9.42436C108.687 9.32848 109.072 9.25923 109.47 9.21662C109.949 9.1669 110.338 9.12251 110.637 9.08345C110.935 9.04084 111.152 8.97692 111.286 8.89169C111.425 8.80291 111.494 8.66619 111.494 8.48153V8.44957C111.494 8.0483 111.375 7.73757 111.137 7.5174C110.899 7.29723 110.557 7.18714 110.109 7.18714C109.637 7.18714 109.262 7.29013 108.985 7.49609C108.712 7.70206 108.527 7.94531 108.431 8.22585L106.631 7.97017C106.773 7.47301 107.007 7.05753 107.334 6.72372C107.661 6.38636 108.06 6.13423 108.533 5.96733C109.005 5.79688 109.527 5.71165 110.099 5.71165C110.493 5.71165 110.885 5.75781 111.276 5.85014C111.666 5.94247 112.023 6.09517 112.346 6.30824C112.67 6.51776 112.929 6.80362 113.124 7.16584C113.323 7.52805 113.422 7.98082 113.422 8.52415V14H111.569V12.8761H111.505C111.388 13.1033 111.223 13.3164 111.009 13.5153C110.8 13.7106 110.535 13.8686 110.216 13.9893C109.9 14.1065 109.529 14.1651 109.102 14.1651ZM109.603 12.7482C109.99 12.7482 110.326 12.6719 110.61 12.5192C110.894 12.3629 111.112 12.157 111.265 11.9013C111.421 11.6456 111.5 11.3668 111.5 11.065V10.1009C111.439 10.1506 111.336 10.1967 111.191 10.2393C111.049 10.282 110.889 10.3192 110.711 10.3512C110.534 10.3832 110.358 10.4116 110.184 10.4364C110.01 10.4613 109.859 10.4826 109.731 10.5004C109.443 10.5394 109.186 10.6033 108.959 10.6921C108.731 10.7809 108.552 10.9052 108.421 11.065C108.289 11.2212 108.224 11.4237 108.224 11.6722C108.224 12.0273 108.353 12.2955 108.612 12.4766C108.872 12.6577 109.202 12.7482 109.603 12.7482ZM118.93 14.1598C118.114 14.1598 117.412 13.9805 116.826 13.6218C116.244 13.2631 115.795 12.7678 115.479 12.1357C115.166 11.5 115.01 10.7685 115.01 9.94105C115.01 9.11009 115.17 8.37678 115.489 7.74112C115.809 7.10192 116.26 6.60476 116.842 6.24964C117.428 5.89098 118.121 5.71165 118.92 5.71165C119.584 5.71165 120.171 5.83416 120.683 6.07919C121.198 6.32067 121.608 6.66335 121.913 7.10724C122.219 7.54759 122.393 8.0625 122.435 8.65199H120.592C120.518 8.25781 120.34 7.92933 120.06 7.66655C119.783 7.40021 119.411 7.26705 118.946 7.26705C118.552 7.26705 118.206 7.37358 117.908 7.58665C117.609 7.79616 117.377 8.09801 117.21 8.49219C117.046 8.88636 116.965 9.35866 116.965 9.90909C116.965 10.4666 117.046 10.946 117.21 11.3473C117.373 11.745 117.602 12.0522 117.897 12.2688C118.195 12.4819 118.545 12.5884 118.946 12.5884C119.23 12.5884 119.484 12.5352 119.708 12.4286C119.935 12.3185 120.125 12.1605 120.278 11.9545C120.431 11.7486 120.535 11.4982 120.592 11.2035H122.435C122.389 11.7823 122.219 12.2955 121.924 12.7429C121.629 13.1868 121.228 13.5348 120.72 13.7869C120.212 14.0355 119.616 14.1598 118.93 14.1598ZM124.019 14V5.81818H125.947V14H124.019ZM124.988 4.65696C124.683 4.65696 124.42 4.55575 124.2 4.35334C123.98 4.14737 123.869 3.90057 123.869 3.61293C123.869 3.32173 123.98 3.07493 124.2 2.87251C124.42 2.66655 124.683 2.56357 124.988 2.56357C125.297 2.56357 125.56 2.66655 125.776 2.87251C125.997 3.07493 126.107 3.32173 126.107 3.61293C126.107 3.90057 125.997 4.14737 125.776 4.35334C125.56 4.55575 125.297 4.65696 124.988 4.65696ZM131.499 14.1598C130.7 14.1598 130.007 13.984 129.421 13.6325C128.835 13.2809 128.381 12.7891 128.058 12.157C127.738 11.5249 127.578 10.7862 127.578 9.94105C127.578 9.09588 127.738 8.35547 128.058 7.71982C128.381 7.08416 128.835 6.59055 129.421 6.23899C130.007 5.88743 130.7 5.71165 131.499 5.71165C132.298 5.71165 132.99 5.88743 133.576 6.23899C134.162 6.59055 134.615 7.08416 134.934 7.71982C135.258 8.35547 135.419 9.09588 135.419 9.94105C135.419 10.7862 135.258 11.5249 134.934 12.157C134.615 12.7891 134.162 13.2809 133.576 13.6325C132.99 13.984 132.298 14.1598 131.499 14.1598ZM131.509 12.6151C131.943 12.6151 132.305 12.4961 132.596 12.2582C132.887 12.0167 133.104 11.6935 133.246 11.2887C133.391 10.8839 133.464 10.4329 133.464 9.93572C133.464 9.43501 133.391 8.98224 133.246 8.57741C133.104 8.16903 132.887 7.84411 132.596 7.60263C132.305 7.36115 131.943 7.24041 131.509 7.24041C131.065 7.24041 130.696 7.36115 130.401 7.60263C130.11 7.84411 129.892 8.16903 129.746 8.57741C129.604 8.98224 129.533 9.43501 129.533 9.93572C129.533 10.4329 129.604 10.8839 129.746 11.2887C129.892 11.6935 130.11 12.0167 130.401 12.2582C130.696 12.4961 131.065 12.6151 131.509 12.6151ZM138.984 9.20597V14H137.056V5.81818H138.899V7.20845H138.995C139.183 6.75035 139.483 6.38636 139.895 6.11648C140.31 5.84659 140.823 5.71165 141.434 5.71165C141.999 5.71165 142.491 5.83239 142.91 6.07386C143.332 6.31534 143.659 6.66513 143.89 7.12322C144.124 7.58132 144.24 8.13707 144.236 8.79048V14H142.308V9.08878C142.308 8.5419 142.166 8.11399 141.882 7.80504C141.601 7.49609 141.212 7.34162 140.715 7.34162C140.378 7.34162 140.078 7.41619 139.815 7.56534C139.556 7.71094 139.352 7.92223 139.202 8.19922C139.057 8.47621 138.984 8.81179 138.984 9.20597ZM152.953 14.1438C152.311 14.1438 151.735 13.9787 151.227 13.6484C150.72 13.3182 150.318 12.8388 150.024 12.2102C149.729 11.5817 149.581 10.8182 149.581 9.91974C149.581 9.01065 149.731 8.24361 150.029 7.61861C150.331 6.99006 150.737 6.51598 151.249 6.19638C151.76 5.87322 152.33 5.71165 152.959 5.71165C153.438 5.71165 153.832 5.79332 154.141 5.95668C154.45 6.11648 154.695 6.31001 154.876 6.53729C155.057 6.76101 155.198 6.9723 155.297 7.17116H155.377V3.09091H157.311V14H155.414V12.7109H155.297C155.198 12.9098 155.054 13.1211 154.866 13.3448C154.677 13.565 154.429 13.7532 154.12 13.9094C153.811 14.0657 153.422 14.1438 152.953 14.1438ZM153.491 12.5618C153.9 12.5618 154.248 12.4517 154.535 12.2315C154.823 12.0078 155.041 11.6971 155.19 11.2994C155.34 10.9016 155.414 10.4382 155.414 9.90909C155.414 9.37997 155.34 8.9201 155.19 8.52947C155.045 8.13885 154.828 7.83523 154.541 7.61861C154.257 7.40199 153.907 7.29368 153.491 7.29368C153.062 7.29368 152.703 7.40554 152.415 7.62926C152.128 7.85298 151.911 8.16193 151.765 8.55611C151.62 8.95028 151.547 9.40128 151.547 9.90909C151.547 10.4205 151.62 10.8768 151.765 11.2781C151.915 11.6758 152.133 11.9901 152.421 12.2209C152.712 12.4482 153.069 12.5618 153.491 12.5618ZM162.987 14.1598C162.167 14.1598 161.459 13.9893 160.862 13.6484C160.269 13.304 159.813 12.8175 159.493 12.1889C159.174 11.5568 159.014 10.8129 159.014 9.95703C159.014 9.11541 159.174 8.37678 159.493 7.74112C159.816 7.10192 160.267 6.60476 160.846 6.24964C161.425 5.89098 162.105 5.71165 162.886 5.71165C163.39 5.71165 163.866 5.79332 164.314 5.95668C164.765 6.11648 165.163 6.36506 165.507 6.70241C165.855 7.03977 166.128 7.46946 166.327 7.99148C166.526 8.50994 166.626 9.12784 166.626 9.84517V10.4364H159.919V9.13672H164.777C164.774 8.7674 164.694 8.43892 164.538 8.15128C164.381 7.86009 164.163 7.63104 163.882 7.46413C163.605 7.29723 163.282 7.21378 162.913 7.21378C162.519 7.21378 162.172 7.30966 161.874 7.50142C161.576 7.68963 161.343 7.93821 161.176 8.24716C161.013 8.55256 160.93 8.88814 160.926 9.25391V10.3885C160.926 10.8643 161.013 11.2727 161.187 11.6136C161.361 11.951 161.604 12.2102 161.917 12.3913C162.229 12.5689 162.595 12.6577 163.014 12.6577C163.295 12.6577 163.549 12.6186 163.776 12.5405C164.003 12.4588 164.2 12.3398 164.367 12.1836C164.534 12.0273 164.66 11.8338 164.745 11.603L166.546 11.8054C166.432 12.2812 166.215 12.6967 165.896 13.0518C165.58 13.4034 165.175 13.6768 164.681 13.8722C164.188 14.0639 163.623 14.1598 162.987 14.1598ZM173.906 3.09091V14H171.978V3.09091H173.906ZM175.889 14V5.81818H177.817V14H175.889ZM176.858 4.65696C176.553 4.65696 176.29 4.55575 176.07 4.35334C175.85 4.14737 175.74 3.90057 175.74 3.61293C175.74 3.32173 175.85 3.07493 176.07 2.87251C176.29 2.66655 176.553 2.56357 176.858 2.56357C177.167 2.56357 177.43 2.66655 177.647 2.87251C177.867 3.07493 177.977 3.32173 177.977 3.61293C177.977 3.90057 177.867 4.14737 177.647 4.35334C177.43 4.55575 177.167 4.65696 176.858 4.65696ZM181.728 9.20597V14H179.8V5.81818H181.643V7.20845H181.739C181.927 6.75035 182.227 6.38636 182.639 6.11648C183.054 5.84659 183.568 5.71165 184.178 5.71165C184.743 5.71165 185.235 5.83239 185.654 6.07386C186.076 6.31534 186.403 6.66513 186.634 7.12322C186.868 7.58132 186.984 8.13707 186.98 8.79048V14H185.052V9.08878C185.052 8.5419 184.91 8.11399 184.626 7.80504C184.345 7.49609 183.956 7.34162 183.459 7.34162C183.122 7.34162 182.822 7.41619 182.559 7.56534C182.3 7.71094 182.096 7.92223 181.947 8.19922C181.801 8.47621 181.728 8.81179 181.728 9.20597ZM192.563 14.1598C191.742 14.1598 191.034 13.9893 190.437 13.6484C189.844 13.304 189.388 12.8175 189.068 12.1889C188.749 11.5568 188.589 10.8129 188.589 9.95703C188.589 9.11541 188.749 8.37678 189.068 7.74112C189.391 7.10192 189.842 6.60476 190.421 6.24964C191 5.89098 191.68 5.71165 192.461 5.71165C192.966 5.71165 193.442 5.79332 193.889 5.95668C194.34 6.11648 194.738 6.36506 195.082 6.70241C195.43 7.03977 195.704 7.46946 195.902 7.99148C196.101 8.50994 196.201 9.12784 196.201 9.84517V10.4364H189.494V9.13672H194.352C194.349 8.7674 194.269 8.43892 194.113 8.15128C193.956 7.86009 193.738 7.63104 193.458 7.46413C193.181 7.29723 192.857 7.21378 192.488 7.21378C192.094 7.21378 191.748 7.30966 191.449 7.50142C191.151 7.68963 190.918 7.93821 190.752 8.24716C190.588 8.55256 190.505 8.88814 190.501 9.25391V10.3885C190.501 10.8643 190.588 11.2727 190.762 11.6136C190.936 11.951 191.179 12.2102 191.492 12.3913C191.804 12.5689 192.17 12.6577 192.589 12.6577C192.87 12.6577 193.124 12.6186 193.351 12.5405C193.578 12.4588 193.775 12.3398 193.942 12.1836C194.109 12.0273 194.235 11.8338 194.32 11.603L196.121 11.8054C196.007 12.2812 195.791 12.6967 195.471 13.0518C195.155 13.4034 194.75 13.6768 194.257 13.8722C193.763 14.0639 193.198 14.1598 192.563 14.1598ZM200.186 14.1651C199.668 14.1651 199.201 14.0728 198.786 13.8881C198.374 13.6999 198.047 13.4229 197.805 13.0572C197.568 12.6914 197.449 12.2404 197.449 11.7042C197.449 11.2425 197.534 10.8608 197.704 10.5589C197.875 10.2571 198.107 10.0156 198.402 9.83452C198.697 9.65341 199.029 9.51669 199.398 9.42436C199.771 9.32848 200.156 9.25923 200.554 9.21662C201.033 9.1669 201.422 9.12251 201.721 9.08345C202.019 9.04084 202.235 8.97692 202.37 8.89169C202.509 8.80291 202.578 8.66619 202.578 8.48153V8.44957C202.578 8.0483 202.459 7.73757 202.221 7.5174C201.983 7.29723 201.641 7.18714 201.193 7.18714C200.721 7.18714 200.346 7.29013 200.069 7.49609C199.796 7.70206 199.611 7.94531 199.515 8.22585L197.715 7.97017C197.857 7.47301 198.091 7.05753 198.418 6.72372C198.745 6.38636 199.144 6.13423 199.617 5.96733C200.089 5.79688 200.611 5.71165 201.183 5.71165C201.577 5.71165 201.969 5.75781 202.36 5.85014C202.75 5.94247 203.107 6.09517 203.43 6.30824C203.754 6.51776 204.013 6.80362 204.208 7.16584C204.407 7.52805 204.506 7.98082 204.506 8.52415V14H202.653V12.8761H202.589C202.472 13.1033 202.307 13.3164 202.093 13.5153C201.884 13.7106 201.619 13.8686 201.3 13.9893C200.984 14.1065 200.613 14.1651 200.186 14.1651ZM200.687 12.7482C201.074 12.7482 201.41 12.6719 201.694 12.5192C201.978 12.3629 202.196 12.157 202.349 11.9013C202.505 11.6456 202.583 11.3668 202.583 11.065V10.1009C202.523 10.1506 202.42 10.1967 202.275 10.2393C202.133 10.282 201.973 10.3192 201.795 10.3512C201.618 10.3832 201.442 10.4116 201.268 10.4364C201.094 10.4613 200.943 10.4826 200.815 10.5004C200.527 10.5394 200.27 10.6033 200.043 10.6921C199.815 10.7809 199.636 10.9052 199.505 11.065C199.373 11.2212 199.308 11.4237 199.308 11.6722C199.308 12.0273 199.437 12.2955 199.696 12.4766C199.956 12.6577 200.286 12.7482 200.687 12.7482ZM210.645 9.5522C210.645 8.22053 210.821 6.99716 211.173 5.8821C211.528 4.76349 212.055 3.73011 212.755 2.78196H214.571C214.301 3.13352 214.049 3.56499 213.815 4.07635C213.58 4.58416 213.376 5.14169 213.202 5.74893C213.032 6.35263 212.897 6.9794 212.797 7.62926C212.702 8.27912 212.654 8.9201 212.654 9.5522C212.654 10.3938 212.737 11.2461 212.904 12.109C213.074 12.9719 213.303 13.771 213.591 14.506C213.882 15.2447 214.209 15.8484 214.571 16.3171H212.755C212.055 15.369 211.528 14.3374 211.173 13.2223C210.821 12.1037 210.645 10.8803 210.645 9.5522ZM223.031 3.09091H225.008V10.218C225.008 10.9993 224.823 11.6864 224.454 12.2795C224.088 12.8725 223.573 13.3359 222.909 13.6697C222.245 14 221.469 14.1651 220.581 14.1651C219.69 14.1651 218.912 14 218.248 13.6697C217.584 13.3359 217.069 12.8725 216.703 12.2795C216.337 11.6864 216.155 10.9993 216.155 10.218V3.09091H218.131V10.0529C218.131 10.5075 218.23 10.9123 218.429 11.2674C218.632 11.6225 218.916 11.9013 219.281 12.1037C219.647 12.3026 220.08 12.402 220.581 12.402C221.082 12.402 221.515 12.3026 221.881 12.1037C222.25 11.9013 222.534 11.6225 222.733 11.2674C222.932 10.9123 223.031 10.5075 223.031 10.0529V3.09091ZM233.537 7.98082L231.779 8.17258C231.729 7.99503 231.642 7.82812 231.518 7.67188C231.397 7.51562 231.234 7.38956 231.028 7.29368C230.822 7.1978 230.57 7.14986 230.272 7.14986C229.87 7.14986 229.533 7.23686 229.26 7.41087C228.99 7.58487 228.857 7.81037 228.86 8.08736C228.857 8.32528 228.944 8.51882 229.121 8.66797C229.302 8.81712 229.601 8.93963 230.016 9.03551L231.412 9.33381C232.186 9.50071 232.761 9.76527 233.137 10.1275C233.517 10.4897 233.709 10.9638 233.713 11.5497C233.709 12.0646 233.558 12.5192 233.26 12.9134C232.965 13.304 232.555 13.6094 232.03 13.8295C231.504 14.0497 230.9 14.1598 230.218 14.1598C229.217 14.1598 228.411 13.9503 227.8 13.5312C227.189 13.1087 226.825 12.521 226.708 11.7681L228.588 11.587C228.674 11.9563 228.855 12.2351 229.132 12.4233C229.409 12.6115 229.769 12.7056 230.213 12.7056C230.671 12.7056 231.039 12.6115 231.316 12.4233C231.596 12.2351 231.737 12.0025 231.737 11.7255C231.737 11.4911 231.646 11.2976 231.465 11.1449C231.287 10.9922 231.01 10.875 230.634 10.7933L229.238 10.5004C228.454 10.337 227.873 10.0618 227.496 9.67472C227.12 9.28409 226.934 8.79048 226.937 8.19389C226.934 7.68963 227.07 7.25284 227.347 6.88352C227.628 6.51065 228.017 6.22301 228.514 6.0206C229.015 5.81463 229.592 5.71165 230.245 5.71165C231.204 5.71165 231.958 5.91584 232.509 6.32422C233.063 6.7326 233.406 7.2848 233.537 7.98082ZM238.872 14.1598C238.073 14.1598 237.38 13.984 236.794 13.6325C236.208 13.2809 235.754 12.7891 235.431 12.157C235.111 11.5249 234.951 10.7862 234.951 9.94105C234.951 9.09588 235.111 8.35547 235.431 7.71982C235.754 7.08416 236.208 6.59055 236.794 6.23899C237.38 5.88743 238.073 5.71165 238.872 5.71165C239.671 5.71165 240.363 5.88743 240.949 6.23899C241.535 6.59055 241.988 7.08416 242.307 7.71982C242.631 8.35547 242.792 9.09588 242.792 9.94105C242.792 10.7862 242.631 11.5249 242.307 12.157C241.988 12.7891 241.535 13.2809 240.949 13.6325C240.363 13.984 239.671 14.1598 238.872 14.1598ZM238.882 12.6151C239.316 12.6151 239.678 12.4961 239.969 12.2582C240.26 12.0167 240.477 11.6935 240.619 11.2887C240.764 10.8839 240.837 10.4329 240.837 9.93572C240.837 9.43501 240.764 8.98224 240.619 8.57741C240.477 8.16903 240.26 7.84411 239.969 7.60263C239.678 7.36115 239.316 7.24041 238.882 7.24041C238.438 7.24041 238.069 7.36115 237.774 7.60263C237.483 7.84411 237.265 8.16903 237.119 8.57741C236.977 8.98224 236.906 9.43501 236.906 9.93572C236.906 10.4329 236.977 10.8839 237.119 11.2887C237.265 11.6935 237.483 12.0167 237.774 12.2582C238.069 12.4961 238.438 12.6151 238.882 12.6151ZM247.679 9.5522C247.679 10.8803 247.502 12.1037 247.147 13.2223C246.795 14.3374 246.27 15.369 245.57 16.3171H243.754C244.027 15.9656 244.279 15.5359 244.51 15.0281C244.744 14.5202 244.947 13.9627 245.117 13.3555C245.291 12.7482 245.426 12.1197 245.522 11.4698C245.621 10.82 245.671 10.1808 245.671 9.5522C245.671 8.71058 245.586 7.85831 245.416 6.99538C245.249 6.13246 245.02 5.33168 244.728 4.59304C244.441 3.8544 244.116 3.25071 243.754 2.78196H245.57C246.27 3.73011 246.795 4.76349 247.147 5.8821C247.502 6.99716 247.679 8.22053 247.679 9.5522ZM251.33 14.1172C251.006 14.1172 250.729 14.0036 250.499 13.7763C250.268 13.549 250.154 13.272 250.158 12.9453C250.154 12.6257 250.268 12.3523 250.499 12.125C250.729 11.8977 251.006 11.7841 251.33 11.7841C251.642 11.7841 251.914 11.8977 252.144 12.125C252.379 12.3523 252.498 12.6257 252.501 12.9453C252.498 13.1619 252.441 13.359 252.331 13.5366C252.224 13.7141 252.082 13.8562 251.905 13.9627C251.731 14.0657 251.539 14.1172 251.33 14.1172ZM251.33 8.27912C251.006 8.27912 250.729 8.16548 250.499 7.93821C250.268 7.70739 250.154 7.4304 250.158 7.10724C250.154 6.78764 250.268 6.5142 250.499 6.28693C250.729 6.05611 251.006 5.9407 251.33 5.9407C251.642 5.9407 251.914 6.05611 252.144 6.28693C252.379 6.5142 252.498 6.78764 252.501 7.10724C252.498 7.32031 252.441 7.51562 252.331 7.69318C252.224 7.87074 252.082 8.01278 251.905 8.11932C251.731 8.22585 251.539 8.27912 251.33 8.27912Z" fill="black"/>
<path d="M140.682 49V39.5455H142.108V47.772H146.392V49H140.682ZM149.972 49.157C149.523 49.157 149.117 49.0739 148.754 48.9077C148.391 48.7384 148.103 48.4937 147.89 48.1737C147.681 47.8536 147.576 47.4612 147.576 46.9964C147.576 46.5964 147.653 46.267 147.807 46.0085C147.961 45.75 148.169 45.5453 148.431 45.3945C148.692 45.2437 148.985 45.1299 149.308 45.0529C149.631 44.976 149.96 44.9175 150.296 44.8775C150.72 44.8282 151.065 44.7882 151.33 44.7575C151.594 44.7236 151.787 44.6697 151.907 44.5959C152.027 44.522 152.087 44.402 152.087 44.2358V44.2035C152.087 43.8003 151.973 43.4879 151.745 43.2663C151.52 43.0447 151.185 42.9339 150.739 42.9339C150.274 42.9339 149.908 43.037 149.64 43.2433C149.375 43.4464 149.192 43.6726 149.091 43.9219L147.793 43.6264C147.947 43.1955 148.172 42.8478 148.467 42.5831C148.766 42.3153 149.109 42.1214 149.497 42.0014C149.885 41.8783 150.293 41.8168 150.72 41.8168C151.003 41.8168 151.304 41.8506 151.621 41.9183C151.941 41.983 152.239 42.103 152.516 42.2784C152.796 42.4538 153.025 42.7047 153.204 43.0309C153.382 43.354 153.472 43.7741 153.472 44.2912V49H152.124V48.0305H152.068C151.979 48.209 151.845 48.3845 151.667 48.5568C151.488 48.7292 151.259 48.8723 150.979 48.9862C150.699 49.1 150.363 49.157 149.972 49.157ZM150.273 48.049C150.654 48.049 150.98 47.9736 151.251 47.8228C151.525 47.672 151.733 47.475 151.874 47.2319C152.019 46.9857 152.091 46.7225 152.091 46.4425V45.5284C152.042 45.5777 151.947 45.6238 151.805 45.6669C151.667 45.7069 151.508 45.7423 151.33 45.7731C151.151 45.8008 150.977 45.8269 150.808 45.8516C150.639 45.8731 150.497 45.8916 150.383 45.907C150.116 45.9408 149.871 45.9978 149.649 46.0778C149.431 46.1578 149.255 46.2732 149.123 46.424C148.994 46.5717 148.929 46.7687 148.929 47.0149C148.929 47.3565 149.055 47.6151 149.308 47.7905C149.56 47.9628 149.882 48.049 150.273 48.049ZM163.242 46.0593V41.9091H164.627V49H163.27V47.772H163.196C163.033 48.1506 162.772 48.466 162.412 48.7184C162.055 48.9677 161.61 49.0923 161.077 49.0923C160.622 49.0923 160.219 48.9923 159.868 48.7923C159.52 48.5891 159.246 48.2891 159.046 47.892C158.849 47.495 158.751 47.0041 158.751 46.4194V41.9091H160.131V46.2532C160.131 46.7364 160.265 47.1211 160.533 47.4073C160.8 47.6935 161.148 47.8366 161.576 47.8366C161.834 47.8366 162.091 47.772 162.347 47.6428C162.605 47.5135 162.819 47.3181 162.989 47.0565C163.161 46.7949 163.246 46.4625 163.242 46.0593ZM171.796 43.6403L170.545 43.8619C170.492 43.7018 170.409 43.5495 170.295 43.4048C170.185 43.2602 170.034 43.1417 169.843 43.0494C169.652 42.957 169.414 42.9109 169.127 42.9109C168.736 42.9109 168.41 42.9986 168.149 43.174C167.887 43.3464 167.756 43.5695 167.756 43.8434C167.756 44.0804 167.844 44.2712 168.019 44.4158C168.195 44.5605 168.478 44.679 168.869 44.7713L169.995 45.0298C170.648 45.1806 171.134 45.413 171.454 45.7269C171.774 46.0408 171.934 46.4486 171.934 46.9503C171.934 47.375 171.811 47.7536 171.565 48.0859C171.322 48.4152 170.982 48.6738 170.545 48.8615C170.111 49.0492 169.607 49.1431 169.035 49.1431C168.241 49.1431 167.593 48.9738 167.091 48.6353C166.59 48.2937 166.282 47.8089 166.168 47.1811L167.502 46.978C167.585 47.3258 167.756 47.5889 168.015 47.7674C168.273 47.9428 168.61 48.0305 169.026 48.0305C169.478 48.0305 169.84 47.9367 170.111 47.7489C170.381 47.5581 170.517 47.3258 170.517 47.0518C170.517 46.8303 170.434 46.6441 170.268 46.4933C170.105 46.3424 169.854 46.2286 169.515 46.1516L168.315 45.8885C167.653 45.7377 167.164 45.4976 166.847 45.1683C166.533 44.839 166.376 44.422 166.376 43.9173C166.376 43.4987 166.493 43.1325 166.727 42.8185C166.961 42.5046 167.284 42.2599 167.696 42.0845C168.109 41.906 168.581 41.8168 169.114 41.8168C169.88 41.8168 170.483 41.983 170.923 42.3153C171.363 42.6446 171.654 43.0863 171.796 43.6403ZM176.439 49.1431C175.774 49.1431 175.194 48.9908 174.698 48.6861C174.203 48.3814 173.818 47.9551 173.544 47.4073C173.27 46.8595 173.133 46.2193 173.133 45.4869C173.133 44.7513 173.27 44.1081 173.544 43.5572C173.818 43.0063 174.203 42.5785 174.698 42.2738C175.194 41.9691 175.774 41.8168 176.439 41.8168C177.103 41.8168 177.684 41.9691 178.179 42.2738C178.675 42.5785 179.059 43.0063 179.333 43.5572C179.607 44.1081 179.744 44.7513 179.744 45.4869C179.744 46.2193 179.607 46.8595 179.333 47.4073C179.059 47.9551 178.675 48.3814 178.179 48.6861C177.684 48.9908 177.103 49.1431 176.439 49.1431ZM176.443 47.9844C176.874 47.9844 177.231 47.8705 177.514 47.6428C177.797 47.415 178.007 47.1119 178.142 46.7333C178.281 46.3548 178.35 45.9377 178.35 45.4822C178.35 45.0298 178.281 44.6143 178.142 44.2358C178.007 43.8542 177.797 43.5479 177.514 43.3171C177.231 43.0863 176.874 42.9709 176.443 42.9709C176.009 42.9709 175.649 43.0863 175.363 43.3171C175.08 43.5479 174.869 43.8542 174.731 44.2358C174.595 44.6143 174.527 45.0298 174.527 45.4822C174.527 45.9377 174.595 46.3548 174.731 46.7333C174.869 47.1119 175.08 47.415 175.363 47.6428C175.649 47.8705 176.009 47.9844 176.443 47.9844ZM123.213 81V71.5455H124.64V79.772H128.924V81H123.213ZM133.427 81.1431C132.762 81.1431 132.182 80.9908 131.687 80.6861C131.191 80.3814 130.806 79.9551 130.532 79.4073C130.259 78.8595 130.122 78.2193 130.122 77.4869C130.122 76.7513 130.259 76.1081 130.532 75.5572C130.806 75.0063 131.191 74.5785 131.687 74.2738C132.182 73.9691 132.762 73.8168 133.427 73.8168C134.092 73.8168 134.672 73.9691 135.167 74.2738C135.663 74.5785 136.048 75.0063 136.322 75.5572C136.595 76.1081 136.732 76.7513 136.732 77.4869C136.732 78.2193 136.595 78.8595 136.322 79.4073C136.048 79.9551 135.663 80.3814 135.167 80.6861C134.672 80.9908 134.092 81.1431 133.427 81.1431ZM133.432 79.9844C133.862 79.9844 134.219 79.8705 134.503 79.6428C134.786 79.415 134.995 79.1119 135.13 78.7333C135.269 78.3548 135.338 77.9377 135.338 77.4822C135.338 77.0298 135.269 76.6143 135.13 76.2358C134.995 75.8542 134.786 75.5479 134.503 75.3171C134.219 75.0863 133.862 74.9709 133.432 74.9709C132.998 74.9709 132.638 75.0863 132.351 75.3171C132.068 75.5479 131.857 75.8542 131.719 76.2358C131.583 76.6143 131.516 77.0298 131.516 77.4822C131.516 77.9377 131.583 78.3548 131.719 78.7333C131.857 79.1119 132.068 79.415 132.351 79.6428C132.638 79.8705 132.998 79.9844 133.432 79.9844ZM146.205 78.0593V73.9091H147.59V81H146.233V79.772H146.159C145.996 80.1506 145.735 80.466 145.374 80.7184C145.017 80.9677 144.573 81.0923 144.04 81.0923C143.585 81.0923 143.182 80.9923 142.831 80.7923C142.483 80.5891 142.209 80.2891 142.009 79.892C141.812 79.495 141.714 79.0041 141.714 78.4194V73.9091H143.094V78.2532C143.094 78.7364 143.228 79.1211 143.496 79.4073C143.763 79.6935 144.111 79.8366 144.539 79.8366C144.797 79.8366 145.054 79.772 145.31 79.6428C145.568 79.5135 145.782 79.3181 145.951 79.0565C146.124 78.7949 146.208 78.4625 146.205 78.0593ZM154.759 75.6403L153.508 75.8619C153.455 75.7018 153.372 75.5495 153.258 75.4048C153.147 75.2602 152.997 75.1417 152.806 75.0494C152.615 74.957 152.376 74.9109 152.09 74.9109C151.699 74.9109 151.373 74.9986 151.112 75.174C150.85 75.3464 150.719 75.5695 150.719 75.8434C150.719 76.0804 150.807 76.2712 150.982 76.4158C151.158 76.5605 151.441 76.679 151.832 76.7713L152.958 77.0298C153.611 77.1806 154.097 77.413 154.417 77.7269C154.737 78.0408 154.897 78.4486 154.897 78.9503C154.897 79.375 154.774 79.7536 154.528 80.0859C154.285 80.4152 153.945 80.6738 153.508 80.8615C153.074 81.0492 152.57 81.1431 151.998 81.1431C151.204 81.1431 150.556 80.9738 150.054 80.6353C149.553 80.2937 149.245 79.8089 149.131 79.1811L150.465 78.978C150.548 79.3258 150.719 79.5889 150.978 79.7674C151.236 79.9428 151.573 80.0305 151.989 80.0305C152.441 80.0305 152.803 79.9367 153.074 79.7489C153.344 79.5581 153.48 79.3258 153.48 79.0518C153.48 78.8303 153.397 78.6441 153.231 78.4933C153.067 78.3424 152.817 78.2286 152.478 78.1516L151.278 77.8885C150.616 77.7377 150.127 77.4976 149.81 77.1683C149.496 76.839 149.339 76.422 149.339 75.9173C149.339 75.4987 149.456 75.1325 149.69 74.8185C149.924 74.5046 150.247 74.2599 150.659 74.0845C151.072 73.906 151.544 73.8168 152.076 73.8168C152.843 73.8168 153.446 73.983 153.886 74.3153C154.326 74.6446 154.617 75.0863 154.759 75.6403ZM159.402 81.1431C158.737 81.1431 158.157 80.9908 157.661 80.6861C157.166 80.3814 156.781 79.9551 156.507 79.4073C156.233 78.8595 156.096 78.2193 156.096 77.4869C156.096 76.7513 156.233 76.1081 156.507 75.5572C156.781 75.0063 157.166 74.5785 157.661 74.2738C158.157 73.9691 158.737 73.8168 159.402 73.8168C160.066 73.8168 160.646 73.9691 161.142 74.2738C161.638 74.5785 162.022 75.0063 162.296 75.5572C162.57 76.1081 162.707 76.7513 162.707 77.4869C162.707 78.2193 162.57 78.8595 162.296 79.4073C162.022 79.9551 161.638 80.3814 161.142 80.6861C160.646 80.9908 160.066 81.1431 159.402 81.1431ZM159.406 79.9844C159.837 79.9844 160.194 79.8705 160.477 79.6428C160.76 79.415 160.97 79.1119 161.105 78.7333C161.244 78.3548 161.313 77.9377 161.313 77.4822C161.313 77.0298 161.244 76.6143 161.105 76.2358C160.97 75.8542 160.76 75.5479 160.477 75.3171C160.194 75.0863 159.837 74.9709 159.406 74.9709C158.972 74.9709 158.612 75.0863 158.326 75.3171C158.043 75.5479 157.832 75.8542 157.693 76.2358C157.558 76.6143 157.49 77.0298 157.49 77.4822C157.49 77.9377 157.558 78.3548 157.693 78.7333C157.832 79.1119 158.043 79.415 158.326 79.6428C158.612 79.8705 158.972 79.9844 159.406 79.9844ZM167.688 83.6591V73.9091H169.036V75.0586H169.152C169.232 74.9109 169.347 74.7401 169.498 74.5462C169.649 74.3523 169.858 74.183 170.126 74.0384C170.393 73.8906 170.747 73.8168 171.187 73.8168C171.76 73.8168 172.271 73.9614 172.72 74.2507C173.169 74.54 173.522 74.957 173.777 75.5018C174.036 76.0465 174.165 76.7021 174.165 77.4684C174.165 78.2347 174.037 78.8918 173.782 79.4396C173.526 79.9844 173.176 80.4045 172.729 80.6999C172.283 80.9923 171.774 81.1385 171.201 81.1385C170.77 81.1385 170.418 81.0662 170.144 80.9215C169.873 80.7769 169.661 80.6076 169.507 80.4137C169.353 80.2198 169.235 80.0475 169.152 79.8967H169.068V83.6591H167.688ZM169.041 77.4545C169.041 77.9531 169.113 78.3902 169.258 78.7656C169.402 79.1411 169.612 79.435 169.886 79.6474C170.16 79.8567 170.495 79.9613 170.892 79.9613C171.304 79.9613 171.649 79.852 171.926 79.6335C172.203 79.4119 172.412 79.1119 172.554 78.7333C172.699 78.3548 172.771 77.9285 172.771 77.4545C172.771 76.9867 172.7 76.5666 172.559 76.1942C172.42 75.8219 172.211 75.5279 171.931 75.3125C171.654 75.0971 171.307 74.9893 170.892 74.9893C170.492 74.9893 170.153 75.0924 169.876 75.2987C169.602 75.5049 169.395 75.7926 169.253 76.1619C169.112 76.5312 169.041 76.9621 169.041 77.4545ZM178.698 81.1431C178.034 81.1431 177.454 80.9908 176.958 80.6861C176.463 80.3814 176.078 79.9551 175.804 79.4073C175.53 78.8595 175.393 78.2193 175.393 77.4869C175.393 76.7513 175.53 76.1081 175.804 75.5572C176.078 75.0063 176.463 74.5785 176.958 74.2738C177.454 73.9691 178.034 73.8168 178.698 73.8168C179.363 73.8168 179.943 73.9691 180.439 74.2738C180.934 74.5785 181.319 75.0063 181.593 75.5572C181.867 76.1081 182.004 76.7513 182.004 77.4869C182.004 78.2193 181.867 78.8595 181.593 79.4073C181.319 79.9551 180.934 80.3814 180.439 80.6861C179.943 80.9908 179.363 81.1431 178.698 81.1431ZM178.703 79.9844C179.134 79.9844 179.491 79.8705 179.774 79.6428C180.057 79.415 180.267 79.1119 180.402 78.7333C180.54 78.3548 180.61 77.9377 180.61 77.4822C180.61 77.0298 180.54 76.6143 180.402 76.2358C180.267 75.8542 180.057 75.5479 179.774 75.3171C179.491 75.0863 179.134 74.9709 178.703 74.9709C178.269 74.9709 177.909 75.0863 177.623 75.3171C177.34 75.5479 177.129 75.8542 176.99 76.2358C176.855 76.6143 176.787 77.0298 176.787 77.4822C176.787 77.9377 176.855 78.3548 176.99 78.7333C177.129 79.1119 177.34 79.415 177.623 79.6428C177.909 79.8705 178.269 79.9844 178.703 79.9844ZM186.531 81.1431C185.845 81.1431 185.254 80.9877 184.759 80.6768C184.266 80.3629 183.888 79.9305 183.623 79.3796C183.358 78.8287 183.226 78.1978 183.226 77.4869C183.226 76.7667 183.361 76.1312 183.632 75.5803C183.903 75.0263 184.285 74.5939 184.777 74.283C185.27 73.9722 185.85 73.8168 186.518 73.8168C187.056 73.8168 187.536 73.9168 187.958 74.1168C188.38 74.3138 188.72 74.5908 188.978 74.9478C189.24 75.3048 189.395 75.7218 189.444 76.1989H188.101C188.027 75.8665 187.858 75.5803 187.593 75.3402C187.332 75.1001 186.981 74.9801 186.541 74.9801C186.156 74.9801 185.819 75.0817 185.53 75.2848C185.243 75.4848 185.02 75.7711 184.86 76.1435C184.7 76.5128 184.62 76.9498 184.62 77.4545C184.62 77.9716 184.699 78.4179 184.856 78.7933C185.013 79.1688 185.234 79.4596 185.52 79.6658C185.81 79.872 186.15 79.9751 186.541 79.9751C186.802 79.9751 187.039 79.9274 187.252 79.832C187.467 79.7335 187.647 79.5935 187.792 79.4119C187.939 79.2304 188.043 79.0118 188.101 78.7564H189.444C189.395 79.215 189.246 79.6243 188.997 79.9844C188.747 80.3445 188.413 80.6276 187.995 80.8338C187.579 81.04 187.092 81.1431 186.531 81.1431ZM193.907 81.1431C193.243 81.1431 192.663 80.9908 192.167 80.6861C191.672 80.3814 191.287 79.9551 191.013 79.4073C190.739 78.8595 190.602 78.2193 190.602 77.4869C190.602 76.7513 190.739 76.1081 191.013 75.5572C191.287 75.0063 191.672 74.5785 192.167 74.2738C192.663 73.9691 193.243 73.8168 193.907 73.8168C194.572 73.8168 195.152 73.9691 195.648 74.2738C196.143 74.5785 196.528 75.0063 196.802 75.5572C197.076 76.1081 197.213 76.7513 197.213 77.4869C197.213 78.2193 197.076 78.8595 196.802 79.4073C196.528 79.9551 196.143 80.3814 195.648 80.6861C195.152 80.9908 194.572 81.1431 193.907 81.1431ZM193.912 79.9844C194.343 79.9844 194.7 79.8705 194.983 79.6428C195.266 79.415 195.476 79.1119 195.611 78.7333C195.749 78.3548 195.819 77.9377 195.819 77.4822C195.819 77.0298 195.749 76.6143 195.611 76.2358C195.476 75.8542 195.266 75.5479 194.983 75.3171C194.7 75.0863 194.343 74.9709 193.912 74.9709C193.478 74.9709 193.118 75.0863 192.832 75.3171C192.549 75.5479 192.338 75.8542 192.199 76.2358C192.064 76.6143 191.996 77.0298 191.996 77.4822C191.996 77.9377 192.064 78.3548 192.199 78.7333C192.338 79.1119 192.549 79.415 192.832 79.6428C193.118 79.8705 193.478 79.9844 193.912 79.9844ZM139.655 103.545V113H138.344L133.538 106.066H133.45V113H132.024V103.545H133.344L138.154 110.489H138.242V103.545H139.655ZM144.612 113.143C143.947 113.143 143.367 112.991 142.871 112.686C142.376 112.381 141.991 111.955 141.717 111.407C141.443 110.859 141.306 110.219 141.306 109.487C141.306 108.751 141.443 108.108 141.717 107.557C141.991 107.006 142.376 106.578 142.871 106.274C143.367 105.969 143.947 105.817 144.612 105.817C145.276 105.817 145.856 105.969 146.352 106.274C146.847 106.578 147.232 107.006 147.506 107.557C147.78 108.108 147.917 108.751 147.917 109.487C147.917 110.219 147.78 110.859 147.506 111.407C147.232 111.955 146.847 112.381 146.352 112.686C145.856 112.991 145.276 113.143 144.612 113.143ZM144.616 111.984C145.047 111.984 145.404 111.871 145.687 111.643C145.97 111.415 146.18 111.112 146.315 110.733C146.454 110.355 146.523 109.938 146.523 109.482C146.523 109.03 146.454 108.614 146.315 108.236C146.18 107.854 145.97 107.548 145.687 107.317C145.404 107.086 145.047 106.971 144.616 106.971C144.182 106.971 143.822 107.086 143.536 107.317C143.253 107.548 143.042 107.854 142.903 108.236C142.768 108.614 142.7 109.03 142.7 109.482C142.7 109.938 142.768 110.355 142.903 110.733C143.042 111.112 143.253 111.415 143.536 111.643C143.822 111.871 144.182 111.984 144.616 111.984ZM154.278 103.545V113H152.898V103.545H154.278ZM159.122 113.143C158.458 113.143 157.877 112.991 157.382 112.686C156.886 112.381 156.502 111.955 156.228 111.407C155.954 110.859 155.817 110.219 155.817 109.487C155.817 108.751 155.954 108.108 156.228 107.557C156.502 107.006 156.886 106.578 157.382 106.274C157.877 105.969 158.458 105.817 159.122 105.817C159.787 105.817 160.367 105.969 160.863 106.274C161.358 106.578 161.743 107.006 162.017 107.557C162.291 108.108 162.428 108.751 162.428 109.487C162.428 110.219 162.291 110.859 162.017 111.407C161.743 111.955 161.358 112.381 160.863 112.686C160.367 112.991 159.787 113.143 159.122 113.143ZM159.127 111.984C159.558 111.984 159.915 111.871 160.198 111.643C160.481 111.415 160.69 111.112 160.826 110.733C160.964 110.355 161.034 109.938 161.034 109.482C161.034 109.03 160.964 108.614 160.826 108.236C160.69 107.854 160.481 107.548 160.198 107.317C159.915 107.086 159.558 106.971 159.127 106.971C158.693 106.971 158.333 107.086 158.047 107.317C157.764 107.548 157.553 107.854 157.414 108.236C157.279 108.614 157.211 109.03 157.211 109.482C157.211 109.938 157.279 110.355 157.414 110.733C157.553 111.112 157.764 111.415 158.047 111.643C158.333 111.871 158.693 111.984 159.127 111.984ZM171.901 110.059V105.909H173.286V113H171.928V111.772H171.855C171.691 112.151 171.43 112.466 171.07 112.718C170.713 112.968 170.268 113.092 169.736 113.092C169.28 113.092 168.877 112.992 168.526 112.792C168.178 112.589 167.904 112.289 167.704 111.892C167.507 111.495 167.409 111.004 167.409 110.419V105.909H168.789V110.253C168.789 110.736 168.923 111.121 169.191 111.407C169.459 111.694 169.806 111.837 170.234 111.837C170.493 111.837 170.75 111.772 171.005 111.643C171.264 111.513 171.478 111.318 171.647 111.056C171.819 110.795 171.904 110.462 171.901 110.059ZM180.454 107.64L179.203 107.862C179.15 107.702 179.067 107.549 178.954 107.405C178.843 107.26 178.692 107.142 178.501 107.049C178.31 106.957 178.072 106.911 177.786 106.911C177.395 106.911 177.068 106.999 176.807 107.174C176.545 107.346 176.414 107.569 176.414 107.843C176.414 108.08 176.502 108.271 176.678 108.416C176.853 108.56 177.136 108.679 177.527 108.771L178.653 109.03C179.306 109.181 179.792 109.413 180.112 109.727C180.432 110.041 180.592 110.449 180.592 110.95C180.592 111.375 180.469 111.754 180.223 112.086C179.98 112.415 179.64 112.674 179.203 112.862C178.769 113.049 178.266 113.143 177.693 113.143C176.899 113.143 176.251 112.974 175.75 112.635C175.248 112.294 174.94 111.809 174.826 111.181L176.161 110.978C176.244 111.326 176.414 111.589 176.673 111.767C176.932 111.943 177.269 112.031 177.684 112.031C178.136 112.031 178.498 111.937 178.769 111.749C179.04 111.558 179.175 111.326 179.175 111.052C179.175 110.83 179.092 110.644 178.926 110.493C178.763 110.342 178.512 110.229 178.173 110.152L176.973 109.888C176.311 109.738 175.822 109.498 175.505 109.168C175.191 108.839 175.034 108.422 175.034 107.917C175.034 107.499 175.151 107.132 175.385 106.819C175.619 106.505 175.942 106.26 176.354 106.085C176.767 105.906 177.239 105.817 177.772 105.817C178.538 105.817 179.141 105.983 179.581 106.315C180.021 106.645 180.312 107.086 180.454 107.64ZM185.097 113.143C184.432 113.143 183.852 112.991 183.356 112.686C182.861 112.381 182.476 111.955 182.202 111.407C181.928 110.859 181.792 110.219 181.792 109.487C181.792 108.751 181.928 108.108 182.202 107.557C182.476 107.006 182.861 106.578 183.356 106.274C183.852 105.969 184.432 105.817 185.097 105.817C185.762 105.817 186.342 105.969 186.837 106.274C187.333 106.578 187.718 107.006 187.991 107.557C188.265 108.108 188.402 108.751 188.402 109.487C188.402 110.219 188.265 110.859 187.991 111.407C187.718 111.955 187.333 112.381 186.837 112.686C186.342 112.991 185.762 113.143 185.097 113.143ZM185.102 111.984C185.532 111.984 185.889 111.871 186.173 111.643C186.456 111.415 186.665 111.112 186.8 110.733C186.939 110.355 187.008 109.938 187.008 109.482C187.008 109.03 186.939 108.614 186.8 108.236C186.665 107.854 186.456 107.548 186.173 107.317C185.889 107.086 185.532 106.971 185.102 106.971C184.668 106.971 184.307 107.086 184.021 107.317C183.738 107.548 183.527 107.854 183.389 108.236C183.253 108.614 183.186 109.03 183.186 109.482C183.186 109.938 183.253 110.355 183.389 110.733C183.527 111.112 183.738 111.415 184.021 111.643C184.307 111.871 184.668 111.984 185.102 111.984Z" fill="black"/>
<line y1="-1.5" x2="101.093" y2="-1.5" transform="matrix(0.999906 0.0137105 -0.00418556 0.999991 0 46)" stroke="#32FF00" stroke-width="3"/>
<line y1="-1.5" x2="101.093" y2="-1.5" transform="matrix(0.999906 0.0137105 -0.00418556 0.999991 222 47)" stroke="#FF0000" stroke-width="3"/>
<line y1="-1.5" x2="101.093" y2="-1.5" transform="matrix(0.999904 0.0138451 -0.00414486 0.999991 0 77)" stroke="#51CC33" stroke-width="3"/>
<line y1="-1.5" x2="101.093" y2="-1.5" transform="matrix(0.999904 0.0138451 -0.00414486 0.999991 222 78)" stroke="#CC3333" stroke-width="3"/>
<line y1="-1.5" x2="101.093" y2="-1.5" transform="matrix(0.999904 0.0138451 -0.00414486 0.999991 0 110)" stroke="#68A659" stroke-width="3"/>
<line y1="-1.5" x2="101.093" y2="-1.5" transform="matrix(0.999904 0.0138451 -0.00414486 0.999991 222 111)" stroke="#A65959" stroke-width="3"/>
</svg>
