<svg width="364" height="127" viewBox="0 0 364 127" fill="none" xmlns="http://www.w3.org/2000/svg">
<path d="M153.697 4.45455H156.332V13.9574C156.332 14.9991 156.086 15.9152 155.594 16.706C155.106 17.4967 154.42 18.1146 153.534 18.5597C152.649 19 151.614 19.2202 150.43 19.2202C149.242 19.2202 148.205 19 147.32 18.5597C146.434 18.1146 145.748 17.4967 145.26 16.706C144.772 15.9152 144.528 14.9991 144.528 13.9574V4.45455H147.163V13.7372C147.163 14.3433 147.296 14.883 147.561 15.3565C147.831 15.83 148.21 16.2017 148.697 16.4716C149.185 16.7367 149.763 16.8693 150.43 16.8693C151.098 16.8693 151.676 16.7367 152.163 16.4716C152.656 16.2017 153.035 15.83 153.3 15.3565C153.565 14.883 153.697 14.3433 153.697 13.7372V4.45455ZM167.705 10.9744L165.361 11.2301C165.295 10.9934 165.179 10.7708 165.013 10.5625C164.852 10.3542 164.634 10.1861 164.36 10.0582C164.085 9.9304 163.749 9.86648 163.351 9.86648C162.816 9.86648 162.366 9.98248 162.002 10.2145C161.642 10.4465 161.464 10.7472 161.469 11.1165C161.464 11.4337 161.58 11.6918 161.817 11.8906C162.059 12.0895 162.456 12.2528 163.01 12.3807L164.871 12.7784C165.903 13.0009 166.67 13.3537 167.172 13.8366C167.679 14.3196 167.935 14.9517 167.939 15.733C167.935 16.4195 167.733 17.0256 167.336 17.5511C166.943 18.072 166.396 18.4792 165.695 18.7727C164.994 19.0663 164.189 19.2131 163.28 19.2131C161.945 19.2131 160.87 18.9337 160.056 18.375C159.241 17.8116 158.756 17.0279 158.6 16.0241L161.107 15.7827C161.221 16.2751 161.462 16.6468 161.831 16.8977C162.201 17.1487 162.681 17.2741 163.273 17.2741C163.884 17.2741 164.374 17.1487 164.743 16.8977C165.117 16.6468 165.304 16.3366 165.304 15.9673C165.304 15.6548 165.184 15.3968 164.942 15.1932C164.705 14.9896 164.336 14.8333 163.834 14.7244L161.973 14.3338C160.927 14.116 160.153 13.7491 159.651 13.233C159.149 12.7121 158.9 12.054 158.905 11.2585C158.9 10.5862 159.083 10.0038 159.452 9.51136C159.826 9.0142 160.345 8.63068 161.007 8.3608C161.675 8.08617 162.444 7.94886 163.316 7.94886C164.594 7.94886 165.6 8.22112 166.334 8.76562C167.073 9.31013 167.53 10.0464 167.705 10.9744ZM174.818 19.2131C173.752 19.2131 172.829 18.9787 172.048 18.5099C171.267 18.0412 170.661 17.3854 170.23 16.5426C169.804 15.6998 169.591 14.715 169.591 13.5881C169.591 12.4612 169.804 11.474 170.23 10.6264C170.661 9.77888 171.267 9.12074 172.048 8.65199C172.829 8.18324 173.752 7.94886 174.818 7.94886C175.883 7.94886 176.806 8.18324 177.588 8.65199C178.369 9.12074 178.973 9.77888 179.399 10.6264C179.83 11.474 180.045 12.4612 180.045 13.5881C180.045 14.715 179.83 15.6998 179.399 16.5426C178.973 17.3854 178.369 18.0412 177.588 18.5099C176.806 18.9787 175.883 19.2131 174.818 19.2131ZM174.832 17.1534C175.41 17.1534 175.893 16.9948 176.281 16.6776C176.669 16.3556 176.958 15.9247 177.147 15.3849C177.342 14.8452 177.439 14.2438 177.439 13.581C177.439 12.9134 177.342 12.3097 177.147 11.7699C176.958 11.2254 176.669 10.7921 176.281 10.4702C175.893 10.1482 175.41 9.98722 174.832 9.98722C174.24 9.98722 173.748 10.1482 173.355 10.4702C172.967 10.7921 172.675 11.2254 172.481 11.7699C172.292 12.3097 172.197 12.9134 172.197 13.581C172.197 14.2438 172.292 14.8452 172.481 15.3849C172.675 15.9247 172.967 16.3556 173.355 16.6776C173.748 16.9948 174.24 17.1534 174.832 17.1534Z" fill="black"/>
<path d="M139.825 39.5455H141.556L144.566 46.8949H144.677L147.687 39.5455H149.418V49H148.061V42.1584H147.973L145.185 48.9862H144.058L141.27 42.1538H141.182V49H139.825V39.5455ZM155.873 46.0593V41.9091H157.258V49H155.901V47.772H155.827C155.664 48.1506 155.402 48.466 155.042 48.7184C154.685 48.9677 154.24 49.0923 153.708 49.0923C153.252 49.0923 152.849 48.9923 152.498 48.7923C152.15 48.5891 151.877 48.2891 151.676 47.892C151.48 47.495 151.381 47.0041 151.381 46.4194V41.9091H152.761V46.2532C152.761 46.7364 152.895 47.1211 153.163 47.4073C153.431 47.6935 153.779 47.8366 154.206 47.8366C154.465 47.8366 154.722 47.772 154.977 47.6428C155.236 47.5135 155.45 47.3181 155.619 47.0565C155.791 46.7949 155.876 46.4625 155.873 46.0593ZM162.099 49.1431C161.413 49.1431 160.822 48.9877 160.327 48.6768C159.834 48.3629 159.456 47.9305 159.191 47.3796C158.926 46.8287 158.794 46.1978 158.794 45.4869C158.794 44.7667 158.929 44.1312 159.2 43.5803C159.471 43.0263 159.853 42.5939 160.345 42.283C160.838 41.9722 161.418 41.8168 162.085 41.8168C162.624 41.8168 163.104 41.9168 163.526 42.1168C163.947 42.3138 164.288 42.5908 164.546 42.9478C164.808 43.3048 164.963 43.7218 165.012 44.1989H163.669C163.595 43.8665 163.426 43.5803 163.161 43.3402C162.9 43.1001 162.549 42.9801 162.109 42.9801C161.724 42.9801 161.387 43.0817 161.098 43.2848C160.811 43.4848 160.588 43.7711 160.428 44.1435C160.268 44.5128 160.188 44.9498 160.188 45.4545C160.188 45.9716 160.267 46.4179 160.424 46.7933C160.581 47.1688 160.802 47.4596 161.088 47.6658C161.378 47.872 161.718 47.9751 162.109 47.9751C162.37 47.9751 162.607 47.9274 162.82 47.832C163.035 47.7335 163.215 47.5935 163.36 47.4119C163.507 47.2304 163.61 47.0118 163.669 46.7564H165.012C164.963 47.215 164.814 47.6243 164.565 47.9844C164.315 48.3445 163.981 48.6276 163.563 48.8338C163.147 49.04 162.659 49.1431 162.099 49.1431ZM167.869 44.7898V49H166.488V39.5455H167.85V43.0632H167.938C168.104 42.6816 168.358 42.3784 168.7 42.1538C169.041 41.9291 169.488 41.8168 170.039 41.8168C170.525 41.8168 170.95 41.9168 171.313 42.1168C171.679 42.3169 171.962 42.6154 172.162 43.0124C172.365 43.4064 172.467 43.8988 172.467 44.4897V49H171.086V44.6559C171.086 44.1358 170.953 43.7326 170.685 43.4464C170.417 43.1571 170.045 43.0124 169.568 43.0124C169.241 43.0124 168.949 43.0817 168.691 43.2202C168.435 43.3587 168.233 43.5618 168.086 43.8295C167.941 44.0942 167.869 44.4143 167.869 44.7898ZM177.296 49.1431C176.631 49.1431 176.051 48.9908 175.555 48.6861C175.06 48.3814 174.675 47.9551 174.401 47.4073C174.127 46.8595 173.99 46.2193 173.99 45.4869C173.99 44.7513 174.127 44.1081 174.401 43.5572C174.675 43.0063 175.06 42.5785 175.555 42.2738C176.051 41.9691 176.631 41.8168 177.296 41.8168C177.96 41.8168 178.541 41.9691 179.036 42.2738C179.532 42.5785 179.916 43.0063 180.19 43.5572C180.464 44.1081 180.601 44.7513 180.601 45.4869C180.601 46.2193 180.464 46.8595 180.19 47.4073C179.916 47.9551 179.532 48.3814 179.036 48.6861C178.541 48.9908 177.96 49.1431 177.296 49.1431ZM177.3 47.9844C177.731 47.9844 178.088 47.8705 178.371 47.6428C178.654 47.415 178.864 47.1119 178.999 46.7333C179.138 46.3548 179.207 45.9377 179.207 45.4822C179.207 45.0298 179.138 44.6143 178.999 44.2358C178.864 43.8542 178.654 43.5479 178.371 43.3171C178.088 43.0863 177.731 42.9709 177.3 42.9709C176.866 42.9709 176.506 43.0863 176.22 43.3171C175.937 43.5479 175.726 43.8542 175.588 44.2358C175.452 44.6143 175.384 45.0298 175.384 45.4822C175.384 45.9377 175.452 46.3548 175.588 46.7333C175.726 47.1119 175.937 47.415 176.22 47.6428C176.506 47.8705 176.866 47.9844 177.3 47.9844ZM141.786 71.5455H143.517L146.527 78.8949H146.638L149.648 71.5455H151.379V81H150.022V74.1584H149.934L147.146 80.9862H146.02L143.231 74.1538H143.144V81H141.786V71.5455ZM156.399 81.1431C155.7 81.1431 155.098 80.9938 154.594 80.6953C154.092 80.3937 153.704 79.9705 153.43 79.4258C153.159 78.878 153.024 78.2363 153.024 77.5007C153.024 76.7744 153.159 76.1342 153.43 75.5803C153.704 75.0263 154.086 74.5939 154.575 74.283C155.067 73.9722 155.643 73.8168 156.302 73.8168C156.702 73.8168 157.09 73.8829 157.465 74.0153C157.84 74.1476 158.177 74.3554 158.476 74.6385C158.775 74.9216 159.01 75.2894 159.182 75.7418C159.355 76.1912 159.441 76.7375 159.441 77.3807V77.87H153.804V76.8359H158.088C158.088 76.4728 158.014 76.1512 157.867 75.8711C157.719 75.5879 157.511 75.3648 157.243 75.2017C156.979 75.0386 156.668 74.957 156.311 74.957C155.923 74.957 155.585 75.0524 155.295 75.2433C155.009 75.431 154.787 75.6772 154.63 75.9819C154.477 76.2835 154.4 76.6113 154.4 76.9652V77.7731C154.4 78.247 154.483 78.6502 154.649 78.9826C154.818 79.315 155.054 79.5689 155.355 79.7443C155.657 79.9167 156.009 80.0028 156.412 80.0028C156.674 80.0028 156.913 79.9659 157.128 79.892C157.343 79.8151 157.53 79.7012 157.687 79.5504C157.844 79.3996 157.964 79.2134 158.047 78.9918L159.353 79.2273C159.248 79.612 159.061 79.949 158.79 80.2383C158.522 80.5245 158.185 80.7476 157.779 80.9077C157.376 81.0646 156.916 81.1431 156.399 81.1431ZM163.627 81.1385C163.054 81.1385 162.543 80.9923 162.094 80.6999C161.648 80.4045 161.297 79.9844 161.042 79.4396C160.789 78.8918 160.663 78.2347 160.663 77.4684C160.663 76.7021 160.791 76.0465 161.046 75.5018C161.305 74.957 161.659 74.54 162.108 74.2507C162.557 73.9614 163.067 73.8168 163.636 73.8168C164.076 73.8168 164.43 73.8906 164.698 74.0384C164.969 74.183 165.178 74.3523 165.326 74.5462C165.476 74.7401 165.593 74.9109 165.677 75.0586H165.76V71.5455H167.14V81H165.792V79.8967H165.677C165.593 80.0475 165.473 80.2198 165.316 80.4137C165.163 80.6076 164.95 80.7769 164.679 80.9215C164.409 81.0662 164.058 81.1385 163.627 81.1385ZM163.932 79.9613C164.329 79.9613 164.664 79.8567 164.938 79.6474C165.215 79.435 165.424 79.1411 165.566 78.7656C165.71 78.3902 165.783 77.9531 165.783 77.4545C165.783 76.9621 165.712 76.5312 165.57 76.1619C165.429 75.7926 165.221 75.5049 164.947 75.2987C164.673 75.0924 164.335 74.9893 163.932 74.9893C163.516 74.9893 163.17 75.0971 162.893 75.3125C162.616 75.5279 162.407 75.8219 162.265 76.1942C162.126 76.5666 162.057 76.9867 162.057 77.4545C162.057 77.9285 162.128 78.3548 162.27 78.7333C162.411 79.1119 162.62 79.4119 162.897 79.6335C163.177 79.852 163.522 79.9613 163.932 79.9613ZM169.11 81V73.9091H170.49V81H169.11ZM169.807 72.815C169.567 72.815 169.361 72.735 169.189 72.5749C169.019 72.4118 168.935 72.2179 168.935 71.9933C168.935 71.7655 169.019 71.5716 169.189 71.4116C169.361 71.2485 169.567 71.1669 169.807 71.1669C170.047 71.1669 170.252 71.2485 170.421 71.4116C170.593 71.5716 170.68 71.7655 170.68 71.9933C170.68 72.2179 170.593 72.4118 170.421 72.5749C170.252 72.735 170.047 72.815 169.807 72.815ZM175.334 81.1431C174.669 81.1431 174.089 80.9908 173.594 80.6861C173.098 80.3814 172.714 79.9551 172.44 79.4073C172.166 78.8595 172.029 78.2193 172.029 77.4869C172.029 76.7513 172.166 76.1081 172.44 75.5572C172.714 75.0063 173.098 74.5785 173.594 74.2738C174.089 73.9691 174.669 73.8168 175.334 73.8168C175.999 73.8168 176.579 73.9691 177.075 74.2738C177.57 74.5785 177.955 75.0063 178.229 75.5572C178.503 76.1081 178.64 76.7513 178.64 77.4869C178.64 78.2193 178.503 78.8595 178.229 79.4073C177.955 79.9551 177.57 80.3814 177.075 80.6861C176.579 80.9908 175.999 81.1431 175.334 81.1431ZM175.339 79.9844C175.77 79.9844 176.127 79.8705 176.41 79.6428C176.693 79.415 176.902 79.1119 177.038 78.7333C177.176 78.3548 177.245 77.9377 177.245 77.4822C177.245 77.0298 177.176 76.6143 177.038 76.2358C176.902 75.8542 176.693 75.5479 176.41 75.3171C176.127 75.0863 175.77 74.9709 175.339 74.9709C174.905 74.9709 174.545 75.0863 174.259 75.3171C173.975 75.5479 173.765 75.8542 173.626 76.2358C173.491 76.6143 173.423 77.0298 173.423 77.4822C173.423 77.9377 173.491 78.3548 173.626 78.7333C173.765 79.1119 173.975 79.415 174.259 79.6428C174.545 79.8705 174.905 79.9844 175.339 79.9844ZM145.404 113V103.545H148.774C149.51 103.545 150.119 103.679 150.603 103.947C151.086 104.215 151.447 104.581 151.687 105.046C151.928 105.507 152.048 106.028 152.048 106.606C152.048 107.188 151.926 107.711 151.683 108.176C151.443 108.637 151.08 109.004 150.593 109.275C150.11 109.542 149.502 109.676 148.77 109.676H146.452V108.467H148.641C149.105 108.467 149.482 108.387 149.772 108.227C150.061 108.063 150.273 107.842 150.409 107.562C150.544 107.282 150.612 106.963 150.612 106.606C150.612 106.249 150.544 105.932 150.409 105.655C150.273 105.378 150.059 105.161 149.767 105.004C149.478 104.847 149.096 104.769 148.622 104.769H146.831V113H145.404ZM156.507 113.143C155.842 113.143 155.262 112.991 154.767 112.686C154.271 112.381 153.886 111.955 153.613 111.407C153.339 110.859 153.202 110.219 153.202 109.487C153.202 108.751 153.339 108.108 153.613 107.557C153.886 107.006 154.271 106.578 154.767 106.274C155.262 105.969 155.842 105.817 156.507 105.817C157.172 105.817 157.752 105.969 158.247 106.274C158.743 106.578 159.128 107.006 159.402 107.557C159.676 108.108 159.812 108.751 159.812 109.487C159.812 110.219 159.676 110.859 159.402 111.407C159.128 111.955 158.743 112.381 158.247 112.686C157.752 112.991 157.172 113.143 156.507 113.143ZM156.512 111.984C156.943 111.984 157.3 111.871 157.583 111.643C157.866 111.415 158.075 111.112 158.211 110.733C158.349 110.355 158.418 109.938 158.418 109.482C158.418 109.03 158.349 108.614 158.211 108.236C158.075 107.854 157.866 107.548 157.583 107.317C157.3 107.086 156.943 106.971 156.512 106.971C156.078 106.971 155.718 107.086 155.431 107.317C155.148 107.548 154.937 107.854 154.799 108.236C154.664 108.614 154.596 109.03 154.596 109.482C154.596 109.938 154.664 110.355 154.799 110.733C154.937 111.112 155.148 111.415 155.431 111.643C155.718 111.871 156.078 111.984 156.512 111.984ZM164.34 113.143C163.654 113.143 163.063 112.988 162.567 112.677C162.075 112.363 161.696 111.931 161.432 111.38C161.167 110.829 161.035 110.198 161.035 109.487C161.035 108.767 161.17 108.131 161.441 107.58C161.712 107.026 162.093 106.594 162.586 106.283C163.078 105.972 163.658 105.817 164.326 105.817C164.865 105.817 165.345 105.917 165.767 106.117C166.188 106.314 166.528 106.591 166.787 106.948C167.048 107.305 167.204 107.722 167.253 108.199H165.91C165.836 107.866 165.667 107.58 165.402 107.34C165.14 107.1 164.789 106.98 164.349 106.98C163.965 106.98 163.628 107.082 163.338 107.285C163.052 107.485 162.829 107.771 162.669 108.143C162.509 108.513 162.429 108.95 162.429 109.455C162.429 109.972 162.507 110.418 162.664 110.793C162.821 111.169 163.043 111.46 163.329 111.666C163.618 111.872 163.958 111.975 164.349 111.975C164.611 111.975 164.848 111.927 165.06 111.832C165.276 111.734 165.456 111.594 165.6 111.412C165.748 111.23 165.851 111.012 165.91 110.756H167.253C167.204 111.215 167.055 111.624 166.805 111.984C166.556 112.344 166.222 112.628 165.803 112.834C165.388 113.04 164.9 113.143 164.34 113.143ZM171.716 113.143C171.051 113.143 170.471 112.991 169.976 112.686C169.48 112.381 169.095 111.955 168.822 111.407C168.548 110.859 168.411 110.219 168.411 109.487C168.411 108.751 168.548 108.108 168.822 107.557C169.095 107.006 169.48 106.578 169.976 106.274C170.471 105.969 171.051 105.817 171.716 105.817C172.381 105.817 172.961 105.969 173.456 106.274C173.952 106.578 174.337 107.006 174.611 107.557C174.884 108.108 175.021 108.751 175.021 109.487C175.021 110.219 174.884 110.859 174.611 111.407C174.337 111.955 173.952 112.381 173.456 112.686C172.961 112.991 172.381 113.143 171.716 113.143ZM171.721 111.984C172.152 111.984 172.509 111.871 172.792 111.643C173.075 111.415 173.284 111.112 173.42 110.733C173.558 110.355 173.627 109.938 173.627 109.482C173.627 109.03 173.558 108.614 173.42 108.236C173.284 107.854 173.075 107.548 172.792 107.317C172.509 107.086 172.152 106.971 171.721 106.971C171.287 106.971 170.927 107.086 170.64 107.317C170.357 107.548 170.146 107.854 170.008 108.236C169.873 108.614 169.805 109.03 169.805 109.482C169.805 109.938 169.873 110.355 170.008 110.733C170.146 111.112 170.357 111.415 170.64 111.643C170.927 111.871 171.287 111.984 171.721 111.984Z" fill="black"/>
<line y1="-1.5" x2="101.093" y2="-1.5" transform="matrix(0.999906 0.0137105 -0.00418556 0.999991 0 46)" stroke="#32FF00" stroke-width="3"/>
<line y1="-1.5" x2="101.093" y2="-1.5" transform="matrix(0.999906 0.0137105 -0.00418556 0.999991 222 47)" stroke="#FF0000" stroke-width="3"/>
<line y1="-1.5" x2="101.093" y2="-1.5" transform="matrix(0.999904 0.0138451 -0.00414486 0.999991 0 77)" stroke="#51CC33" stroke-width="3"/>
<line y1="-1.5" x2="101.093" y2="-1.5" transform="matrix(0.999904 0.0138451 -0.00414486 0.999991 222 78)" stroke="#CC3333" stroke-width="3"/>
<line y1="-1.5" x2="101.093" y2="-1.5" transform="matrix(0.999904 0.0138451 -0.00414486 0.999991 0 110)" stroke="#68A659" stroke-width="3"/>
<line y1="-1.5" x2="101.093" y2="-1.5" transform="matrix(0.999904 0.0138451 -0.00414486 0.999991 222 111)" stroke="#A65959" stroke-width="3"/>
</svg>
